<svg xmlns="http://www.w3.org/2000/svg">
<defs>
<font id="KTFJermilov-Solid" horiz-adv-x="541" >
  <font-face 
    font-family="KTF Jermilov Solid"
    font-weight="400"
    font-stretch="normal"
    units-per-em="1000"
    panose-1="0 0 5 0 0 0 0 0 0 0"
    ascent="800"
    descent="-200"
    cap-height="700"
    bbox="-272 -509 1348 953"
    underline-thickness="70"
    underline-position="-175"
    unicode-range="U+000D-FEFF"
  />
<missing-glyph horiz-adv-x="875" 
d="M177 394h-172v500h172v-345l172 151h201l-160 -151h-3l179 -155h-210l-179 152v-152zM543 591q0 2 2 4t5 2q2 0 4 -2t2 -4q0 -3 -2 -5t-4 -2q-7 0 -7 7zM563 591q0 2 2 4t5 2q2 0 4 -2t2 -4q0 -3 -2 -5t-4 -2q-7 0 -7 7zM550 512v1h1q7 0 7 7v37q0 6 -6 6h-1v2q8 0 12 7
h2v-52q0 -7 7 -7h1v-1h-23zM654 518.5q-8 8.5 -8 22.5t8 22.5t19 8.5q8 0 13 -4t5 -10t-5 -6q-4 0 -5 4q-1 3 -1.5 6.5t-2 5t-6.5 1.5q-17 0 -17 -23q0 -15 7 -22.5t16 -7.5t15 7l2 -2q-9 -11 -20 -11q-12 0 -20 8.5zM827.5 514.5q-3.5 4.5 -3.5 9.5q0 7 7 12t22 11l7 3v6
q0 6 -1 9q-2 4 -8 4q-7 0 -10 -3q-1 -1 -3 -9q-1 -4 -5 -4q-5 0 -5 5q0 6 7.5 10t15.5 4q17 0 17 -16v-36q0 -7 7 -7v-1h-15v6q-13 -8 -21 -8t-11.5 4.5zM484 512v1h1q6 0 6 7v43q0 6 -6 6h-1v2h23v-2h-1q-7 0 -7 -6v-33l26 27v6q0 6 -6 6h-1v2h22v-2q-7 0 -7 -6v-43
q0 -7 7 -7v-1h-22v1h1q6 0 6 7v32l-26 -27v-5q0 -7 7 -7h1v-1h-23zM583 513q7 0 7 7v43q0 6 -7 6v2h28q9 0 14 -4t5 -10q0 -5 -3.5 -9t-9.5 -5v-1q17 0 17 -14q0 -16 -21 -16h-30v1zM703 513q7 0 7 7v43q0 6 -7 6v2h22v-2q-7 0 -7 -6v-18q3 1 9 1q10 0 18.5 -5t8.5 -14
q0 -7 -5 -11t-14 -4h-32v1zM762 513q7 0 7 7v43q0 6 -7 6v2h22v-2q-7 0 -7 -6v-26l24 26l1 2q0 4 -5 4v2h19v-2q-5 -2 -11 -8l-12 -12l17 -28q4 -6 9 -8v-1h-22v1h1q5 0 5 4l-2 4l-14 22l-10 -11v-12q0 -7 7 -7v-1h-22v1zM607 544q8 0 11 3t3 9q0 12 -11 12h-7q-5 0 -5 -6
v-18h9zM860 521v26q-12 -5 -19 -10.5t-7 -13.5t9 -8t17 6zM728 515q5 0 8 1q8 2 8 13q0 14 -18 14q-6 0 -8 -1v-21q0 -6 6 -6h4zM611 515q14 0 14 12q0 14 -15 14h-12v-21q0 -5 4 -5h9zM212 0q-66 0 -114 26q-45 26 -71.5 70.5t-26.5 96.5q0 53 27.5 97.5t76 70.5t108.5 26

<glyph glyph-name=".notdef" horiz-adv-x="875" 
d="M177 394h-172v500h172v-345l172 151h201l-160 -151h-3l179 -155h-210l-179 152v-152zM543 591q0 2 2 4t5 2q2 0 4 -2t2 -4q0 -3 -2 -5t-4 -2q-7 0 -7 7zM563 591q0 2 2 4t5 2q2 0 4 -2t2 -4q0 -3 -2 -5t-4 -2q-7 0 -7 7zM550 512v1h1q7 0 7 7v37q0 6 -6 6h-1v2q8 0 12 7
h2v-52q0 -7 7 -7h1v-1h-23zM654 518.5q-8 8.5 -8 22.5t8 22.5t19 8.5q8 0 13 -4t5 -10t-5 -6q-4 0 -5 4q-1 3 -1.5 6.5t-2 5t-6.5 1.5q-17 0 -17 -23q0 -15 7 -22.5t16 -7.5t15 7l2 -2q-9 -11 -20 -11q-12 0 -20 8.5zM827.5 514.5q-3.5 4.5 -3.5 9.5q0 7 7 12t22 11l7 3v6
q0 6 -1 9q-2 4 -8 4q-7 0 -10 -3q-1 -1 -3 -9q-1 -4 -5 -4q-5 0 -5 5q0 6 7.5 10t15.5 4q17 0 17 -16v-36q0 -7 7 -7v-1h-15v6q-13 -8 -21 -8t-11.5 4.5zM484 512v1h1q6 0 6 7v43q0 6 -6 6h-1v2h23v-2h-1q-7 0 -7 -6v-33l26 27v6q0 6 -6 6h-1v2h22v-2q-7 0 -7 -6v-43
q0 -7 7 -7v-1h-22v1h1q6 0 6 7v32l-26 -27v-5q0 -7 7 -7h1v-1h-23zM583 513q7 0 7 7v43q0 6 -7 6v2h28q9 0 14 -4t5 -10q0 -5 -3.5 -9t-9.5 -5v-1q17 0 17 -14q0 -16 -21 -16h-30v1zM703 513q7 0 7 7v43q0 6 -7 6v2h22v-2q-7 0 -7 -6v-18q3 1 9 1q10 0 18.5 -5t8.5 -14
q0 -7 -5 -11t-14 -4h-32v1zM762 513q7 0 7 7v43q0 6 -7 6v2h22v-2q-7 0 -7 -6v-26l24 26l1 2q0 4 -5 4v2h19v-2q-5 -2 -11 -8l-12 -12l17 -28q4 -6 9 -8v-1h-22v1h1q5 0 5 4l-2 4l-14 22l-10 -11v-12q0 -7 7 -7v-1h-22v1zM607 544q8 0 11 3t3 9q0 12 -11 12h-7q-5 0 -5 -6
v-18h9zM860 521v26q-12 -5 -19 -10.5t-7 -13.5t9 -8t17 6zM728 515q5 0 8 1q8 2 8 13q0 14 -18 14q-6 0 -8 -1v-21q0 -6 6 -6h4zM611 515q14 0 14 12q0 14 -15 14h-12v-21q0 -5 4 -5h9zM212 0q-66 0 -114 26q-45 26 -71.5 70.5t-26.5 96.5q0 53 27.5 97.5t76 70.5t108.5 26
h363v-119h-337q-15 0 -30 -3q-25 -6 -38 -22t-13 -39q0 -41 36 -58q15 -7 45 -7h451q15 0 27.5 6t19.5 15v-160h-524zM386.5 182q-7.5 9 -7.5 22q0 14 8 22.5t18 8.5q11 0 18.5 -9t7.5 -22q0 -14 -8 -22.5t-18 -8.5q-11 0 -18.5 9zM511.5 182q-7.5 9 -7.5 22q0 14 8 22.5
t18 8.5q11 0 18.5 -9t7.5 -22q0 -14 -8 -22.5t-18 -8.5q-11 0 -18.5 9zM308 184q0 8 7 8q4 0 4 -5q0 -3 -1 -5t-1 -3q0 -2 2 -2q7 0 10 15.5t3 30.5q0 9 -7 9v1h43v-1q-7 0 -7 -7v-42q0 -7 7 -7v-1h-22v1q7 0 7 7v42q0 5 -5 5h-6q-4 0 -5 -2t-1 -8q0 -15 -4 -31t-13 -16
q-11 0 -11 11zM441 176q7 0 7 7v42q0 7 -7 7v1h28q19 0 19 -13q0 -5 -3.5 -9t-8.5 -5v-1q7 0 11.5 -3.5t4.5 -10.5q0 -16 -21 -16h-30v1zM562 184q0 8 7 8q2 0 3.5 -1.5t1.5 -3.5t-1.5 -4t-1.5 -4t2 -2q7 0 10 15.5t3 30.5q0 9 -7 9v1h43v-1q-7 0 -7 -7v-42q0 -7 7 -7v-1
h-22v1q7 0 7 7v42q0 5 -5 5h-6q-6 0 -6 -10q0 -15 -4 -31t-13 -16q-11 0 -11 11zM632 175v1h1q6 0 6 7v42q0 7 -6 7h-1v1h23v-1h-1q-7 0 -7 -7v-32l26 26v6q0 7 -6 7h-1v1h22v-1q-7 0 -7 -7v-42q0 -7 7 -7v-1h-22v1h1q6 0 6 7v32l-26 -27v-5q0 -7 7 -7h1v-1h-23zM710 176
q7 0 7 7v39q0 8 -5 8q-10 0 -15 -12h-2l4 15h44l4 -15h-2q-5 12 -15 12q-5 0 -5 -8v-39q0 -7 7 -7v-1h-22v1zM754 176q7 0 7 7v42q0 7 -7 7v1h22v-1q-7 0 -7 -7v-19h26v19q0 7 -7 7v1h22v-1q-7 0 -7 -7v-42q0 -7 7 -7v-1h-22v1q7 0 7 7v20h-26v-20q0 -7 7 -7v-1h-22v1z
M818 176q7 0 10 9l8 19q-5 0 -9.5 4.5t-4.5 10.5q0 8 6 11t16 3h29v-1q-7 0 -7 -7v-42q0 -7 7 -7v-1h-22v1q7 0 7 7v20h-13l-13 -28h-14v1zM422 204q0 28 -17 28q-8 0 -12.5 -8.5t-4.5 -19.5q0 -13 4.5 -20.5t12.5 -7.5q17 0 17 28zM542.5 184.5q4.5 8.5 4.5 19.5t-4.5 19.5
t-12.5 8.5t-12.5 -8.5t-4.5 -19.5q0 -13 4.5 -20.5t12.5 -7.5t12.5 8.5zM466 207q7 0 11 3q3 5 3 9q0 11 -12 11h-7q-5 0 -5 -5v-18h10zM858 206v18q0 6 -9 6q-18 0 -18 -12q0 -6 4 -9t10 -3h13zM469 177q14 0 14 13q0 14 -15 14h-12v-21q0 -6 5 -6h8z" />
    <glyph glyph-name=".null" horiz-adv-x="600" 
 />
    <glyph glyph-name="nonmarkingreturn" unicode="&#xd;" horiz-adv-x="600" 
 />
    <glyph glyph-name="space" unicode=" " horiz-adv-x="280" 
 />
    <glyph glyph-name="A" unicode="A" horiz-adv-x="543" 
d="M202 0q-63 0 -105 41t-42 104v129q0 63 42 104.5t105 41.5h141v125q0 20 -19 20h-108q-8 0 -13.5 -5t-5.5 -15v-38h-142v53q0 63 42 104t105 41h134q63 0 105 -41t42 -104v-560h-281zM343 140v140h-130q-8 0 -13 -5t-5 -14v-103q0 -8 5 -13t13 -5h130z" />
    <glyph glyph-name="A" unicode="a" horiz-adv-x="543" 
d="M202 0q-63 0 -105 41t-42 104v129q0 63 42 104.5t105 41.5h141v125q0 20 -19 20h-108q-8 0 -13.5 -5t-5.5 -15v-38h-142v53q0 63 42 104t105 41h134q63 0 105 -41t42 -104v-560h-281zM343 140v140h-130q-8 0 -13 -5t-5 -14v-103q0 -8 5 -13t13 -5h130z" />
    <glyph glyph-name="Aacute" unicode="&#xc1;" horiz-adv-x="543" 
d="M202 0q-63 0 -105 41t-42 104v129q0 63 42 104.5t105 41.5h141v125q0 20 -19 20h-108q-8 0 -13.5 -5t-5.5 -15v-38h-142v53q0 63 42 104t105 41h134q63 0 105 -41t42 -104v-560h-281zM343 140v140h-130q-8 0 -13 -5t-5 -14v-103q0 -8 5 -13t13 -5h130zM354 782h-160
l58 163h160z" />
    <glyph glyph-name="Aacute" unicode="&#xe1;" horiz-adv-x="543" 
d="M202 0q-63 0 -105 41t-42 104v129q0 63 42 104.5t105 41.5h141v125q0 20 -19 20h-108q-8 0 -13.5 -5t-5.5 -15v-38h-142v53q0 63 42 104t105 41h134q63 0 105 -41t42 -104v-560h-281zM343 140v140h-130q-8 0 -13 -5t-5 -14v-103q0 -8 5 -13t13 -5h130zM354 782h-160
l58 163h160z" />
    <glyph glyph-name="Abreve" unicode="&#x102;" horiz-adv-x="543" 
d="M202 0q-63 0 -105 41t-42 104v129q0 63 42 104.5t105 41.5h141v125q0 20 -19 20h-108q-8 0 -13.5 -5t-5.5 -15v-38h-142v53q0 63 42 104t105 41h134q63 0 105 -41t42 -104v-560h-281zM343 140v140h-130q-8 0 -13 -5t-5 -14v-103q0 -8 5 -13t13 -5h130zM151 819
q-49 43 -61 126h136q1 -27 14 -41t32 -14t31.5 14t13.5 41h137q-13 -83 -62 -126t-121 -43q-71 0 -120 43z" />
    <glyph glyph-name="Abreve" unicode="&#x103;" horiz-adv-x="543" 
d="M202 0q-63 0 -105 41t-42 104v129q0 63 42 104.5t105 41.5h141v125q0 20 -19 20h-108q-8 0 -13.5 -5t-5.5 -15v-38h-142v53q0 63 42 104t105 41h134q63 0 105 -41t42 -104v-560h-281zM343 140v140h-130q-8 0 -13 -5t-5 -14v-103q0 -8 5 -13t13 -5h130zM151 819
q-49 43 -61 126h136q1 -27 14 -41t32 -14t31.5 14t13.5 41h137q-13 -83 -62 -126t-121 -43q-71 0 -120 43z" />
    <glyph glyph-name="uni01CD" unicode="&#x1cd;" horiz-adv-x="543" 
d="M202 0q-63 0 -105 41t-42 104v129q0 63 42 104.5t105 41.5h141v125q0 20 -19 20h-108q-8 0 -13.5 -5t-5.5 -15v-38h-142v53q0 63 42 104t105 41h134q63 0 105 -41t42 -104v-560h-281zM343 140v140h-130q-8 0 -13 -5t-5 -14v-103q0 -8 5 -13t13 -5h130zM272 869l38 76h147
l-83 -163h-205l-83 163h147z" />
    <glyph glyph-name="uni01CD" unicode="&#x1ce;" horiz-adv-x="543" 
d="M202 0q-63 0 -105 41t-42 104v129q0 63 42 104.5t105 41.5h141v125q0 20 -19 20h-108q-8 0 -13.5 -5t-5.5 -15v-38h-142v53q0 63 42 104t105 41h134q63 0 105 -41t42 -104v-560h-281zM343 140v140h-130q-8 0 -13 -5t-5 -14v-103q0 -8 5 -13t13 -5h130zM272 869l38 76h147
l-83 -163h-205l-83 163h147z" />
    <glyph glyph-name="Acircumflex" unicode="&#xc2;" horiz-adv-x="543" 
d="M202 0q-63 0 -105 41t-42 104v129q0 63 42 104.5t105 41.5h141v125q0 20 -19 20h-108q-8 0 -13.5 -5t-5.5 -15v-38h-142v53q0 63 42 104t105 41h134q63 0 105 -41t42 -104v-560h-281zM343 140v140h-130q-8 0 -13 -5t-5 -14v-103q0 -8 5 -13t13 -5h130zM374 945l83 -163
h-147l-38 76l-39 -76h-147l83 163h205z" />
    <glyph glyph-name="Acircumflex" unicode="&#xe2;" horiz-adv-x="543" 
d="M202 0q-63 0 -105 41t-42 104v129q0 63 42 104.5t105 41.5h141v125q0 20 -19 20h-108q-8 0 -13.5 -5t-5.5 -15v-38h-142v53q0 63 42 104t105 41h134q63 0 105 -41t42 -104v-560h-281zM343 140v140h-130q-8 0 -13 -5t-5 -14v-103q0 -8 5 -13t13 -5h130zM374 945l83 -163
h-147l-38 76l-39 -76h-147l83 163h205z" />
    <glyph glyph-name="Adieresis" unicode="&#xc4;" horiz-adv-x="543" 
d="M202 0q-63 0 -105 41t-42 104v129q0 63 42 104.5t105 41.5h141v125q0 20 -19 20h-108q-8 0 -13.5 -5t-5.5 -15v-38h-142v53q0 63 42 104t105 41h134q63 0 105 -41t42 -104v-560h-281zM343 140v140h-130q-8 0 -13 -5t-5 -14v-103q0 -8 5 -13t13 -5h130zM249 782h-154v163
h154v-163zM448 782h-154v163h154v-163z" />
    <glyph glyph-name="Adieresis" unicode="&#xe4;" horiz-adv-x="543" 
d="M202 0q-63 0 -105 41t-42 104v129q0 63 42 104.5t105 41.5h141v125q0 20 -19 20h-108q-8 0 -13.5 -5t-5.5 -15v-38h-142v53q0 63 42 104t105 41h134q63 0 105 -41t42 -104v-560h-281zM343 140v140h-130q-8 0 -13 -5t-5 -14v-103q0 -8 5 -13t13 -5h130zM249 782h-154v163
h154v-163zM448 782h-154v163h154v-163z" />
    <glyph glyph-name="uni1EA0" unicode="&#x1ea0;" horiz-adv-x="543" 
d="M202 0q-63 0 -105 41t-42 104v129q0 63 42 104.5t105 41.5h141v125q0 20 -19 20h-108q-8 0 -13.5 -5t-5.5 -15v-38h-142v53q0 63 42 104t105 41h134q63 0 105 -41t42 -104v-560h-281zM343 140v140h-130q-8 0 -13 -5t-5 -14v-103q0 -8 5 -13t13 -5h130zM346 -245h-154v164
h154v-164z" />
    <glyph glyph-name="uni1EA0" unicode="&#x1ea1;" horiz-adv-x="543" 
d="M202 0q-63 0 -105 41t-42 104v129q0 63 42 104.5t105 41.5h141v125q0 20 -19 20h-108q-8 0 -13.5 -5t-5.5 -15v-38h-142v53q0 63 42 104t105 41h134q63 0 105 -41t42 -104v-560h-281zM343 140v140h-130q-8 0 -13 -5t-5 -14v-103q0 -8 5 -13t13 -5h130zM346 -245h-154v164
h154v-164z" />
    <glyph glyph-name="Agrave" unicode="&#xc0;" horiz-adv-x="543" 
d="M202 0q-63 0 -105 41t-42 104v129q0 63 42 104.5t105 41.5h141v125q0 20 -19 20h-108q-8 0 -13.5 -5t-5.5 -15v-38h-142v53q0 63 42 104t105 41h134q63 0 105 -41t42 -104v-560h-281zM343 140v140h-130q-8 0 -13 -5t-5 -14v-103q0 -8 5 -13t13 -5h130zM294 945l58 -163
h-160l-58 163h160z" />
    <glyph glyph-name="Agrave" unicode="&#xe0;" horiz-adv-x="543" 
d="M202 0q-63 0 -105 41t-42 104v129q0 63 42 104.5t105 41.5h141v125q0 20 -19 20h-108q-8 0 -13.5 -5t-5.5 -15v-38h-142v53q0 63 42 104t105 41h134q63 0 105 -41t42 -104v-560h-281zM343 140v140h-130q-8 0 -13 -5t-5 -14v-103q0 -8 5 -13t13 -5h130zM294 945l58 -163
h-160l-58 163h160z" />
    <glyph glyph-name="Amacron" unicode="&#x100;" horiz-adv-x="543" 
d="M202 0q-63 0 -105 41t-42 104v129q0 63 42 104.5t105 41.5h141v125q0 20 -19 20h-108q-8 0 -13.5 -5t-5.5 -15v-38h-142v53q0 63 42 104t105 41h134q63 0 105 -41t42 -104v-560h-281zM343 140v140h-130q-8 0 -13 -5t-5 -14v-103q0 -8 5 -13t13 -5h130zM439 782h-334v126
h334v-126z" />
    <glyph glyph-name="Amacron" unicode="&#x101;" horiz-adv-x="543" 
d="M202 0q-63 0 -105 41t-42 104v129q0 63 42 104.5t105 41.5h141v125q0 20 -19 20h-108q-8 0 -13.5 -5t-5.5 -15v-38h-142v53q0 63 42 104t105 41h134q63 0 105 -41t42 -104v-560h-281zM343 140v140h-130q-8 0 -13 -5t-5 -14v-103q0 -8 5 -13t13 -5h130zM439 782h-334v126
h334v-126z" />
    <glyph glyph-name="Aogonek" unicode="&#x104;" horiz-adv-x="543" 
d="M439 -24q0 -23 32 -23h12v-126h-46q-60 0 -100 40t-40 100v33h-95q-63 0 -105 41t-42 104v129q0 63 42 104.5t105 41.5h141v125q0 20 -19 20h-108q-8 0 -13.5 -5t-5.5 -15v-38h-142v53q0 63 42 104t105 41h134q63 0 105 -41t42 -104v-560h-44v-24zM195 158q0 -8 5 -13
t13 -5h130v140h-130q-8 0 -13 -5t-5 -14v-103z" />
    <glyph glyph-name="Aogonek" unicode="&#x105;" horiz-adv-x="543" 
d="M439 -24q0 -23 32 -23h12v-126h-46q-60 0 -100 40t-40 100v33h-95q-63 0 -105 41t-42 104v129q0 63 42 104.5t105 41.5h141v125q0 20 -19 20h-108q-8 0 -13.5 -5t-5.5 -15v-38h-142v53q0 63 42 104t105 41h134q63 0 105 -41t42 -104v-560h-44v-24zM195 158q0 -8 5 -13
t13 -5h130v140h-130q-8 0 -13 -5t-5 -14v-103z" />
    <glyph glyph-name="Aring" unicode="&#xc5;" horiz-adv-x="543" 
d="M483 0h-281q-63 0 -105 41t-42 104v129q0 63 42 104.5t105 41.5h141v125q0 20 -19 20h-108q-8 0 -13.5 -5t-5.5 -15v-38h-142v53q0 63 42 104t105 41h20q-34 15 -56 46.5t-22 69.5q0 34 17.5 64t46.5 48t62 18q35 0 65 -17t48 -46.5t18 -63.5q0 -38 -21.5 -70.5
t-55.5 -48.5h12q63 0 105 -41t42 -104v-560zM252 843q-8 -8 -9 -21q2 -12 9.5 -20t19.5 -9q13 1 20.5 9t8.5 20q0 13 -8 21t-21 9q-12 -1 -20 -9zM343 140v140h-130q-8 0 -13 -5t-5 -14v-103q0 -8 5 -13t13 -5h130z" />
    <glyph glyph-name="Aring" unicode="&#xe5;" horiz-adv-x="543" 
d="M483 0h-281q-63 0 -105 41t-42 104v129q0 63 42 104.5t105 41.5h141v125q0 20 -19 20h-108q-8 0 -13.5 -5t-5.5 -15v-38h-142v53q0 63 42 104t105 41h20q-34 15 -56 46.5t-22 69.5q0 34 17.5 64t46.5 48t62 18q35 0 65 -17t48 -46.5t18 -63.5q0 -38 -21.5 -70.5
t-55.5 -48.5h12q63 0 105 -41t42 -104v-560zM252 843q-8 -8 -9 -21q2 -12 9.5 -20t19.5 -9q13 1 20.5 9t8.5 20q0 13 -8 21t-21 9q-12 -1 -20 -9zM343 140v140h-130q-8 0 -13 -5t-5 -14v-103q0 -8 5 -13t13 -5h130z" />
    <glyph glyph-name="Atilde" unicode="&#xc3;" horiz-adv-x="543" 
d="M288 793l-60 29q-2 1 -6 1q-5 0 -8 -3.5t-3 -8.5v-28h-127v38q0 58 33 93t81 35q28 0 58 -14l60 -29q4 -2 6 -2q5 0 8 3.5t3 9.5v28h127v-37q0 -58 -33 -93.5t-81 -35.5q-30 0 -58 14zM202 0q-63 0 -105 41t-42 104v129q0 63 42 104.5t105 41.5h141v125q0 20 -19 20h-108
q-8 0 -13.5 -5t-5.5 -15v-38h-142v53q0 63 42 104t105 41h134q63 0 105 -41t42 -104v-560h-281zM343 140v140h-130q-8 0 -13 -5t-5 -14v-103q0 -8 5 -13t13 -5h130z" />
    <glyph glyph-name="Atilde" unicode="&#xe3;" horiz-adv-x="543" 
d="M288 793l-60 29q-2 1 -6 1q-5 0 -8 -3.5t-3 -8.5v-28h-127v38q0 58 33 93t81 35q28 0 58 -14l60 -29q4 -2 6 -2q5 0 8 3.5t3 9.5v28h127v-37q0 -58 -33 -93.5t-81 -35.5q-30 0 -58 14zM202 0q-63 0 -105 41t-42 104v129q0 63 42 104.5t105 41.5h141v125q0 20 -19 20h-108
q-8 0 -13.5 -5t-5.5 -15v-38h-142v53q0 63 42 104t105 41h134q63 0 105 -41t42 -104v-560h-281zM343 140v140h-130q-8 0 -13 -5t-5 -14v-103q0 -8 5 -13t13 -5h130z" />
    <glyph glyph-name="AE" unicode="&#xc6;" horiz-adv-x="808" 
d="M202 0q-63 0 -105 41t-42 104v129q0 63 42 104.5t105 41.5h141v120q0 20 -19 20h-108q-8 0 -13.5 -5t-5.5 -15v-33h-142v48q0 63 42 104t105 41h541v-140h-260v-140h243v-140h-243v-140h260v-140h-541zM343 140v140h-130q-8 0 -13 -5t-5 -14v-103q0 -8 5 -13t13 -5h130z
" />
    <glyph glyph-name="AE" unicode="&#xe6;" horiz-adv-x="808" 
d="M202 0q-63 0 -105 41t-42 104v129q0 63 42 104.5t105 41.5h141v120q0 20 -19 20h-108q-8 0 -13.5 -5t-5.5 -15v-33h-142v48q0 63 42 104t105 41h541v-140h-260v-140h243v-140h-243v-140h260v-140h-541zM343 140v140h-130q-8 0 -13 -5t-5 -14v-103q0 -8 5 -13t13 -5h130z
" />
    <glyph glyph-name="AEacute" unicode="&#x1fc;" horiz-adv-x="808" 
d="M500 782h-160l58 163h160zM202 0q-63 0 -105 41t-42 104v129q0 63 42 104.5t105 41.5h141v120q0 20 -19 20h-108q-8 0 -13.5 -5t-5.5 -15v-33h-142v48q0 63 42 104t105 41h541v-140h-260v-140h243v-140h-243v-140h260v-140h-541zM343 140v140h-130q-8 0 -13 -5t-5 -14
v-103q0 -8 5 -13t13 -5h130z" />
    <glyph glyph-name="AEacute" unicode="&#x1fd;" horiz-adv-x="808" 
d="M500 782h-160l58 163h160zM202 0q-63 0 -105 41t-42 104v129q0 63 42 104.5t105 41.5h141v120q0 20 -19 20h-108q-8 0 -13.5 -5t-5.5 -15v-33h-142v48q0 63 42 104t105 41h541v-140h-260v-140h243v-140h-243v-140h260v-140h-541zM343 140v140h-130q-8 0 -13 -5t-5 -14
v-103q0 -8 5 -13t13 -5h130z" />
    <glyph glyph-name="B" unicode="B" horiz-adv-x="549" 
d="M65 0v700h282q41 0 74.5 -18.5t53 -52t19.5 -74.5v-88q0 -36 -16.5 -66t-44.5 -46v-10q28 -16 44.5 -46t16.5 -66v-88q0 -63 -42.5 -104t-105.5 -41h-281zM335 420q8 0 13.5 5t5.5 14v102q0 9 -5.5 14t-13.5 5h-130v-140h130zM335 140q8 0 13.5 5t5.5 14v102q0 9 -5.5 14
t-13.5 5h-130v-140h130z" />
    <glyph glyph-name="B" unicode="b" horiz-adv-x="549" 
d="M65 0v700h282q41 0 74.5 -18.5t53 -52t19.5 -74.5v-88q0 -36 -16.5 -66t-44.5 -46v-10q28 -16 44.5 -46t16.5 -66v-88q0 -63 -42.5 -104t-105.5 -41h-281zM335 420q8 0 13.5 5t5.5 14v102q0 9 -5.5 14t-13.5 5h-130v-140h130zM335 140q8 0 13.5 5t5.5 14v102q0 9 -5.5 14
t-13.5 5h-130v-140h130z" />
    <glyph glyph-name="uni1E02" unicode="&#x1e02;" horiz-adv-x="549" 
d="M65 0v700h282q41 0 74.5 -18.5t53 -52t19.5 -74.5v-88q0 -36 -16.5 -66t-44.5 -46v-10q28 -16 44.5 -46t16.5 -66v-88q0 -63 -42.5 -104t-105.5 -41h-281zM335 420q8 0 13.5 5t5.5 14v102q0 9 -5.5 14t-13.5 5h-130v-140h130zM335 140q8 0 13.5 5t5.5 14v102q0 9 -5.5 14
t-13.5 5h-130v-140h130zM360 782h-162v163h162v-163z" />
    <glyph glyph-name="uni1E02" unicode="&#x1e03;" horiz-adv-x="549" 
d="M65 0v700h282q41 0 74.5 -18.5t53 -52t19.5 -74.5v-88q0 -36 -16.5 -66t-44.5 -46v-10q28 -16 44.5 -46t16.5 -66v-88q0 -63 -42.5 -104t-105.5 -41h-281zM335 420q8 0 13.5 5t5.5 14v102q0 9 -5.5 14t-13.5 5h-130v-140h130zM335 140q8 0 13.5 5t5.5 14v102q0 9 -5.5 14
t-13.5 5h-130v-140h130zM360 782h-162v163h162v-163z" />
    <glyph glyph-name="C" unicode="C" horiz-adv-x="532" 
d="M203 -5q-64 0 -106 41t-42 104v420q0 63 42 104t106 41h137q64 0 105.5 -41t41.5 -104v-53h-143v39q0 9 -5.5 14t-14.5 5h-106q-19 0 -19 -19v-392q0 -19 19 -19h106q9 0 14.5 5t5.5 14v39h143v-53q0 -63 -41.5 -104t-105.5 -41h-137z" />
    <glyph glyph-name="C" unicode="c" horiz-adv-x="532" 
d="M203 -5q-64 0 -106 41t-42 104v420q0 63 42 104t106 41h137q64 0 105.5 -41t41.5 -104v-53h-143v39q0 9 -5.5 14t-14.5 5h-106q-19 0 -19 -19v-392q0 -19 19 -19h106q9 0 14.5 5t5.5 14v39h143v-53q0 -63 -41.5 -104t-105.5 -41h-137z" />
    <glyph glyph-name="Cacute" unicode="&#x106;" horiz-adv-x="532" 
d="M351 782h-160l58 163h160zM203 -5q-64 0 -106 41t-42 104v420q0 63 42 104t106 41h137q64 0 105.5 -41t41.5 -104v-53h-143v39q0 9 -5.5 14t-14.5 5h-106q-19 0 -19 -19v-392q0 -19 19 -19h106q9 0 14.5 5t5.5 14v39h143v-53q0 -63 -41.5 -104t-105.5 -41h-137z" />
    <glyph glyph-name="Cacute" unicode="&#x107;" horiz-adv-x="532" 
d="M351 782h-160l58 163h160zM203 -5q-64 0 -106 41t-42 104v420q0 63 42 104t106 41h137q64 0 105.5 -41t41.5 -104v-53h-143v39q0 9 -5.5 14t-14.5 5h-106q-19 0 -19 -19v-392q0 -19 19 -19h106q9 0 14.5 5t5.5 14v39h143v-53q0 -63 -41.5 -104t-105.5 -41h-137z" />
    <glyph glyph-name="Ccaron" unicode="&#x10c;" horiz-adv-x="532" 
d="M203 -5q-64 0 -106 41t-42 104v420q0 63 42 104t106 41h137q64 0 105.5 -41t41.5 -104v-53h-143v39q0 9 -5.5 14t-14.5 5h-106q-19 0 -19 -19v-392q0 -19 19 -19h106q9 0 14.5 5t5.5 14v39h143v-53q0 -63 -41.5 -104t-105.5 -41h-137zM271 869l38 76h147l-83 -163h-205
l-83 163h147z" />
    <glyph glyph-name="Ccaron" unicode="&#x10d;" horiz-adv-x="532" 
d="M203 -5q-64 0 -106 41t-42 104v420q0 63 42 104t106 41h137q64 0 105.5 -41t41.5 -104v-53h-143v39q0 9 -5.5 14t-14.5 5h-106q-19 0 -19 -19v-392q0 -19 19 -19h106q9 0 14.5 5t5.5 14v39h143v-53q0 -63 -41.5 -104t-105.5 -41h-137zM271 869l38 76h147l-83 -163h-205
l-83 163h147z" />
    <glyph glyph-name="Ccedilla" unicode="&#xc7;" horiz-adv-x="532" 
d="M203 -5q-64 0 -106 41t-42 104v420q0 63 42 104t106 41h137q64 0 105.5 -41t41.5 -104v-53h-143v39q0 9 -5.5 14t-14.5 5h-106q-19 0 -19 -19v-392q0 -19 19 -19h106q9 0 14.5 5t5.5 14v39h143v-53q0 -63 -41.5 -104t-105.5 -41h-137zM314 -245h-195l80 164h142z" />
    <glyph glyph-name="Ccedilla" unicode="&#xe7;" horiz-adv-x="532" 
d="M203 -5q-64 0 -106 41t-42 104v420q0 63 42 104t106 41h137q64 0 105.5 -41t41.5 -104v-53h-143v39q0 9 -5.5 14t-14.5 5h-106q-19 0 -19 -19v-392q0 -19 19 -19h106q9 0 14.5 5t5.5 14v39h143v-53q0 -63 -41.5 -104t-105.5 -41h-137zM314 -245h-195l80 164h142z" />
    <glyph glyph-name="Ccircumflex" unicode="&#x108;" horiz-adv-x="532" 
d="M203 -5q-64 0 -106 41t-42 104v420q0 63 42 104t106 41h137q64 0 105.5 -41t41.5 -104v-53h-143v39q0 9 -5.5 14t-14.5 5h-106q-19 0 -19 -19v-392q0 -19 19 -19h106q9 0 14.5 5t5.5 14v39h143v-53q0 -63 -41.5 -104t-105.5 -41h-137zM373 945l83 -163h-147l-38 76
l-39 -76h-147l83 163h205z" />
    <glyph glyph-name="Ccircumflex" unicode="&#x109;" horiz-adv-x="532" 
d="M203 -5q-64 0 -106 41t-42 104v420q0 63 42 104t106 41h137q64 0 105.5 -41t41.5 -104v-53h-143v39q0 9 -5.5 14t-14.5 5h-106q-19 0 -19 -19v-392q0 -19 19 -19h106q9 0 14.5 5t5.5 14v39h143v-53q0 -63 -41.5 -104t-105.5 -41h-137zM373 945l83 -163h-147l-38 76
l-39 -76h-147l83 163h205z" />
    <glyph glyph-name="Cdotaccent" unicode="&#x10a;" horiz-adv-x="532" 
d="M203 -5q-64 0 -106 41t-42 104v420q0 63 42 104t106 41h137q64 0 105.5 -41t41.5 -104v-53h-143v39q0 9 -5.5 14t-14.5 5h-106q-19 0 -19 -19v-392q0 -19 19 -19h106q9 0 14.5 5t5.5 14v39h143v-53q0 -63 -41.5 -104t-105.5 -41h-137zM352 782h-162v163h162v-163z" />
    <glyph glyph-name="Cdotaccent" unicode="&#x10b;" horiz-adv-x="532" 
d="M203 -5q-64 0 -106 41t-42 104v420q0 63 42 104t106 41h137q64 0 105.5 -41t41.5 -104v-53h-143v39q0 9 -5.5 14t-14.5 5h-106q-19 0 -19 -19v-392q0 -19 19 -19h106q9 0 14.5 5t5.5 14v39h143v-53q0 -63 -41.5 -104t-105.5 -41h-137zM352 782h-162v163h162v-163z" />
    <glyph glyph-name="D" unicode="D" horiz-adv-x="548" 
d="M65 0v700h281q63 0 105 -41t42 -104v-410q0 -63 -42 -104t-105 -41h-281zM332 140q19 0 19 19v382q0 19 -19 19h-125v-420h125z" />
    <glyph glyph-name="D" unicode="d" horiz-adv-x="548" 
d="M65 0v700h281q63 0 105 -41t42 -104v-410q0 -63 -42 -104t-105 -41h-281zM332 140q19 0 19 19v382q0 19 -19 19h-125v-420h125z" />
    <glyph glyph-name="Eth" unicode="&#xd0;" horiz-adv-x="548" 
d="M346 700q63 0 105 -41t42 -104v-410q0 -63 -42 -104t-105 -41h-281v280h-65v140h65v280h281zM351 541q0 19 -19 19h-125v-140h101v-140h-101v-140h125q19 0 19 19v382z" />
    <glyph glyph-name="Eth" unicode="&#xf0;" horiz-adv-x="548" 
d="M346 700q63 0 105 -41t42 -104v-410q0 -63 -42 -104t-105 -41h-281v280h-65v140h65v280h281zM351 541q0 19 -19 19h-125v-140h101v-140h-101v-140h125q19 0 19 19v382z" />
    <glyph glyph-name="Dcaron" unicode="&#x10e;" horiz-adv-x="548" 
d="M65 0v700h281q63 0 105 -41t42 -104v-410q0 -63 -42 -104t-105 -41h-281zM332 140q19 0 19 19v382q0 19 -19 19h-125v-420h125zM279 869l38 76h147l-83 -163h-205l-83 163h147z" />
    <glyph glyph-name="Dcaron" unicode="&#x10f;" horiz-adv-x="548" 
d="M65 0v700h281q63 0 105 -41t42 -104v-410q0 -63 -42 -104t-105 -41h-281zM332 140q19 0 19 19v382q0 19 -19 19h-125v-420h125zM279 869l38 76h147l-83 -163h-205l-83 163h147z" />
    <glyph glyph-name="uni1E10" unicode="&#x1e10;" horiz-adv-x="548" 
d="M65 0v700h281q63 0 105 -41t42 -104v-410q0 -63 -42 -104t-105 -41h-281zM332 140q19 0 19 19v382q0 19 -19 19h-125v-420h125zM296 -245h-142l27 164h195z" />
    <glyph glyph-name="uni1E10" unicode="&#x1e11;" horiz-adv-x="548" 
d="M65 0v700h281q63 0 105 -41t42 -104v-410q0 -63 -42 -104t-105 -41h-281zM332 140q19 0 19 19v382q0 19 -19 19h-125v-420h125zM296 -245h-142l27 164h195z" />
    <glyph glyph-name="Dcroat" unicode="&#x110;" horiz-adv-x="548" 
d="M346 700q63 0 105 -41t42 -104v-410q0 -63 -42 -104t-105 -41h-281v280h-65v140h65v280h281zM351 541q0 19 -19 19h-125v-140h101v-140h-101v-140h125q19 0 19 19v382z" />
    <glyph glyph-name="Dcroat" unicode="&#x111;" horiz-adv-x="548" 
d="M346 700q63 0 105 -41t42 -104v-410q0 -63 -42 -104t-105 -41h-281v280h-65v140h65v280h281zM351 541q0 19 -19 19h-125v-140h101v-140h-101v-140h125q19 0 19 19v382z" />
    <glyph glyph-name="uni1E0A" unicode="&#x1e0a;" horiz-adv-x="548" 
d="M65 0v700h281q63 0 105 -41t42 -104v-410q0 -63 -42 -104t-105 -41h-281zM332 140q19 0 19 19v382q0 19 -19 19h-125v-420h125zM360 782h-162v163h162v-163z" />
    <glyph glyph-name="uni1E0A" unicode="&#x1e0b;" horiz-adv-x="548" 
d="M65 0v700h281q63 0 105 -41t42 -104v-410q0 -63 -42 -104t-105 -41h-281zM332 140q19 0 19 19v382q0 19 -19 19h-125v-420h125zM360 782h-162v163h162v-163z" />
    <glyph glyph-name="uni1E0C" unicode="&#x1e0c;" horiz-adv-x="548" 
d="M65 0v700h281q63 0 105 -41t42 -104v-410q0 -63 -42 -104t-105 -41h-281zM332 140q19 0 19 19v382q0 19 -19 19h-125v-420h125zM356 -245h-154v164h154v-164z" />
    <glyph glyph-name="uni1E0C" unicode="&#x1e0d;" horiz-adv-x="548" 
d="M65 0v700h281q63 0 105 -41t42 -104v-410q0 -63 -42 -104t-105 -41h-281zM332 140q19 0 19 19v382q0 19 -19 19h-125v-420h125zM356 -245h-154v164h154v-164z" />
    <glyph glyph-name="E" unicode="E" horiz-adv-x="560" 
d="M495 700v-140h-290v-140h273v-140h-273v-140h290v-140h-430v700h430z" />
    <glyph glyph-name="E" unicode="e" horiz-adv-x="560" 
d="M495 700v-140h-290v-140h273v-140h-273v-140h290v-140h-430v700h430z" />
    <glyph glyph-name="Eacute" unicode="&#xc9;" horiz-adv-x="560" 
d="M258 945h160l-58 -163h-160zM495 700v-140h-290v-140h273v-140h-273v-140h290v-140h-430v700h430z" />
    <glyph glyph-name="Eacute" unicode="&#xe9;" horiz-adv-x="560" 
d="M258 945h160l-58 -163h-160zM495 700v-140h-290v-140h273v-140h-273v-140h290v-140h-430v700h430z" />
    <glyph glyph-name="Ebreve" unicode="&#x114;" horiz-adv-x="560" 
d="M495 700v-140h-290v-140h273v-140h-273v-140h290v-140h-430v700h430zM158 819q-49 43 -61 126h136q1 -27 14 -41t32 -14t31.5 14t13.5 41h137q-13 -83 -62 -126t-121 -43q-71 0 -120 43z" />
    <glyph glyph-name="Ebreve" unicode="&#x115;" horiz-adv-x="560" 
d="M495 700v-140h-290v-140h273v-140h-273v-140h290v-140h-430v700h430zM158 819q-49 43 -61 126h136q1 -27 14 -41t32 -14t31.5 14t13.5 41h137q-13 -83 -62 -126t-121 -43q-71 0 -120 43z" />
    <glyph glyph-name="Ecaron" unicode="&#x11a;" horiz-adv-x="560" 
d="M495 700v-140h-290v-140h273v-140h-273v-140h290v-140h-430v700h430zM279 869l38 76h147l-83 -163h-205l-83 163h147z" />
    <glyph glyph-name="Ecaron" unicode="&#x11b;" horiz-adv-x="560" 
d="M495 700v-140h-290v-140h273v-140h-273v-140h290v-140h-430v700h430zM279 869l38 76h147l-83 -163h-205l-83 163h147z" />
    <glyph glyph-name="Ecircumflex" unicode="&#xca;" horiz-adv-x="560" 
d="M495 700v-140h-290v-140h273v-140h-273v-140h290v-140h-430v700h430zM381 945l83 -163h-147l-38 76l-39 -76h-147l83 163h205z" />
    <glyph glyph-name="Ecircumflex" unicode="&#xea;" horiz-adv-x="560" 
d="M495 700v-140h-290v-140h273v-140h-273v-140h290v-140h-430v700h430zM381 945l83 -163h-147l-38 76l-39 -76h-147l83 163h205z" />
    <glyph glyph-name="Edieresis" unicode="&#xcb;" horiz-adv-x="560" 
d="M495 700v-140h-290v-140h273v-140h-273v-140h290v-140h-430v700h430zM256 782h-154v163h154v-163zM455 782h-154v163h154v-163z" />
    <glyph glyph-name="Edieresis" unicode="&#xeb;" horiz-adv-x="560" 
d="M495 700v-140h-290v-140h273v-140h-273v-140h290v-140h-430v700h430zM256 782h-154v163h154v-163zM455 782h-154v163h154v-163z" />
    <glyph glyph-name="Edotaccent" unicode="&#x116;" horiz-adv-x="560" 
d="M495 700v-140h-290v-140h273v-140h-273v-140h290v-140h-430v700h430zM360 782h-162v163h162v-163z" />
    <glyph glyph-name="Edotaccent" unicode="&#x117;" horiz-adv-x="560" 
d="M495 700v-140h-290v-140h273v-140h-273v-140h290v-140h-430v700h430zM360 782h-162v163h162v-163z" />
    <glyph glyph-name="uni1EB8" unicode="&#x1eb8;" horiz-adv-x="560" 
d="M495 700v-140h-290v-140h273v-140h-273v-140h290v-140h-430v700h430zM356 -245h-154v164h154v-164z" />
    <glyph glyph-name="uni1EB8" unicode="&#x1eb9;" horiz-adv-x="560" 
d="M495 700v-140h-290v-140h273v-140h-273v-140h290v-140h-430v700h430zM356 -245h-154v164h154v-164z" />
    <glyph glyph-name="Egrave" unicode="&#xc8;" horiz-adv-x="560" 
d="M299 945l58 -163h-160l-58 163h160zM495 700v-140h-290v-140h273v-140h-273v-140h290v-140h-430v700h430z" />
    <glyph glyph-name="Egrave" unicode="&#xe8;" horiz-adv-x="560" 
d="M299 945l58 -163h-160l-58 163h160zM495 700v-140h-290v-140h273v-140h-273v-140h290v-140h-430v700h430z" />
    <glyph glyph-name="Emacron" unicode="&#x112;" horiz-adv-x="560" 
d="M495 700v-140h-290v-140h273v-140h-273v-140h290v-140h-430v700h430zM446 782h-334v126h334v-126z" />
    <glyph glyph-name="Emacron" unicode="&#x113;" horiz-adv-x="560" 
d="M495 700v-140h-290v-140h273v-140h-273v-140h290v-140h-430v700h430zM446 782h-334v126h334v-126z" />
    <glyph glyph-name="Eogonek" unicode="&#x118;" horiz-adv-x="560" 
d="M510 -47v-126h-46q-60 0 -100 40t-40 100v33h-259v700h430v-140h-290v-140h273v-140h-273v-140h290v-140h-29v-24q0 -23 32 -23h12z" />
    <glyph glyph-name="Eogonek" unicode="&#x119;" horiz-adv-x="560" 
d="M510 -47v-126h-46q-60 0 -100 40t-40 100v33h-259v700h430v-140h-290v-140h273v-140h-273v-140h290v-140h-29v-24q0 -23 32 -23h12z" />
    <glyph glyph-name="uni0190" unicode="&#x190;" horiz-adv-x="532" 
d="M202 -5q-63 0 -105 41t-42 104v103q0 34 16 63.5t43 38.5v9q-27 10 -42 40.5t-15 66.5v99q0 63 42 104t105 41h134q63 0 105 -41t42 -104v-53h-142v39q0 19 -19 19h-106q-19 0 -19 -19v-107q0 -8 5.5 -13.5t13.5 -5.5h119v-140h-119q-8 0 -13.5 -5.5t-5.5 -13.5v-107
q0 -19 19 -19h106q19 0 19 19v39h144v-53q0 -63 -42 -104t-105 -41h-138z" />
    <glyph glyph-name="uni0190" unicode="&#x25b;" horiz-adv-x="532" 
d="M202 -5q-63 0 -105 41t-42 104v103q0 34 16 63.5t43 38.5v9q-27 10 -42 40.5t-15 66.5v99q0 63 42 104t105 41h134q63 0 105 -41t42 -104v-53h-142v39q0 19 -19 19h-106q-19 0 -19 -19v-107q0 -8 5.5 -13.5t13.5 -5.5h119v-140h-119q-8 0 -13.5 -5.5t-5.5 -13.5v-107
q0 -19 19 -19h106q19 0 19 19v39h144v-53q0 -63 -42 -104t-105 -41h-138z" />
    <glyph glyph-name="uni1EBC" unicode="&#x1ebc;" horiz-adv-x="560" 
d="M218 783h-127v38q0 58 33 93t81 35q28 0 58 -14l60 -29q4 -2 6 -2q5 0 8 3.5t3 9.5v28h127v-37q0 -58 -33 -93.5t-81 -35.5q-30 0 -58 14l-60 29q-2 1 -6 1q-5 0 -8 -3.5t-3 -8.5v-28zM495 700v-140h-290v-140h273v-140h-273v-140h290v-140h-430v700h430z" />
    <glyph glyph-name="uni1EBC" unicode="&#x1ebd;" horiz-adv-x="560" 
d="M218 783h-127v38q0 58 33 93t81 35q28 0 58 -14l60 -29q4 -2 6 -2q5 0 8 3.5t3 9.5v28h127v-37q0 -58 -33 -93.5t-81 -35.5q-30 0 -58 14l-60 29q-2 1 -6 1q-5 0 -8 -3.5t-3 -8.5v-28zM495 700v-140h-290v-140h273v-140h-273v-140h290v-140h-430v700h430z" />
    <glyph glyph-name="F" unicode="F" horiz-adv-x="525" 
d="M495 700v-140h-286v-140h206v-140h-206v-280h-144v700h430z" />
    <glyph glyph-name="F" unicode="f" horiz-adv-x="525" 
d="M495 700v-140h-286v-140h206v-140h-206v-280h-144v700h430z" />
    <glyph glyph-name="uni1E1E" unicode="&#x1e1e;" horiz-adv-x="525" 
d="M495 700v-140h-286v-140h206v-140h-206v-280h-144v700h430zM361 782h-162v163h162v-163z" />
    <glyph glyph-name="uni1E1E" unicode="&#x1e1f;" horiz-adv-x="525" 
d="M495 700v-140h-286v-140h206v-140h-206v-280h-144v700h430zM361 782h-162v163h162v-163z" />
    <glyph glyph-name="G" unicode="G" horiz-adv-x="532" 
d="M487 507h-143v38q0 9 -5.5 14.5t-14.5 5.5h-106q-9 0 -14 -5.5t-5 -14.5v-391q0 -19 19 -19h106q9 0 14.5 5t5.5 14v126h143v-280h-141v33q-31 -38 -77 -38h-66q-63 0 -105.5 41t-42.5 104v419q0 41 19.5 74.5t53.5 52.5t75 19h137q64 0 105.5 -41.5t41.5 -104.5v-52z
" />
    <glyph glyph-name="G" unicode="g" horiz-adv-x="532" 
d="M487 507h-143v38q0 9 -5.5 14.5t-14.5 5.5h-106q-9 0 -14 -5.5t-5 -14.5v-391q0 -19 19 -19h106q9 0 14.5 5t5.5 14v126h143v-280h-141v33q-31 -38 -77 -38h-66q-63 0 -105.5 41t-42.5 104v419q0 41 19.5 74.5t53.5 52.5t75 19h137q64 0 105.5 -41.5t41.5 -104.5v-52z
" />
    <glyph glyph-name="Gbreve" unicode="&#x11e;" horiz-adv-x="532" 
d="M487 507h-143v38q0 9 -5.5 14.5t-14.5 5.5h-106q-9 0 -14 -5.5t-5 -14.5v-391q0 -19 19 -19h106q9 0 14.5 5t5.5 14v126h143v-280h-141v33q-31 -38 -77 -38h-66q-63 0 -105.5 41t-42.5 104v419q0 41 19.5 74.5t53.5 52.5t75 19h137q64 0 105.5 -41.5t41.5 -104.5v-52z
M150 819q-49 43 -61 126h136q1 -27 14 -41t32 -14t31.5 14t13.5 41h137q-13 -83 -62 -126t-121 -43q-71 0 -120 43z" />
    <glyph glyph-name="Gbreve" unicode="&#x11f;" horiz-adv-x="532" 
d="M487 507h-143v38q0 9 -5.5 14.5t-14.5 5.5h-106q-9 0 -14 -5.5t-5 -14.5v-391q0 -19 19 -19h106q9 0 14.5 5t5.5 14v126h143v-280h-141v33q-31 -38 -77 -38h-66q-63 0 -105.5 41t-42.5 104v419q0 41 19.5 74.5t53.5 52.5t75 19h137q64 0 105.5 -41.5t41.5 -104.5v-52z
M150 819q-49 43 -61 126h136q1 -27 14 -41t32 -14t31.5 14t13.5 41h137q-13 -83 -62 -126t-121 -43q-71 0 -120 43z" />
    <glyph glyph-name="Gcaron" unicode="&#x1e6;" horiz-adv-x="532" 
d="M487 507h-143v38q0 9 -5.5 14.5t-14.5 5.5h-106q-9 0 -14 -5.5t-5 -14.5v-391q0 -19 19 -19h106q9 0 14.5 5t5.5 14v126h143v-280h-141v33q-31 -38 -77 -38h-66q-63 0 -105.5 41t-42.5 104v419q0 41 19.5 74.5t53.5 52.5t75 19h137q64 0 105.5 -41.5t41.5 -104.5v-52z
M271 869l38 76h147l-83 -163h-205l-83 163h147z" />
    <glyph glyph-name="Gcaron" unicode="&#x1e7;" horiz-adv-x="532" 
d="M487 507h-143v38q0 9 -5.5 14.5t-14.5 5.5h-106q-9 0 -14 -5.5t-5 -14.5v-391q0 -19 19 -19h106q9 0 14.5 5t5.5 14v126h143v-280h-141v33q-31 -38 -77 -38h-66q-63 0 -105.5 41t-42.5 104v419q0 41 19.5 74.5t53.5 52.5t75 19h137q64 0 105.5 -41.5t41.5 -104.5v-52z
M271 869l38 76h147l-83 -163h-205l-83 163h147z" />
    <glyph glyph-name="Gcircumflex" unicode="&#x11c;" horiz-adv-x="532" 
d="M487 507h-143v38q0 9 -5.5 14.5t-14.5 5.5h-106q-9 0 -14 -5.5t-5 -14.5v-391q0 -19 19 -19h106q9 0 14.5 5t5.5 14v126h143v-280h-141v33q-31 -38 -77 -38h-66q-63 0 -105.5 41t-42.5 104v419q0 41 19.5 74.5t53.5 52.5t75 19h137q64 0 105.5 -41.5t41.5 -104.5v-52z
M373 945l83 -163h-147l-38 76l-39 -76h-147l83 163h205z" />
    <glyph glyph-name="Gcircumflex" unicode="&#x11d;" horiz-adv-x="532" 
d="M487 507h-143v38q0 9 -5.5 14.5t-14.5 5.5h-106q-9 0 -14 -5.5t-5 -14.5v-391q0 -19 19 -19h106q9 0 14.5 5t5.5 14v126h143v-280h-141v33q-31 -38 -77 -38h-66q-63 0 -105.5 41t-42.5 104v419q0 41 19.5 74.5t53.5 52.5t75 19h137q64 0 105.5 -41.5t41.5 -104.5v-52z
M373 945l83 -163h-147l-38 76l-39 -76h-147l83 163h205z" />
    <glyph glyph-name="uni0122" unicode="&#x122;" horiz-adv-x="532" 
d="M487 507h-143v38q0 9 -5.5 14.5t-14.5 5.5h-106q-9 0 -14 -5.5t-5 -14.5v-391q0 -19 19 -19h106q9 0 14.5 5t5.5 14v126h143v-280h-141v33q-31 -38 -77 -38h-66q-63 0 -105.5 41t-42.5 104v419q0 41 19.5 74.5t53.5 52.5t75 19h137q64 0 105.5 -41.5t41.5 -104.5v-52z
M289 -245h-142l27 164h195z" />
    <glyph glyph-name="uni0122" unicode="&#x123;" horiz-adv-x="532" 
d="M487 507h-143v38q0 9 -5.5 14.5t-14.5 5.5h-106q-9 0 -14 -5.5t-5 -14.5v-391q0 -19 19 -19h106q9 0 14.5 5t5.5 14v126h143v-280h-141v33q-31 -38 -77 -38h-66q-63 0 -105.5 41t-42.5 104v419q0 41 19.5 74.5t53.5 52.5t75 19h137q64 0 105.5 -41.5t41.5 -104.5v-52z
M289 -245h-142l27 164h195z" />
    <glyph glyph-name="Gdotaccent" unicode="&#x120;" horiz-adv-x="532" 
d="M487 507h-143v38q0 9 -5.5 14.5t-14.5 5.5h-106q-9 0 -14 -5.5t-5 -14.5v-391q0 -19 19 -19h106q9 0 14.5 5t5.5 14v126h143v-280h-141v33q-31 -38 -77 -38h-66q-63 0 -105.5 41t-42.5 104v419q0 41 19.5 74.5t53.5 52.5t75 19h137q64 0 105.5 -41.5t41.5 -104.5v-52z
M352 782h-162v163h162v-163z" />
    <glyph glyph-name="Gdotaccent" unicode="&#x121;" horiz-adv-x="532" 
d="M487 507h-143v38q0 9 -5.5 14.5t-14.5 5.5h-106q-9 0 -14 -5.5t-5 -14.5v-391q0 -19 19 -19h106q9 0 14.5 5t5.5 14v126h143v-280h-141v33q-31 -38 -77 -38h-66q-63 0 -105.5 41t-42.5 104v419q0 41 19.5 74.5t53.5 52.5t75 19h137q64 0 105.5 -41.5t41.5 -104.5v-52z
M352 782h-162v163h162v-163z" />
    <glyph glyph-name="uni1E20" unicode="&#x1e20;" horiz-adv-x="532" 
d="M487 507h-143v38q0 9 -5.5 14.5t-14.5 5.5h-106q-9 0 -14 -5.5t-5 -14.5v-391q0 -19 19 -19h106q9 0 14.5 5t5.5 14v126h143v-280h-141v33q-31 -38 -77 -38h-66q-63 0 -105.5 41t-42.5 104v419q0 41 19.5 74.5t53.5 52.5t75 19h137q64 0 105.5 -41.5t41.5 -104.5v-52z
M438 782h-334v126h334v-126z" />
    <glyph glyph-name="uni1E20" unicode="&#x1e21;" horiz-adv-x="532" 
d="M487 507h-143v38q0 9 -5.5 14.5t-14.5 5.5h-106q-9 0 -14 -5.5t-5 -14.5v-391q0 -19 19 -19h106q9 0 14.5 5t5.5 14v126h143v-280h-141v33q-31 -38 -77 -38h-66q-63 0 -105.5 41t-42.5 104v419q0 41 19.5 74.5t53.5 52.5t75 19h137q64 0 105.5 -41.5t41.5 -104.5v-52z
M438 782h-334v126h334v-126z" />
    <glyph glyph-name="H" unicode="H" horiz-adv-x="560" 
d="M347 420v280h148v-700h-148v280h-134v-280h-148v700h148v-280h134z" />
    <glyph glyph-name="H" unicode="h" horiz-adv-x="560" 
d="M347 420v280h148v-700h-148v280h-134v-280h-148v700h148v-280h134z" />
    <glyph glyph-name="Hbar" unicode="&#x126;" horiz-adv-x="560" 
d="M495 638h74v-131h-74v-507h-148v280h-134v-280h-148v507h-75v131h75v62h148v-62h134v62h148v-62zM213 420h134v87h-134v-87z" />
    <glyph glyph-name="Hbar" unicode="&#x127;" horiz-adv-x="560" 
d="M495 638h74v-131h-74v-507h-148v280h-134v-280h-148v507h-75v131h75v62h148v-62h134v62h148v-62zM213 420h134v87h-134v-87z" />
    <glyph glyph-name="uni1E2A" unicode="&#x1e2a;" horiz-adv-x="560" 
d="M347 420v280h148v-700h-148v280h-134v-280h-148v700h148v-280h134zM159 -207q-49 43 -61 126h136q1 -27 14 -41t32 -14t31.5 14t13.5 41h137q-13 -83 -62 -126t-121 -43q-71 0 -120 43z" />
    <glyph glyph-name="uni1E2A" unicode="&#x1e2b;" horiz-adv-x="560" 
d="M347 420v280h148v-700h-148v280h-134v-280h-148v700h148v-280h134zM159 -207q-49 43 -61 126h136q1 -27 14 -41t32 -14t31.5 14t13.5 41h137q-13 -83 -62 -126t-121 -43q-71 0 -120 43z" />
    <glyph glyph-name="Hcircumflex" unicode="&#x124;" horiz-adv-x="560" 
d="M347 420v280h148v-700h-148v280h-134v-280h-148v700h148v-280h134zM382 945l83 -163h-147l-38 76l-39 -76h-147l83 163h205z" />
    <glyph glyph-name="Hcircumflex" unicode="&#x125;" horiz-adv-x="560" 
d="M347 420v280h148v-700h-148v280h-134v-280h-148v700h148v-280h134zM382 945l83 -163h-147l-38 76l-39 -76h-147l83 163h205z" />
    <glyph glyph-name="uni1E22" unicode="&#x1e22;" horiz-adv-x="560" 
d="M347 420v280h148v-700h-148v280h-134v-280h-148v700h148v-280h134zM361 782h-162v163h162v-163z" />
    <glyph glyph-name="uni1E22" unicode="&#x1e23;" horiz-adv-x="560" 
d="M347 420v280h148v-700h-148v280h-134v-280h-148v700h148v-280h134zM361 782h-162v163h162v-163z" />
    <glyph glyph-name="uni1E24" unicode="&#x1e24;" horiz-adv-x="560" 
d="M347 420v280h148v-700h-148v280h-134v-280h-148v700h148v-280h134zM357 -245h-154v164h154v-164z" />
    <glyph glyph-name="uni1E24" unicode="&#x1e25;" horiz-adv-x="560" 
d="M347 420v280h148v-700h-148v280h-134v-280h-148v700h148v-280h134zM357 -245h-154v164h154v-164z" />
    <glyph glyph-name="I" unicode="I" horiz-adv-x="278" 
d="M213 0h-148v700h148v-700z" />
    <glyph glyph-name="IJ" unicode="&#x132;" horiz-adv-x="529" 
d="M192 280h-143v420h143v-420zM196 -6q-64 0 -105.5 41t-41.5 104v53h143v-42q0 -9 5.5 -14t14.5 -5h102q19 0 19 19v549h148v-560q0 -63 -42 -104t-106 -41h-137z" />
    <glyph glyph-name="IJ" unicode="&#x133;" horiz-adv-x="529" 
d="M192 280h-143v420h143v-420zM196 -6q-64 0 -105.5 41t-41.5 104v53h143v-42q0 -9 5.5 -14t14.5 -5h102q19 0 19 19v549h148v-560q0 -63 -42 -104t-106 -41h-137z" />
    <glyph glyph-name="Iacute" unicode="&#xcd;" horiz-adv-x="278" 
d="M219 782h-160l58 163h160zM213 0h-148v700h148v-700z" />
    <glyph glyph-name="Iacute" unicode="&#xed;" horiz-adv-x="278" 
d="M219 782h-160l58 163h160zM213 0h-148v700h148v-700z" />
    <glyph glyph-name="Ibreve" unicode="&#x12c;" horiz-adv-x="278" 
d="M213 0h-148v700h148v-700zM18 819q-49 43 -61 126h136q1 -27 14 -41t32 -14t31.5 14t13.5 41h137q-13 -83 -62 -126t-121 -43q-71 0 -120 43z" />
    <glyph glyph-name="Ibreve" unicode="&#x12d;" horiz-adv-x="278" 
d="M213 0h-148v700h148v-700zM18 819q-49 43 -61 126h136q1 -27 14 -41t32 -14t31.5 14t13.5 41h137q-13 -83 -62 -126t-121 -43q-71 0 -120 43z" />
    <glyph glyph-name="uni01CF" unicode="&#x1cf;" horiz-adv-x="278" 
d="M213 0h-148v700h148v-700zM139 869l38 76h147l-83 -163h-205l-83 163h147z" />
    <glyph glyph-name="uni01CF" unicode="&#x1d0;" horiz-adv-x="278" 
d="M213 0h-148v700h148v-700zM139 869l38 76h147l-83 -163h-205l-83 163h147z" />
    <glyph glyph-name="Icircumflex" unicode="&#xce;" horiz-adv-x="278" 
d="M213 0h-148v700h148v-700zM241 945l83 -163h-147l-38 76l-39 -76h-147l83 163h205z" />
    <glyph glyph-name="Icircumflex" unicode="&#xee;" horiz-adv-x="278" 
d="M213 0h-148v700h148v-700zM241 945l83 -163h-147l-38 76l-39 -76h-147l83 163h205z" />
    <glyph glyph-name="Idieresis" unicode="&#xcf;" horiz-adv-x="278" 
d="M213 0h-148v700h148v-700zM116 782h-154v163h154v-163zM315 782h-154v163h154v-163z" />
    <glyph glyph-name="Idieresis" unicode="&#xef;" horiz-adv-x="278" 
d="M213 0h-148v700h148v-700zM116 782h-154v163h154v-163zM315 782h-154v163h154v-163z" />
    <glyph glyph-name="Idotaccent" unicode="&#x130;" horiz-adv-x="278" 
d="M213 0h-148v700h148v-700zM220 782h-162v163h162v-163z" />
    <glyph glyph-name="uni1ECA" unicode="&#x1eca;" horiz-adv-x="278" 
d="M213 0h-148v700h148v-700zM216 -245h-154v164h154v-164z" />
    <glyph glyph-name="uni1ECA" unicode="&#x1ecb;" horiz-adv-x="278" 
d="M213 0h-148v700h148v-700zM216 -245h-154v164h154v-164z" />
    <glyph glyph-name="Igrave" unicode="&#xcc;" horiz-adv-x="278" 
d="M159 945l58 -163h-160l-58 163h160zM213 0h-148v700h148v-700z" />
    <glyph glyph-name="Igrave" unicode="&#xec;" horiz-adv-x="278" 
d="M159 945l58 -163h-160l-58 163h160zM213 0h-148v700h148v-700z" />
    <glyph glyph-name="Imacron" unicode="&#x12a;" horiz-adv-x="278" 
d="M213 0h-148v700h148v-700zM306 782h-334v126h334v-126z" />
    <glyph glyph-name="Imacron" unicode="&#x12b;" horiz-adv-x="278" 
d="M213 0h-148v700h148v-700zM306 782h-334v126h334v-126z" />
    <glyph glyph-name="Iogonek" unicode="&#x12e;" horiz-adv-x="278" 
d="M205 -173q-60 0 -100 40t-40 100v733h148v-724q0 -24 31 -23h8v-126h-47z" />
    <glyph glyph-name="Iogonek" unicode="&#x12f;" horiz-adv-x="278" 
d="M205 -173q-60 0 -100 40t-40 100v733h148v-724q0 -24 31 -23h8v-126h-47z" />
    <glyph glyph-name="uni0197" unicode="&#x197;" horiz-adv-x="278" 
d="M213 419h74v-138h-74v-281h-148v281h-74v138h74v281h148v-281z" />
    <glyph glyph-name="uni0197" unicode="&#x268;" horiz-adv-x="278" 
d="M213 419h74v-138h-74v-281h-148v281h-74v138h74v281h148v-281z" />
    <glyph glyph-name="Itilde" unicode="&#x128;" horiz-adv-x="278" 
d="M155 793l-60 29q-2 1 -6 1q-5 0 -8 -3.5t-3 -8.5v-28h-127v38q0 58 33 93t81 35q28 0 58 -14l60 -29q4 -2 6 -2q5 0 8 3.5t3 9.5v28h127v-37q0 -58 -33 -93.5t-81 -35.5q-30 0 -58 14zM213 0h-148v700h148v-700z" />
    <glyph glyph-name="Itilde" unicode="&#x129;" horiz-adv-x="278" 
d="M155 793l-60 29q-2 1 -6 1q-5 0 -8 -3.5t-3 -8.5v-28h-127v38q0 58 33 93t81 35q28 0 58 -14l60 -29q4 -2 6 -2q5 0 8 3.5t3 9.5v28h127v-37q0 -58 -33 -93.5t-81 -35.5q-30 0 -58 14zM213 0h-148v700h148v-700z" />
    <glyph glyph-name="J" unicode="J" horiz-adv-x="497" 
d="M152 -5q-64 0 -105.5 41t-41.5 104v53h143v-42q0 -9 5.5 -14t14.5 -5h102q19 0 19 19v549h148v-560q0 -63 -42 -104t-106 -41h-137z" />
    <glyph glyph-name="J" unicode="j" horiz-adv-x="497" 
d="M152 -5q-64 0 -105.5 41t-41.5 104v53h143v-42q0 -9 5.5 -14t14.5 -5h102q19 0 19 19v549h148v-560q0 -63 -42 -104t-106 -41h-137z" />
    <glyph glyph-name="Jcircumflex" unicode="&#x134;" horiz-adv-x="497" 
d="M152 -5q-64 0 -105.5 41t-41.5 104v53h143v-42q0 -9 5.5 -14t14.5 -5h102q19 0 19 19v549h148v-560q0 -63 -42 -104t-106 -41h-137zM467 945l83 -163h-147l-38 76l-39 -76h-147l83 163h205z" />
    <glyph glyph-name="Jcircumflex" unicode="&#x135;" horiz-adv-x="497" 
d="M152 -5q-64 0 -105.5 41t-41.5 104v53h143v-42q0 -9 5.5 -14t14.5 -5h102q19 0 19 19v549h148v-560q0 -63 -42 -104t-106 -41h-137zM467 945l83 -163h-147l-38 76l-39 -76h-147l83 163h205z" />
    <glyph glyph-name="K" unicode="K" horiz-adv-x="549" 
d="M528 701l-109 -350l110 -352h-154l-85 277h-77v-276h-148v700h148v-276h76l86 277h153z" />
    <glyph glyph-name="K" unicode="k" horiz-adv-x="549" 
d="M528 701l-109 -350l110 -352h-154l-85 277h-77v-276h-148v700h148v-276h76l86 277h153z" />
    <glyph glyph-name="uni01E8" unicode="&#x1e8;" horiz-adv-x="549" 
d="M528 701l-109 -350l110 -352h-154l-85 277h-77v-276h-148v700h148v-276h76l86 277h153zM289 869l38 76h147l-83 -163h-205l-83 163h147z" />
    <glyph glyph-name="uni01E8" unicode="&#x1e9;" horiz-adv-x="549" 
d="M528 701l-109 -350l110 -352h-154l-85 277h-77v-276h-148v700h148v-276h76l86 277h153zM289 869l38 76h147l-83 -163h-205l-83 163h147z" />
    <glyph glyph-name="uni0136" unicode="&#x136;" horiz-adv-x="549" 
d="M290 276h-77v-276h-148v700h148v-276h76l86 277h153l-109 -350l110 -352h-154zM313 -245h-142l27 164h195z" />
    <glyph glyph-name="uni0136" unicode="&#x137;" horiz-adv-x="549" 
d="M290 276h-77v-276h-148v700h148v-276h76l86 277h153l-109 -350l110 -352h-154zM313 -245h-142l27 164h195z" />
    <glyph glyph-name="L" unicode="L" horiz-adv-x="514" 
d="M213 700v-560h281v-140h-429v700h148z" />
    <glyph glyph-name="L" unicode="l" horiz-adv-x="514" 
d="M213 700v-560h281v-140h-429v700h148z" />
    <glyph glyph-name="Lacute" unicode="&#x139;" horiz-adv-x="514" 
d="M118 945h160l-58 -163h-160zM213 700v-560h281v-140h-429v700h148z" />
    <glyph glyph-name="Lacute" unicode="&#x13a;" horiz-adv-x="514" 
d="M118 945h160l-58 -163h-160zM213 700v-560h281v-140h-429v700h148z" />
    <glyph glyph-name="Lcaron" unicode="&#x13d;" horiz-adv-x="514" 
d="M65 700h148v-560h281v-140h-429v700zM335 700h161l-68 -193h-161z" />
    <glyph glyph-name="Lcaron" unicode="&#x13e;" horiz-adv-x="514" 
d="M65 700h148v-560h281v-140h-429v700zM335 700h161l-68 -193h-161z" />
    <glyph glyph-name="uni013B" unicode="&#x13b;" horiz-adv-x="514" 
d="M213 700v-560h281v-140h-429v700h148zM297 -245h-142l27 164h195z" />
    <glyph glyph-name="uni013B" unicode="&#x13c;" horiz-adv-x="514" 
d="M213 700v-560h281v-140h-429v700h148zM297 -245h-142l27 164h195z" />
    <glyph glyph-name="Ldot" unicode="&#x13f;" horiz-adv-x="514" 
d="M213 700v-560h281v-140h-429v700h148zM303 430h162v-163h-162v163z" />
    <glyph glyph-name="Ldot" unicode="&#x140;" horiz-adv-x="514" 
d="M213 700v-560h281v-140h-429v700h148zM303 430h162v-163h-162v163z" />
    <glyph glyph-name="uni1E36" unicode="&#x1e36;" horiz-adv-x="514" 
d="M213 700v-560h281v-140h-429v700h148zM357 -245h-154v164h154v-164z" />
    <glyph glyph-name="uni1E36" unicode="&#x1e37;" horiz-adv-x="514" 
d="M213 700v-560h281v-140h-429v700h148zM357 -245h-154v164h154v-164z" />
    <glyph glyph-name="uni1E38" unicode="&#x1e38;" horiz-adv-x="514" 
d="M-27 908h334v-126h-334v126zM213 700v-560h281v-140h-429v700h148zM357 -245h-154v164h154v-164z" />
    <glyph glyph-name="uni1E38" unicode="&#x1e39;" horiz-adv-x="514" 
d="M-27 908h334v-126h-334v126zM213 700v-560h281v-140h-429v700h148zM357 -245h-154v164h154v-164z" />
    <glyph glyph-name="Lslash" unicode="&#x141;" horiz-adv-x="514" 
d="M213 250v-110h281v-140h-429v700h148v-281l236 135v-170z" />
    <glyph glyph-name="Lslash" unicode="&#x142;" horiz-adv-x="514" 
d="M213 250v-110h281v-140h-429v700h148v-281l236 135v-170z" />
    <glyph glyph-name="M" unicode="M" horiz-adv-x="831" 
d="M420 178l186 522h160v-700h-138v354h-8l-125 -354h-159l-125 354h-8v-354h-138v700h160l186 -522h9z" />
    <glyph glyph-name="M" unicode="m" horiz-adv-x="831" 
d="M420 178l186 522h160v-700h-138v354h-8l-125 -354h-159l-125 354h-8v-354h-138v700h160l186 -522h9z" />
    <glyph glyph-name="uni1E3E" unicode="&#x1e3e;" horiz-adv-x="831" 
d="M394 947h160l-58 -163h-160zM420 178l186 522h160v-700h-138v354h-8l-125 -354h-159l-125 354h-8v-354h-138v700h160l186 -522h9z" />
    <glyph glyph-name="uni1E3E" unicode="&#x1e3f;" horiz-adv-x="831" 
d="M394 947h160l-58 -163h-160zM420 178l186 522h160v-700h-138v354h-8l-125 -354h-159l-125 354h-8v-354h-138v700h160l186 -522h9z" />
    <glyph glyph-name="uni1E40" unicode="&#x1e40;" horiz-adv-x="831" 
d="M420 178l186 522h160v-700h-138v354h-8l-125 -354h-159l-125 354h-8v-354h-138v700h160l186 -522h9zM497 784h-162v163h162v-163z" />
    <glyph glyph-name="uni1E40" unicode="&#x1e41;" horiz-adv-x="831" 
d="M420 178l186 522h160v-700h-138v354h-8l-125 -354h-159l-125 354h-8v-354h-138v700h160l186 -522h9zM497 784h-162v163h162v-163z" />
    <glyph glyph-name="uni1E42" unicode="&#x1e42;" horiz-adv-x="831" 
d="M420 178l186 522h160v-700h-138v354h-8l-125 -354h-159l-125 354h-8v-354h-138v700h160l186 -522h9zM493 -246h-154v164h154v-164z" />
    <glyph glyph-name="uni1E42" unicode="&#x1e43;" horiz-adv-x="831" 
d="M420 178l186 522h160v-700h-138v354h-8l-125 -354h-159l-125 354h-8v-354h-138v700h160l186 -522h9zM493 -246h-154v164h154v-164z" />
    <glyph glyph-name="N" unicode="N" horiz-adv-x="562" 
d="M203 0h-138v700h145l141 -371h8v371h138v-700h-145l-141 369h-8v-369z" />
    <glyph glyph-name="N" unicode="n" horiz-adv-x="562" 
d="M203 0h-138v700h145l141 -371h8v371h138v-700h-145l-141 369h-8v-369z" />
    <glyph glyph-name="uni01CA" unicode="&#x1ca;" horiz-adv-x="1059" 
d="M203 0h-138v700h145l141 -371h8v371h138v-700h-145l-141 369h-8v-369zM714 -5q-64 0 -105.5 41t-41.5 104v53h143v-42q0 -9 5.5 -14t14.5 -5h102q19 0 19 19v549h148v-560q0 -63 -42 -104t-106 -41h-137z" />
    <glyph glyph-name="uni01CA" unicode="&#x1cc;" horiz-adv-x="1059" 
d="M203 0h-138v700h145l141 -371h8v371h138v-700h-145l-141 369h-8v-369zM714 -5q-64 0 -105.5 41t-41.5 104v53h143v-42q0 -9 5.5 -14t14.5 -5h102q19 0 19 19v549h148v-560q0 -63 -42 -104t-106 -41h-137z" />
    <glyph glyph-name="Nacute" unicode="&#x143;" horiz-adv-x="562" 
d="M361 782h-160l58 163h160zM203 0h-138v700h145l141 -371h8v371h138v-700h-145l-141 369h-8v-369z" />
    <glyph glyph-name="Nacute" unicode="&#x144;" horiz-adv-x="562" 
d="M361 782h-160l58 163h160zM203 0h-138v700h145l141 -371h8v371h138v-700h-145l-141 369h-8v-369z" />
    <glyph glyph-name="Ncaron" unicode="&#x147;" horiz-adv-x="562" 
d="M203 0h-138v700h145l141 -371h8v371h138v-700h-145l-141 369h-8v-369zM281 869l38 76h147l-83 -163h-205l-83 163h147z" />
    <glyph glyph-name="Ncaron" unicode="&#x148;" horiz-adv-x="562" 
d="M203 0h-138v700h145l141 -371h8v371h138v-700h-145l-141 369h-8v-369zM281 869l38 76h147l-83 -163h-205l-83 163h147z" />
    <glyph glyph-name="uni0145" unicode="&#x145;" horiz-adv-x="562" 
d="M203 0h-138v700h145l141 -371h8v371h138v-700h-145l-141 369h-8v-369zM298 -245h-142l27 164h195z" />
    <glyph glyph-name="uni0145" unicode="&#x146;" horiz-adv-x="562" 
d="M203 0h-138v700h145l141 -371h8v371h138v-700h-145l-141 369h-8v-369zM298 -245h-142l27 164h195z" />
    <glyph glyph-name="uni1E44" unicode="&#x1e44;" horiz-adv-x="562" 
d="M203 0h-138v700h145l141 -371h8v371h138v-700h-145l-141 369h-8v-369zM362 782h-162v163h162v-163z" />
    <glyph glyph-name="uni1E44" unicode="&#x1e45;" horiz-adv-x="562" 
d="M203 0h-138v700h145l141 -371h8v371h138v-700h-145l-141 369h-8v-369zM362 782h-162v163h162v-163z" />
    <glyph glyph-name="uni1E46" unicode="&#x1e46;" horiz-adv-x="562" 
d="M203 0h-138v700h145l141 -371h8v371h138v-700h-145l-141 369h-8v-369zM358 -245h-154v164h154v-164z" />
    <glyph glyph-name="uni1E46" unicode="&#x1e47;" horiz-adv-x="562" 
d="M203 0h-138v700h145l141 -371h8v371h138v-700h-145l-141 369h-8v-369zM358 -245h-154v164h154v-164z" />
    <glyph glyph-name="uni01F8" unicode="&#x1f8;" horiz-adv-x="562" 
d="M301 945l58 -163h-160l-58 163h160zM203 0h-138v700h145l141 -371h8v371h138v-700h-145l-141 369h-8v-369z" />
    <glyph glyph-name="uni01F8" unicode="&#x1f9;" horiz-adv-x="562" 
d="M301 945l58 -163h-160l-58 163h160zM203 0h-138v700h145l141 -371h8v371h138v-700h-145l-141 369h-8v-369z" />
    <glyph glyph-name="Eng" unicode="&#x14a;" horiz-adv-x="562" 
d="M290 -141v140h48q8 0 13 4l-140 366h-8v-369h-138v700h145l141 -371h8v371h138v-700q0 -39 -19 -71t-50.5 -51t-69.5 -19h-68z" />
    <glyph glyph-name="Eng" unicode="&#x14b;" horiz-adv-x="562" 
d="M290 -141v140h48q8 0 13 4l-140 366h-8v-369h-138v700h145l141 -371h8v371h138v-700q0 -39 -19 -71t-50.5 -51t-69.5 -19h-68z" />
    <glyph glyph-name="uni019D" unicode="&#x19d;" horiz-adv-x="562" 
d="M-5 -141v140h48q8 0 14.5 6t6.5 16v679h146l141 -371h8v371h138v-700h-145l-141 369h-7v-370q0 -38 -19.5 -70.5t-52 -51t-68.5 -18.5h-69z" />
    <glyph glyph-name="uni019D" unicode="&#x272;" horiz-adv-x="562" 
d="M-5 -141v140h48q8 0 14.5 6t6.5 16v679h146l141 -371h8v371h138v-700h-145l-141 369h-7v-370q0 -38 -19.5 -70.5t-52 -51t-68.5 -18.5h-69z" />
    <glyph glyph-name="Ntilde" unicode="&#xd1;" horiz-adv-x="562" 
d="M297 793l-60 29q-2 1 -6 1q-5 0 -8 -3.5t-3 -8.5v-28h-127v38q0 58 33 93t81 35q28 0 58 -14l60 -29q4 -2 6 -2q5 0 8 3.5t3 9.5v28h127v-37q0 -58 -33 -93.5t-81 -35.5q-30 0 -58 14zM203 0h-138v700h145l141 -371h8v371h138v-700h-145l-141 369h-8v-369z" />
    <glyph glyph-name="Ntilde" unicode="&#xf1;" horiz-adv-x="562" 
d="M297 793l-60 29q-2 1 -6 1q-5 0 -8 -3.5t-3 -8.5v-28h-127v38q0 58 33 93t81 35q28 0 58 -14l60 -29q4 -2 6 -2q5 0 8 3.5t3 9.5v28h127v-37q0 -58 -33 -93.5t-81 -35.5q-30 0 -58 14zM203 0h-138v700h145l141 -371h8v371h138v-700h-145l-141 369h-8v-369z" />
    <glyph glyph-name="O" unicode="O" 
d="M202 -5q-63 0 -105 41t-42 104v420q0 63 42 104t105 41h137q63 0 105 -41t42 -104v-420q0 -63 -42 -104t-105 -41h-137zM324 135q19 0 19 19v392q0 19 -19 19h-107q-8 0 -13 -5t-5 -14v-392q0 -9 5 -14t13 -5h107z" />
    <glyph glyph-name="O" unicode="o" 
d="M202 -5q-63 0 -105 41t-42 104v420q0 63 42 104t105 41h137q63 0 105 -41t42 -104v-420q0 -63 -42 -104t-105 -41h-137zM324 135q19 0 19 19v392q0 19 -19 19h-107q-8 0 -13 -5t-5 -14v-392q0 -9 5 -14t13 -5h107z" />
    <glyph glyph-name="Oacute" unicode="&#xd3;" 
d="M351 782h-160l58 163h160zM202 -5q-63 0 -105 41t-42 104v420q0 63 42 104t105 41h137q63 0 105 -41t42 -104v-420q0 -63 -42 -104t-105 -41h-137zM324 135q19 0 19 19v392q0 19 -19 19h-107q-8 0 -13 -5t-5 -14v-392q0 -9 5 -14t13 -5h107z" />
    <glyph glyph-name="Oacute" unicode="&#xf3;" 
d="M351 782h-160l58 163h160zM202 -5q-63 0 -105 41t-42 104v420q0 63 42 104t105 41h137q63 0 105 -41t42 -104v-420q0 -63 -42 -104t-105 -41h-137zM324 135q19 0 19 19v392q0 19 -19 19h-107q-8 0 -13 -5t-5 -14v-392q0 -9 5 -14t13 -5h107z" />
    <glyph glyph-name="Obreve" unicode="&#x14e;" 
d="M202 -5q-63 0 -105 41t-42 104v420q0 63 42 104t105 41h137q63 0 105 -41t42 -104v-420q0 -63 -42 -104t-105 -41h-137zM324 135q19 0 19 19v392q0 19 -19 19h-107q-8 0 -13 -5t-5 -14v-392q0 -9 5 -14t13 -5h107zM150 819q-49 43 -61 126h136q1 -27 14 -41t32 -14
t31.5 14t13.5 41h137q-13 -83 -62 -126t-121 -43q-71 0 -120 43z" />
    <glyph glyph-name="Obreve" unicode="&#x14f;" 
d="M202 -5q-63 0 -105 41t-42 104v420q0 63 42 104t105 41h137q63 0 105 -41t42 -104v-420q0 -63 -42 -104t-105 -41h-137zM324 135q19 0 19 19v392q0 19 -19 19h-107q-8 0 -13 -5t-5 -14v-392q0 -9 5 -14t13 -5h107zM150 819q-49 43 -61 126h136q1 -27 14 -41t32 -14
t31.5 14t13.5 41h137q-13 -83 -62 -126t-121 -43q-71 0 -120 43z" />
    <glyph glyph-name="uni01D1" unicode="&#x1d1;" 
d="M202 -5q-63 0 -105 41t-42 104v420q0 63 42 104t105 41h137q63 0 105 -41t42 -104v-420q0 -63 -42 -104t-105 -41h-137zM324 135q19 0 19 19v392q0 19 -19 19h-107q-8 0 -13 -5t-5 -14v-392q0 -9 5 -14t13 -5h107zM271 869l38 76h147l-83 -163h-205l-83 163h147z" />
    <glyph glyph-name="uni01D1" unicode="&#x1d2;" 
d="M202 -5q-63 0 -105 41t-42 104v420q0 63 42 104t105 41h137q63 0 105 -41t42 -104v-420q0 -63 -42 -104t-105 -41h-137zM324 135q19 0 19 19v392q0 19 -19 19h-107q-8 0 -13 -5t-5 -14v-392q0 -9 5 -14t13 -5h107zM271 869l38 76h147l-83 -163h-205l-83 163h147z" />
    <glyph glyph-name="Ocircumflex" unicode="&#xd4;" 
d="M202 -5q-63 0 -105 41t-42 104v420q0 63 42 104t105 41h137q63 0 105 -41t42 -104v-420q0 -63 -42 -104t-105 -41h-137zM324 135q19 0 19 19v392q0 19 -19 19h-107q-8 0 -13 -5t-5 -14v-392q0 -9 5 -14t13 -5h107zM373 945l83 -163h-147l-38 76l-39 -76h-147l83 163h205z
" />
    <glyph glyph-name="Ocircumflex" unicode="&#xf4;" 
d="M202 -5q-63 0 -105 41t-42 104v420q0 63 42 104t105 41h137q63 0 105 -41t42 -104v-420q0 -63 -42 -104t-105 -41h-137zM324 135q19 0 19 19v392q0 19 -19 19h-107q-8 0 -13 -5t-5 -14v-392q0 -9 5 -14t13 -5h107zM373 945l83 -163h-147l-38 76l-39 -76h-147l83 163h205z
" />
    <glyph glyph-name="Odieresis" unicode="&#xd6;" 
d="M202 -5q-63 0 -105 41t-42 104v420q0 63 42 104t105 41h137q63 0 105 -41t42 -104v-420q0 -63 -42 -104t-105 -41h-137zM324 135q19 0 19 19v392q0 19 -19 19h-107q-8 0 -13 -5t-5 -14v-392q0 -9 5 -14t13 -5h107zM248 782h-154v163h154v-163zM447 782h-154v163h154v-163
z" />
    <glyph glyph-name="Odieresis" unicode="&#xf6;" 
d="M202 -5q-63 0 -105 41t-42 104v420q0 63 42 104t105 41h137q63 0 105 -41t42 -104v-420q0 -63 -42 -104t-105 -41h-137zM324 135q19 0 19 19v392q0 19 -19 19h-107q-8 0 -13 -5t-5 -14v-392q0 -9 5 -14t13 -5h107zM248 782h-154v163h154v-163zM447 782h-154v163h154v-163
z" />
    <glyph glyph-name="uni022E" unicode="&#x22e;" 
d="M202 -5q-63 0 -105 41t-42 104v420q0 63 42 104t105 41h137q63 0 105 -41t42 -104v-420q0 -63 -42 -104t-105 -41h-137zM324 135q19 0 19 19v392q0 19 -19 19h-107q-8 0 -13 -5t-5 -14v-392q0 -9 5 -14t13 -5h107zM352 782h-162v163h162v-163z" />
    <glyph glyph-name="uni022E" unicode="&#x22f;" 
d="M202 -5q-63 0 -105 41t-42 104v420q0 63 42 104t105 41h137q63 0 105 -41t42 -104v-420q0 -63 -42 -104t-105 -41h-137zM324 135q19 0 19 19v392q0 19 -19 19h-107q-8 0 -13 -5t-5 -14v-392q0 -9 5 -14t13 -5h107zM352 782h-162v163h162v-163z" />
    <glyph glyph-name="uni1ECC" unicode="&#x1ecc;" 
d="M202 -5q-63 0 -105 41t-42 104v420q0 63 42 104t105 41h137q63 0 105 -41t42 -104v-420q0 -63 -42 -104t-105 -41h-137zM324 135q19 0 19 19v392q0 19 -19 19h-107q-8 0 -13 -5t-5 -14v-392q0 -9 5 -14t13 -5h107zM348 -245h-154v164h154v-164z" />
    <glyph glyph-name="uni1ECC" unicode="&#x1ecd;" 
d="M202 -5q-63 0 -105 41t-42 104v420q0 63 42 104t105 41h137q63 0 105 -41t42 -104v-420q0 -63 -42 -104t-105 -41h-137zM324 135q19 0 19 19v392q0 19 -19 19h-107q-8 0 -13 -5t-5 -14v-392q0 -9 5 -14t13 -5h107zM348 -245h-154v164h154v-164z" />
    <glyph glyph-name="Ograve" unicode="&#xd2;" 
d="M291 945l58 -163h-160l-58 163h160zM202 -5q-63 0 -105 41t-42 104v420q0 63 42 104t105 41h137q63 0 105 -41t42 -104v-420q0 -63 -42 -104t-105 -41h-137zM324 135q19 0 19 19v392q0 19 -19 19h-107q-8 0 -13 -5t-5 -14v-392q0 -9 5 -14t13 -5h107z" />
    <glyph glyph-name="Ograve" unicode="&#xf2;" 
d="M291 945l58 -163h-160l-58 163h160zM202 -5q-63 0 -105 41t-42 104v420q0 63 42 104t105 41h137q63 0 105 -41t42 -104v-420q0 -63 -42 -104t-105 -41h-137zM324 135q19 0 19 19v392q0 19 -19 19h-107q-8 0 -13 -5t-5 -14v-392q0 -9 5 -14t13 -5h107z" />
    <glyph glyph-name="Ohungarumlaut" unicode="&#x150;" 
d="M202 -5q-63 0 -105 41t-42 104v420q0 63 42 104t105 41h137q63 0 105 -41t42 -104v-420q0 -63 -42 -104t-105 -41h-137zM324 135q19 0 19 19v392q0 19 -19 19h-107q-8 0 -13 -5t-5 -14v-392q0 -9 5 -14t13 -5h107zM250 782h-160l58 163h160zM456 782h-160l58 163h160z
" />
    <glyph glyph-name="Ohungarumlaut" unicode="&#x151;" 
d="M202 -5q-63 0 -105 41t-42 104v420q0 63 42 104t105 41h137q63 0 105 -41t42 -104v-420q0 -63 -42 -104t-105 -41h-137zM324 135q19 0 19 19v392q0 19 -19 19h-107q-8 0 -13 -5t-5 -14v-392q0 -9 5 -14t13 -5h107zM250 782h-160l58 163h160zM456 782h-160l58 163h160z
" />
    <glyph glyph-name="Omacron" unicode="&#x14c;" 
d="M202 -5q-63 0 -105 41t-42 104v420q0 63 42 104t105 41h137q63 0 105 -41t42 -104v-420q0 -63 -42 -104t-105 -41h-137zM324 135q19 0 19 19v392q0 19 -19 19h-107q-8 0 -13 -5t-5 -14v-392q0 -9 5 -14t13 -5h107zM438 782h-334v126h334v-126z" />
    <glyph glyph-name="Omacron" unicode="&#x14d;" 
d="M202 -5q-63 0 -105 41t-42 104v420q0 63 42 104t105 41h137q63 0 105 -41t42 -104v-420q0 -63 -42 -104t-105 -41h-137zM324 135q19 0 19 19v392q0 19 -19 19h-107q-8 0 -13 -5t-5 -14v-392q0 -9 5 -14t13 -5h107zM438 782h-334v126h334v-126z" />
    <glyph glyph-name="uni01EA" unicode="&#x1ea;" 
d="M339 705q63 0 105 -41t42 -104v-420q0 -62 -41 -103t-103 -42v-19q0 -23 32 -23h12v-126h-46q-60 0 -100 40t-40 100v28q-62 1 -103.5 42t-41.5 103v420q0 63 42 104t105 41h137zM343 546q0 19 -19 19h-107q-8 0 -13 -5t-5 -14v-392q0 -9 5 -14t13 -5h107q19 0 19 19v392
z" />
    <glyph glyph-name="uni01EA" unicode="&#x1eb;" 
d="M339 705q63 0 105 -41t42 -104v-420q0 -62 -41 -103t-103 -42v-19q0 -23 32 -23h12v-126h-46q-60 0 -100 40t-40 100v28q-62 1 -103.5 42t-41.5 103v420q0 63 42 104t105 41h137zM343 546q0 19 -19 19h-107q-8 0 -13 -5t-5 -14v-392q0 -9 5 -14t13 -5h107q19 0 19 19v392
z" />
    <glyph glyph-name="Oslash" unicode="&#xd8;" 
d="M509 701l-38 -74q15 -28 15 -67v-420q0 -63 -42 -104t-105 -41h-137q-32 0 -56 10l-28 -54l-86 44l39 76q-16 32 -16 69v420q0 63 42 104t105 41h137q30 0 58 -11l27 52zM199 315l130 250h-5h-107q-8 0 -13 -5t-5 -14v-231zM343 383l-129 -248h3h107q19 0 19 19v229z" />
    <glyph glyph-name="Oslash" unicode="&#xf8;" 
d="M509 701l-38 -74q15 -28 15 -67v-420q0 -63 -42 -104t-105 -41h-137q-32 0 -56 10l-28 -54l-86 44l39 76q-16 32 -16 69v420q0 63 42 104t105 41h137q30 0 58 -11l27 52zM199 315l130 250h-5h-107q-8 0 -13 -5t-5 -14v-231zM343 383l-129 -248h3h107q19 0 19 19v229z" />
    <glyph glyph-name="Oslashacute" unicode="&#x1fe;" 
d="M509 701l-38 -74q15 -28 15 -67v-420q0 -63 -42 -104t-105 -41h-137q-32 0 -56 10l-28 -54l-86 44l39 76q-16 32 -16 69v420q0 63 42 104t105 41h137q30 0 58 -11l27 52zM199 315l130 250h-5h-107q-8 0 -13 -5t-5 -14v-231zM343 383l-129 -248h3h107q19 0 19 19v229z
M353 782h-160l58 163h160z" />
    <glyph glyph-name="Oslashacute" unicode="&#x1ff;" 
d="M509 701l-38 -74q15 -28 15 -67v-420q0 -63 -42 -104t-105 -41h-137q-32 0 -56 10l-28 -54l-86 44l39 76q-16 32 -16 69v420q0 63 42 104t105 41h137q30 0 58 -11l27 52zM199 315l130 250h-5h-107q-8 0 -13 -5t-5 -14v-231zM343 383l-129 -248h3h107q19 0 19 19v229z
M353 782h-160l58 163h160z" />
    <glyph glyph-name="Otilde" unicode="&#xd5;" 
d="M287 793l-60 29q-2 1 -6 1q-5 0 -8 -3.5t-3 -8.5v-28h-127v38q0 58 33 93t81 35q28 0 58 -14l60 -29q4 -2 6 -2q5 0 8 3.5t3 9.5v28h127v-37q0 -58 -33 -93.5t-81 -35.5q-30 0 -58 14zM202 -5q-63 0 -105 41t-42 104v420q0 63 42 104t105 41h137q63 0 105 -41t42 -104
v-420q0 -63 -42 -104t-105 -41h-137zM324 135q19 0 19 19v392q0 19 -19 19h-107q-8 0 -13 -5t-5 -14v-392q0 -9 5 -14t13 -5h107z" />
    <glyph glyph-name="Otilde" unicode="&#xf5;" 
d="M287 793l-60 29q-2 1 -6 1q-5 0 -8 -3.5t-3 -8.5v-28h-127v38q0 58 33 93t81 35q28 0 58 -14l60 -29q4 -2 6 -2q5 0 8 3.5t3 9.5v28h127v-37q0 -58 -33 -93.5t-81 -35.5q-30 0 -58 14zM202 -5q-63 0 -105 41t-42 104v420q0 63 42 104t105 41h137q63 0 105 -41t42 -104
v-420q0 -63 -42 -104t-105 -41h-137zM324 135q19 0 19 19v392q0 19 -19 19h-107q-8 0 -13 -5t-5 -14v-392q0 -9 5 -14t13 -5h107z" />
    <glyph glyph-name="OE" unicode="&#x152;" horiz-adv-x="836" 
d="M202 0q-64 0 -105.5 41t-41.5 104v410q0 63 41.5 104t105.5 41h569v-140h-288v-140h271v-140h-271v-140h288v-140h-569zM324 140q19 0 19 20v380q0 20 -19 20h-106q-19 0 -19 -20v-380q0 -20 19 -20h106z" />
    <glyph glyph-name="OE" unicode="&#x153;" horiz-adv-x="836" 
d="M202 0q-64 0 -105.5 41t-41.5 104v410q0 63 41.5 104t105.5 41h569v-140h-288v-140h271v-140h-271v-140h288v-140h-569zM324 140q19 0 19 20v380q0 20 -19 20h-106q-19 0 -19 -20v-380q0 -20 19 -20h106z" />
    <glyph glyph-name="P" unicode="P" horiz-adv-x="528" 
d="M65 0v700h285q63 0 105.5 -41t42.5 -104v-130q0 -63 -42.5 -104t-105.5 -41h-137v-280h-148zM339 420q8 0 13.5 5t5.5 14v102q0 9 -5.5 14t-13.5 5h-131v-140h131z" />
    <glyph glyph-name="P" unicode="p" horiz-adv-x="528" 
d="M65 0v700h285q63 0 105.5 -41t42.5 -104v-130q0 -63 -42.5 -104t-105.5 -41h-137v-280h-148zM339 420q8 0 13.5 5t5.5 14v102q0 9 -5.5 14t-13.5 5h-131v-140h131z" />
    <glyph glyph-name="uni1E56" unicode="&#x1e56;" horiz-adv-x="528" 
d="M65 0v700h285q63 0 105.5 -41t42.5 -104v-130q0 -63 -42.5 -104t-105.5 -41h-137v-280h-148zM339 420q8 0 13.5 5t5.5 14v102q0 9 -5.5 14t-13.5 5h-131v-140h131zM364 782h-162v163h162v-163z" />
    <glyph glyph-name="uni1E56" unicode="&#x1e57;" horiz-adv-x="528" 
d="M65 0v700h285q63 0 105.5 -41t42.5 -104v-130q0 -63 -42.5 -104t-105.5 -41h-137v-280h-148zM339 420q8 0 13.5 5t5.5 14v102q0 9 -5.5 14t-13.5 5h-131v-140h131zM364 782h-162v163h162v-163z" />
    <glyph glyph-name="Thorn" unicode="&#xde;" horiz-adv-x="512" 
d="M357 568q38 0 70 -19t51 -51t19 -70v-140q0 -38 -19 -70t-51 -51t-70 -19h-151v-148h-140v700h140v-132h151zM357 406q0 9 -6.5 15.5t-14.5 6.5h-130v-140h129q9 0 15.5 6.5t6.5 15.5v96z" />
    <glyph glyph-name="Thorn" unicode="&#xfe;" horiz-adv-x="512" 
d="M357 568q38 0 70 -19t51 -51t19 -70v-140q0 -38 -19 -70t-51 -51t-70 -19h-151v-148h-140v700h140v-132h151zM357 406q0 9 -6.5 15.5t-14.5 6.5h-130v-140h129q9 0 15.5 6.5t6.5 15.5v96z" />
    <glyph glyph-name="Q" unicode="Q" horiz-adv-x="571" 
d="M202 0q-63 0 -105 41t-42 104v415q0 63 42 104t105 41h137q63 0 105 -41t42 -104v-424h65v-136h-349zM343 136v410q0 19 -19 19h-107q-8 0 -13 -5t-5 -14v-391q0 -9 5 -14t13 -5h126z" />
    <glyph glyph-name="Q" unicode="q" horiz-adv-x="571" 
d="M202 0q-63 0 -105 41t-42 104v415q0 63 42 104t105 41h137q63 0 105 -41t42 -104v-424h65v-136h-349zM343 136v410q0 19 -19 19h-107q-8 0 -13 -5t-5 -14v-391q0 -9 5 -14t13 -5h126z" />
    <glyph glyph-name="R" unicode="R" horiz-adv-x="553" 
d="M543 0h-160l-161 303h-9v-303h-148v700h285q63 0 105.5 -41t42.5 -104v-124q0 -54 -32 -92t-82 -49zM340 420q8 0 13.5 5t5.5 14v102q0 9 -5.5 14t-13.5 5h-134v-140h134z" />
    <glyph glyph-name="R" unicode="r" horiz-adv-x="553" 
d="M543 0h-160l-161 303h-9v-303h-148v700h285q63 0 105.5 -41t42.5 -104v-124q0 -54 -32 -92t-82 -49zM340 420q8 0 13.5 5t5.5 14v102q0 9 -5.5 14t-13.5 5h-134v-140h134z" />
    <glyph glyph-name="Racute" unicode="&#x154;" horiz-adv-x="553" 
d="M261 945h160l-58 -163h-160zM543 0h-160l-161 303h-9v-303h-148v700h285q63 0 105.5 -41t42.5 -104v-124q0 -54 -32 -92t-82 -49zM340 420q8 0 13.5 5t5.5 14v102q0 9 -5.5 14t-13.5 5h-134v-140h134z" />
    <glyph glyph-name="Racute" unicode="&#x155;" horiz-adv-x="553" 
d="M261 945h160l-58 -163h-160zM543 0h-160l-161 303h-9v-303h-148v700h285q63 0 105.5 -41t42.5 -104v-124q0 -54 -32 -92t-82 -49zM340 420q8 0 13.5 5t5.5 14v102q0 9 -5.5 14t-13.5 5h-134v-140h134z" />
    <glyph glyph-name="Rcaron" unicode="&#x158;" horiz-adv-x="553" 
d="M543 0h-160l-161 303h-9v-303h-148v700h285q63 0 105.5 -41t42.5 -104v-124q0 -54 -32 -92t-82 -49zM340 420q8 0 13.5 5t5.5 14v102q0 9 -5.5 14t-13.5 5h-134v-140h134zM283 869l38 76h147l-83 -163h-205l-83 163h147z" />
    <glyph glyph-name="Rcaron" unicode="&#x159;" horiz-adv-x="553" 
d="M543 0h-160l-161 303h-9v-303h-148v700h285q63 0 105.5 -41t42.5 -104v-124q0 -54 -32 -92t-82 -49zM340 420q8 0 13.5 5t5.5 14v102q0 9 -5.5 14t-13.5 5h-134v-140h134zM283 869l38 76h147l-83 -163h-205l-83 163h147z" />
    <glyph glyph-name="uni0156" unicode="&#x156;" horiz-adv-x="553" 
d="M213 303v-303h-148v700h285q63 0 105.5 -41t42.5 -104v-124q0 -54 -32 -92t-82 -49l159 -290h-160l-161 303h-9zM206 560v-140h134q8 0 13.5 5t5.5 14v102q0 9 -5.5 14t-13.5 5h-134zM316 -245h-142l27 164h195z" />
    <glyph glyph-name="uni0156" unicode="&#x157;" horiz-adv-x="553" 
d="M213 303v-303h-148v700h285q63 0 105.5 -41t42.5 -104v-124q0 -54 -32 -92t-82 -49l159 -290h-160l-161 303h-9zM206 560v-140h134q8 0 13.5 5t5.5 14v102q0 9 -5.5 14t-13.5 5h-134zM316 -245h-142l27 164h195z" />
    <glyph glyph-name="uni1E5A" unicode="&#x1e5a;" horiz-adv-x="553" 
d="M543 0h-160l-161 303h-9v-303h-148v700h285q63 0 105.5 -41t42.5 -104v-124q0 -54 -32 -92t-82 -49zM340 420q8 0 13.5 5t5.5 14v102q0 9 -5.5 14t-13.5 5h-134v-140h134zM376 -245h-154v164h154v-164z" />
    <glyph glyph-name="uni1E5A" unicode="&#x1e5b;" horiz-adv-x="553" 
d="M543 0h-160l-161 303h-9v-303h-148v700h285q63 0 105.5 -41t42.5 -104v-124q0 -54 -32 -92t-82 -49zM340 420q8 0 13.5 5t5.5 14v102q0 9 -5.5 14t-13.5 5h-134v-140h134zM376 -245h-154v164h154v-164z" />
    <glyph glyph-name="uni1E5C" unicode="&#x1e5c;" horiz-adv-x="553" 
d="M116 908h334v-126h-334v126zM543 0h-160l-161 303h-9v-303h-148v700h285q63 0 105.5 -41t42.5 -104v-124q0 -54 -32 -92t-82 -49zM340 420q8 0 13.5 5t5.5 14v102q0 9 -5.5 14t-13.5 5h-134v-140h134zM376 -245h-154v164h154v-164z" />
    <glyph glyph-name="uni1E5C" unicode="&#x1e5d;" horiz-adv-x="553" 
d="M116 908h334v-126h-334v126zM543 0h-160l-161 303h-9v-303h-148v700h285q63 0 105.5 -41t42.5 -104v-124q0 -54 -32 -92t-82 -49zM340 420q8 0 13.5 5t5.5 14v102q0 9 -5.5 14t-13.5 5h-134v-140h134zM376 -245h-154v164h154v-164z" />
    <glyph glyph-name="S" unicode="S" horiz-adv-x="522" 
d="M193 -5q-41 0 -75 19t-53.5 52t-19.5 74v53h143v-38q0 -9 5.5 -14.5t13.5 -5.5h105q25 0 25 25v24q0 19 -15 30l-179 137q-50 38 -72.5 70.5t-22.5 70.5v68q0 63 41.5 104t106.5 41h133q63 0 105.5 -41t42.5 -104v-52h-143v37q0 9 -5.5 14.5t-13.5 5.5h-102
q-25 0 -25 -25v-22q0 -19 15 -30l177 -135q50 -38 73.5 -69.5t23.5 -67.5v-76q0 -63 -41.5 -104t-106.5 -41h-136z" />
    <glyph glyph-name="S" unicode="s" horiz-adv-x="522" 
d="M193 -5q-41 0 -75 19t-53.5 52t-19.5 74v53h143v-38q0 -9 5.5 -14.5t13.5 -5.5h105q25 0 25 25v24q0 19 -15 30l-179 137q-50 38 -72.5 70.5t-22.5 70.5v68q0 63 41.5 104t106.5 41h133q63 0 105.5 -41t42.5 -104v-52h-143v37q0 9 -5.5 14.5t-13.5 5.5h-102
q-25 0 -25 -25v-22q0 -19 15 -30l177 -135q50 -38 73.5 -69.5t23.5 -67.5v-76q0 -63 -41.5 -104t-106.5 -41h-136z" />
    <glyph glyph-name="Sacute" unicode="&#x15a;" horiz-adv-x="522" 
d="M341 782h-160l58 163h160zM193 -5q-41 0 -75 19t-53.5 52t-19.5 74v53h143v-38q0 -9 5.5 -14.5t13.5 -5.5h105q25 0 25 25v24q0 19 -15 30l-179 137q-50 38 -72.5 70.5t-22.5 70.5v68q0 63 41.5 104t106.5 41h133q63 0 105.5 -41t42.5 -104v-52h-143v37q0 9 -5.5 14.5
t-13.5 5.5h-102q-25 0 -25 -25v-22q0 -19 15 -30l177 -135q50 -38 73.5 -69.5t23.5 -67.5v-76q0 -63 -41.5 -104t-106.5 -41h-136z" />
    <glyph glyph-name="Sacute" unicode="&#x15b;" horiz-adv-x="522" 
d="M341 782h-160l58 163h160zM193 -5q-41 0 -75 19t-53.5 52t-19.5 74v53h143v-38q0 -9 5.5 -14.5t13.5 -5.5h105q25 0 25 25v24q0 19 -15 30l-179 137q-50 38 -72.5 70.5t-22.5 70.5v68q0 63 41.5 104t106.5 41h133q63 0 105.5 -41t42.5 -104v-52h-143v37q0 9 -5.5 14.5
t-13.5 5.5h-102q-25 0 -25 -25v-22q0 -19 15 -30l177 -135q50 -38 73.5 -69.5t23.5 -67.5v-76q0 -63 -41.5 -104t-106.5 -41h-136z" />
    <glyph glyph-name="Scaron" unicode="&#x160;" horiz-adv-x="522" 
d="M193 -5q-41 0 -75 19t-53.5 52t-19.5 74v53h143v-38q0 -9 5.5 -14.5t13.5 -5.5h105q25 0 25 25v24q0 19 -15 30l-179 137q-50 38 -72.5 70.5t-22.5 70.5v68q0 63 41.5 104t106.5 41h133q63 0 105.5 -41t42.5 -104v-52h-143v37q0 9 -5.5 14.5t-13.5 5.5h-102
q-25 0 -25 -25v-22q0 -19 15 -30l177 -135q50 -38 73.5 -69.5t23.5 -67.5v-76q0 -63 -41.5 -104t-106.5 -41h-136zM261 869l38 76h147l-83 -163h-205l-83 163h147z" />
    <glyph glyph-name="Scaron" unicode="&#x161;" horiz-adv-x="522" 
d="M193 -5q-41 0 -75 19t-53.5 52t-19.5 74v53h143v-38q0 -9 5.5 -14.5t13.5 -5.5h105q25 0 25 25v24q0 19 -15 30l-179 137q-50 38 -72.5 70.5t-22.5 70.5v68q0 63 41.5 104t106.5 41h133q63 0 105.5 -41t42.5 -104v-52h-143v37q0 9 -5.5 14.5t-13.5 5.5h-102
q-25 0 -25 -25v-22q0 -19 15 -30l177 -135q50 -38 73.5 -69.5t23.5 -67.5v-76q0 -63 -41.5 -104t-106.5 -41h-136zM261 869l38 76h147l-83 -163h-205l-83 163h147z" />
    <glyph glyph-name="Scedilla" unicode="&#x15e;" horiz-adv-x="522" 
d="M193 -5q-41 0 -75 19t-53.5 52t-19.5 74v53h143v-38q0 -9 5.5 -14.5t13.5 -5.5h105q25 0 25 25v24q0 19 -15 30l-179 137q-50 38 -72.5 70.5t-22.5 70.5v68q0 63 41.5 104t106.5 41h133q63 0 105.5 -41t42.5 -104v-52h-143v37q0 9 -5.5 14.5t-13.5 5.5h-102
q-25 0 -25 -25v-22q0 -19 15 -30l177 -135q50 -38 73.5 -69.5t23.5 -67.5v-76q0 -63 -41.5 -104t-106.5 -41h-136zM306 -245h-195l80 164h142z" />
    <glyph glyph-name="Scedilla" unicode="&#x15f;" horiz-adv-x="522" 
d="M193 -5q-41 0 -75 19t-53.5 52t-19.5 74v53h143v-38q0 -9 5.5 -14.5t13.5 -5.5h105q25 0 25 25v24q0 19 -15 30l-179 137q-50 38 -72.5 70.5t-22.5 70.5v68q0 63 41.5 104t106.5 41h133q63 0 105.5 -41t42.5 -104v-52h-143v37q0 9 -5.5 14.5t-13.5 5.5h-102
q-25 0 -25 -25v-22q0 -19 15 -30l177 -135q50 -38 73.5 -69.5t23.5 -67.5v-76q0 -63 -41.5 -104t-106.5 -41h-136zM306 -245h-195l80 164h142z" />
    <glyph glyph-name="Scircumflex" unicode="&#x15c;" horiz-adv-x="522" 
d="M193 -5q-41 0 -75 19t-53.5 52t-19.5 74v53h143v-38q0 -9 5.5 -14.5t13.5 -5.5h105q25 0 25 25v24q0 19 -15 30l-179 137q-50 38 -72.5 70.5t-22.5 70.5v68q0 63 41.5 104t106.5 41h133q63 0 105.5 -41t42.5 -104v-52h-143v37q0 9 -5.5 14.5t-13.5 5.5h-102
q-25 0 -25 -25v-22q0 -19 15 -30l177 -135q50 -38 73.5 -69.5t23.5 -67.5v-76q0 -63 -41.5 -104t-106.5 -41h-136zM363 945l83 -163h-147l-38 76l-39 -76h-147l83 163h205z" />
    <glyph glyph-name="Scircumflex" unicode="&#x15d;" horiz-adv-x="522" 
d="M193 -5q-41 0 -75 19t-53.5 52t-19.5 74v53h143v-38q0 -9 5.5 -14.5t13.5 -5.5h105q25 0 25 25v24q0 19 -15 30l-179 137q-50 38 -72.5 70.5t-22.5 70.5v68q0 63 41.5 104t106.5 41h133q63 0 105.5 -41t42.5 -104v-52h-143v37q0 9 -5.5 14.5t-13.5 5.5h-102
q-25 0 -25 -25v-22q0 -19 15 -30l177 -135q50 -38 73.5 -69.5t23.5 -67.5v-76q0 -63 -41.5 -104t-106.5 -41h-136zM363 945l83 -163h-147l-38 76l-39 -76h-147l83 163h205z" />
    <glyph glyph-name="uni0218" unicode="&#x218;" horiz-adv-x="522" 
d="M193 -5q-41 0 -75 19t-53.5 52t-19.5 74v53h143v-38q0 -9 5.5 -14.5t13.5 -5.5h105q25 0 25 25v24q0 19 -15 30l-179 137q-50 38 -72.5 70.5t-22.5 70.5v68q0 63 41.5 104t106.5 41h133q63 0 105.5 -41t42.5 -104v-52h-143v37q0 9 -5.5 14.5t-13.5 5.5h-102
q-25 0 -25 -25v-22q0 -19 15 -30l177 -135q50 -38 73.5 -69.5t23.5 -67.5v-76q0 -63 -41.5 -104t-106.5 -41h-136zM280 -245h-142l27 164h195z" />
    <glyph glyph-name="uni0218" unicode="&#x219;" horiz-adv-x="522" 
d="M193 -5q-41 0 -75 19t-53.5 52t-19.5 74v53h143v-38q0 -9 5.5 -14.5t13.5 -5.5h105q25 0 25 25v24q0 19 -15 30l-179 137q-50 38 -72.5 70.5t-22.5 70.5v68q0 63 41.5 104t106.5 41h133q63 0 105.5 -41t42.5 -104v-52h-143v37q0 9 -5.5 14.5t-13.5 5.5h-102
q-25 0 -25 -25v-22q0 -19 15 -30l177 -135q50 -38 73.5 -69.5t23.5 -67.5v-76q0 -63 -41.5 -104t-106.5 -41h-136zM280 -245h-142l27 164h195z" />
    <glyph glyph-name="uni1E60" unicode="&#x1e60;" horiz-adv-x="522" 
d="M193 -5q-41 0 -75 19t-53.5 52t-19.5 74v53h143v-38q0 -9 5.5 -14.5t13.5 -5.5h105q25 0 25 25v24q0 19 -15 30l-179 137q-50 38 -72.5 70.5t-22.5 70.5v68q0 63 41.5 104t106.5 41h133q63 0 105.5 -41t42.5 -104v-52h-143v37q0 9 -5.5 14.5t-13.5 5.5h-102
q-25 0 -25 -25v-22q0 -19 15 -30l177 -135q50 -38 73.5 -69.5t23.5 -67.5v-76q0 -63 -41.5 -104t-106.5 -41h-136zM342 782h-162v163h162v-163z" />
    <glyph glyph-name="uni1E60" unicode="&#x1e61;" horiz-adv-x="522" 
d="M193 -5q-41 0 -75 19t-53.5 52t-19.5 74v53h143v-38q0 -9 5.5 -14.5t13.5 -5.5h105q25 0 25 25v24q0 19 -15 30l-179 137q-50 38 -72.5 70.5t-22.5 70.5v68q0 63 41.5 104t106.5 41h133q63 0 105.5 -41t42.5 -104v-52h-143v37q0 9 -5.5 14.5t-13.5 5.5h-102
q-25 0 -25 -25v-22q0 -19 15 -30l177 -135q50 -38 73.5 -69.5t23.5 -67.5v-76q0 -63 -41.5 -104t-106.5 -41h-136zM342 782h-162v163h162v-163z" />
    <glyph glyph-name="uni1E62" unicode="&#x1e62;" horiz-adv-x="522" 
d="M193 -5q-41 0 -75 19t-53.5 52t-19.5 74v53h143v-38q0 -9 5.5 -14.5t13.5 -5.5h105q25 0 25 25v24q0 19 -15 30l-179 137q-50 38 -72.5 70.5t-22.5 70.5v68q0 63 41.5 104t106.5 41h133q63 0 105.5 -41t42.5 -104v-52h-143v37q0 9 -5.5 14.5t-13.5 5.5h-102
q-25 0 -25 -25v-22q0 -19 15 -30l177 -135q50 -38 73.5 -69.5t23.5 -67.5v-76q0 -63 -41.5 -104t-106.5 -41h-136zM340 -245h-154v164h154v-164z" />
    <glyph glyph-name="uni1E62" unicode="&#x1e63;" horiz-adv-x="522" 
d="M193 -5q-41 0 -75 19t-53.5 52t-19.5 74v53h143v-38q0 -9 5.5 -14.5t13.5 -5.5h105q25 0 25 25v24q0 19 -15 30l-179 137q-50 38 -72.5 70.5t-22.5 70.5v68q0 63 41.5 104t106.5 41h133q63 0 105.5 -41t42.5 -104v-52h-143v37q0 9 -5.5 14.5t-13.5 5.5h-102
q-25 0 -25 -25v-22q0 -19 15 -30l177 -135q50 -38 73.5 -69.5t23.5 -67.5v-76q0 -63 -41.5 -104t-106.5 -41h-136zM340 -245h-154v164h154v-164z" />
    <glyph glyph-name="uni1E9E" unicode="&#x1e9e;" horiz-adv-x="558" 
d="M65 0v700h438v-178l-76 -108q39 -11 62.5 -40t23.5 -67v-162q0 -63 -42 -104t-105 -41h-65v145h58q19 0 19 20v100q0 20 -19 20h-110v105l119 165v10h-165v-565h-138z" />
    <glyph glyph-name="uni018F" unicode="&#x18f;" 
d="M339 705q63 0 105 -41t42 -104v-422q0 -41 -19.5 -73.5t-52 -51t-71.5 -18.5h-141q-63 0 -105 41t-42 104v280h291v125q0 20 -19 20h-111q-8 0 -13.5 -5t-5.5 -15v-38h-142v53q0 63 42 104t105 41h137zM346 280h-151v-127q0 -8 5 -13t13 -5h115q8 0 13 5.5t5 12.5v127z
" />
    <glyph glyph-name="uni018F" unicode="&#x259;" 
d="M339 705q63 0 105 -41t42 -104v-422q0 -41 -19.5 -73.5t-52 -51t-71.5 -18.5h-141q-63 0 -105 41t-42 104v280h291v125q0 20 -19 20h-111q-8 0 -13.5 -5t-5.5 -15v-38h-142v53q0 63 42 104t105 41h137zM346 280h-151v-127q0 -8 5 -13t13 -5h115q8 0 13 5.5t5 12.5v127z
" />
    <glyph glyph-name="T" unicode="T" horiz-adv-x="490" 
d="M460 700v-140h-141v-560h-148v560h-141v140h430z" />
    <glyph glyph-name="T" unicode="t" horiz-adv-x="490" 
d="M460 700v-140h-141v-560h-148v560h-141v140h430z" />
    <glyph glyph-name="Tbar" unicode="&#x166;" horiz-adv-x="490" 
d="M460 700v-140h-141v-145h89v-130h-89v-285h-148v285h-88v130h88v145h-141v140h430z" />
    <glyph glyph-name="Tbar" unicode="&#x167;" horiz-adv-x="490" 
d="M460 700v-140h-141v-145h89v-130h-89v-285h-148v285h-88v130h88v145h-141v140h430z" />
    <glyph glyph-name="Tcaron" unicode="&#x164;" horiz-adv-x="490" 
d="M460 700v-140h-141v-560h-148v560h-141v140h430zM245 869l38 76h147l-83 -163h-205l-83 163h147z" />
    <glyph glyph-name="Tcaron" unicode="&#x165;" horiz-adv-x="490" 
d="M460 700v-140h-141v-560h-148v560h-141v140h430zM245 869l38 76h147l-83 -163h-205l-83 163h147z" />
    <glyph glyph-name="uni0162" unicode="&#x162;" horiz-adv-x="490" 
d="M460 700v-140h-141v-560h-148v560h-141v140h430zM288 -245h-195l80 164h142z" />
    <glyph glyph-name="uni0162" unicode="&#x163;" horiz-adv-x="490" 
d="M460 700v-140h-141v-560h-148v560h-141v140h430zM288 -245h-195l80 164h142z" />
    <glyph glyph-name="uni021A" unicode="&#x21a;" horiz-adv-x="490" 
d="M460 700v-140h-141v-560h-148v560h-141v140h430zM262 -245h-142l27 164h195z" />
    <glyph glyph-name="uni021A" unicode="&#x21b;" horiz-adv-x="490" 
d="M460 700v-140h-141v-560h-148v560h-141v140h430zM262 -245h-142l27 164h195z" />
    <glyph glyph-name="uni1E6A" unicode="&#x1e6a;" horiz-adv-x="490" 
d="M460 700v-140h-141v-560h-148v560h-141v140h430zM326 782h-162v163h162v-163z" />
    <glyph glyph-name="uni1E6A" unicode="&#x1e6b;" horiz-adv-x="490" 
d="M460 700v-140h-141v-560h-148v560h-141v140h430zM326 782h-162v163h162v-163z" />
    <glyph glyph-name="uni1E6C" unicode="&#x1e6c;" horiz-adv-x="490" 
d="M460 700v-140h-141v-560h-148v560h-141v140h430zM322 -245h-154v164h154v-164z" />
    <glyph glyph-name="uni1E6C" unicode="&#x1e6d;" horiz-adv-x="490" 
d="M460 700v-140h-141v-560h-148v560h-141v140h430zM322 -245h-154v164h154v-164z" />
    <glyph glyph-name="U" unicode="U" horiz-adv-x="562" 
d="M213 -5q-64 0 -106 41t-42 104v560h144v-546q0 -19 18 -19h106q9 0 14.5 5t5.5 14v546h144v-560q0 -63 -41.5 -104t-104.5 -41h-138z" />
    <glyph glyph-name="U" unicode="u" horiz-adv-x="562" 
d="M213 -5q-64 0 -106 41t-42 104v560h144v-546q0 -19 18 -19h106q9 0 14.5 5t5.5 14v546h144v-560q0 -63 -41.5 -104t-104.5 -41h-138z" />
    <glyph glyph-name="Uacute" unicode="&#xda;" horiz-adv-x="562" 
d="M361 782h-160l58 163h160zM213 -5q-64 0 -106 41t-42 104v560h144v-546q0 -19 18 -19h106q9 0 14.5 5t5.5 14v546h144v-560q0 -63 -41.5 -104t-104.5 -41h-138z" />
    <glyph glyph-name="Uacute" unicode="&#xfa;" horiz-adv-x="562" 
d="M361 782h-160l58 163h160zM213 -5q-64 0 -106 41t-42 104v560h144v-546q0 -19 18 -19h106q9 0 14.5 5t5.5 14v546h144v-560q0 -63 -41.5 -104t-104.5 -41h-138z" />
    <glyph glyph-name="uni0244" unicode="&#x244;" horiz-adv-x="562" 
d="M570 420v-140h-73v-140q0 -63 -41.5 -104t-104.5 -41h-138q-64 0 -106 41t-42 104v140h-74v140h74v280h144v-280h144v280h144v-280h73zM353 280h-144v-126q0 -19 18 -19h106q9 0 14.5 5t5.5 14v126z" />
    <glyph glyph-name="uni0244" unicode="&#x289;" horiz-adv-x="562" 
d="M570 420v-140h-73v-140q0 -63 -41.5 -104t-104.5 -41h-138q-64 0 -106 41t-42 104v140h-74v140h74v280h144v-280h144v280h144v-280h73zM353 280h-144v-126q0 -19 18 -19h106q9 0 14.5 5t5.5 14v126z" />
    <glyph glyph-name="Ubreve" unicode="&#x16c;" horiz-adv-x="562" 
d="M213 -5q-64 0 -106 41t-42 104v560h144v-546q0 -19 18 -19h106q9 0 14.5 5t5.5 14v546h144v-560q0 -63 -41.5 -104t-104.5 -41h-138zM160 819q-49 43 -61 126h136q1 -27 14 -41t32 -14t31.5 14t13.5 41h137q-13 -83 -62 -126t-121 -43q-71 0 -120 43z" />
    <glyph glyph-name="Ubreve" unicode="&#x16d;" horiz-adv-x="562" 
d="M213 -5q-64 0 -106 41t-42 104v560h144v-546q0 -19 18 -19h106q9 0 14.5 5t5.5 14v546h144v-560q0 -63 -41.5 -104t-104.5 -41h-138zM160 819q-49 43 -61 126h136q1 -27 14 -41t32 -14t31.5 14t13.5 41h137q-13 -83 -62 -126t-121 -43q-71 0 -120 43z" />
    <glyph glyph-name="uni01D3" unicode="&#x1d3;" horiz-adv-x="562" 
d="M213 -5q-64 0 -106 41t-42 104v560h144v-546q0 -19 18 -19h106q9 0 14.5 5t5.5 14v546h144v-560q0 -63 -41.5 -104t-104.5 -41h-138zM281 869l38 76h147l-83 -163h-205l-83 163h147z" />
    <glyph glyph-name="uni01D3" unicode="&#x1d4;" horiz-adv-x="562" 
d="M213 -5q-64 0 -106 41t-42 104v560h144v-546q0 -19 18 -19h106q9 0 14.5 5t5.5 14v546h144v-560q0 -63 -41.5 -104t-104.5 -41h-138zM281 869l38 76h147l-83 -163h-205l-83 163h147z" />
    <glyph glyph-name="Ucircumflex" unicode="&#xdb;" horiz-adv-x="562" 
d="M213 -5q-64 0 -106 41t-42 104v560h144v-546q0 -19 18 -19h106q9 0 14.5 5t5.5 14v546h144v-560q0 -63 -41.5 -104t-104.5 -41h-138zM383 945l83 -163h-147l-38 76l-39 -76h-147l83 163h205z" />
    <glyph glyph-name="Ucircumflex" unicode="&#xfb;" horiz-adv-x="562" 
d="M213 -5q-64 0 -106 41t-42 104v560h144v-546q0 -19 18 -19h106q9 0 14.5 5t5.5 14v546h144v-560q0 -63 -41.5 -104t-104.5 -41h-138zM383 945l83 -163h-147l-38 76l-39 -76h-147l83 163h205z" />
    <glyph glyph-name="Udieresis" unicode="&#xdc;" horiz-adv-x="562" 
d="M213 -5q-64 0 -106 41t-42 104v560h144v-546q0 -19 18 -19h106q9 0 14.5 5t5.5 14v546h144v-560q0 -63 -41.5 -104t-104.5 -41h-138zM258 782h-154v163h154v-163zM457 782h-154v163h154v-163z" />
    <glyph glyph-name="Udieresis" unicode="&#xfc;" horiz-adv-x="562" 
d="M213 -5q-64 0 -106 41t-42 104v560h144v-546q0 -19 18 -19h106q9 0 14.5 5t5.5 14v546h144v-560q0 -63 -41.5 -104t-104.5 -41h-138zM258 782h-154v163h154v-163zM457 782h-154v163h154v-163z" />
    <glyph glyph-name="uni1EE4" unicode="&#x1ee4;" horiz-adv-x="562" 
d="M213 -5q-64 0 -106 41t-42 104v560h144v-546q0 -19 18 -19h106q9 0 14.5 5t5.5 14v546h144v-560q0 -63 -41.5 -104t-104.5 -41h-138zM358 -245h-154v164h154v-164z" />
    <glyph glyph-name="uni1EE4" unicode="&#x1ee5;" horiz-adv-x="562" 
d="M213 -5q-64 0 -106 41t-42 104v560h144v-546q0 -19 18 -19h106q9 0 14.5 5t5.5 14v546h144v-560q0 -63 -41.5 -104t-104.5 -41h-138zM358 -245h-154v164h154v-164z" />
    <glyph glyph-name="Ugrave" unicode="&#xd9;" horiz-adv-x="562" 
d="M301 945l58 -163h-160l-58 163h160zM213 -5q-64 0 -106 41t-42 104v560h144v-546q0 -19 18 -19h106q9 0 14.5 5t5.5 14v546h144v-560q0 -63 -41.5 -104t-104.5 -41h-138z" />
    <glyph glyph-name="Ugrave" unicode="&#xf9;" horiz-adv-x="562" 
d="M301 945l58 -163h-160l-58 163h160zM213 -5q-64 0 -106 41t-42 104v560h144v-546q0 -19 18 -19h106q9 0 14.5 5t5.5 14v546h144v-560q0 -63 -41.5 -104t-104.5 -41h-138z" />
    <glyph glyph-name="Uhungarumlaut" unicode="&#x170;" horiz-adv-x="562" 
d="M213 -5q-64 0 -106 41t-42 104v560h144v-546q0 -19 18 -19h106q9 0 14.5 5t5.5 14v546h144v-560q0 -63 -41.5 -104t-104.5 -41h-138zM260 782h-160l58 163h160zM466 782h-160l58 163h160z" />
    <glyph glyph-name="Uhungarumlaut" unicode="&#x171;" horiz-adv-x="562" 
d="M213 -5q-64 0 -106 41t-42 104v560h144v-546q0 -19 18 -19h106q9 0 14.5 5t5.5 14v546h144v-560q0 -63 -41.5 -104t-104.5 -41h-138zM260 782h-160l58 163h160zM466 782h-160l58 163h160z" />
    <glyph glyph-name="Umacron" unicode="&#x16a;" horiz-adv-x="562" 
d="M213 -5q-64 0 -106 41t-42 104v560h144v-546q0 -19 18 -19h106q9 0 14.5 5t5.5 14v546h144v-560q0 -63 -41.5 -104t-104.5 -41h-138zM448 782h-334v126h334v-126z" />
    <glyph glyph-name="Umacron" unicode="&#x16b;" horiz-adv-x="562" 
d="M213 -5q-64 0 -106 41t-42 104v560h144v-546q0 -19 18 -19h106q9 0 14.5 5t5.5 14v546h144v-560q0 -63 -41.5 -104t-104.5 -41h-138zM448 782h-334v126h334v-126z" />
    <glyph glyph-name="Uogonek" unicode="&#x172;" horiz-adv-x="562" 
d="M353 700h144v-560q0 -63 -41.5 -104t-103.5 -41v-19q0 -23 32 -23h12v-126h-46q-60 0 -100 40t-40 100v28q-62 1 -103.5 42t-41.5 103v560h144v-546q0 -19 18 -19h106q9 0 14.5 5t5.5 14v546z" />
    <glyph glyph-name="Uogonek" unicode="&#x173;" horiz-adv-x="562" 
d="M353 700h144v-560q0 -63 -41.5 -104t-103.5 -41v-19q0 -23 32 -23h12v-126h-46q-60 0 -100 40t-40 100v28q-62 1 -103.5 42t-41.5 103v560h144v-546q0 -19 18 -19h106q9 0 14.5 5t5.5 14v546z" />
    <glyph glyph-name="Uring" unicode="&#x16e;" horiz-adv-x="562" 
d="M213 -5q-64 0 -106 41t-42 104v560h144v-546q0 -19 18 -19h106q9 0 14.5 5t5.5 14v546h144v-560q0 -63 -41.5 -104t-104.5 -41h-138zM219 711.5q-30 17.5 -48 46.5t-18 63t17.5 64t46.5 48t62 18q35 0 65 -17t48 -46.5t18 -63.5t-17 -64t-46.5 -48t-63.5 -18t-64 17.5z
M301.5 802q7.5 8 8.5 20q0 13 -8 21t-21 9q-12 -1 -20 -9t-9 -21q2 -12 9.5 -20t19.5 -9q13 1 20.5 9z" />
    <glyph glyph-name="Uring" unicode="&#x16f;" horiz-adv-x="562" 
d="M213 -5q-64 0 -106 41t-42 104v560h144v-546q0 -19 18 -19h106q9 0 14.5 5t5.5 14v546h144v-560q0 -63 -41.5 -104t-104.5 -41h-138zM219 711.5q-30 17.5 -48 46.5t-18 63t17.5 64t46.5 48t62 18q35 0 65 -17t48 -46.5t18 -63.5t-17 -64t-46.5 -48t-63.5 -18t-64 17.5z
M301.5 802q7.5 8 8.5 20q0 13 -8 21t-21 9q-12 -1 -20 -9t-9 -21q2 -12 9.5 -20t19.5 -9q13 1 20.5 9z" />
    <glyph glyph-name="Utilde" unicode="&#x168;" horiz-adv-x="562" 
d="M297 793l-60 29q-2 1 -6 1q-5 0 -8 -3.5t-3 -8.5v-28h-127v38q0 58 33 93t81 35q28 0 58 -14l60 -29q4 -2 6 -2q5 0 8 3.5t3 9.5v28h127v-37q0 -58 -33 -93.5t-81 -35.5q-30 0 -58 14zM213 -5q-64 0 -106 41t-42 104v560h144v-546q0 -19 18 -19h106q9 0 14.5 5t5.5 14
v546h144v-560q0 -63 -41.5 -104t-104.5 -41h-138z" />
    <glyph glyph-name="Utilde" unicode="&#x169;" horiz-adv-x="562" 
d="M297 793l-60 29q-2 1 -6 1q-5 0 -8 -3.5t-3 -8.5v-28h-127v38q0 58 33 93t81 35q28 0 58 -14l60 -29q4 -2 6 -2q5 0 8 3.5t3 9.5v28h127v-37q0 -58 -33 -93.5t-81 -35.5q-30 0 -58 14zM213 -5q-64 0 -106 41t-42 104v560h144v-546q0 -19 18 -19h106q9 0 14.5 5t5.5 14
v546h144v-560q0 -63 -41.5 -104t-104.5 -41h-138z" />
    <glyph glyph-name="V" unicode="V" horiz-adv-x="544" 
d="M372 0h-200l-152 700h153l97 -466h10l97 466h147z" />
    <glyph glyph-name="V" unicode="v" horiz-adv-x="544" 
d="M372 0h-200l-152 700h153l97 -466h10l97 466h147z" />
    <glyph glyph-name="uni1E7C" unicode="&#x1e7c;" horiz-adv-x="544" 
d="M288 793l-60 29q-2 1 -6 1q-5 0 -8 -3.5t-3 -8.5v-28h-127v38q0 58 33 93t81 35q28 0 58 -14l60 -29q4 -2 6 -2q5 0 8 3.5t3 9.5v28h127v-37q0 -58 -33 -93.5t-81 -35.5q-30 0 -58 14zM372 0h-200l-152 700h153l97 -466h10l97 466h147z" />
    <glyph glyph-name="uni1E7C" unicode="&#x1e7d;" horiz-adv-x="544" 
d="M288 793l-60 29q-2 1 -6 1q-5 0 -8 -3.5t-3 -8.5v-28h-127v38q0 58 33 93t81 35q28 0 58 -14l60 -29q4 -2 6 -2q5 0 8 3.5t3 9.5v28h127v-37q0 -58 -33 -93.5t-81 -35.5q-30 0 -58 14zM372 0h-200l-152 700h153l97 -466h10l97 466h147z" />
    <glyph glyph-name="W" unicode="W" horiz-adv-x="752" 
d="M300 0h-152l-118 700h142l62 -394h14l67 394h122l67 -394h14l62 394h142l-118 -700h-152l-70 343h-12z" />
    <glyph glyph-name="W" unicode="w" horiz-adv-x="752" 
d="M300 0h-152l-118 700h142l62 -394h14l67 394h122l67 -394h14l62 394h142l-118 -700h-152l-70 343h-12z" />
    <glyph glyph-name="Wacute" unicode="&#x1e82;" horiz-adv-x="752" 
d="M456 782h-160l58 163h160zM300 0h-152l-118 700h142l62 -394h14l67 394h122l67 -394h14l62 394h142l-118 -700h-152l-70 343h-12z" />
    <glyph glyph-name="Wacute" unicode="&#x1e83;" horiz-adv-x="752" 
d="M456 782h-160l58 163h160zM300 0h-152l-118 700h142l62 -394h14l67 394h122l67 -394h14l62 394h142l-118 -700h-152l-70 343h-12z" />
    <glyph glyph-name="Wcircumflex" unicode="&#x174;" horiz-adv-x="752" 
d="M414 782l-38 76l-39 -76h-147l83 163h205l83 -163h-147zM518 306l62 394h142l-118 -700h-152l-70 343h-12l-70 -343h-152l-118 700h142l62 -394h14l67 394h122l67 -394h14z" />
    <glyph glyph-name="Wcircumflex" unicode="&#x175;" horiz-adv-x="752" 
d="M414 782l-38 76l-39 -76h-147l83 163h205l83 -163h-147zM518 306l62 394h142l-118 -700h-152l-70 343h-12l-70 -343h-152l-118 700h142l62 -394h14l67 394h122l67 -394h14z" />
    <glyph glyph-name="Wdieresis" unicode="&#x1e84;" horiz-adv-x="752" 
d="M300 0h-152l-118 700h142l62 -394h14l67 394h122l67 -394h14l62 394h142l-118 -700h-152l-70 343h-12zM353 782h-154v163h154v-163zM552 782h-154v163h154v-163z" />
    <glyph glyph-name="Wdieresis" unicode="&#x1e85;" horiz-adv-x="752" 
d="M300 0h-152l-118 700h142l62 -394h14l67 394h122l67 -394h14l62 394h142l-118 -700h-152l-70 343h-12zM353 782h-154v163h154v-163zM552 782h-154v163h154v-163z" />
    <glyph glyph-name="Wgrave" unicode="&#x1e80;" horiz-adv-x="752" 
d="M396 945l58 -163h-160l-58 163h160zM300 0h-152l-118 700h142l62 -394h14l67 394h122l67 -394h14l62 394h142l-118 -700h-152l-70 343h-12z" />
    <glyph glyph-name="Wgrave" unicode="&#x1e81;" horiz-adv-x="752" 
d="M396 945l58 -163h-160l-58 163h160zM300 0h-152l-118 700h142l62 -394h14l67 394h122l67 -394h14l62 394h142l-118 -700h-152l-70 343h-12z" />
    <glyph glyph-name="X" unicode="X" horiz-adv-x="558" 
d="M186 0h-158l153 350l-153 350h157l89 -210h8l89 210h159l-153 -350l153 -350h-158l-88 210h-8z" />
    <glyph glyph-name="X" unicode="x" horiz-adv-x="558" 
d="M186 0h-158l153 350l-153 350h157l89 -210h8l89 210h159l-153 -350l153 -350h-158l-88 210h-8z" />
    <glyph glyph-name="Y" unicode="Y" horiz-adv-x="580" 
d="M415 700h155l-204 -459l-2 -241h-148l-2 241l-204 459h155l120 -271h10z" />
    <glyph glyph-name="Y" unicode="y" horiz-adv-x="580" 
d="M415 700h155l-204 -459l-2 -241h-148l-2 241l-204 459h155l120 -271h10z" />
    <glyph glyph-name="Yacute" unicode="&#xdd;" horiz-adv-x="580" 
d="M268 945h160l-58 -163h-160zM415 700h155l-204 -459l-2 -241h-148l-2 241l-204 459h155l120 -271h10z" />
    <glyph glyph-name="Yacute" unicode="&#xfd;" horiz-adv-x="580" 
d="M268 945h160l-58 -163h-160zM415 700h155l-204 -459l-2 -241h-148l-2 241l-204 459h155l120 -271h10z" />
    <glyph glyph-name="Ycircumflex" unicode="&#x176;" horiz-adv-x="580" 
d="M415 700h155l-204 -459l-2 -241h-148l-2 241l-204 459h155l120 -271h10zM392 945l83 -163h-147l-38 76l-39 -76h-147l83 163h205z" />
    <glyph glyph-name="Ycircumflex" unicode="&#x177;" horiz-adv-x="580" 
d="M415 700h155l-204 -459l-2 -241h-148l-2 241l-204 459h155l120 -271h10zM392 945l83 -163h-147l-38 76l-39 -76h-147l83 163h205z" />
    <glyph glyph-name="Ydieresis" unicode="&#xff;" horiz-adv-x="580" 
d="M415 700h155l-204 -459l-2 -241h-148l-2 241l-204 459h155l120 -271h10zM267 782h-154v163h154v-163zM466 782h-154v163h154v-163z" />
    <glyph glyph-name="Ydieresis" unicode="&#x178;" horiz-adv-x="580" 
d="M415 700h155l-204 -459l-2 -241h-148l-2 241l-204 459h155l120 -271h10zM267 782h-154v163h154v-163zM466 782h-154v163h154v-163z" />
    <glyph glyph-name="Ygrave" unicode="&#x1ef2;" horiz-adv-x="580" 
d="M310 945l58 -163h-160l-58 163h160zM415 700h155l-204 -459l-2 -241h-148l-2 241l-204 459h155l120 -271h10z" />
    <glyph glyph-name="Ygrave" unicode="&#x1ef3;" horiz-adv-x="580" 
d="M310 945l58 -163h-160l-58 163h160zM415 700h155l-204 -459l-2 -241h-148l-2 241l-204 459h155l120 -271h10z" />
    <glyph glyph-name="uni0232" unicode="&#x232;" horiz-adv-x="580" 
d="M415 700h155l-204 -459l-2 -241h-148l-2 241l-204 459h155l120 -271h10zM457 782h-334v126h334v-126z" />
    <glyph glyph-name="uni0232" unicode="&#x233;" horiz-adv-x="580" 
d="M415 700h155l-204 -459l-2 -241h-148l-2 241l-204 459h155l120 -271h10zM457 782h-334v126h334v-126z" />
    <glyph glyph-name="uni1EF8" unicode="&#x1ef8;" horiz-adv-x="580" 
d="M229 783h-127v38q0 58 33 93t81 35q28 0 58 -14l60 -29q4 -2 6 -2q5 0 8 3.5t3 9.5v28h127v-37q0 -58 -33 -93.5t-81 -35.5q-30 0 -58 14l-60 29q-2 1 -6 1q-5 0 -8 -3.5t-3 -8.5v-28zM415 700h155l-204 -459l-2 -241h-148l-2 241l-204 459h155l120 -271h10z" />
    <glyph glyph-name="uni1EF8" unicode="&#x1ef9;" horiz-adv-x="580" 
d="M229 783h-127v38q0 58 33 93t81 35q28 0 58 -14l60 -29q4 -2 6 -2q5 0 8 3.5t3 9.5v28h127v-37q0 -58 -33 -93.5t-81 -35.5q-30 0 -58 14l-60 29q-2 1 -6 1q-5 0 -8 -3.5t-3 -8.5v-28zM415 700h155l-204 -459l-2 -241h-148l-2 241l-204 459h155l120 -271h10z" />
    <glyph glyph-name="Z" unicode="Z" horiz-adv-x="520" 
d="M470 0h-420v210l280 341v9h-280v140h420v-210l-279 -339v-11h279v-140z" />
    <glyph glyph-name="Z" unicode="z" horiz-adv-x="520" 
d="M470 0h-420v210l280 341v9h-280v140h420v-210l-279 -339v-11h279v-140z" />
    <glyph glyph-name="Zacute" unicode="&#x179;" horiz-adv-x="520" 
d="M340 782h-160l58 163h160zM470 0h-420v210l280 341v9h-280v140h420v-210l-279 -339v-11h279v-140z" />
    <glyph glyph-name="Zacute" unicode="&#x17a;" horiz-adv-x="520" 
d="M340 782h-160l58 163h160zM470 0h-420v210l280 341v9h-280v140h420v-210l-279 -339v-11h279v-140z" />
    <glyph glyph-name="Zcaron" unicode="&#x17d;" horiz-adv-x="520" 
d="M470 0h-420v210l280 341v9h-280v140h420v-210l-279 -339v-11h279v-140zM260 869l38 76h147l-83 -163h-205l-83 163h147z" />
    <glyph glyph-name="Zcaron" unicode="&#x17e;" horiz-adv-x="520" 
d="M470 0h-420v210l280 341v9h-280v140h420v-210l-279 -339v-11h279v-140zM260 869l38 76h147l-83 -163h-205l-83 163h147z" />
    <glyph glyph-name="Zdotaccent" unicode="&#x17b;" horiz-adv-x="520" 
d="M341 782h-162v163h162v-163zM470 0h-420v210l280 341v9h-280v140h420v-210l-279 -339v-11h279v-140z" />
    <glyph glyph-name="Zdotaccent" unicode="&#x17c;" horiz-adv-x="520" 
d="M341 782h-162v163h162v-163zM470 0h-420v210l280 341v9h-280v140h420v-210l-279 -339v-11h279v-140z" />
    <glyph glyph-name="uni1E92" unicode="&#x1e92;" horiz-adv-x="520" 
d="M470 0h-420v210l280 341v9h-280v140h420v-210l-279 -339v-11h279v-140zM337 -245h-154v164h154v-164z" />
    <glyph glyph-name="uni1E92" unicode="&#x1e93;" horiz-adv-x="520" 
d="M470 0h-420v210l280 341v9h-280v140h420v-210l-279 -339v-11h279v-140zM337 -245h-154v164h154v-164z" />
    <glyph glyph-name="AE.ss01" horiz-adv-x="829" 
d="M202 0q-63 0 -105 41t-42 104v129q0 63 42 104.5t105 41.5h141v125q0 20 -19 20h-108q-8 0 -13.5 -5t-5.5 -15v-38h-142v53q0 63 42 104t105 41h134q43 0 77 -20q32 20 73 20h141q63 0 105 -41t42 -104v-280h-291v-125q0 -20 19 -20h111q9 0 14 5.5t5 14.5v38h142v-48
q0 -63 -42 -104t-105 -41h-425zM483 420h151v127q0 8 -5 13t-13 5h-115q-7 0 -12.5 -5t-5.5 -13v-127zM343 140v140h-130q-8 0 -13 -5t-5 -14v-103q0 -8 5 -13t13 -5h130z" />
    <glyph glyph-name="AEacute.ss01" horiz-adv-x="829" 
d="M504 782h-161l58 163h161zM202 0q-63 0 -105 41t-42 104v129q0 63 42 104.5t105 41.5h141v125q0 20 -19 20h-108q-8 0 -13.5 -5t-5.5 -15v-38h-142v53q0 63 42 104t105 41h134q43 0 77 -20q32 20 73 20h141q63 0 105 -41t42 -104v-280h-291v-125q0 -20 19 -20h111
q9 0 14 5.5t5 14.5v38h142v-48q0 -63 -42 -104t-105 -41h-425zM483 420h151v127q0 8 -5 13t-13 5h-115q-7 0 -12.5 -5t-5.5 -13v-127zM343 140v140h-130q-8 0 -13 -5t-5 -14v-103q0 -8 5 -13t13 -5h130z" />
    <glyph glyph-name="E.ss01" 
d="M202 -5q-63 0 -105 41t-42 104v422q0 41 19.5 73.5t52 51t71.5 18.5h141q63 0 105 -41t42 -104v-280h-291v-125q0 -20 19 -20h111q9 0 14 5.5t5 14.5v38h142v-53q0 -63 -42 -104t-105 -41h-137zM195 420h151v127q0 8 -5 13t-13 5h-115q-7 0 -12.5 -5t-5.5 -13v-127z" />
    <glyph glyph-name="Eacute.ss01" 
d="M351 782h-160l58 163h160zM202 -5q-63 0 -105 41t-42 104v422q0 41 19.5 73.5t52 51t71.5 18.5h141q63 0 105 -41t42 -104v-280h-291v-125q0 -20 19 -20h111q9 0 14 5.5t5 14.5v38h142v-53q0 -63 -42 -104t-105 -41h-137zM195 420h151v127q0 8 -5 13t-13 5h-115
q-7 0 -12.5 -5t-5.5 -13v-127z" />
    <glyph glyph-name="Ebreve.ss01" 
d="M202 -5q-63 0 -105 41t-42 104v422q0 41 19.5 73.5t52 51t71.5 18.5h141q63 0 105 -41t42 -104v-280h-291v-125q0 -20 19 -20h111q9 0 14 5.5t5 14.5v38h142v-53q0 -63 -42 -104t-105 -41h-137zM195 420h151v127q0 8 -5 13t-13 5h-115q-7 0 -12.5 -5t-5.5 -13v-127z
M150 819q-49 43 -61 126h136q1 -27 14 -41t32 -14t31.5 14t13.5 41h137q-13 -83 -62 -126t-121 -43q-71 0 -120 43z" />
    <glyph glyph-name="Ecaron.ss01" 
d="M202 -5q-63 0 -105 41t-42 104v422q0 41 19.5 73.5t52 51t71.5 18.5h141q63 0 105 -41t42 -104v-280h-291v-125q0 -20 19 -20h111q9 0 14 5.5t5 14.5v38h142v-53q0 -63 -42 -104t-105 -41h-137zM195 420h151v127q0 8 -5 13t-13 5h-115q-7 0 -12.5 -5t-5.5 -13v-127z
M271 869l38 76h147l-83 -163h-205l-83 163h147z" />
    <glyph glyph-name="Ecircumflex.ss01" 
d="M309 782l-38 76l-39 -76h-147l83 163h205l83 -163h-147zM344 193h142v-53q0 -63 -42 -104t-105 -41h-137q-63 0 -105 41t-42 104v422q0 41 19.5 73.5t52 51t71.5 18.5h141q63 0 105 -41t42 -104v-280h-291v-125q0 -20 19 -20h111q9 0 14 5.5t5 14.5v38zM213 565
q-7 0 -12.5 -5t-5.5 -13v-127h151v127q0 8 -5 13t-13 5h-115z" />
    <glyph glyph-name="Edieresis.ss01" 
d="M248 782h-154v163h154v-163zM447 782h-154v163h154v-163zM202 -5q-63 0 -105 41t-42 104v422q0 41 19.5 73.5t52 51t71.5 18.5h141q63 0 105 -41t42 -104v-280h-291v-125q0 -20 19 -20h111q9 0 14 5.5t5 14.5v38h142v-53q0 -63 -42 -104t-105 -41h-137zM195 420h151v127
q0 8 -5 13t-13 5h-115q-7 0 -12.5 -5t-5.5 -13v-127z" />
    <glyph glyph-name="Edotaccent.ss01" 
d="M352 782h-162v163h162v-163zM202 -5q-63 0 -105 41t-42 104v422q0 41 19.5 73.5t52 51t71.5 18.5h141q63 0 105 -41t42 -104v-280h-291v-125q0 -20 19 -20h111q9 0 14 5.5t5 14.5v38h142v-53q0 -63 -42 -104t-105 -41h-137zM195 420h151v127q0 8 -5 13t-13 5h-115
q-7 0 -12.5 -5t-5.5 -13v-127z" />
    <glyph glyph-name="Egrave.ss01" 
d="M291 945l58 -163h-160l-58 163h160zM202 -5q-63 0 -105 41t-42 104v422q0 41 19.5 73.5t52 51t71.5 18.5h141q63 0 105 -41t42 -104v-280h-291v-125q0 -20 19 -20h111q9 0 14 5.5t5 14.5v38h142v-53q0 -63 -42 -104t-105 -41h-137zM195 420h151v127q0 8 -5 13t-13 5h-115
q-7 0 -12.5 -5t-5.5 -13v-127z" />
    <glyph glyph-name="Emacron.ss01" 
d="M202 -5q-63 0 -105 41t-42 104v422q0 41 19.5 73.5t52 51t71.5 18.5h141q63 0 105 -41t42 -104v-280h-291v-125q0 -20 19 -20h111q9 0 14 5.5t5 14.5v38h142v-53q0 -63 -42 -104t-105 -41h-137zM195 420h151v127q0 8 -5 13t-13 5h-115q-7 0 -12.5 -5t-5.5 -13v-127z
M438 782h-334v126h334v-126z" />
    <glyph glyph-name="Eogonek.ss01" 
d="M344 193h142v-53q0 -62 -41.5 -103t-103.5 -42v-19q0 -23 32 -23h12v-126h-46q-60 0 -100 40t-40 100v28q-62 1 -103 42t-41 103v422q0 41 19.5 73.5t52 51t71.5 18.5h141q63 0 105 -41t42 -104v-280h-291v-125q0 -20 19 -20h111q9 0 14 5.5t5 14.5v38zM213 565
q-7 0 -12.5 -5t-5.5 -13v-127h151v127q0 8 -5 13t-13 5h-115z" />
    <glyph glyph-name="uni1EBC.ss01" 
d="M287 793l-60 29q-2 1 -6 1q-5 0 -8 -3.5t-3 -8.5v-28h-127v38q0 58 33 93t81 35q28 0 58 -14l60 -29q4 -2 6 -2q5 0 8 3.5t3 9.5v28h127v-37q0 -58 -33 -93.5t-81 -35.5q-30 0 -58 14zM202 -5q-63 0 -105 41t-42 104v422q0 41 19.5 73.5t52 51t71.5 18.5h141
q63 0 105 -41t42 -104v-280h-291v-125q0 -20 19 -20h111q9 0 14 5.5t5 14.5v38h142v-53q0 -63 -42 -104t-105 -41h-137zM195 420h151v127q0 8 -5 13t-13 5h-115q-7 0 -12.5 -5t-5.5 -13v-127z" />
    <glyph glyph-name="Adieresis.ss02" horiz-adv-x="543" 
d="M202 0q-63 0 -105 41t-42 104v129q0 63 42 104.5t105 41.5h141v125q0 20 -19 20h-108q-8 0 -13.5 -5t-5.5 -15v-38h-142v53q0 63 42 104t105 41h134q63 0 105 -41t42 -104v-560h-281zM343 140v140h-130q-8 0 -13 -5t-5 -14v-103q0 -8 5 -13t13 -5h130zM110.5 800.5
q-25.5 25.5 -25.5 62.5q0 36 25.5 62t60.5 26t60.5 -26t25.5 -62q0 -37 -25.5 -62.5t-60.5 -25.5t-60.5 25.5zM309.5 800.5q-25.5 25.5 -25.5 62.5q0 36 25.5 62t60.5 26t60.5 -26t25.5 -62q0 -37 -25.5 -62.5t-60.5 -25.5t-60.5 25.5z" />
    <glyph glyph-name="uni1EA0.ss02" horiz-adv-x="543" 
d="M202 0q-63 0 -105 41t-42 104v129q0 63 42 104.5t105 41.5h141v125q0 20 -19 20h-108q-8 0 -13.5 -5t-5.5 -15v-38h-142v53q0 63 42 104t105 41h134q63 0 105 -41t42 -104v-560h-281zM343 140v140h-130q-8 0 -13 -5t-5 -14v-103q0 -8 5 -13t13 -5h130zM206.5 -224.5
q-25.5 25.5 -25.5 62.5q0 36 25.5 62t60.5 26t60.5 -26t25.5 -62q0 -37 -25.5 -62.5t-60.5 -25.5t-60.5 25.5z" />
    <glyph glyph-name="uni1E02.ss02" horiz-adv-x="549" 
d="M65 0v700h282q41 0 74.5 -18.5t53 -52t19.5 -74.5v-88q0 -36 -16.5 -66t-44.5 -46v-10q28 -16 44.5 -46t16.5 -66v-88q0 -63 -42.5 -104t-105.5 -41h-281zM335 420q8 0 13.5 5t5.5 14v102q0 9 -5.5 14t-13.5 5h-130v-140h130zM335 140q8 0 13.5 5t5.5 14v102q0 9 -5.5 14
t-13.5 5h-130v-140h130zM218.5 800.5q-25.5 25.5 -25.5 62.5q0 36 25.5 62t60.5 26t60.5 -26t25.5 -62q0 -37 -25.5 -62.5t-60.5 -25.5t-60.5 25.5z" />
    <glyph glyph-name="Cdotaccent.ss02" horiz-adv-x="532" 
d="M203 -5q-64 0 -106 41t-42 104v420q0 63 42 104t106 41h137q64 0 105.5 -41t41.5 -104v-53h-143v39q0 9 -5.5 14t-14.5 5h-106q-19 0 -19 -19v-392q0 -19 19 -19h106q9 0 14.5 5t5.5 14v39h143v-53q0 -63 -41.5 -104t-105.5 -41h-137zM210.5 800.5q-25.5 25.5 -25.5 62.5
q0 36 25.5 62t60.5 26t60.5 -26t25.5 -62q0 -37 -25.5 -62.5t-60.5 -25.5t-60.5 25.5z" />
    <glyph glyph-name="uni1E0A.ss02" horiz-adv-x="548" 
d="M65 0v700h281q63 0 105 -41t42 -104v-410q0 -63 -42 -104t-105 -41h-281zM332 140q19 0 19 19v382q0 19 -19 19h-125v-420h125zM218.5 800.5q-25.5 25.5 -25.5 62.5q0 36 25.5 62t60.5 26t60.5 -26t25.5 -62q0 -37 -25.5 -62.5t-60.5 -25.5t-60.5 25.5z" />
    <glyph glyph-name="uni1E0C.ss02" horiz-adv-x="548" 
d="M65 0v700h281q63 0 105 -41t42 -104v-410q0 -63 -42 -104t-105 -41h-281zM332 140q19 0 19 19v382q0 19 -19 19h-125v-420h125zM216.5 -224.5q-25.5 25.5 -25.5 62.5q0 36 25.5 62t60.5 26t60.5 -26t25.5 -62q0 -37 -25.5 -62.5t-60.5 -25.5t-60.5 25.5z" />
    <glyph glyph-name="Edieresis.ss02" horiz-adv-x="560" 
d="M495 700v-140h-290v-140h273v-140h-273v-140h290v-140h-430v700h430zM117.5 800.5q-25.5 25.5 -25.5 62.5q0 36 25.5 62t60.5 26t60.5 -26t25.5 -62q0 -37 -25.5 -62.5t-60.5 -25.5t-60.5 25.5zM316.5 800.5q-25.5 25.5 -25.5 62.5q0 36 25.5 62t60.5 26t60.5 -26
t25.5 -62q0 -37 -25.5 -62.5t-60.5 -25.5t-60.5 25.5z" />
    <glyph glyph-name="Edotaccent.ss02" horiz-adv-x="560" 
d="M495 700v-140h-290v-140h273v-140h-273v-140h290v-140h-430v700h430zM218.5 800.5q-25.5 25.5 -25.5 62.5q0 36 25.5 62t60.5 26t60.5 -26t25.5 -62q0 -37 -25.5 -62.5t-60.5 -25.5t-60.5 25.5z" />
    <glyph glyph-name="uni1EB8.ss02" horiz-adv-x="560" 
d="M495 700v-140h-290v-140h273v-140h-273v-140h290v-140h-430v700h430zM216.5 -224.5q-25.5 25.5 -25.5 62.5q0 36 25.5 62t60.5 26t60.5 -26t25.5 -62q0 -37 -25.5 -62.5t-60.5 -25.5t-60.5 25.5z" />
    <glyph glyph-name="uni1E1E.ss02" horiz-adv-x="525" 
d="M495 700v-140h-286v-140h206v-140h-206v-280h-144v700h430zM219.5 800.5q-25.5 25.5 -25.5 62.5q0 36 25.5 62t60.5 26t60.5 -26t25.5 -62q0 -37 -25.5 -62.5t-60.5 -25.5t-60.5 25.5z" />
    <glyph glyph-name="uni0122.ss02" horiz-adv-x="532" 
d="M487 507h-143v38q0 9 -5.5 14.5t-14.5 5.5h-106q-9 0 -14 -5.5t-5 -14.5v-391q0 -19 19 -19h106q9 0 14.5 5t5.5 14v126h143v-280h-141v33q-31 -38 -77 -38h-66q-63 0 -105.5 41t-42.5 104v419q0 41 19.5 74.5t53.5 52.5t75 19h137q64 0 105.5 -41.5t41.5 -104.5v-52z
M335.5 -107q25.5 -25 25.5 -60v-2v-1q0 -17 -3.5 -29t-16.5 -47l-52 -141h-16v133q-35 1 -59.5 25.5t-24.5 61.5q0 34 24 59t58 26v0h1h2q36 0 61.5 -25z" />
    <glyph glyph-name="Gdotaccent.ss02" horiz-adv-x="532" 
d="M487 507h-143v38q0 9 -5.5 14.5t-14.5 5.5h-106q-9 0 -14 -5.5t-5 -14.5v-391q0 -19 19 -19h106q9 0 14.5 5t5.5 14v126h143v-280h-141v33q-31 -38 -77 -38h-66q-63 0 -105.5 41t-42.5 104v419q0 41 19.5 74.5t53.5 52.5t75 19h137q64 0 105.5 -41.5t41.5 -104.5v-52z
M210.5 800.5q-25.5 25.5 -25.5 62.5q0 36 25.5 62t60.5 26t60.5 -26t25.5 -62q0 -37 -25.5 -62.5t-60.5 -25.5t-60.5 25.5z" />
    <glyph glyph-name="uni1E22.ss02" horiz-adv-x="560" 
d="M347 420v280h148v-700h-148v280h-134v-280h-148v700h148v-280h134zM219.5 800.5q-25.5 25.5 -25.5 62.5q0 36 25.5 62t60.5 26t60.5 -26t25.5 -62q0 -37 -25.5 -62.5t-60.5 -25.5t-60.5 25.5z" />
    <glyph glyph-name="uni1E24.ss02" horiz-adv-x="560" 
d="M347 420v280h148v-700h-148v280h-134v-280h-148v700h148v-280h134zM217.5 -224.5q-25.5 25.5 -25.5 62.5q0 36 25.5 62t60.5 26t60.5 -26t25.5 -62q0 -37 -25.5 -62.5t-60.5 -25.5t-60.5 25.5z" />
    <glyph glyph-name="Idieresis.ss02" horiz-adv-x="278" 
d="M213 0h-148v700h148v-700zM-22.5 800.5q-25.5 25.5 -25.5 62.5q0 36 25.5 62t60.5 26t60.5 -26t25.5 -62q0 -37 -25.5 -62.5t-60.5 -25.5t-60.5 25.5zM176.5 800.5q-25.5 25.5 -25.5 62.5q0 36 25.5 62t60.5 26t60.5 -26t25.5 -62q0 -37 -25.5 -62.5t-60.5 -25.5
t-60.5 25.5z" />
    <glyph glyph-name="Idotaccent.ss02" horiz-adv-x="278" 
d="M213 0h-148v700h148v-700zM78.5 800.5q-25.5 25.5 -25.5 62.5q0 36 25.5 62t60.5 26t60.5 -26t25.5 -62q0 -37 -25.5 -62.5t-60.5 -25.5t-60.5 25.5z" />
    <glyph glyph-name="uni1ECA.ss02" horiz-adv-x="278" 
d="M213 0h-148v700h148v-700zM76.5 -224.5q-25.5 25.5 -25.5 62.5q0 36 25.5 62t60.5 26t60.5 -26t25.5 -62q0 -37 -25.5 -62.5t-60.5 -25.5t-60.5 25.5z" />
    <glyph glyph-name="uni0136.ss02" horiz-adv-x="549" 
d="M375 -1l-85 277h-77v-276h-148v700h148v-276h76l86 277h153l-109 -350l110 -352h-154zM359.5 -107q25.5 -25 25.5 -60v-2v-1q0 -17 -3.5 -29t-16.5 -47l-52 -141h-16v133q-35 1 -59.5 25.5t-24.5 61.5q0 34 24 59t58 26v0h1h2q36 0 61.5 -25z" />
    <glyph glyph-name="Lcaron.ss02" horiz-adv-x="514" 
d="M213 700v-560h281v-140h-429v700h148zM490 610v-1q0 -19 -3.5 -32.5t-17.5 -50.5l-57 -154h-17v146q-39 1 -65.5 27.5t-26.5 66.5q0 38 26 65t63 28v0h1h3q39 0 66.5 -27.5t27.5 -65.5v-2z" />
    <glyph glyph-name="uni013B.ss02" horiz-adv-x="514" 
d="M213 700v-560h281v-140h-429v700h148zM343.5 -107q25.5 -25 25.5 -60v-2v-1q0 -17 -3.5 -29t-16.5 -47l-52 -141h-16v133q-35 1 -59.5 25.5t-24.5 61.5q0 34 24 59t58 26v0h1h2q36 0 61.5 -25z" />
    <glyph glyph-name="Ldot.ss02" horiz-adv-x="514" 
d="M213 700v-560h281v-140h-429v700h148zM327 317q-27 27 -27 67q0 38 27 65.5t66 27.5t66.5 -27.5t27.5 -65.5q0 -40 -27.5 -67t-66.5 -27t-66 27z" />
    <glyph glyph-name="uni1E36.ss02" horiz-adv-x="514" 
d="M213 700v-560h281v-140h-429v700h148zM217.5 -224.5q-25.5 25.5 -25.5 62.5q0 36 25.5 62t60.5 26t60.5 -26t25.5 -62q0 -37 -25.5 -62.5t-60.5 -25.5t-60.5 25.5z" />
    <glyph glyph-name="uni1E38.ss02" horiz-adv-x="514" 
d="M213 700v-560h281v-140h-429v700h148zM217.5 -224.5q-25.5 25.5 -25.5 62.5q0 36 25.5 62t60.5 26t60.5 -26t25.5 -62q0 -37 -25.5 -62.5t-60.5 -25.5t-60.5 25.5zM307 782h-334v126h334v-126z" />
    <glyph glyph-name="uni1E40.ss02" horiz-adv-x="831" 
d="M420 178l186 522h160v-700h-138v354h-8l-125 -354h-159l-125 354h-8v-354h-138v700h160l186 -522h9zM355.5 802.5q-25.5 25.5 -25.5 62.5q0 36 25.5 62t60.5 26t60.5 -26t25.5 -62q0 -37 -25.5 -62.5t-60.5 -25.5t-60.5 25.5z" />
    <glyph glyph-name="uni1E42.ss02" horiz-adv-x="831" 
d="M420 178l186 522h160v-700h-138v354h-8l-125 -354h-159l-125 354h-8v-354h-138v700h160l186 -522h9zM353.5 -225.5q-25.5 25.5 -25.5 62.5q0 36 25.5 62t60.5 26t60.5 -26t25.5 -62q0 -37 -25.5 -62.5t-60.5 -25.5t-60.5 25.5z" />
    <glyph glyph-name="uni0145.ss02" horiz-adv-x="562" 
d="M359 329v371h138v-700h-145l-141 369h-8v-369h-138v700h145l141 -371h8zM344.5 -107q25.5 -25 25.5 -60v-2v-1q0 -17 -3.5 -29t-16.5 -47l-52 -141h-16v133q-35 1 -59.5 25.5t-24.5 61.5q0 34 24 59t58 26v0h1h2q36 0 61.5 -25z" />
    <glyph glyph-name="uni1E44.ss02" horiz-adv-x="562" 
d="M203 0h-138v700h145l141 -371h8v371h138v-700h-145l-141 369h-8v-369zM220.5 800.5q-25.5 25.5 -25.5 62.5q0 36 25.5 62t60.5 26t60.5 -26t25.5 -62q0 -37 -25.5 -62.5t-60.5 -25.5t-60.5 25.5z" />
    <glyph glyph-name="uni1E46.ss02" horiz-adv-x="562" 
d="M203 0h-138v700h145l141 -371h8v371h138v-700h-145l-141 369h-8v-369zM218.5 -224.5q-25.5 25.5 -25.5 62.5q0 36 25.5 62t60.5 26t60.5 -26t25.5 -62q0 -37 -25.5 -62.5t-60.5 -25.5t-60.5 25.5z" />
    <glyph glyph-name="Odieresis.ss02" 
d="M202 -5q-63 0 -105 41t-42 104v420q0 63 42 104t105 41h137q63 0 105 -41t42 -104v-420q0 -63 -42 -104t-105 -41h-137zM324 135q19 0 19 19v392q0 19 -19 19h-107q-8 0 -13 -5t-5 -14v-392q0 -9 5 -14t13 -5h107zM109.5 800.5q-25.5 25.5 -25.5 62.5q0 36 25.5 62
t60.5 26t60.5 -26t25.5 -62q0 -37 -25.5 -62.5t-60.5 -25.5t-60.5 25.5zM308.5 800.5q-25.5 25.5 -25.5 62.5q0 36 25.5 62t60.5 26t60.5 -26t25.5 -62q0 -37 -25.5 -62.5t-60.5 -25.5t-60.5 25.5z" />
    <glyph glyph-name="uni022E.ss02" 
d="M202 -5q-63 0 -105 41t-42 104v420q0 63 42 104t105 41h137q63 0 105 -41t42 -104v-420q0 -63 -42 -104t-105 -41h-137zM324 135q19 0 19 19v392q0 19 -19 19h-107q-8 0 -13 -5t-5 -14v-392q0 -9 5 -14t13 -5h107zM210.5 800.5q-25.5 25.5 -25.5 62.5q0 36 25.5 62
t60.5 26t60.5 -26t25.5 -62q0 -37 -25.5 -62.5t-60.5 -25.5t-60.5 25.5z" />
    <glyph glyph-name="uni1ECC.ss02" 
d="M202 -5q-63 0 -105 41t-42 104v420q0 63 42 104t105 41h137q63 0 105 -41t42 -104v-420q0 -63 -42 -104t-105 -41h-137zM324 135q19 0 19 19v392q0 19 -19 19h-107q-8 0 -13 -5t-5 -14v-392q0 -9 5 -14t13 -5h107zM208.5 -224.5q-25.5 25.5 -25.5 62.5q0 36 25.5 62
t60.5 26t60.5 -26t25.5 -62q0 -37 -25.5 -62.5t-60.5 -25.5t-60.5 25.5z" />
    <glyph glyph-name="uni1E56.ss02" horiz-adv-x="528" 
d="M364 782h-162v163h162v-163zM65 0v700h285q63 0 105.5 -41t42.5 -104v-130q0 -63 -42.5 -104t-105.5 -41h-137v-280h-148zM339 420q8 0 13.5 5t5.5 14v102q0 9 -5.5 14t-13.5 5h-131v-140h131z" />
    <glyph glyph-name="uni0156.ss02" horiz-adv-x="553" 
d="M383 0l-161 303h-9v-303h-148v700h285q63 0 105.5 -41t42.5 -104v-124q0 -54 -32 -92t-82 -49l159 -290h-160zM206 420h134q8 0 13.5 5t5.5 14v102q0 9 -5.5 14t-13.5 5h-134v-140zM362.5 -107q25.5 -25 25.5 -60v-2v-1q0 -17 -3.5 -29t-16.5 -47l-52 -141h-16v133
q-35 1 -59.5 25.5t-24.5 61.5q0 34 24 59t58 26v0h1h2q36 0 61.5 -25z" />
    <glyph glyph-name="uni1E5A.ss02" horiz-adv-x="553" 
d="M543 0h-160l-161 303h-9v-303h-148v700h285q63 0 105.5 -41t42.5 -104v-124q0 -54 -32 -92t-82 -49zM340 420q8 0 13.5 5t5.5 14v102q0 9 -5.5 14t-13.5 5h-134v-140h134zM236.5 -224.5q-25.5 25.5 -25.5 62.5q0 36 25.5 62t60.5 26t60.5 -26t25.5 -62q0 -37 -25.5 -62.5
t-60.5 -25.5t-60.5 25.5z" />
    <glyph glyph-name="uni1E5C.ss02" horiz-adv-x="553" 
d="M543 0h-160l-161 303h-9v-303h-148v700h285q63 0 105.5 -41t42.5 -104v-124q0 -54 -32 -92t-82 -49zM340 420q8 0 13.5 5t5.5 14v102q0 9 -5.5 14t-13.5 5h-134v-140h134zM236.5 -224.5q-25.5 25.5 -25.5 62.5q0 36 25.5 62t60.5 26t60.5 -26t25.5 -62q0 -37 -25.5 -62.5
t-60.5 -25.5t-60.5 25.5zM450 782h-334v126h334v-126z" />
    <glyph glyph-name="uni0218.ss02" horiz-adv-x="522" 
d="M477 508h-143v37q0 9 -5.5 14.5t-13.5 5.5h-102q-25 0 -25 -25v-22q0 -19 15 -30l177 -135q50 -38 73.5 -69.5t23.5 -67.5v-76q0 -63 -41.5 -104t-106.5 -41h-136q-41 0 -75 19t-53.5 52t-19.5 74v53h143v-38q0 -9 5.5 -14.5t13.5 -5.5h105q25 0 25 25v24q0 19 -15 30
l-179 137q-50 38 -72.5 70.5t-22.5 70.5v68q0 63 41.5 104t106.5 41h133q63 0 105.5 -41t42.5 -104v-52zM326.5 -107q25.5 -25 25.5 -60v-2v-1q0 -17 -3.5 -29t-16.5 -47l-52 -141h-16v133q-35 1 -59.5 25.5t-24.5 61.5q0 34 24 59t58 26v0h1h2q36 0 61.5 -25z" />
    <glyph glyph-name="uni1E60.ss02" horiz-adv-x="522" 
d="M193 -5q-41 0 -75 19t-53.5 52t-19.5 74v53h143v-38q0 -9 5.5 -14.5t13.5 -5.5h105q25 0 25 25v24q0 19 -15 30l-179 137q-50 38 -72.5 70.5t-22.5 70.5v68q0 63 41.5 104t106.5 41h133q63 0 105.5 -41t42.5 -104v-52h-143v37q0 9 -5.5 14.5t-13.5 5.5h-102
q-25 0 -25 -25v-22q0 -19 15 -30l177 -135q50 -38 73.5 -69.5t23.5 -67.5v-76q0 -63 -41.5 -104t-106.5 -41h-136zM200.5 800.5q-25.5 25.5 -25.5 62.5q0 36 25.5 62t60.5 26t60.5 -26t25.5 -62q0 -37 -25.5 -62.5t-60.5 -25.5t-60.5 25.5z" />
    <glyph glyph-name="uni1E62.ss02" horiz-adv-x="522" 
d="M193 -5q-41 0 -75 19t-53.5 52t-19.5 74v53h143v-38q0 -9 5.5 -14.5t13.5 -5.5h105q25 0 25 25v24q0 19 -15 30l-179 137q-50 38 -72.5 70.5t-22.5 70.5v68q0 63 41.5 104t106.5 41h133q63 0 105.5 -41t42.5 -104v-52h-143v37q0 9 -5.5 14.5t-13.5 5.5h-102
q-25 0 -25 -25v-22q0 -19 15 -30l177 -135q50 -38 73.5 -69.5t23.5 -67.5v-76q0 -63 -41.5 -104t-106.5 -41h-136zM200.5 -224.5q-25.5 25.5 -25.5 62.5q0 36 25.5 62t60.5 26t60.5 -26t25.5 -62q0 -37 -25.5 -62.5t-60.5 -25.5t-60.5 25.5z" />
    <glyph glyph-name="uni021A.ss02" horiz-adv-x="490" 
d="M460 700v-140h-141v-560h-148v560h-141v140h430zM307.5 -107q25.5 -25 25.5 -60v-2v-1q0 -17 -3.5 -29t-16.5 -47l-52 -141h-16v133q-35 1 -59.5 25.5t-24.5 61.5q0 34 24 59t58 26v0h1h2q36 0 61.5 -25z" />
    <glyph glyph-name="uni1E6A.ss02" horiz-adv-x="490" 
d="M460 700v-140h-141v-560h-148v560h-141v140h430zM184.5 800.5q-25.5 25.5 -25.5 62.5q0 36 25.5 62t60.5 26t60.5 -26t25.5 -62q0 -37 -25.5 -62.5t-60.5 -25.5t-60.5 25.5z" />
    <glyph glyph-name="uni1E6C.ss02" horiz-adv-x="490" 
d="M460 700v-140h-141v-560h-148v560h-141v140h430zM182.5 -224.5q-25.5 25.5 -25.5 62.5q0 36 25.5 62t60.5 26t60.5 -26t25.5 -62q0 -37 -25.5 -62.5t-60.5 -25.5t-60.5 25.5z" />
    <glyph glyph-name="Udieresis.ss02" horiz-adv-x="562" 
d="M213 -5q-64 0 -106 41t-42 104v560h144v-546q0 -19 18 -19h106q9 0 14.5 5t5.5 14v546h144v-560q0 -63 -41.5 -104t-104.5 -41h-138zM119.5 800.5q-25.5 25.5 -25.5 62.5q0 36 25.5 62t60.5 26t60.5 -26t25.5 -62q0 -37 -25.5 -62.5t-60.5 -25.5t-60.5 25.5zM318.5 800.5
q-25.5 25.5 -25.5 62.5q0 36 25.5 62t60.5 26t60.5 -26t25.5 -62q0 -37 -25.5 -62.5t-60.5 -25.5t-60.5 25.5z" />
    <glyph glyph-name="uni1EE4.ss02" horiz-adv-x="562" 
d="M213 -5q-64 0 -106 41t-42 104v560h144v-546q0 -19 18 -19h106q9 0 14.5 5t5.5 14v546h144v-560q0 -63 -41.5 -104t-104.5 -41h-138zM218.5 -224.5q-25.5 25.5 -25.5 62.5q0 36 25.5 62t60.5 26t60.5 -26t25.5 -62q0 -37 -25.5 -62.5t-60.5 -25.5t-60.5 25.5z" />
    <glyph glyph-name="Wdieresis.ss02" horiz-adv-x="752" 
d="M300 0h-152l-118 700h142l62 -394h14l67 394h122l67 -394h14l62 394h142l-118 -700h-152l-70 343h-12zM214.5 800.5q-25.5 25.5 -25.5 62.5q0 36 25.5 62t60.5 26t60.5 -26t25.5 -62q0 -37 -25.5 -62.5t-60.5 -25.5t-60.5 25.5zM413.5 800.5q-25.5 25.5 -25.5 62.5
q0 36 25.5 62t60.5 26t60.5 -26t25.5 -62q0 -37 -25.5 -62.5t-60.5 -25.5t-60.5 25.5z" />
    <glyph glyph-name="Ydieresis.ss02" horiz-adv-x="580" 
d="M415 700h155l-204 -459l-2 -241h-148l-2 241l-204 459h155l120 -271h10zM128.5 800.5q-25.5 25.5 -25.5 62.5q0 36 25.5 62t60.5 26t60.5 -26t25.5 -62q0 -37 -25.5 -62.5t-60.5 -25.5t-60.5 25.5zM327.5 800.5q-25.5 25.5 -25.5 62.5q0 36 25.5 62t60.5 26t60.5 -26
t25.5 -62q0 -37 -25.5 -62.5t-60.5 -25.5t-60.5 25.5z" />
    <glyph glyph-name="Zdotaccent.ss02" horiz-adv-x="520" 
d="M470 0h-420v210l280 341v9h-280v140h420v-210l-279 -339v-11h279v-140zM199.5 800.5q-25.5 25.5 -25.5 62.5q0 36 25.5 62t60.5 26t60.5 -26t25.5 -62q0 -37 -25.5 -62.5t-60.5 -25.5t-60.5 25.5z" />
    <glyph glyph-name="uni1E92.ss02" horiz-adv-x="520" 
d="M470 0h-420v210l280 341v9h-280v140h420v-210l-279 -339v-11h279v-140zM197.5 -224.5q-25.5 25.5 -25.5 62.5q0 36 25.5 62t60.5 26t60.5 -26t25.5 -62q0 -37 -25.5 -62.5t-60.5 -25.5t-60.5 25.5z" />
    <glyph glyph-name="Aacute.ss03" horiz-adv-x="543" 
d="M202 0q-63 0 -105 41t-42 104v129q0 63 42 104.5t105 41.5h141v125q0 20 -19 20h-108q-8 0 -13.5 -5t-5.5 -15v-38h-142v53q0 63 42 104t105 41h134q63 0 105 -41t42 -104v-560h-281zM343 140v140h-130q-8 0 -13 -5t-5 -14v-103q0 -8 5 -13t13 -5h130zM384 851l-47 -133
h-130l47 133h130z" />
    <glyph glyph-name="Abreve.ss03" horiz-adv-x="543" 
d="M202 0q-63 0 -105 41t-42 104v129q0 63 42 104.5t105 41.5h141v125q0 20 -19 20h-108q-8 0 -13.5 -5t-5.5 -15v-38h-142v53q0 63 42 104t105 41h134q63 0 105 -41t42 -104v-560h-281zM343 140v140h-130q-8 0 -13 -5t-5 -14v-103q0 -8 5 -13t13 -5h130zM181.5 749
q-36.5 34 -45.5 102h102q1 -50 34 -50q15 0 24 12t10 38h102q-9 -68 -45.5 -102t-90.5 -34t-90.5 34z" />
    <glyph glyph-name="uni01CD.ss03" horiz-adv-x="543" 
d="M202 0q-63 0 -105 41t-42 104v129q0 63 42 104.5t105 41.5h141v125q0 20 -19 20h-108q-8 0 -13.5 -5t-5.5 -15v-38h-142v53q0 63 42 104t105 41h134q63 0 105 -41t42 -104v-560h-281zM343 140v140h-130q-8 0 -13 -5t-5 -14v-103q0 -8 5 -13t13 -5h130zM272 789l31 62h111
l-67 -133h-151l-67 133h112z" />
    <glyph glyph-name="Acircumflex.ss03" horiz-adv-x="543" 
d="M202 0q-63 0 -105 41t-42 104v129q0 63 42 104.5t105 41.5h141v125q0 20 -19 20h-108q-8 0 -13.5 -5t-5.5 -15v-38h-142v53q0 63 42 104t105 41h134q63 0 105 -41t42 -104v-560h-281zM343 140v140h-130q-8 0 -13 -5t-5 -14v-103q0 -8 5 -13t13 -5h130zM347 851l67 -133
h-111l-31 62l-31 -62h-112l67 133h151z" />
    <glyph glyph-name="Adieresis.ss03" horiz-adv-x="543" 
d="M202 0q-63 0 -105 41t-42 104v129q0 63 42 104.5t105 41.5h141v125q0 20 -19 20h-108q-8 0 -13.5 -5t-5.5 -15v-38h-142v53q0 63 42 104t105 41h134q63 0 105 -41t42 -104v-560h-281zM343 140v140h-130q-8 0 -13 -5t-5 -14v-103q0 -8 5 -13t13 -5h130zM150.5 735.5
q-20.5 20.5 -20.5 48.5q0 29 20.5 49t48.5 20q29 0 49.5 -20t20.5 -49t-20.5 -49t-49.5 -20q-28 0 -48.5 20.5zM295.5 735q-20.5 20 -20.5 49t20.5 49t49.5 20t49 -20t20 -49q0 -28 -20 -48.5t-49 -20.5t-49.5 20z" />
    <glyph glyph-name="uni1EA0.ss03" horiz-adv-x="543" 
d="M202 0q-63 0 -105 41t-42 104v129q0 63 42 104.5t105 41.5h141v125q0 20 -19 20h-108q-8 0 -13.5 -5t-5.5 -15v-38h-142v53q0 63 42 104t105 41h134q63 0 105 -41t42 -104v-560h-281zM343 140v140h-130q-8 0 -13 -5t-5 -14v-103q0 -8 5 -13t13 -5h130zM219.5 -132.5
q-20.5 20.5 -20.5 48.5q0 29 20.5 49t48.5 20q29 0 49.5 -20t20.5 -49t-20.5 -49t-49.5 -20q-28 0 -48.5 20.5z" />
    <glyph glyph-name="Agrave.ss03" horiz-adv-x="543" 
d="M202 0q-63 0 -105 41t-42 104v129q0 63 42 104.5t105 41.5h141v125q0 20 -19 20h-108q-8 0 -13.5 -5t-5.5 -15v-38h-142v53q0 63 42 104t105 41h134q63 0 105 -41t42 -104v-560h-281zM343 140v140h-130q-8 0 -13 -5t-5 -14v-103q0 -8 5 -13t13 -5h130zM337 718h-130
l-47 133h130z" />
    <glyph glyph-name="Amacron.ss03" horiz-adv-x="543" 
d="M202 0q-63 0 -105 41t-42 104v129q0 63 42 104.5t105 41.5h141v125q0 20 -19 20h-108q-8 0 -13.5 -5t-5.5 -15v-38h-142v53q0 63 42 104t105 41h134q63 0 105 -41t42 -104v-560h-281zM343 140v140h-130q-8 0 -13 -5t-5 -14v-103q0 -8 5 -13t13 -5h130zM399 718h-254v94
h254v-94z" />
    <glyph glyph-name="Aogonek.ss03" horiz-adv-x="543" 
d="M488 -31v-106h-39q-50 0 -83.5 33.5t-33.5 84.5v19h-130q-63 0 -105 41t-42 104v129q0 63 42 104.5t105 41.5h141v125q0 20 -19 20h-108q-8 0 -13.5 -5t-5.5 -15v-38h-142v53q0 63 42 104t105 41h134q63 0 105 -41t42 -104v-560h-32v-11q0 -20 27 -20h10zM195 158
q0 -8 5 -13t13 -5h130v140h-130q-8 0 -13 -5t-5 -14v-103z" />
    <glyph glyph-name="Aring.ss03" horiz-adv-x="543" 
d="M483 0h-281q-63 0 -105 41t-42 104v129q0 63 42 104.5t105 41.5h141v125q0 20 -19 20h-108q-8 0 -13.5 -5t-5.5 -15v-38h-142v53q0 63 42 104t105 41h27q-24 13 -38.5 37t-14.5 52q0 40 30 69t69 28q39 1 68.5 -28t29.5 -68q0 -28 -14.5 -52.5t-38.5 -37.5h16
q63 0 105 -41t42 -104v-560zM259 808q-6 -6 -7 -16q1 -9 7 -15t16 -7q9 1 15 7t7 15q0 10 -6.5 16t-15.5 7q-10 -1 -16 -7zM343 140v140h-130q-8 0 -13 -5t-5 -14v-103q0 -8 5 -13t13 -5h130z" />
    <glyph glyph-name="Atilde.ss03" horiz-adv-x="543" 
d="M202 0q-63 0 -105 41t-42 104v129q0 63 42 104.5t105 41.5h141v125q0 20 -19 20h-108q-8 0 -13.5 -5t-5.5 -15v-38h-142v53q0 63 42 104t105 41h134q63 0 105 -41t42 -104v-560h-281zM343 140v140h-130q-8 0 -13 -5t-5 -14v-103q0 -8 5 -13t13 -5h130zM284 724l-46 22
l-4 2q-4 0 -6.5 -3t-2.5 -7v-20h-98v28q0 45 25.5 71.5t62.5 26.5q23 0 44 -10l47 -23l5 -1q8 0 8 10v22h97v-29q0 -45 -25 -72t-63 -27q-23 0 -44 10z" />
    <glyph glyph-name="AE.ss03" horiz-adv-x="830" 
d="M202 -5q-63 0 -105 41t-42 104v134q0 63 42 104.5t105 41.5h141v125q0 20 -19 20h-108q-8 0 -13.5 -5t-5.5 -15v-38h-142v53q0 63 42 104t105 41h426q63 0 105 -41t42 -104v-280h-291v-125q0 -20 19 -20h111q9 0 14 5.5t5 14.5v38h142v-53q0 -63 -42 -104t-105 -41h-426z
M484 420h151v127q0 8 -5 13t-13 5h-115q-7 0 -12.5 -5t-5.5 -13v-127zM343 135v145h-130q-8 0 -13 -5t-5 -14v-108q0 -8 5 -13t13 -5h130z" />
    <glyph glyph-name="AEacute.ss03" horiz-adv-x="830" 
d="M530 851l-47 -133h-130l47 133h130zM202 -5q-63 0 -105 41t-42 104v134q0 63 42 104.5t105 41.5h141v125q0 20 -19 20h-108q-8 0 -13.5 -5t-5.5 -15v-38h-142v53q0 63 42 104t105 41h426q63 0 105 -41t42 -104v-280h-291v-125q0 -20 19 -20h111q9 0 14 5.5t5 14.5v38h142
v-53q0 -63 -42 -104t-105 -41h-426zM484 420h151v127q0 8 -5 13t-13 5h-115q-7 0 -12.5 -5t-5.5 -13v-127zM343 135v145h-130q-8 0 -13 -5t-5 -14v-108q0 -8 5 -13t13 -5h130z" />
    <glyph glyph-name="uni1E02.ss03" horiz-adv-x="549" 
d="M65 0v700h282q41 0 74.5 -18.5t53 -52t19.5 -74.5v-88q0 -36 -16.5 -66t-44.5 -46v-10q28 -16 44.5 -46t16.5 -66v-88q0 -63 -42.5 -104t-105.5 -41h-281zM335 420q8 0 13.5 5t5.5 14v102q0 9 -5.5 14t-13.5 5h-130v-140h130zM335 140q8 0 13.5 5t5.5 14v102q0 9 -5.5 14
t-13.5 5h-130v-140h130zM230.5 735.5q-20.5 20.5 -20.5 48.5q0 29 20.5 49t48.5 20q29 0 49.5 -20t20.5 -49t-20.5 -49t-49.5 -20q-28 0 -48.5 20.5z" />
    <glyph glyph-name="Cacute.ss03" horiz-adv-x="532" 
d="M203 -5q-64 0 -106 41t-42 104v420q0 63 42 104t106 41h137q64 0 105.5 -41t41.5 -104v-53h-143v39q0 9 -5.5 14t-14.5 5h-106q-19 0 -19 -19v-392q0 -19 19 -19h106q9 0 14.5 5t5.5 14v39h143v-53q0 -63 -41.5 -104t-105.5 -41h-137zM383 851l-47 -133h-130l47 133h130z
" />
    <glyph glyph-name="Ccaron.ss03" horiz-adv-x="532" 
d="M203 -5q-64 0 -106 41t-42 104v420q0 63 42 104t106 41h137q64 0 105.5 -41t41.5 -104v-53h-143v39q0 9 -5.5 14t-14.5 5h-106q-19 0 -19 -19v-392q0 -19 19 -19h106q9 0 14.5 5t5.5 14v39h143v-53q0 -63 -41.5 -104t-105.5 -41h-137zM271 789l31 62h111l-67 -133h-151
l-67 133h112z" />
    <glyph glyph-name="Ccedilla.ss03" horiz-adv-x="532" 
d="M203 -5q-64 0 -106 41t-42 104v420q0 63 42 104t106 41h137q64 0 105.5 -41t41.5 -104v-53h-143v39q0 9 -5.5 14t-14.5 5h-106q-19 0 -19 -19v-392q0 -19 19 -19h106q9 0 14.5 5t5.5 14v39h143v-53q0 -63 -41.5 -104t-105.5 -41h-137zM305 -148h-151l62 127h110z" />
    <glyph glyph-name="Ccircumflex.ss03" horiz-adv-x="532" 
d="M203 -5q-64 0 -106 41t-42 104v420q0 63 42 104t106 41h137q64 0 105.5 -41t41.5 -104v-53h-143v39q0 9 -5.5 14t-14.5 5h-106q-19 0 -19 -19v-392q0 -19 19 -19h106q9 0 14.5 5t5.5 14v39h143v-53q0 -63 -41.5 -104t-105.5 -41h-137zM346 851l67 -133h-111l-31 62
l-31 -62h-112l67 133h151z" />
    <glyph glyph-name="Cdotaccent.ss03" horiz-adv-x="532" 
d="M203 -5q-64 0 -106 41t-42 104v420q0 63 42 104t106 41h137q64 0 105.5 -41t41.5 -104v-53h-143v39q0 9 -5.5 14t-14.5 5h-106q-19 0 -19 -19v-392q0 -19 19 -19h106q9 0 14.5 5t5.5 14v39h143v-53q0 -63 -41.5 -104t-105.5 -41h-137zM222.5 735.5q-20.5 20.5 -20.5 48.5
q0 29 20.5 49t48.5 20q29 0 49.5 -20t20.5 -49t-20.5 -49t-49.5 -20q-28 0 -48.5 20.5z" />
    <glyph glyph-name="Dcaron.ss03" horiz-adv-x="548" 
d="M65 0v700h281q63 0 105 -41t42 -104v-410q0 -63 -42 -104t-105 -41h-281zM332 140q19 0 19 19v382q0 19 -19 19h-125v-420h125zM279 789l31 62h111l-67 -133h-151l-67 133h112z" />
    <glyph glyph-name="uni1E10.ss03" horiz-adv-x="548" 
d="M65 0v700h281q63 0 105 -41t42 -104v-410q0 -63 -42 -104t-105 -41h-281zM332 140q19 0 19 19v382q0 19 -19 19h-125v-420h125zM292 -148h-110l21 127h151z" />
    <glyph glyph-name="uni1E0A.ss03" horiz-adv-x="548" 
d="M65 0v700h281q63 0 105 -41t42 -104v-410q0 -63 -42 -104t-105 -41h-281zM332 140q19 0 19 19v382q0 19 -19 19h-125v-420h125zM230.5 735.5q-20.5 20.5 -20.5 48.5q0 29 20.5 49t48.5 20q29 0 49.5 -20t20.5 -49t-20.5 -49t-49.5 -20q-28 0 -48.5 20.5z" />
    <glyph glyph-name="uni1E0C.ss03" horiz-adv-x="548" 
d="M65 0v700h281q63 0 105 -41t42 -104v-410q0 -63 -42 -104t-105 -41h-281zM332 140q19 0 19 19v382q0 19 -19 19h-125v-420h125zM229.5 -132.5q-20.5 20.5 -20.5 48.5q0 29 20.5 49t48.5 20q29 0 49.5 -20t20.5 -49t-20.5 -49t-49.5 -20q-28 0 -48.5 20.5z" />
    <glyph glyph-name="E.ss03" 
d="M202 -5q-63 0 -105 41t-42 104v422q0 41 19.5 73.5t52 51t71.5 18.5h141q63 0 105 -41t42 -104v-280h-291v-125q0 -20 19 -20h111q9 0 14 5.5t5 14.5v38h142v-53q0 -63 -42 -104t-105 -41h-137zM195 420h151v127q0 8 -5 13t-13 5h-115q-7 0 -12.5 -5t-5.5 -13v-127z" />
    <glyph glyph-name="Eacute.ss03" 
d="M202 -5q-63 0 -105 41t-42 104v422q0 41 19.5 73.5t52 51t71.5 18.5h141q63 0 105 -41t42 -104v-280h-291v-125q0 -20 19 -20h111q9 0 14 5.5t5 14.5v38h142v-53q0 -63 -42 -104t-105 -41h-137zM195 420h151v127q0 8 -5 13t-13 5h-115q-7 0 -12.5 -5t-5.5 -13v-127z
M383 851l-47 -133h-130l47 133h130z" />
    <glyph glyph-name="Ebreve.ss03" 
d="M202 -5q-63 0 -105 41t-42 104v422q0 41 19.5 73.5t52 51t71.5 18.5h141q63 0 105 -41t42 -104v-280h-291v-125q0 -20 19 -20h111q9 0 14 5.5t5 14.5v38h142v-53q0 -63 -42 -104t-105 -41h-137zM195 420h151v127q0 8 -5 13t-13 5h-115q-7 0 -12.5 -5t-5.5 -13v-127z
M180.5 749q-36.5 34 -45.5 102h102q1 -50 34 -50q15 0 24 12t10 38h102q-9 -68 -45.5 -102t-90.5 -34t-90.5 34z" />
    <glyph glyph-name="Ecaron.ss03" 
d="M202 -5q-63 0 -105 41t-42 104v422q0 41 19.5 73.5t52 51t71.5 18.5h141q63 0 105 -41t42 -104v-280h-291v-125q0 -20 19 -20h111q9 0 14 5.5t5 14.5v38h142v-53q0 -63 -42 -104t-105 -41h-137zM195 420h151v127q0 8 -5 13t-13 5h-115q-7 0 -12.5 -5t-5.5 -13v-127z
M271 789l31 62h111l-67 -133h-151l-67 133h112z" />
    <glyph glyph-name="Ecircumflex.ss03" 
d="M202 -5q-63 0 -105 41t-42 104v422q0 41 19.5 73.5t52 51t71.5 18.5h141q63 0 105 -41t42 -104v-280h-291v-125q0 -20 19 -20h111q9 0 14 5.5t5 14.5v38h142v-53q0 -63 -42 -104t-105 -41h-137zM195 420h151v127q0 8 -5 13t-13 5h-115q-7 0 -12.5 -5t-5.5 -13v-127z
M346 851l67 -133h-111l-31 62l-31 -62h-112l67 133h151z" />
    <glyph glyph-name="Edieresis.ss03" 
d="M202 -5q-63 0 -105 41t-42 104v422q0 41 19.5 73.5t52 51t71.5 18.5h141q63 0 105 -41t42 -104v-280h-291v-125q0 -20 19 -20h111q9 0 14 5.5t5 14.5v38h142v-53q0 -63 -42 -104t-105 -41h-137zM195 420h151v127q0 8 -5 13t-13 5h-115q-7 0 -12.5 -5t-5.5 -13v-127z
M149.5 735.5q-20.5 20.5 -20.5 48.5q0 29 20.5 49t48.5 20q29 0 49.5 -20t20.5 -49t-20.5 -49t-49.5 -20q-28 0 -48.5 20.5zM294.5 735q-20.5 20 -20.5 49t20.5 49t49.5 20t49 -20t20 -49q0 -28 -20 -48.5t-49 -20.5t-49.5 20z" />
    <glyph glyph-name="Edotaccent.ss03" 
d="M202 -5q-63 0 -105 41t-42 104v422q0 41 19.5 73.5t52 51t71.5 18.5h141q63 0 105 -41t42 -104v-280h-291v-125q0 -20 19 -20h111q9 0 14 5.5t5 14.5v38h142v-53q0 -63 -42 -104t-105 -41h-137zM195 420h151v127q0 8 -5 13t-13 5h-115q-7 0 -12.5 -5t-5.5 -13v-127z
M222.5 735.5q-20.5 20.5 -20.5 48.5q0 29 20.5 49t48.5 20q29 0 49.5 -20t20.5 -49t-20.5 -49t-49.5 -20q-28 0 -48.5 20.5z" />
    <glyph glyph-name="uni1EB8.ss03" 
d="M202 -5q-63 0 -105 41t-42 104v422q0 41 19.5 73.5t52 51t71.5 18.5h141q63 0 105 -41t42 -104v-280h-291v-125q0 -20 19 -20h111q9 0 14 5.5t5 14.5v38h142v-53q0 -63 -42 -104t-105 -41h-137zM195 420h151v127q0 8 -5 13t-13 5h-115q-7 0 -12.5 -5t-5.5 -13v-127z
M221.5 -132.5q-20.5 20.5 -20.5 48.5q0 29 20.5 49t48.5 20q29 0 49.5 -20t20.5 -49t-20.5 -49t-49.5 -20q-28 0 -48.5 20.5z" />
    <glyph glyph-name="Egrave.ss03" 
d="M202 -5q-63 0 -105 41t-42 104v422q0 41 19.5 73.5t52 51t71.5 18.5h141q63 0 105 -41t42 -104v-280h-291v-125q0 -20 19 -20h111q9 0 14 5.5t5 14.5v38h142v-53q0 -63 -42 -104t-105 -41h-137zM195 420h151v127q0 8 -5 13t-13 5h-115q-7 0 -12.5 -5t-5.5 -13v-127z
M336 718h-130l-47 133h130z" />
    <glyph glyph-name="Emacron.ss03" 
d="M202 -5q-63 0 -105 41t-42 104v422q0 41 19.5 73.5t52 51t71.5 18.5h141q63 0 105 -41t42 -104v-280h-291v-125q0 -20 19 -20h111q9 0 14 5.5t5 14.5v38h142v-53q0 -63 -42 -104t-105 -41h-137zM195 420h151v127q0 8 -5 13t-13 5h-115q-7 0 -12.5 -5t-5.5 -13v-127z
M398 718h-254v94h254v-94z" />
    <glyph glyph-name="Eogonek.ss03" 
d="M344 193h142v-53q0 -63 -42 -104t-105 -41h-6v-6q0 -20 27 -20h10v-106h-39q-50 0 -83.5 33.5t-33.5 84.5v14h-12q-63 0 -105 41t-42 104v422q0 41 19.5 73.5t52 51t71.5 18.5h141q63 0 105 -41t42 -104v-280h-291v-125q0 -20 19 -20h111q9 0 14 5.5t5 14.5v38zM213 565
q-7 0 -12.5 -5t-5.5 -13v-127h151v127q0 8 -5 13t-13 5h-115z" />
    <glyph glyph-name="uni1EBC.ss03" 
d="M202 -5q-63 0 -105 41t-42 104v422q0 41 19.5 73.5t52 51t71.5 18.5h141q63 0 105 -41t42 -104v-280h-291v-125q0 -20 19 -20h111q9 0 14 5.5t5 14.5v38h142v-53q0 -63 -42 -104t-105 -41h-137zM195 420h151v127q0 8 -5 13t-13 5h-115q-7 0 -12.5 -5t-5.5 -13v-127z
M283 724l-46 22l-4 2q-4 0 -6.5 -3t-2.5 -7v-20h-98v28q0 45 25.5 71.5t62.5 26.5q23 0 44 -10l47 -23l5 -1q8 0 8 10v22h97v-29q0 -45 -25 -72t-63 -27q-23 0 -44 10z" />
    <glyph glyph-name="uni1E1E.ss03" horiz-adv-x="525" 
d="M495 700v-140h-286v-140h206v-140h-206v-280h-144v700h430zM231.5 735.5q-20.5 20.5 -20.5 48.5q0 29 20.5 49t48.5 20q29 0 49.5 -20t20.5 -49t-20.5 -49t-49.5 -20q-28 0 -48.5 20.5z" />
    <glyph glyph-name="Gbreve.ss03" horiz-adv-x="532" 
d="M487 507h-143v38q0 9 -5.5 14.5t-14.5 5.5h-106q-9 0 -14 -5.5t-5 -14.5v-391q0 -19 19 -19h106q9 0 14.5 5t5.5 14v126h143v-280h-141v33q-31 -38 -77 -38h-66q-63 0 -105.5 41t-42.5 104v419q0 41 19.5 74.5t53.5 52.5t75 19h137q64 0 105.5 -41.5t41.5 -104.5v-52z
M180.5 749q-36.5 34 -45.5 102h102q1 -50 34 -50q15 0 24 12t10 38h102q-9 -68 -45.5 -102t-90.5 -34t-90.5 34z" />
    <glyph glyph-name="Gcaron.ss03" horiz-adv-x="532" 
d="M487 507h-143v38q0 9 -5.5 14.5t-14.5 5.5h-106q-9 0 -14 -5.5t-5 -14.5v-391q0 -19 19 -19h106q9 0 14.5 5t5.5 14v126h143v-280h-141v33q-31 -38 -77 -38h-66q-63 0 -105.5 41t-42.5 104v419q0 41 19.5 74.5t53.5 52.5t75 19h137q64 0 105.5 -41.5t41.5 -104.5v-52z
M271 789l31 62h111l-67 -133h-151l-67 133h112z" />
    <glyph glyph-name="Gcircumflex.ss03" horiz-adv-x="532" 
d="M487 507h-143v38q0 9 -5.5 14.5t-14.5 5.5h-106q-9 0 -14 -5.5t-5 -14.5v-391q0 -19 19 -19h106q9 0 14.5 5t5.5 14v126h143v-280h-141v33q-31 -38 -77 -38h-66q-63 0 -105.5 41t-42.5 104v419q0 41 19.5 74.5t53.5 52.5t75 19h137q64 0 105.5 -41.5t41.5 -104.5v-52z
M346 851l67 -133h-111l-31 62l-31 -62h-112l67 133h151z" />
    <glyph glyph-name="uni0122.ss03" horiz-adv-x="532" 
d="M487 507h-143v38q0 9 -5.5 14.5t-14.5 5.5h-106q-9 0 -14 -5.5t-5 -14.5v-391q0 -19 19 -19h106q9 0 14.5 5t5.5 14v126h143v-280h-141v33q-31 -38 -77 -38h-66q-63 0 -105.5 41t-42.5 104v419q0 41 19.5 74.5t53.5 52.5t75 19h137q64 0 105.5 -41.5t41.5 -104.5v-52z
M305 -148h-110l21 127h151z" />
    <glyph glyph-name="Gdotaccent.ss03" horiz-adv-x="532" 
d="M487 507h-143v38q0 9 -5.5 14.5t-14.5 5.5h-106q-9 0 -14 -5.5t-5 -14.5v-391q0 -19 19 -19h106q9 0 14.5 5t5.5 14v126h143v-280h-141v33q-31 -38 -77 -38h-66q-63 0 -105.5 41t-42.5 104v419q0 41 19.5 74.5t53.5 52.5t75 19h137q64 0 105.5 -41.5t41.5 -104.5v-52z
M222.5 735.5q-20.5 20.5 -20.5 48.5q0 29 20.5 49t48.5 20q29 0 49.5 -20t20.5 -49t-20.5 -49t-49.5 -20q-28 0 -48.5 20.5z" />
    <glyph glyph-name="uni1E20.ss03" horiz-adv-x="532" 
d="M487 507h-143v38q0 9 -5.5 14.5t-14.5 5.5h-106q-9 0 -14 -5.5t-5 -14.5v-391q0 -19 19 -19h106q9 0 14.5 5t5.5 14v126h143v-280h-141v33q-31 -38 -77 -38h-66q-63 0 -105.5 41t-42.5 104v419q0 41 19.5 74.5t53.5 52.5t75 19h137q64 0 105.5 -41.5t41.5 -104.5v-52z
M398 718h-254v94h254v-94z" />
    <glyph glyph-name="uni021E.ss03" horiz-adv-x="560" 
d="M347 420v280h148v-700h-148v280h-134v-280h-148v700h148v-280h134zM280 789l31 62h111l-67 -133h-151l-67 133h112z" />
    <glyph glyph-name="Hcircumflex.ss03" horiz-adv-x="560" 
d="M347 420v280h148v-700h-148v280h-134v-280h-148v700h148v-280h134zM355 851l67 -133h-111l-31 62l-31 -62h-112l67 133h151z" />
    <glyph glyph-name="uni1E22.ss03" horiz-adv-x="560" 
d="M347 420v280h148v-700h-148v280h-134v-280h-148v700h148v-280h134zM231.5 735.5q-20.5 20.5 -20.5 48.5q0 29 20.5 49t48.5 20q29 0 49.5 -20t20.5 -49t-20.5 -49t-49.5 -20q-28 0 -48.5 20.5z" />
    <glyph glyph-name="uni1E24.ss03" horiz-adv-x="560" 
d="M347 420v280h148v-700h-148v280h-134v-280h-148v700h148v-280h134zM230.5 -132.5q-20.5 20.5 -20.5 48.5q0 29 20.5 49t48.5 20q29 0 49.5 -20t20.5 -49t-20.5 -49t-49.5 -20q-28 0 -48.5 20.5z" />
    <glyph glyph-name="Iacute.ss03" horiz-adv-x="278" 
d="M213 0h-148v700h148v-700zM251 851l-47 -133h-130l47 133h130z" />
    <glyph glyph-name="Ibreve.ss03" horiz-adv-x="278" 
d="M213 0h-148v700h148v-700zM48.5 749q-36.5 34 -45.5 102h102q1 -50 34 -50q15 0 24 12t10 38h102q-9 -68 -45.5 -102t-90.5 -34t-90.5 34z" />
    <glyph glyph-name="uni01CF.ss03" horiz-adv-x="278" 
d="M213 0h-148v700h148v-700zM139 789l31 62h111l-67 -133h-151l-67 133h112z" />
    <glyph glyph-name="Icircumflex.ss03" horiz-adv-x="278" 
d="M213 0h-148v700h148v-700zM214 851l67 -133h-111l-31 62l-31 -62h-112l67 133h151z" />
    <glyph glyph-name="Idieresis.ss03" horiz-adv-x="278" 
d="M213 0h-148v700h148v-700zM17.5 735.5q-20.5 20.5 -20.5 48.5q0 29 20.5 49t48.5 20q29 0 49.5 -20t20.5 -49t-20.5 -49t-49.5 -20q-28 0 -48.5 20.5zM162.5 735q-20.5 20 -20.5 49t20.5 49t49.5 20t49 -20t20 -49q0 -28 -20 -48.5t-49 -20.5t-49.5 20z" />
    <glyph glyph-name="Idotaccent.ss03" horiz-adv-x="278" 
d="M213 0h-148v700h148v-700zM90.5 735.5q-20.5 20.5 -20.5 48.5q0 29 20.5 49t48.5 20q29 0 49.5 -20t20.5 -49t-20.5 -49t-49.5 -20q-28 0 -48.5 20.5z" />
    <glyph glyph-name="uni1ECA.ss03" horiz-adv-x="278" 
d="M213 0h-148v700h148v-700zM89.5 -132.5q-20.5 20.5 -20.5 48.5q0 29 20.5 49t48.5 20q29 0 49.5 -20t20.5 -49t-20.5 -49t-49.5 -20q-28 0 -48.5 20.5z" />
    <glyph glyph-name="Igrave.ss03" horiz-adv-x="278" 
d="M213 0h-148v700h148v-700zM204 718h-130l-47 133h130z" />
    <glyph glyph-name="Imacron.ss03" horiz-adv-x="278" 
d="M213 0h-148v700h148v-700zM266 718h-254v94h254v-94z" />
    <glyph glyph-name="Iogonek.ss03" horiz-adv-x="278" 
d="M221 -31v-106h-39q-50 0 -83.5 33.5t-33.5 84.5v19v0v700h148v-700h-29v-11q0 -20 27 -20h10z" />
    <glyph glyph-name="Itilde.ss03" horiz-adv-x="278" 
d="M213 0h-148v700h148v-700zM151 724l-46 22l-4 2q-4 0 -6.5 -3t-2.5 -7v-20h-98v28q0 45 25.5 71.5t62.5 26.5q23 0 44 -10l47 -23l5 -1q8 0 8 10v22h97v-29q0 -45 -25 -72t-63 -27q-23 0 -44 10z" />
    <glyph glyph-name="Jcircumflex.ss03" horiz-adv-x="497" 
d="M152 -5q-64 0 -105.5 41t-41.5 104v53h143v-42q0 -9 5.5 -14t14.5 -5h102q19 0 19 19v549h148v-560q0 -63 -42 -104t-106 -41h-137zM440 851l67 -133h-111l-31 62l-31 -62h-112l67 133h151z" />
    <glyph glyph-name="uni01E8.ss03" horiz-adv-x="549" 
d="M528 701l-109 -350l110 -352h-154l-85 277h-77v-276h-148v700h148v-276h76l86 277h153zM289 789l31 62h111l-67 -133h-151l-67 133h112z" />
    <glyph glyph-name="uni0136.ss03" horiz-adv-x="549" 
d="M528 701l-109 -350l110 -352h-154l-85 277h-77v-276h-148v700h148v-276h76l86 277h153zM309 -148h-110l21 127h151z" />
    <glyph glyph-name="Lacute.ss03" horiz-adv-x="514" 
d="M213 700v-560h281v-140h-429v700h148zM252 851l-47 -133h-130l47 133h130z" />
    <glyph glyph-name="Lcaron.ss03" horiz-adv-x="514" 
d="M213 700v-560h281v-140h-429v700h148zM437 699l-47 -133h-130l47 133h130z" />
    <glyph glyph-name="uni013B.ss03" horiz-adv-x="514" 
d="M213 700v-560h281v-140h-429v700h148zM293 -148h-110l21 127h151z" />
    <glyph glyph-name="Ldot.ss03" horiz-adv-x="514" 
d="M213 700v-560h281v-140h-429v700h148zM345.5 337.5q-20.5 20.5 -20.5 48.5q0 29 20.5 49t48.5 20q29 0 49.5 -20t20.5 -49t-20.5 -49t-49.5 -20q-28 0 -48.5 20.5z" />
    <glyph glyph-name="uni1E36.ss03" horiz-adv-x="514" 
d="M213 700v-560h281v-140h-429v700h148zM230.5 -132.5q-20.5 20.5 -20.5 48.5q0 29 20.5 49t48.5 20q29 0 49.5 -20t20.5 -49t-20.5 -49t-49.5 -20q-28 0 -48.5 20.5z" />
    <glyph glyph-name="uni1E38.ss03" horiz-adv-x="513" 
d="M229.5 -132.5q-20.5 20.5 -20.5 48.5q0 29 20.5 49t48.5 20q29 0 49.5 -20t20.5 -49t-20.5 -49t-49.5 -20q-28 0 -48.5 20.5zM212 700v-560h281v-140h-429v700h148zM264 718h-254v94h254v-94z" />
    <glyph glyph-name="uni1E3E.ss03" horiz-adv-x="831" 
d="M420 178l186 522h160v-700h-138v354h-8l-125 -354h-159l-125 354h-8v-354h-138v700h160l186 -522h9zM528 853l-47 -133h-130l47 133h130z" />
    <glyph glyph-name="uni1E40.ss03" horiz-adv-x="831" 
d="M420 178l186 522h160v-700h-138v354h-8l-125 -354h-159l-125 354h-8v-354h-138v700h160l186 -522h9zM367.5 737.5q-20.5 20.5 -20.5 48.5q0 29 20.5 49t48.5 20q29 0 49.5 -20t20.5 -49t-20.5 -49t-49.5 -20q-28 0 -48.5 20.5z" />
    <glyph glyph-name="uni1E42.ss03" horiz-adv-x="831" 
d="M420 178l186 522h160v-700h-138v354h-8l-125 -354h-159l-125 354h-8v-354h-138v700h160l186 -522h9zM366.5 -133.5q-20.5 20.5 -20.5 48.5q0 29 20.5 49t48.5 20q29 0 49.5 -20t20.5 -49t-20.5 -49t-49.5 -20q-28 0 -48.5 20.5z" />
    <glyph glyph-name="Nacute.ss03" horiz-adv-x="562" 
d="M203 0h-138v700h145l141 -371h8v371h138v-700h-145l-141 369h-8v-369zM393 851l-47 -133h-130l47 133h130z" />
    <glyph glyph-name="Ncaron.ss03" horiz-adv-x="562" 
d="M203 0h-138v700h145l141 -371h8v371h138v-700h-145l-141 369h-8v-369zM281 789l31 62h111l-67 -133h-151l-67 133h112z" />
    <glyph glyph-name="uni0145.ss03" horiz-adv-x="562" 
d="M203 0h-138v700h145l141 -371h8v371h138v-700h-145l-141 369h-8v-369zM294 -148h-110l21 127h151z" />
    <glyph glyph-name="uni1E44.ss03" horiz-adv-x="562" 
d="M203 0h-138v700h145l141 -371h8v371h138v-700h-145l-141 369h-8v-369zM232.5 735.5q-20.5 20.5 -20.5 48.5q0 29 20.5 49t48.5 20q29 0 49.5 -20t20.5 -49t-20.5 -49t-49.5 -20q-28 0 -48.5 20.5z" />
    <glyph glyph-name="uni1E46.ss03" horiz-adv-x="562" 
d="M203 0h-138v700h145l141 -371h8v371h138v-700h-145l-141 369h-8v-369zM231.5 -132.5q-20.5 20.5 -20.5 48.5q0 29 20.5 49t48.5 20q29 0 49.5 -20t20.5 -49t-20.5 -49t-49.5 -20q-28 0 -48.5 20.5z" />
    <glyph glyph-name="uni01F8.ss03" horiz-adv-x="562" 
d="M203 0h-138v700h145l141 -371h8v371h138v-700h-145l-141 369h-8v-369zM346 718h-130l-47 133h130z" />
    <glyph glyph-name="Ntilde.ss03" horiz-adv-x="562" 
d="M203 0h-138v700h145l141 -371h8v371h138v-700h-145l-141 369h-8v-369zM293 724l-46 22l-4 2q-4 0 -6.5 -3t-2.5 -7v-20h-98v28q0 45 25.5 71.5t62.5 26.5q23 0 44 -10l47 -23l5 -1q8 0 8 10v22h97v-29q0 -45 -25 -72t-63 -27q-23 0 -44 10z" />
    <glyph glyph-name="Oacute.ss03" 
d="M202 -5q-63 0 -105 41t-42 104v420q0 63 42 104t105 41h137q63 0 105 -41t42 -104v-420q0 -63 -42 -104t-105 -41h-137zM324 135q19 0 19 19v392q0 19 -19 19h-107q-8 0 -13 -5t-5 -14v-392q0 -9 5 -14t13 -5h107zM383 851l-47 -133h-130l47 133h130z" />
    <glyph glyph-name="Obreve.ss03" 
d="M202 -5q-63 0 -105 41t-42 104v420q0 63 42 104t105 41h137q63 0 105 -41t42 -104v-420q0 -63 -42 -104t-105 -41h-137zM324 135q19 0 19 19v392q0 19 -19 19h-107q-8 0 -13 -5t-5 -14v-392q0 -9 5 -14t13 -5h107zM180.5 749q-36.5 34 -45.5 102h102q1 -50 34 -50
q15 0 24 12t10 38h102q-9 -68 -45.5 -102t-90.5 -34t-90.5 34z" />
    <glyph glyph-name="uni01D1.ss03" 
d="M202 -5q-63 0 -105 41t-42 104v420q0 63 42 104t105 41h137q63 0 105 -41t42 -104v-420q0 -63 -42 -104t-105 -41h-137zM324 135q19 0 19 19v392q0 19 -19 19h-107q-8 0 -13 -5t-5 -14v-392q0 -9 5 -14t13 -5h107zM271 789l31 62h111l-67 -133h-151l-67 133h112z" />
    <glyph glyph-name="Ocircumflex.ss03" 
d="M202 -5q-63 0 -105 41t-42 104v420q0 63 42 104t105 41h137q63 0 105 -41t42 -104v-420q0 -63 -42 -104t-105 -41h-137zM324 135q19 0 19 19v392q0 19 -19 19h-107q-8 0 -13 -5t-5 -14v-392q0 -9 5 -14t13 -5h107zM346 851l67 -133h-111l-31 62l-31 -62h-112l67 133h151z
" />
    <glyph glyph-name="Odieresis.ss03" 
d="M202 -5q-63 0 -105 41t-42 104v420q0 63 42 104t105 41h137q63 0 105 -41t42 -104v-420q0 -63 -42 -104t-105 -41h-137zM324 135q19 0 19 19v392q0 19 -19 19h-107q-8 0 -13 -5t-5 -14v-392q0 -9 5 -14t13 -5h107zM149.5 735.5q-20.5 20.5 -20.5 48.5q0 29 20.5 49
t48.5 20q29 0 49.5 -20t20.5 -49t-20.5 -49t-49.5 -20q-28 0 -48.5 20.5zM294.5 735q-20.5 20 -20.5 49t20.5 49t49.5 20t49 -20t20 -49q0 -28 -20 -48.5t-49 -20.5t-49.5 20z" />
    <glyph glyph-name="uni022E.ss03" 
d="M202 -5q-63 0 -105 41t-42 104v420q0 63 42 104t105 41h137q63 0 105 -41t42 -104v-420q0 -63 -42 -104t-105 -41h-137zM324 135q19 0 19 19v392q0 19 -19 19h-107q-8 0 -13 -5t-5 -14v-392q0 -9 5 -14t13 -5h107zM222.5 735.5q-20.5 20.5 -20.5 48.5q0 29 20.5 49
t48.5 20q29 0 49.5 -20t20.5 -49t-20.5 -49t-49.5 -20q-28 0 -48.5 20.5z" />
    <glyph glyph-name="uni1ECC.ss03" 
d="M202 -5q-63 0 -105 41t-42 104v420q0 63 42 104t105 41h137q63 0 105 -41t42 -104v-420q0 -63 -42 -104t-105 -41h-137zM324 135q19 0 19 19v392q0 19 -19 19h-107q-8 0 -13 -5t-5 -14v-392q0 -9 5 -14t13 -5h107zM221.5 -132.5q-20.5 20.5 -20.5 48.5q0 29 20.5 49
t48.5 20q29 0 49.5 -20t20.5 -49t-20.5 -49t-49.5 -20q-28 0 -48.5 20.5z" />
    <glyph glyph-name="Ograve.ss03" 
d="M202 -5q-63 0 -105 41t-42 104v420q0 63 42 104t105 41h137q63 0 105 -41t42 -104v-420q0 -63 -42 -104t-105 -41h-137zM324 135q19 0 19 19v392q0 19 -19 19h-107q-8 0 -13 -5t-5 -14v-392q0 -9 5 -14t13 -5h107zM336 718h-130l-47 133h130z" />
    <glyph glyph-name="Ohungarumlaut.ss03" 
d="M202 -5q-63 0 -105 41t-42 104v420q0 63 42 104t105 41h137q63 0 105 -41t42 -104v-420q0 -63 -42 -104t-105 -41h-137zM324 135q19 0 19 19v392q0 19 -19 19h-107q-8 0 -13 -5t-5 -14v-392q0 -9 5 -14t13 -5h107zM263 718h-131l47 133h131zM411 718h-131l47 133h131z
" />
    <glyph glyph-name="Omacron.ss03" 
d="M202 -5q-63 0 -105 41t-42 104v420q0 63 42 104t105 41h137q63 0 105 -41t42 -104v-420q0 -63 -42 -104t-105 -41h-137zM324 135q19 0 19 19v392q0 19 -19 19h-107q-8 0 -13 -5t-5 -14v-392q0 -9 5 -14t13 -5h107zM398 718h-254v94h254v-94z" />
    <glyph glyph-name="uni01EA.ss03" 
d="M339 705q63 0 105 -41t42 -104v-420q0 -63 -42 -104t-105 -41h-5v-6q0 -20 27 -20h10v-106h-39q-50 0 -83.5 33.5t-33.5 84.5v14h-13q-63 0 -105 41t-42 104v420q0 63 42 104t105 41h137zM343 546q0 19 -19 19h-107q-8 0 -13 -5t-5 -14v-392q0 -9 5 -14t13 -5h107
q19 0 19 19v392z" />
    <glyph glyph-name="Oslashacute.ss03" 
d="M509 701l-38 -74q15 -28 15 -67v-420q0 -63 -42 -104t-105 -41h-137q-32 0 -56 10l-28 -54l-86 44l39 76q-16 32 -16 69v420q0 63 42 104t105 41h137q30 0 58 -11l27 52zM199 315l130 250h-5h-107q-8 0 -13 -5t-5 -14v-231zM343 383l-129 -248h3h107q19 0 19 19v229z
M383 851l-47 -133h-130l47 133h130z" />
    <glyph glyph-name="Otilde.ss03" 
d="M202 -5q-63 0 -105 41t-42 104v420q0 63 42 104t105 41h137q63 0 105 -41t42 -104v-420q0 -63 -42 -104t-105 -41h-137zM324 135q19 0 19 19v392q0 19 -19 19h-107q-8 0 -13 -5t-5 -14v-392q0 -9 5 -14t13 -5h107zM283 724l-46 22l-4 2q-4 0 -6.5 -3t-2.5 -7v-20h-98v28
q0 45 25.5 71.5t62.5 26.5q23 0 44 -10l47 -23l5 -1q8 0 8 10v22h97v-29q0 -45 -25 -72t-63 -27q-23 0 -44 10z" />
    <glyph glyph-name="OE.ss03" horiz-adv-x="830" 
d="M202 -5q-64 0 -105.5 41t-41.5 104v420q0 63 41.5 104t105.5 41h426q63 0 105 -41t42 -104v-280h-291v-125q0 -20 19 -20h111q9 0 14 5.5t5 14.5v38h142v-53q0 -63 -42 -104t-105 -41h-426zM324 135q19 0 19 20v390q0 20 -19 20h-106q-19 0 -19 -20v-390q0 -20 19 -20
h106zM484 420h151v127q0 8 -5 13t-13 5h-115q-8 0 -13 -5t-5 -13v-127z" />
    <glyph glyph-name="uni1E56.ss03" horiz-adv-x="528" 
d="M65 0v700h285q63 0 105.5 -41t42.5 -104v-130q0 -63 -42.5 -104t-105.5 -41h-137v-280h-148zM339 420q8 0 13.5 5t5.5 14v102q0 9 -5.5 14t-13.5 5h-131v-140h131zM234.5 735.5q-20.5 20.5 -20.5 48.5q0 29 20.5 49t48.5 20q29 0 49.5 -20t20.5 -49t-20.5 -49t-49.5 -20
q-28 0 -48.5 20.5z" />
    <glyph glyph-name="Racute.ss03" horiz-adv-x="553" 
d="M543 0h-160l-161 303h-9v-303h-148v700h285q63 0 105.5 -41t42.5 -104v-124q0 -54 -32 -92t-82 -49zM340 420q8 0 13.5 5t5.5 14v102q0 9 -5.5 14t-13.5 5h-134v-140h134zM395 851l-47 -133h-130l47 133h130z" />
    <glyph glyph-name="Rcaron.ss03" horiz-adv-x="553" 
d="M543 0h-160l-161 303h-9v-303h-148v700h285q63 0 105.5 -41t42.5 -104v-124q0 -54 -32 -92t-82 -49zM340 420q8 0 13.5 5t5.5 14v102q0 9 -5.5 14t-13.5 5h-134v-140h134zM283 789l31 62h111l-67 -133h-151l-67 133h112z" />
    <glyph glyph-name="uni0156.ss03" horiz-adv-x="553" 
d="M543 0h-160l-161 303h-9v-303h-148v700h285q63 0 105.5 -41t42.5 -104v-124q0 -54 -32 -92t-82 -49zM340 420q8 0 13.5 5t5.5 14v102q0 9 -5.5 14t-13.5 5h-134v-140h134zM312 -148h-110l21 127h151z" />
    <glyph glyph-name="uni1E5A.ss03" horiz-adv-x="553" 
d="M543 0h-160l-161 303h-9v-303h-148v700h285q63 0 105.5 -41t42.5 -104v-124q0 -54 -32 -92t-82 -49zM340 420q8 0 13.5 5t5.5 14v102q0 9 -5.5 14t-13.5 5h-134v-140h134zM249.5 -132.5q-20.5 20.5 -20.5 48.5q0 29 20.5 49t48.5 20q29 0 49.5 -20t20.5 -49t-20.5 -49
t-49.5 -20q-28 0 -48.5 20.5z" />
    <glyph glyph-name="uni1E5C.ss03" horiz-adv-x="553" 
d="M543 0h-160l-161 303h-9v-303h-148v700h285q63 0 105.5 -41t42.5 -104v-124q0 -54 -32 -92t-82 -49zM340 420q8 0 13.5 5t5.5 14v102q0 9 -5.5 14t-13.5 5h-134v-140h134zM249.5 -132.5q-20.5 20.5 -20.5 48.5q0 29 20.5 49t48.5 20q29 0 49.5 -20t20.5 -49t-20.5 -49
t-49.5 -20q-28 0 -48.5 20.5zM398 718h-254v94h254v-94z" />
    <glyph glyph-name="Sacute.ss03" horiz-adv-x="522" 
d="M193 -5q-41 0 -75 19t-53.5 52t-19.5 74v53h143v-38q0 -9 5.5 -14.5t13.5 -5.5h105q25 0 25 25v24q0 19 -15 30l-179 137q-50 38 -72.5 70.5t-22.5 70.5v68q0 63 41.5 104t106.5 41h133q63 0 105.5 -41t42.5 -104v-52h-143v37q0 9 -5.5 14.5t-13.5 5.5h-102
q-25 0 -25 -25v-22q0 -19 15 -30l177 -135q50 -38 73.5 -69.5t23.5 -67.5v-76q0 -63 -41.5 -104t-106.5 -41h-136zM373 851l-47 -133h-130l47 133h130z" />
    <glyph glyph-name="Scaron.ss03" horiz-adv-x="522" 
d="M193 -5q-41 0 -75 19t-53.5 52t-19.5 74v53h143v-38q0 -9 5.5 -14.5t13.5 -5.5h105q25 0 25 25v24q0 19 -15 30l-179 137q-50 38 -72.5 70.5t-22.5 70.5v68q0 63 41.5 104t106.5 41h133q63 0 105.5 -41t42.5 -104v-52h-143v37q0 9 -5.5 14.5t-13.5 5.5h-102
q-25 0 -25 -25v-22q0 -19 15 -30l177 -135q50 -38 73.5 -69.5t23.5 -67.5v-76q0 -63 -41.5 -104t-106.5 -41h-136zM261 789l31 62h111l-67 -133h-151l-67 133h112z" />
    <glyph glyph-name="Scedilla.ss03" horiz-adv-x="522" 
d="M193 -5q-41 0 -75 19t-53.5 52t-19.5 74v53h143v-38q0 -9 5.5 -14.5t13.5 -5.5h105q25 0 25 25v24q0 19 -15 30l-179 137q-50 38 -72.5 70.5t-22.5 70.5v68q0 63 41.5 104t106.5 41h133q63 0 105.5 -41t42.5 -104v-52h-143v37q0 9 -5.5 14.5t-13.5 5.5h-102
q-25 0 -25 -25v-22q0 -19 15 -30l177 -135q50 -38 73.5 -69.5t23.5 -67.5v-76q0 -63 -41.5 -104t-106.5 -41h-136zM297 -148h-151l62 127h110z" />
    <glyph glyph-name="Scircumflex.ss03" horiz-adv-x="522" 
d="M193 -5q-41 0 -75 19t-53.5 52t-19.5 74v53h143v-38q0 -9 5.5 -14.5t13.5 -5.5h105q25 0 25 25v24q0 19 -15 30l-179 137q-50 38 -72.5 70.5t-22.5 70.5v68q0 63 41.5 104t106.5 41h133q63 0 105.5 -41t42.5 -104v-52h-143v37q0 9 -5.5 14.5t-13.5 5.5h-102
q-25 0 -25 -25v-22q0 -19 15 -30l177 -135q50 -38 73.5 -69.5t23.5 -67.5v-76q0 -63 -41.5 -104t-106.5 -41h-136zM336 851l67 -133h-111l-31 62l-31 -62h-112l67 133h151z" />
    <glyph glyph-name="uni0218.ss03" horiz-adv-x="522" 
d="M193 -5q-41 0 -75 19t-53.5 52t-19.5 74v53h143v-38q0 -9 5.5 -14.5t13.5 -5.5h105q25 0 25 25v24q0 19 -15 30l-179 137q-50 38 -72.5 70.5t-22.5 70.5v68q0 63 41.5 104t106.5 41h133q63 0 105.5 -41t42.5 -104v-52h-143v37q0 9 -5.5 14.5t-13.5 5.5h-102
q-25 0 -25 -25v-22q0 -19 15 -30l177 -135q50 -38 73.5 -69.5t23.5 -67.5v-76q0 -63 -41.5 -104t-106.5 -41h-136zM276 -148h-110l21 127h151z" />
    <glyph glyph-name="uni1E60.ss03" horiz-adv-x="522" 
d="M193 -5q-41 0 -75 19t-53.5 52t-19.5 74v53h143v-38q0 -9 5.5 -14.5t13.5 -5.5h105q25 0 25 25v24q0 19 -15 30l-179 137q-50 38 -72.5 70.5t-22.5 70.5v68q0 63 41.5 104t106.5 41h133q63 0 105.5 -41t42.5 -104v-52h-143v37q0 9 -5.5 14.5t-13.5 5.5h-102
q-25 0 -25 -25v-22q0 -19 15 -30l177 -135q50 -38 73.5 -69.5t23.5 -67.5v-76q0 -63 -41.5 -104t-106.5 -41h-136zM212.5 735.5q-20.5 20.5 -20.5 48.5q0 29 20.5 49t48.5 20q29 0 49.5 -20t20.5 -49t-20.5 -49t-49.5 -20q-28 0 -48.5 20.5z" />
    <glyph glyph-name="uni1E62.ss03" horiz-adv-x="522" 
d="M193 -5q-41 0 -75 19t-53.5 52t-19.5 74v53h143v-38q0 -9 5.5 -14.5t13.5 -5.5h105q25 0 25 25v24q0 19 -15 30l-179 137q-50 38 -72.5 70.5t-22.5 70.5v68q0 63 41.5 104t106.5 41h133q63 0 105.5 -41t42.5 -104v-52h-143v37q0 9 -5.5 14.5t-13.5 5.5h-102
q-25 0 -25 -25v-22q0 -19 15 -30l177 -135q50 -38 73.5 -69.5t23.5 -67.5v-76q0 -63 -41.5 -104t-106.5 -41h-136zM213.5 -132.5q-20.5 20.5 -20.5 48.5q0 29 20.5 49t48.5 20q29 0 49.5 -20t20.5 -49t-20.5 -49t-49.5 -20q-28 0 -48.5 20.5z" />
    <glyph glyph-name="Tcaron.ss03" horiz-adv-x="490" 
d="M460 700v-140h-141v-560h-148v560h-141v140h430zM245 789l31 62h111l-67 -133h-151l-67 133h112z" />
    <glyph glyph-name="uni0162.ss03" horiz-adv-x="490" 
d="M460 700v-140h-141v-560h-148v560h-141v140h430zM279 -148h-151l62 127h110z" />
    <glyph glyph-name="uni021A.ss03" horiz-adv-x="490" 
d="M460 700v-140h-141v-560h-148v560h-141v140h430zM258 -148h-110l21 127h151z" />
    <glyph glyph-name="uni1E6A.ss03" horiz-adv-x="490" 
d="M460 700v-140h-141v-560h-148v560h-141v140h430zM196.5 735.5q-20.5 20.5 -20.5 48.5q0 29 20.5 49t48.5 20q29 0 49.5 -20t20.5 -49t-20.5 -49t-49.5 -20q-28 0 -48.5 20.5z" />
    <glyph glyph-name="uni1E6C.ss03" horiz-adv-x="490" 
d="M460 700v-140h-141v-560h-148v560h-141v140h430zM195.5 -132.5q-20.5 20.5 -20.5 48.5q0 29 20.5 49t48.5 20q29 0 49.5 -20t20.5 -49t-20.5 -49t-49.5 -20q-28 0 -48.5 20.5z" />
    <glyph glyph-name="Uacute.ss03" horiz-adv-x="562" 
d="M213 -5q-64 0 -106 41t-42 104v560h144v-546q0 -19 18 -19h106q9 0 14.5 5t5.5 14v546h144v-560q0 -63 -41.5 -104t-104.5 -41h-138zM393 851l-47 -133h-130l47 133h130z" />
    <glyph glyph-name="Ubreve.ss03" horiz-adv-x="562" 
d="M213 -5q-64 0 -106 41t-42 104v560h144v-546q0 -19 18 -19h106q9 0 14.5 5t5.5 14v546h144v-560q0 -63 -41.5 -104t-104.5 -41h-138zM190.5 749q-36.5 34 -45.5 102h102q1 -50 34 -50q15 0 24 12t10 38h102q-9 -68 -45.5 -102t-90.5 -34t-90.5 34z" />
    <glyph glyph-name="uni01D3.ss03" horiz-adv-x="562" 
d="M213 -5q-64 0 -106 41t-42 104v560h144v-546q0 -19 18 -19h106q9 0 14.5 5t5.5 14v546h144v-560q0 -63 -41.5 -104t-104.5 -41h-138zM281 789l31 62h111l-67 -133h-151l-67 133h112z" />
    <glyph glyph-name="Ucircumflex.ss03" horiz-adv-x="562" 
d="M213 -5q-64 0 -106 41t-42 104v560h144v-546q0 -19 18 -19h106q9 0 14.5 5t5.5 14v546h144v-560q0 -63 -41.5 -104t-104.5 -41h-138zM356 851l67 -133h-111l-31 62l-31 -62h-112l67 133h151z" />
    <glyph glyph-name="Udieresis.ss03" horiz-adv-x="562" 
d="M213 -5q-64 0 -106 41t-42 104v560h144v-546q0 -19 18 -19h106q9 0 14.5 5t5.5 14v546h144v-560q0 -63 -41.5 -104t-104.5 -41h-138zM159.5 735.5q-20.5 20.5 -20.5 48.5q0 29 20.5 49t48.5 20q29 0 49.5 -20t20.5 -49t-20.5 -49t-49.5 -20q-28 0 -48.5 20.5zM304.5 735
q-20.5 20 -20.5 49t20.5 49t49.5 20t49 -20t20 -49q0 -28 -20 -48.5t-49 -20.5t-49.5 20z" />
    <glyph glyph-name="uni1EE4.ss03" horiz-adv-x="562" 
d="M213 -5q-64 0 -106 41t-42 104v560h144v-546q0 -19 18 -19h106q9 0 14.5 5t5.5 14v546h144v-560q0 -63 -41.5 -104t-104.5 -41h-138zM231.5 -132.5q-20.5 20.5 -20.5 48.5q0 29 20.5 49t48.5 20q29 0 49.5 -20t20.5 -49t-20.5 -49t-49.5 -20q-28 0 -48.5 20.5z" />
    <glyph glyph-name="Ugrave.ss03" horiz-adv-x="562" 
d="M213 -5q-64 0 -106 41t-42 104v560h144v-546q0 -19 18 -19h106q9 0 14.5 5t5.5 14v546h144v-560q0 -63 -41.5 -104t-104.5 -41h-138zM346 718h-130l-47 133h130z" />
    <glyph glyph-name="Uhungarumlaut.ss03" horiz-adv-x="562" 
d="M213 -5q-64 0 -106 41t-42 104v560h144v-546q0 -19 18 -19h106q9 0 14.5 5t5.5 14v546h144v-560q0 -63 -41.5 -104t-104.5 -41h-138zM273 718h-131l47 133h131zM421 718h-131l47 133h131z" />
    <glyph glyph-name="Umacron.ss03" horiz-adv-x="562" 
d="M213 -5q-64 0 -106 41t-42 104v560h144v-546q0 -19 18 -19h106q9 0 14.5 5t5.5 14v546h144v-560q0 -63 -41.5 -104t-104.5 -41h-138zM408 718h-254v94h254v-94z" />
    <glyph glyph-name="Uogonek.ss03" horiz-adv-x="562" 
d="M353 700h144v-560q0 -63 -41.5 -104t-104.5 -41h-7v-6q0 -20 27 -20h10v-106h-39q-50 0 -83.5 33.5t-33.5 84.5v14h-12q-64 0 -106 41t-42 104v560h144v-546q0 -19 18 -19h106q9 0 14.5 5t5.5 14v546z" />
    <glyph glyph-name="Uring.ss03" horiz-adv-x="562" 
d="M213 -5q-64 0 -106 41t-42 104v560h144v-546q0 -19 18 -19h106q9 0 14.5 5t5.5 14v546h144v-560q0 -63 -41.5 -104t-104.5 -41h-138zM211 722.5q-30 29.5 -29 69.5q-1 40 29 70t70 29q40 1 69.5 -28.5t28.5 -69.5q1 -40 -28.5 -70t-69.5 -29q-40 -1 -70 28.5zM296 777
q6 6 7 15q0 10 -6.5 16t-15.5 7q-10 -1 -16 -7t-7 -16q1 -9 7 -15t16 -7q9 1 15 7z" />
    <glyph glyph-name="Utilde.ss03" horiz-adv-x="562" 
d="M213 -5q-64 0 -106 41t-42 104v560h144v-546q0 -19 18 -19h106q9 0 14.5 5t5.5 14v546h144v-560q0 -63 -41.5 -104t-104.5 -41h-138zM293 724l-46 22l-4 2q-4 0 -6.5 -3t-2.5 -7v-20h-98v28q0 45 25.5 71.5t62.5 26.5q23 0 44 -10l47 -23l5 -1q8 0 8 10v22h97v-29
q0 -45 -25 -72t-63 -27q-23 0 -44 10z" />
    <glyph glyph-name="uni1E7C.ss03" horiz-adv-x="544" 
d="M372 0h-200l-152 700h153l97 -466h10l97 466h147zM284 724l-46 22l-4 2q-4 0 -6.5 -3t-2.5 -7v-20h-98v28q0 45 25.5 71.5t62.5 26.5q23 0 44 -10l47 -23l5 -1q8 0 8 10v22h97v-29q0 -45 -25 -72t-63 -27q-23 0 -44 10z" />
    <glyph glyph-name="Wacute.ss03" horiz-adv-x="752" 
d="M300 0h-152l-118 700h142l62 -394h14l67 394h122l67 -394h14l62 394h142l-118 -700h-152l-70 343h-12zM488 851l-47 -133h-130l47 133h130z" />
    <glyph glyph-name="Wcircumflex.ss03" horiz-adv-x="752" 
d="M300 0h-152l-118 700h142l62 -394h14l67 394h122l67 -394h14l62 394h142l-118 -700h-152l-70 343h-12zM451 851l67 -133h-111l-31 62l-31 -62h-112l67 133h151z" />
    <glyph glyph-name="Wdieresis.ss03" horiz-adv-x="752" 
d="M300 0h-152l-118 700h142l62 -394h14l67 394h122l67 -394h14l62 394h142l-118 -700h-152l-70 343h-12zM254.5 735.5q-20.5 20.5 -20.5 48.5q0 29 20.5 49t48.5 20q29 0 49.5 -20t20.5 -49t-20.5 -49t-49.5 -20q-28 0 -48.5 20.5zM399.5 735q-20.5 20 -20.5 49t20.5 49
t49.5 20t49 -20t20 -49q0 -28 -20 -48.5t-49 -20.5t-49.5 20z" />
    <glyph glyph-name="Wgrave.ss03" horiz-adv-x="752" 
d="M300 0h-152l-118 700h142l62 -394h14l67 394h122l67 -394h14l62 394h142l-118 -700h-152l-70 343h-12zM441 718h-130l-47 133h130z" />
    <glyph glyph-name="Yacute.ss03" horiz-adv-x="580" 
d="M415 700h155l-204 -459l-2 -241h-148l-2 241l-204 459h155l120 -271h10zM402 851l-47 -133h-130l47 133h130z" />
    <glyph glyph-name="Ycircumflex.ss03" horiz-adv-x="580" 
d="M415 700h155l-204 -459l-2 -241h-148l-2 241l-204 459h155l120 -271h10zM365 851l67 -133h-111l-31 62l-31 -62h-112l67 133h151z" />
    <glyph glyph-name="Ydieresis.ss03" horiz-adv-x="580" 
d="M415 700h155l-204 -459l-2 -241h-148l-2 241l-204 459h155l120 -271h10zM168.5 735.5q-20.5 20.5 -20.5 48.5q0 29 20.5 49t48.5 20q29 0 49.5 -20t20.5 -49t-20.5 -49t-49.5 -20q-28 0 -48.5 20.5zM313.5 735q-20.5 20 -20.5 49t20.5 49t49.5 20t49 -20t20 -49
q0 -28 -20 -48.5t-49 -20.5t-49.5 20z" />
    <glyph glyph-name="Ygrave.ss03" horiz-adv-x="580" 
d="M415 700h155l-204 -459l-2 -241h-148l-2 241l-204 459h155l120 -271h10zM355 718h-130l-47 133h130z" />
    <glyph glyph-name="uni0232.ss03" horiz-adv-x="580" 
d="M415 700h155l-204 -459l-2 -241h-148l-2 241l-204 459h155l120 -271h10zM417 718h-254v94h254v-94z" />
    <glyph glyph-name="uni1EF8.ss03" horiz-adv-x="580" 
d="M415 700h155l-204 -459l-2 -241h-148l-2 241l-204 459h155l120 -271h10zM302 724l-46 22l-4 2q-4 0 -6.5 -3t-2.5 -7v-20h-98v28q0 45 25.5 71.5t62.5 26.5q23 0 44 -10l47 -23l5 -1q8 0 8 10v22h97v-29q0 -45 -25 -72t-63 -27q-23 0 -44 10z" />
    <glyph glyph-name="Zacute.ss03" horiz-adv-x="520" 
d="M470 0h-420v210l280 341v9h-280v140h420v-210l-279 -339v-11h279v-140zM372 851l-47 -133h-130l47 133h130z" />
    <glyph glyph-name="Zcaron.ss03" horiz-adv-x="520" 
d="M470 0h-420v210l280 341v9h-280v140h420v-210l-279 -339v-11h279v-140zM260 789l31 62h111l-67 -133h-151l-67 133h112z" />
    <glyph glyph-name="Zdotaccent.ss03" horiz-adv-x="520" 
d="M470 0h-420v210l280 341v9h-280v140h420v-210l-279 -339v-11h279v-140zM211.5 735.5q-20.5 20.5 -20.5 48.5q0 29 20.5 49t48.5 20q29 0 49.5 -20t20.5 -49t-20.5 -49t-49.5 -20q-28 0 -48.5 20.5z" />
    <glyph glyph-name="uni1E92.ss03" horiz-adv-x="520" 
d="M470 0h-420v210l280 341v9h-280v140h420v-210l-279 -339v-11h279v-140zM210.5 -132.5q-20.5 20.5 -20.5 48.5q0 29 20.5 49t48.5 20q29 0 49.5 -20t20.5 -49t-20.5 -49t-49.5 -20q-28 0 -48.5 20.5z" />
    <glyph glyph-name="A.ss04" horiz-adv-x="544" 
d="M526 0h-145l-16 77h-186l-16 -77h-145l161 700h186zM267 486l-58 -269h126l-58 269h-10z" />
    <glyph glyph-name="Aacute.ss04" horiz-adv-x="544" 
d="M250 945h160l-58 -163h-160zM526 0h-145l-16 77h-186l-16 -77h-145l161 700h186zM267 486l-58 -269h126l-58 269h-10z" />
    <glyph glyph-name="Abreve.ss04" horiz-adv-x="544" 
d="M526 0h-145l-16 77h-186l-16 -77h-145l161 700h186zM267 486l-58 -269h126l-58 269h-10zM151 819q-49 43 -61 126h136q1 -27 14 -41t32 -14t31.5 14t13.5 41h137q-13 -83 -62 -126t-121 -43q-71 0 -120 43z" />
    <glyph glyph-name="uni01CD.ss04" horiz-adv-x="544" 
d="M526 0h-145l-16 77h-186l-16 -77h-145l161 700h186zM267 486l-58 -269h126l-58 269h-10zM272 869l38 76h147l-83 -163h-205l-83 163h147z" />
    <glyph glyph-name="Acircumflex.ss04" horiz-adv-x="544" 
d="M310 782l-38 76l-39 -76h-147l83 163h205l83 -163h-147zM526 0h-145l-16 77h-186l-16 -77h-145l161 700h186zM267 486l-58 -269h126l-58 269h-10z" />
    <glyph glyph-name="Adieresis.ss04" horiz-adv-x="544" 
d="M95 945h154v-163h-154v163zM294 945h154v-163h-154v163zM526 0h-145l-16 77h-186l-16 -77h-145l161 700h186zM267 486l-58 -269h126l-58 269h-10z" />
    <glyph glyph-name="uni1EA0.ss04" horiz-adv-x="544" 
d="M365 700l161 -700h-145l-16 77h-186l-16 -77h-145l161 700h186zM267 486l-58 -269h126l-58 269h-10zM349 -245h-154v164h154v-164z" />
    <glyph glyph-name="Agrave.ss04" horiz-adv-x="544" 
d="M292 945l58 -163h-160l-58 163h160zM526 0h-145l-16 77h-186l-16 -77h-145l161 700h186zM267 486l-58 -269h126l-58 269h-10z" />
    <glyph glyph-name="Amacron.ss04" horiz-adv-x="544" 
d="M526 0h-145l-16 77h-186l-16 -77h-145l161 700h186zM267 486l-58 -269h126l-58 269h-10zM439 782h-334v126h334v-126z" />
    <glyph glyph-name="Aogonek.ss04" horiz-adv-x="544" 
d="M535 -47v-126h-50q-67 0 -107 39t-40 101v110h-159l-16 -77h-145l161 700h186l161 -700h-47v-23q0 -24 32 -24h24zM277 486h-10l-58 -269h126z" />
    <glyph glyph-name="Aring.ss04" horiz-adv-x="544" 
d="M381 0l-16 77h-186l-16 -77h-145l161 700h56q-40 13 -65.5 46.5t-25.5 74.5q0 34 17.5 64t46.5 48t62 18q35 0 65 -17t48 -46.5t18 -63.5q0 -42 -25.5 -76.5t-64.5 -47.5h54l161 -700h-145zM252 843q-8 -8 -9 -21q2 -12 9.5 -20t19.5 -9q13 1 20.5 9t8.5 20q0 13 -8 21
t-21 9q-12 -1 -20 -9zM267 486l-58 -269h126l-58 269h-10z" />
    <glyph glyph-name="Atilde.ss04" horiz-adv-x="544" 
d="M211 783h-127v38q0 58 33 93t81 35q28 0 58 -14l60 -29q4 -2 6 -2q5 0 8 3.5t3 9.5v28h127v-37q0 -58 -33 -93.5t-81 -35.5q-30 0 -58 14l-60 29q-2 1 -6 1q-5 0 -8 -3.5t-3 -8.5v-28zM526 0h-145l-16 77h-186l-16 -77h-145l161 700h186zM267 486l-58 -269h126l-58 269
h-10z" />
    <glyph glyph-name="AE.ss04" horiz-adv-x="787" 
d="M722 700v-140h-320l31 -140h272v-140h-242l31 -140h228v-140h-341l-16 77h-186l-16 -77h-143l152 700h550zM267 486l-58 -269h126l-58 269h-10z" />
    <glyph glyph-name="AEacute.ss04" horiz-adv-x="787" 
d="M267 945h160l-58 -163h-160zM722 700v-140h-320l31 -140h272v-140h-242l31 -140h228v-140h-341l-16 77h-186l-16 -77h-143l152 700h550zM267 486l-58 -269h126l-58 269h-10z" />
    <glyph glyph-name="H.ss05" horiz-adv-x="560" 
d="M347 280v420h148v-1000h-148v440h-134v-440h-148v1000h148v-420h134z" />
    <glyph glyph-name="Hbar.ss05" horiz-adv-x="560" 
d="M495 638h74v-131h-74v-807h-148v440h-134v-440h-148v807h-75v131h75v62h148v-62h134v62h148v-62zM213 280h134v227h-134v-227z" />
    <glyph glyph-name="uni021E.ss05" horiz-adv-x="560" 
d="M347 280v420h148v-1000h-148v440h-134v-440h-148v1000h148v-420h134zM280 869l38 76h147l-83 -163h-205l-83 163h147z" />
    <glyph glyph-name="Hcircumflex.ss05" horiz-adv-x="560" 
d="M318 782l-38 76l-39 -76h-147l83 163h205l83 -163h-147zM347 280v420h148v-1000h-148v440h-134v-440h-148v1000h148v-420h134z" />
    <glyph glyph-name="uni1E22.ss05" horiz-adv-x="560" 
d="M199 945h162v-163h-162v163zM347 280v420h148v-1000h-148v440h-134v-440h-148v1000h148v-420h134z" />
    <glyph glyph-name="uni1E24.ss05" horiz-adv-x="560" 
d="M347 280v420h148v-1000h-148v440h-134v-440h-148v1000h148v-420h134zM357 -509h-154v164h154v-164z" />
    <glyph glyph-name="E.ss06" horiz-adv-x="535" 
d="M495 0h-430v700h430v-140h-140v60h-150v-60h77v-420h-77v-60h150v60h140v-140z" />
    <glyph glyph-name="Eacute.ss06" horiz-adv-x="535" 
d="M360 782h-160l58 163h160zM495 0h-430v700h430v-140h-140v60h-150v-60h77v-420h-77v-60h150v60h140v-140z" />
    <glyph glyph-name="Ebreve.ss06" horiz-adv-x="535" 
d="M495 0h-430v700h430v-140h-140v60h-150v-60h77v-420h-77v-60h150v60h140v-140zM159 819q-49 43 -61 126h136q1 -27 14 -41t32 -14t31.5 14t13.5 41h137q-13 -83 -62 -126t-121 -43q-71 0 -120 43z" />
    <glyph glyph-name="Ecaron.ss06" horiz-adv-x="535" 
d="M495 0h-430v700h430v-140h-140v60h-150v-60h77v-420h-77v-60h150v60h140v-140zM280 869l38 76h147l-83 -163h-205l-83 163h147z" />
    <glyph glyph-name="Ecircumflex.ss06" horiz-adv-x="535" 
d="M318 782l-39 76l-38 -76h-147l83 163h205l83 -163h-147zM495 700v-140h-140v60h-150v-60h77v-420h-77v-60h150v60h140v-140h-430v700h430z" />
    <glyph glyph-name="Edieresis.ss06" horiz-adv-x="535" 
d="M257 782h-154v163h154v-163zM456 782h-154v163h154v-163zM495 0h-430v700h430v-140h-140v60h-150v-60h77v-420h-77v-60h150v60h140v-140z" />
    <glyph glyph-name="Edotaccent.ss06" horiz-adv-x="535" 
d="M361 782h-162v163h162v-163zM495 0h-430v700h430v-140h-140v60h-150v-60h77v-420h-77v-60h150v60h140v-140z" />
    <glyph glyph-name="uni1EB8.ss06" horiz-adv-x="535" 
d="M495 0h-430v700h430v-140h-140v60h-150v-60h77v-420h-77v-60h150v60h140v-140zM357 -245h-154v164h154v-164z" />
    <glyph glyph-name="Egrave.ss06" horiz-adv-x="535" 
d="M300 945l58 -163h-160l-58 163h160zM495 0h-430v700h430v-140h-140v60h-150v-60h77v-420h-77v-60h150v60h140v-140z" />
    <glyph glyph-name="Emacron.ss06" horiz-adv-x="535" 
d="M495 0h-430v700h430v-140h-140v60h-150v-60h77v-420h-77v-60h150v60h140v-140zM447 782h-334v126h334v-126z" />
    <glyph glyph-name="Eogonek.ss06" horiz-adv-x="535" 
d="M495 -47v-126h-46q-60 0 -100 40t-40 100v33h-244v700h430v-140h-140v60h-150v-60h77v-420h-77v-60h150v60h140v-140h-44v-24q0 -23 32 -23h12z" />
    <glyph glyph-name="uni1EBC.ss06" horiz-adv-x="535" 
d="M296 793l-60 29q-2 1 -6 1q-5 0 -8 -3.5t-3 -8.5v-28h-127v38q0 58 33 93t81 35q28 0 58 -14l60 -29q4 -2 6 -2q5 0 8 3.5t3 9.5v28h127v-37q0 -58 -33 -93.5t-81 -35.5q-30 0 -58 14zM495 0h-430v700h430v-140h-140v60h-150v-60h77v-420h-77v-60h150v60h140v-140z" />
    <glyph glyph-name="K.ss07" horiz-adv-x="573" 
d="M575 -1h-186l-172 179h-8v-178h-144v699h144v-178h7l173 179h182l-336 -349z" />
    <glyph glyph-name="uni01E8.ss07" horiz-adv-x="573" 
d="M575 -1h-186l-172 179h-8v-178h-144v699h144v-178h7l173 179h182l-336 -349zM289 869l38 76h147l-83 -163h-205l-83 163h147z" />
    <glyph glyph-name="uni0136.ss07" horiz-adv-x="573" 
d="M575 -1h-186l-172 179h-8v-178h-144v699h144v-178h7l173 179h182l-336 -349zM313 -245h-142l27 164h195z" />
    <glyph glyph-name="R.ss07" horiz-adv-x="582" 
d="M264 323l315 -324h-193l-172 181h-8v-180h-141v700h334q63 0 105.5 -41t42.5 -104v-90q0 -40 -19.5 -72.5t-53.5 -51t-75 -18.5h-135zM389 458q9 0 14.5 5.5t5.5 14.5v64q0 9 -5.5 14.5t-14.5 5.5h-185v-104h185z" />
    <glyph glyph-name="Racute.ss07" horiz-adv-x="582" 
d="M382 782h-160l58 163h160zM264 323l315 -324h-193l-172 181h-8v-180h-141v700h334q63 0 105.5 -41t42.5 -104v-90q0 -40 -19.5 -72.5t-53.5 -51t-75 -18.5h-135zM389 458q9 0 14.5 5.5t5.5 14.5v64q0 9 -5.5 14.5t-14.5 5.5h-185v-104h185z" />
    <glyph glyph-name="Rcaron.ss07" horiz-adv-x="582" 
d="M264 323l315 -324h-193l-172 181h-8v-180h-141v700h334q63 0 105.5 -41t42.5 -104v-90q0 -40 -19.5 -72.5t-53.5 -51t-75 -18.5h-135zM389 458q9 0 14.5 5.5t5.5 14.5v64q0 9 -5.5 14.5t-14.5 5.5h-185v-104h185zM302 869l38 76h147l-83 -163h-205l-83 163h147z" />
    <glyph glyph-name="uni0156.ss07" horiz-adv-x="582" 
d="M264 323l315 -324h-193l-172 181h-8v-180h-141v700h334q63 0 105.5 -41t42.5 -104v-90q0 -40 -19.5 -72.5t-53.5 -51t-75 -18.5h-135zM389 458q9 0 14.5 5.5t5.5 14.5v64q0 9 -5.5 14.5t-14.5 5.5h-185v-104h185zM326 -245h-142l27 164h195z" />
    <glyph glyph-name="uni1E5A.ss07" horiz-adv-x="582" 
d="M264 323l315 -324h-193l-172 181h-8v-180h-141v700h334q63 0 105.5 -41t42.5 -104v-90q0 -40 -19.5 -72.5t-53.5 -51t-75 -18.5h-135zM389 458q9 0 14.5 5.5t5.5 14.5v64q0 9 -5.5 14.5t-14.5 5.5h-185v-104h185zM386 -245h-154v164h154v-164z" />
    <glyph glyph-name="i" unicode="i" horiz-adv-x="278" 
d="M213 0h-148v700h148v-700z" />
    <glyph glyph-name="dotlessi" unicode="&#x131;" horiz-adv-x="278" 
d="M213 0h-148v700h148v-700z" />
    <glyph glyph-name="i.loclTRK" horiz-adv-x="278" 
d="M213 0h-148v700h148v-700zM220 782h-162v163h162v-163z" />
    <glyph glyph-name="germandbls" unicode="&#xdf;" horiz-adv-x="558" 
d="M65 0v700h438v-178l-76 -108q39 -11 62.5 -40t23.5 -67v-162q0 -63 -42 -104t-105 -41h-65v145h58q19 0 19 20v100q0 20 -19 20h-110v105l119 165v10h-165v-565h-138z" />
    <glyph glyph-name="germandbls.calt" horiz-adv-x="558" 
d="M65 0v700h438v-178l-76 -108q39 -11 62.5 -40t23.5 -67v-162q0 -63 -42 -104t-105 -41h-65v145h58q19 0 19 20v100q0 20 -19 20h-110v105l119 165v10h-165v-565h-138z" />
    <glyph glyph-name="i.loclTRK.ss02" horiz-adv-x="278" 
d="M213 0h-148v700h148v-700zM78.5 800.5q-25.5 25.5 -25.5 62.5q0 36 25.5 62t60.5 26t60.5 -26t25.5 -62q0 -37 -25.5 -62.5t-60.5 -25.5t-60.5 25.5z" />
    <glyph glyph-name="i.loclTRK.ss03" horiz-adv-x="278" 
d="M213 0h-148v700h148v-700zM90.5 735.5q-20.5 20.5 -20.5 48.5q0 29 20.5 49t48.5 20q29 0 49.5 -20t20.5 -49t-20.5 -49t-49.5 -20q-28 0 -48.5 20.5z" />
    <glyph glyph-name="ordfeminine" unicode="&#xaa;" horiz-adv-x="329" 
d="M129 353q-32 0 -53 20.5t-21 51.5v65q0 31 21 52t53 21h65v52q0 9 -8 9h-47q-8 0 -8 -9v-19h-76v37q0 31 21 51.5t53 20.5h67q32 0 52.5 -20.5t20.5 -51.5v-280h-140zM194 429v60h-56q-8 0 -8 -8v-44q0 -8 8 -8h56z" />
    <glyph glyph-name="ordmasculine" unicode="&#xba;" horiz-adv-x="326" 
d="M129 350q-32 0 -53 21t-21 52v210q0 31 21 51.5t53 20.5h68q32 0 53 -20.5t21 -51.5v-210q0 -31 -21 -52t-53 -21h-68zM186 432q8 0 8 8v175q0 8 -8 8h-46q-8 0 -8 -8v-175q0 -8 8 -8h46z" />
    <glyph glyph-name="uni0410" unicode="&#x410;" horiz-adv-x="543" 
d="M202 0q-63 0 -105 41t-42 104v129q0 63 42 104.5t105 41.5h141v125q0 20 -19 20h-108q-8 0 -13.5 -5t-5.5 -15v-38h-142v53q0 63 42 104t105 41h134q63 0 105 -41t42 -104v-560h-281zM343 140v140h-130q-8 0 -13 -5t-5 -14v-103q0 -8 5 -13t13 -5h130z" />
    <glyph glyph-name="uni0410" unicode="&#x430;" horiz-adv-x="543" 
d="M202 0q-63 0 -105 41t-42 104v129q0 63 42 104.5t105 41.5h141v125q0 20 -19 20h-108q-8 0 -13.5 -5t-5.5 -15v-38h-142v53q0 63 42 104t105 41h134q63 0 105 -41t42 -104v-560h-281zM343 140v140h-130q-8 0 -13 -5t-5 -14v-103q0 -8 5 -13t13 -5h130z" />
    <glyph glyph-name="uni0411" unicode="&#x411;" horiz-adv-x="549" 
d="M65 0v700h408v-140h-268v-140h149q38 0 70 -19t51 -51t19 -70v-140q0 -38 -19 -70t-52.5 -51t-74.5 -19h-283zM335 140q19 0 19 19v102q0 19 -19 19h-130v-140h130z" />
    <glyph glyph-name="uni0411" unicode="&#x431;" horiz-adv-x="549" 
d="M65 0v700h408v-140h-268v-140h149q38 0 70 -19t51 -51t19 -70v-140q0 -38 -19 -70t-52.5 -51t-74.5 -19h-283zM335 140q19 0 19 19v102q0 19 -19 19h-130v-140h130z" />
    <glyph glyph-name="uni0412" unicode="&#x412;" horiz-adv-x="549" 
d="M65 0v700h282q41 0 74.5 -18.5t53 -52t19.5 -74.5v-88q0 -36 -16.5 -66t-44.5 -46v-10q28 -16 44.5 -46t16.5 -66v-88q0 -63 -42.5 -104t-105.5 -41h-281zM335 420q8 0 13.5 5t5.5 14v102q0 9 -5.5 14t-13.5 5h-130v-140h130zM335 140q8 0 13.5 5t5.5 14v102q0 9 -5.5 14
t-13.5 5h-130v-140h130z" />
    <glyph glyph-name="uni0412" unicode="&#x432;" horiz-adv-x="549" 
d="M65 0v700h282q41 0 74.5 -18.5t53 -52t19.5 -74.5v-88q0 -36 -16.5 -66t-44.5 -46v-10q28 -16 44.5 -46t16.5 -66v-88q0 -63 -42.5 -104t-105.5 -41h-281zM335 420q8 0 13.5 5t5.5 14v102q0 9 -5.5 14t-13.5 5h-130v-140h130zM335 140q8 0 13.5 5t5.5 14v102q0 9 -5.5 14
t-13.5 5h-130v-140h130z" />
    <glyph glyph-name="uni0413" unicode="&#x413;" horiz-adv-x="515" 
d="M495 700v-140h-282v-560h-148v700h430z" />
    <glyph glyph-name="uni0413" unicode="&#x433;" horiz-adv-x="515" 
d="M495 700v-140h-282v-560h-148v700h430z" />
    <glyph glyph-name="uni0403" unicode="&#x403;" horiz-adv-x="515" 
d="M495 700v-140h-282v-560h-148v700h430zM362 782h-160l58 163h160z" />
    <glyph glyph-name="uni0403" unicode="&#x453;" horiz-adv-x="515" 
d="M495 700v-140h-282v-560h-148v700h430zM362 782h-160l58 163h160z" />
    <glyph glyph-name="uni0490" unicode="&#x490;" horiz-adv-x="515" 
d="M355 700v75h140v-215h-282v-560h-148v700h290z" />
    <glyph glyph-name="uni0490" unicode="&#x491;" horiz-adv-x="515" 
d="M355 700v75h140v-215h-282v-560h-148v700h290z" />
    <glyph glyph-name="uni0414" unicode="&#x414;" horiz-adv-x="601" 
d="M505 140h76l-1 -140h-565v140h45l81 560h364v-560zM270 560l-60 -420h146v420h-86z" />
    <glyph glyph-name="uni0414" unicode="&#x434;" horiz-adv-x="601" 
d="M505 140h76l-1 -140h-565v140h45l81 560h364v-560zM270 560l-60 -420h146v420h-86z" />
    <glyph glyph-name="uni0415" unicode="&#x415;" horiz-adv-x="560" 
d="M495 700v-140h-290v-140h273v-140h-273v-140h290v-140h-430v700h430z" />
    <glyph glyph-name="uni0415" unicode="&#x435;" horiz-adv-x="560" 
d="M495 700v-140h-290v-140h273v-140h-273v-140h290v-140h-430v700h430z" />
    <glyph glyph-name="uni0400" unicode="&#x400;" horiz-adv-x="560" 
d="M299 945l58 -163h-160l-58 163h160zM495 700v-140h-290v-140h273v-140h-273v-140h290v-140h-430v700h430z" />
    <glyph glyph-name="uni0400" unicode="&#x450;" horiz-adv-x="560" 
d="M299 945l58 -163h-160l-58 163h160zM495 700v-140h-290v-140h273v-140h-273v-140h290v-140h-430v700h430z" />
    <glyph glyph-name="uni0401" unicode="&#x401;" horiz-adv-x="560" 
d="M495 700v-140h-290v-140h273v-140h-273v-140h290v-140h-430v700h430zM256 782h-154v163h154v-163zM455 782h-154v163h154v-163z" />
    <glyph glyph-name="uni0401" unicode="&#x451;" horiz-adv-x="560" 
d="M495 700v-140h-290v-140h273v-140h-273v-140h290v-140h-430v700h430zM256 782h-154v163h154v-163zM455 782h-154v163h154v-163z" />
    <glyph glyph-name="uni0416" unicode="&#x416;" horiz-adv-x="820" 
d="M799 701l-109 -350l110 -352h-154l-85 277h-77v-276h-148v276h-77l-85 -277h-154l110 352l-109 350h153l86 -277h76v276h148v-276h76l86 277h153z" />
    <glyph glyph-name="uni0416" unicode="&#x436;" horiz-adv-x="820" 
d="M799 701l-109 -350l110 -352h-154l-85 277h-77v-276h-148v276h-77l-85 -277h-154l110 352l-109 350h153l86 -277h76v276h148v-276h76l86 277h153z" />
    <glyph glyph-name="uni0417" unicode="&#x417;" horiz-adv-x="532" 
d="M192 -5q-63 0 -105 41t-42 104v53h144v-39q0 -19 19 -19h106q19 0 19 19v107q0 8 -5.5 13.5t-13.5 5.5h-119v140h119q8 0 13.5 5.5t5.5 13.5v107q0 19 -19 19h-106q-19 0 -19 -19v-39h-142v53q0 63 42 104t105 41h134q63 0 105 -41t42 -104v-99q0 -36 -15 -66.5
t-42 -40.5v-9q27 -9 43 -38.5t16 -63.5v-103q0 -63 -42 -104t-105 -41h-138z" />
    <glyph glyph-name="uni0417" unicode="&#x437;" horiz-adv-x="532" 
d="M192 -5q-63 0 -105 41t-42 104v53h144v-39q0 -19 19 -19h106q19 0 19 19v107q0 8 -5.5 13.5t-13.5 5.5h-119v140h119q8 0 13.5 5.5t5.5 13.5v107q0 19 -19 19h-106q-19 0 -19 -19v-39h-142v53q0 63 42 104t105 41h134q63 0 105 -41t42 -104v-99q0 -36 -15 -66.5
t-42 -40.5v-9q27 -9 43 -38.5t16 -63.5v-103q0 -63 -42 -104t-105 -41h-138z" />
    <glyph glyph-name="uni0418" unicode="&#x418;" horiz-adv-x="562" 
d="M497 700v-700h-138v369h-8l-141 -369h-145v700h138v-371h8l141 371h145z" />
    <glyph glyph-name="uni0418" unicode="&#x438;" horiz-adv-x="562" 
d="M497 700v-700h-138v369h-8l-141 -369h-145v700h138v-371h8l141 371h145z" />
    <glyph glyph-name="uni0419" unicode="&#x419;" horiz-adv-x="562" 
d="M497 700v-700h-138v369h-8l-141 -369h-145v700h138v-371h8l141 371h145zM448 782h-334v126h334v-126z" />
    <glyph glyph-name="uni0419" unicode="&#x439;" horiz-adv-x="562" 
d="M497 700v-700h-138v369h-8l-141 -369h-145v700h138v-371h8l141 371h145zM448 782h-334v126h334v-126z" />
    <glyph glyph-name="uni040D" unicode="&#x40d;" horiz-adv-x="562" 
d="M301 945l58 -163h-160l-58 163h160zM497 700v-700h-138v369h-8l-141 -369h-145v700h138v-371h8l141 371h145z" />
    <glyph glyph-name="uni040D" unicode="&#x45d;" horiz-adv-x="562" 
d="M301 945l58 -163h-160l-58 163h160zM497 700v-700h-138v369h-8l-141 -369h-145v700h138v-371h8l141 371h145z" />
    <glyph glyph-name="uni041A" unicode="&#x41a;" horiz-adv-x="549" 
d="M528 701l-109 -350l110 -352h-154l-85 277h-77v-276h-148v700h148v-276h76l86 277h153z" />
    <glyph glyph-name="uni041A" unicode="&#x43a;" horiz-adv-x="549" 
d="M528 701l-109 -350l110 -352h-154l-85 277h-77v-276h-148v700h148v-276h76l86 277h153z" />
    <glyph glyph-name="uni040C" unicode="&#x40c;" horiz-adv-x="549" 
d="M267 945h160l-58 -163h-160zM528 701l-109 -350l110 -352h-154l-85 277h-77v-276h-148v700h148v-276h76l86 277h153z" />
    <glyph glyph-name="uni040C" unicode="&#x45c;" horiz-adv-x="549" 
d="M267 945h160l-58 -163h-160zM528 701l-109 -350l110 -352h-154l-85 277h-77v-276h-148v700h148v-276h76l86 277h153z" />
    <glyph glyph-name="uni041B" unicode="&#x41b;" horiz-adv-x="570" 
d="M505 700v-700h-149v560h-86l-80 -560h-150l101 700h364z" />
    <glyph glyph-name="uni041B" unicode="&#x43b;" horiz-adv-x="570" 
d="M505 700v-700h-149v560h-86l-80 -560h-150l101 700h364z" />
    <glyph glyph-name="uni041C" unicode="&#x41c;" horiz-adv-x="831" 
d="M420 178l186 522h160v-700h-138v354h-8l-125 -354h-159l-125 354h-8v-354h-138v700h160l186 -522h9z" />
    <glyph glyph-name="uni041C" unicode="&#x43c;" horiz-adv-x="831" 
d="M420 178l186 522h160v-700h-138v354h-8l-125 -354h-159l-125 354h-8v-354h-138v700h160l186 -522h9z" />
    <glyph glyph-name="uni041D" unicode="&#x41d;" horiz-adv-x="560" 
d="M347 420v280h148v-700h-148v280h-134v-280h-148v700h148v-280h134z" />
    <glyph glyph-name="uni041D" unicode="&#x43d;" horiz-adv-x="560" 
d="M347 420v280h148v-700h-148v280h-134v-280h-148v700h148v-280h134z" />
    <glyph glyph-name="uni041E" unicode="&#x41e;" 
d="M202 -5q-63 0 -105 41t-42 104v420q0 63 42 104t105 41h137q63 0 105 -41t42 -104v-420q0 -63 -42 -104t-105 -41h-137zM324 135q19 0 19 19v392q0 19 -19 19h-107q-8 0 -13 -5t-5 -14v-392q0 -9 5 -14t13 -5h107z" />
    <glyph glyph-name="uni041E" unicode="&#x43e;" 
d="M202 -5q-63 0 -105 41t-42 104v420q0 63 42 104t105 41h137q63 0 105 -41t42 -104v-420q0 -63 -42 -104t-105 -41h-137zM324 135q19 0 19 19v392q0 19 -19 19h-107q-8 0 -13 -5t-5 -14v-392q0 -9 5 -14t13 -5h107z" />
    <glyph glyph-name="uni041F" unicode="&#x41f;" horiz-adv-x="560" 
d="M495 700v-700h-148v560h-134v-560h-148v700h430z" />
    <glyph glyph-name="uni041F" unicode="&#x43f;" horiz-adv-x="560" 
d="M495 700v-700h-148v560h-134v-560h-148v700h430z" />
    <glyph glyph-name="uni0420" unicode="&#x420;" horiz-adv-x="528" 
d="M65 0v700h285q63 0 105.5 -41t42.5 -104v-130q0 -63 -42.5 -104t-105.5 -41h-137v-280h-148zM339 420q8 0 13.5 5t5.5 14v102q0 9 -5.5 14t-13.5 5h-131v-140h131z" />
    <glyph glyph-name="uni0420" unicode="&#x440;" horiz-adv-x="528" 
d="M65 0v700h285q63 0 105.5 -41t42.5 -104v-130q0 -63 -42.5 -104t-105.5 -41h-137v-280h-148zM339 420q8 0 13.5 5t5.5 14v102q0 9 -5.5 14t-13.5 5h-131v-140h131z" />
    <glyph glyph-name="uni0421" unicode="&#x421;" horiz-adv-x="532" 
d="M203 -5q-64 0 -106 41t-42 104v420q0 63 42 104t106 41h137q64 0 105.5 -41t41.5 -104v-53h-143v39q0 9 -5.5 14t-14.5 5h-106q-19 0 -19 -19v-392q0 -19 19 -19h106q9 0 14.5 5t5.5 14v39h143v-53q0 -63 -41.5 -104t-105.5 -41h-137z" />
    <glyph glyph-name="uni0421" unicode="&#x441;" horiz-adv-x="532" 
d="M203 -5q-64 0 -106 41t-42 104v420q0 63 42 104t106 41h137q64 0 105.5 -41t41.5 -104v-53h-143v39q0 9 -5.5 14t-14.5 5h-106q-19 0 -19 -19v-392q0 -19 19 -19h106q9 0 14.5 5t5.5 14v39h143v-53q0 -63 -41.5 -104t-105.5 -41h-137z" />
    <glyph glyph-name="uni0422" unicode="&#x422;" horiz-adv-x="490" 
d="M460 700v-140h-141v-560h-148v560h-141v140h430z" />
    <glyph glyph-name="uni0422" unicode="&#x442;" horiz-adv-x="490" 
d="M460 700v-140h-141v-560h-148v560h-141v140h430z" />
    <glyph glyph-name="uni0423" unicode="&#x423;" horiz-adv-x="544" 
d="M344 700h140v-560q0 -63 -42 -104t-105 -41h-134q-63 0 -105 41t-42 104v53h142v-38q0 -9 5.5 -14.5t13.5 -5.5h108q19 0 19 20v125h-142q-63 0 -105 41.5t-42 104.5v274h148v-261q0 -9 5 -14t13 -5h123v280z" />
    <glyph glyph-name="uni0423" unicode="&#x443;" horiz-adv-x="544" 
d="M344 700h140v-560q0 -63 -42 -104t-105 -41h-134q-63 0 -105 41t-42 104v53h142v-38q0 -9 5.5 -14.5t13.5 -5.5h108q19 0 19 20v125h-142q-63 0 -105 41.5t-42 104.5v274h148v-261q0 -9 5 -14t13 -5h123v280z" />
    <glyph glyph-name="uni040E" unicode="&#x40e;" horiz-adv-x="544" 
d="M344 700h140v-560q0 -63 -42 -104t-105 -41h-134q-63 0 -105 41t-42 104v53h142v-38q0 -9 5.5 -14.5t13.5 -5.5h108q19 0 19 20v125h-142q-63 0 -105 41.5t-42 104.5v274h148v-261q0 -9 5 -14t13 -5h123v280zM437 782h-334v126h334v-126z" />
    <glyph glyph-name="uni040E" unicode="&#x45e;" horiz-adv-x="544" 
d="M344 700h140v-560q0 -63 -42 -104t-105 -41h-134q-63 0 -105 41t-42 104v53h142v-38q0 -9 5.5 -14.5t13.5 -5.5h108q19 0 19 20v125h-142q-63 0 -105 41.5t-42 104.5v274h148v-261q0 -9 5 -14t13 -5h123v280zM437 782h-334v126h334v-126z" />
    <glyph glyph-name="uni0424" unicode="&#x424;" horiz-adv-x="784" 
d="M607 560q63 0 105 -41.5t42 -104.5v-129q0 -63 -42 -104t-105 -41h-141v-140h-148v140h-141q-63 0 -105 41t-42 104v129q0 63 42 104.5t105 41.5h141v140h148v-140h141zM318 280v140h-130q-8 0 -13 -5t-5 -14v-103q0 -8 5 -13t13 -5h130zM614 401q0 9 -5 14t-13 5h-130
v-140h130q8 0 13 5t5 13v103z" />
    <glyph glyph-name="uni0424" unicode="&#x444;" horiz-adv-x="784" 
d="M607 560q63 0 105 -41.5t42 -104.5v-129q0 -63 -42 -104t-105 -41h-141v-140h-148v140h-141q-63 0 -105 41t-42 104v129q0 63 42 104.5t105 41.5h141v140h148v-140h141zM318 280v140h-130q-8 0 -13 -5t-5 -14v-103q0 -8 5 -13t13 -5h130zM614 401q0 9 -5 14t-13 5h-130
v-140h130q8 0 13 5t5 13v103z" />
    <glyph glyph-name="uni0425" unicode="&#x425;" horiz-adv-x="558" 
d="M186 0h-158l153 350l-153 350h157l89 -210h8l89 210h159l-153 -350l153 -350h-158l-88 210h-8z" />
    <glyph glyph-name="uni0425" unicode="&#x445;" horiz-adv-x="558" 
d="M186 0h-158l153 350l-153 350h157l89 -210h8l89 210h159l-153 -350l153 -350h-158l-88 210h-8z" />
    <glyph glyph-name="uni0427" unicode="&#x427;" horiz-adv-x="524" 
d="M311 700h148v-700h-148v280h-134q-63 0 -105 41.5t-42 104.5v274h148v-261q0 -9 5 -14t13 -5h115v280z" />
    <glyph glyph-name="uni0427" unicode="&#x447;" horiz-adv-x="524" 
d="M311 700h148v-700h-148v280h-134q-63 0 -105 41.5t-42 104.5v274h148v-261q0 -9 5 -14t13 -5h115v280z" />
    <glyph glyph-name="uni0426" unicode="&#x426;" horiz-adv-x="584" 
d="M495 700v-560h73v-232h-148v92h-355v700h148v-560h134v560h148z" />
    <glyph glyph-name="uni0426" unicode="&#x446;" horiz-adv-x="584" 
d="M495 700v-560h73v-232h-148v92h-355v700h148v-560h134v560h148z" />
    <glyph glyph-name="uni0428" unicode="&#x428;" horiz-adv-x="842" 
d="M629 140v560h148v-700h-712v700h148v-560h134v560h148v-560h134z" />
    <glyph glyph-name="uni0428" unicode="&#x448;" horiz-adv-x="842" 
d="M629 140v560h148v-700h-712v700h148v-560h134v560h148v-560h134z" />
    <glyph glyph-name="uni0429" unicode="&#x429;" horiz-adv-x="866" 
d="M777 700v-560h73v-232h-148v92h-637v700h148v-560h134v560h148v-560h134v560h148z" />
    <glyph glyph-name="uni0429" unicode="&#x449;" horiz-adv-x="866" 
d="M777 700v-560h73v-232h-148v92h-637v700h148v-560h134v560h148v-560h134v560h148z" />
    <glyph glyph-name="uni040F" unicode="&#x40f;" horiz-adv-x="560" 
d="M347 140v560h148v-700h-137v-92h-148v92h-145v700h148v-560h134z" />
    <glyph glyph-name="uni040F" unicode="&#x45f;" horiz-adv-x="560" 
d="M347 140v560h148v-700h-137v-92h-148v92h-145v700h148v-560h134z" />
    <glyph glyph-name="uni042C" unicode="&#x42c;" horiz-adv-x="528" 
d="M65 700h148v-280h137q63 0 105.5 -41t42.5 -104v-130q0 -63 -42.5 -104t-105.5 -41h-285v700zM208 280v-140h131q8 0 13.5 5t5.5 14v102q0 9 -5.5 14t-13.5 5h-131z" />
    <glyph glyph-name="uni042C" unicode="&#x44c;" horiz-adv-x="528" 
d="M65 700h148v-280h137q63 0 105.5 -41t42.5 -104v-130q0 -63 -42.5 -104t-105.5 -41h-285v700zM208 280v-140h131q8 0 13.5 5t5.5 14v102q0 9 -5.5 14t-13.5 5h-131z" />
    <glyph glyph-name="uni042A" unicode="&#x42a;" horiz-adv-x="582" 
d="M404 420q63 0 105.5 -41t42.5 -104v-130q0 -63 -42.5 -104t-105.5 -41h-285v557h-109v143h257v-280h137zM412 261q0 9 -5.5 14t-13.5 5h-131v-140h131q8 0 13.5 5t5.5 14v102z" />
    <glyph glyph-name="uni042A" unicode="&#x44a;" horiz-adv-x="582" 
d="M404 420q63 0 105.5 -41t42.5 -104v-130q0 -63 -42.5 -104t-105.5 -41h-285v557h-109v143h257v-280h137zM412 261q0 9 -5.5 14t-13.5 5h-131v-140h131q8 0 13.5 5t5.5 14v102z" />
    <glyph glyph-name="uni042B" unicode="&#x42b;" horiz-adv-x="754" 
d="M65 700h148v-280h137q63 0 105.5 -41t42.5 -104v-130q0 -63 -42.5 -104t-105.5 -41h-285v700zM208 280v-140h131q8 0 13.5 5t5.5 14v102q0 9 -5.5 14t-13.5 5h-131zM689 0h-148v700h148v-700z" />
    <glyph glyph-name="uni042B" unicode="&#x44b;" horiz-adv-x="754" 
d="M65 700h148v-280h137q63 0 105.5 -41t42.5 -104v-130q0 -63 -42.5 -104t-105.5 -41h-285v700zM208 280v-140h131q8 0 13.5 5t5.5 14v102q0 9 -5.5 14t-13.5 5h-131zM689 0h-148v700h148v-700z" />
    <glyph glyph-name="uni0409" unicode="&#x409;" horiz-adv-x="820" 
d="M642 420q63 0 105.5 -41t42.5 -104v-130q0 -63 -42.5 -104t-105.5 -41h-285v2l-1 -2v560h-86l-80 -560h-150l101 700h364v-280h137zM650 261q0 9 -5.5 14t-13.5 5h-131v-140h131q8 0 13.5 5t5.5 14v102z" />
    <glyph glyph-name="uni0409" unicode="&#x459;" horiz-adv-x="820" 
d="M642 420q63 0 105.5 -41t42.5 -104v-130q0 -63 -42.5 -104t-105.5 -41h-285v2l-1 -2v560h-86l-80 -560h-150l101 700h364v-280h137zM650 261q0 9 -5.5 14t-13.5 5h-131v-140h131q8 0 13.5 5t5.5 14v102z" />
    <glyph glyph-name="uni040A" unicode="&#x40a;" horiz-adv-x="810" 
d="M632 420q63 0 105.5 -41t42.5 -104v-130q0 -63 -42.5 -104t-105.5 -41h-285v280h-134v-280h-148v700h148v-280h134v280h148v-280h137zM640 261q0 9 -5.5 14t-13.5 5h-126v-140h126q8 0 13.5 5t5.5 14v102z" />
    <glyph glyph-name="uni040A" unicode="&#x45a;" horiz-adv-x="810" 
d="M632 420q63 0 105.5 -41t42.5 -104v-130q0 -63 -42.5 -104t-105.5 -41h-285v280h-134v-280h-148v700h148v-280h134v280h148v-280h137zM640 261q0 9 -5.5 14t-13.5 5h-126v-140h126q8 0 13.5 5t5.5 14v102z" />
    <glyph glyph-name="uni0405" unicode="&#x405;" horiz-adv-x="522" 
d="M193 -5q-41 0 -75 19t-53.5 52t-19.5 74v53h143v-38q0 -9 5.5 -14.5t13.5 -5.5h105q25 0 25 25v24q0 19 -15 30l-179 137q-50 38 -72.5 70.5t-22.5 70.5v68q0 63 41.5 104t106.5 41h133q63 0 105.5 -41t42.5 -104v-52h-143v37q0 9 -5.5 14.5t-13.5 5.5h-102
q-25 0 -25 -25v-22q0 -19 15 -30l177 -135q50 -38 73.5 -69.5t23.5 -67.5v-76q0 -63 -41.5 -104t-106.5 -41h-136z" />
    <glyph glyph-name="uni0405" unicode="&#x455;" horiz-adv-x="522" 
d="M193 -5q-41 0 -75 19t-53.5 52t-19.5 74v53h143v-38q0 -9 5.5 -14.5t13.5 -5.5h105q25 0 25 25v24q0 19 -15 30l-179 137q-50 38 -72.5 70.5t-22.5 70.5v68q0 63 41.5 104t106.5 41h133q63 0 105.5 -41t42.5 -104v-52h-143v37q0 9 -5.5 14.5t-13.5 5.5h-102
q-25 0 -25 -25v-22q0 -19 15 -30l177 -135q50 -38 73.5 -69.5t23.5 -67.5v-76q0 -63 -41.5 -104t-106.5 -41h-136z" />
    <glyph glyph-name="uni0404" unicode="&#x404;" horiz-adv-x="532" 
d="M487 507h-143v39q0 9 -5.5 14t-14.5 5h-106q-19 0 -19 -19v-126h145v-140h-145v-126q0 -19 19 -19h106q9 0 14.5 5t5.5 14v39h143v-53q0 -63 -41.5 -104t-105.5 -41h-137q-64 0 -106 41t-42 104v420q0 63 42 104t106 41h137q64 0 105.5 -41t41.5 -104v-53z" />
    <glyph glyph-name="uni0404" unicode="&#x454;" horiz-adv-x="532" 
d="M487 507h-143v39q0 9 -5.5 14t-14.5 5h-106q-19 0 -19 -19v-126h145v-140h-145v-126q0 -19 19 -19h106q9 0 14.5 5t5.5 14v39h143v-53q0 -63 -41.5 -104t-105.5 -41h-137q-64 0 -106 41t-42 104v420q0 63 42 104t106 41h137q64 0 105.5 -41t41.5 -104v-53z" />
    <glyph glyph-name="uni042D" unicode="&#x42d;" horiz-adv-x="532" 
d="M329 705q64 0 106 -41t42 -104v-420q0 -63 -42 -104t-106 -41h-137q-64 0 -105.5 41t-41.5 104v53h143v-39q0 -9 5.5 -14t14.5 -5h106q19 0 19 19v126h-145v140h145v126q0 19 -19 19h-106q-9 0 -14.5 -5t-5.5 -14v-39h-143v53q0 63 41.5 104t105.5 41h137z" />
    <glyph glyph-name="uni042D" unicode="&#x44d;" horiz-adv-x="532" 
d="M329 705q64 0 106 -41t42 -104v-420q0 -63 -42 -104t-106 -41h-137q-64 0 -105.5 41t-41.5 104v53h143v-39q0 -9 5.5 -14t14.5 -5h106q19 0 19 19v126h-145v140h145v126q0 19 -19 19h-106q-9 0 -14.5 -5t-5.5 -14v-39h-143v53q0 63 41.5 104t105.5 41h137z" />
    <glyph glyph-name="uni0406" unicode="&#x406;" horiz-adv-x="278" 
d="M213 0h-148v700h148v-700z" />
    <glyph glyph-name="uni0407" unicode="&#x407;" horiz-adv-x="278" 
d="M77 782h-154v163h154v-163zM354 782h-154v163h154v-163zM213 0h-148v700h148v-700z" />
    <glyph glyph-name="uni0407" unicode="&#x457;" horiz-adv-x="278" 
d="M77 782h-154v163h154v-163zM354 782h-154v163h154v-163zM213 0h-148v700h148v-700z" />
    <glyph glyph-name="uni0408" unicode="&#x408;" horiz-adv-x="497" 
d="M152 -5q-64 0 -105.5 41t-41.5 104v53h143v-42q0 -9 5.5 -14t14.5 -5h102q19 0 19 19v549h148v-560q0 -63 -42 -104t-106 -41h-137z" />
    <glyph glyph-name="uni0408" unicode="&#x458;" horiz-adv-x="497" 
d="M152 -5q-64 0 -105.5 41t-41.5 104v53h143v-42q0 -9 5.5 -14t14.5 -5h102q19 0 19 19v549h148v-560q0 -63 -42 -104t-106 -41h-137z" />
    <glyph glyph-name="uni040B" unicode="&#x40b;" horiz-adv-x="630" 
d="M453 420q63 0 105 -41.5t42 -104.5v-274h-148v261q0 9 -5 14t-13 5h-115v-280h-148v560h-141v140h430v-140h-141v-140h134z" />
    <glyph glyph-name="uni040B" unicode="&#x45b;" horiz-adv-x="630" 
d="M453 420q63 0 105 -41.5t42 -104.5v-274h-148v261q0 9 -5 14t-13 5h-115v-280h-148v560h-141v140h430v-140h-141v-140h134z" />
    <glyph glyph-name="uni042E" unicode="&#x42e;" horiz-adv-x="784" 
d="M582 705q63 0 105 -41t42 -104v-420q0 -63 -42 -104t-105 -41h-137q-63 0 -105 41t-42 104v140h-85v-280h-148v700h148v-280h85v140q0 63 42 104t105 41h137zM586 546q0 19 -19 19h-107q-8 0 -13 -5t-5 -14v-392q0 -9 5 -14t13 -5h107q19 0 19 19v392z" />
    <glyph glyph-name="uni042E" unicode="&#x44e;" horiz-adv-x="784" 
d="M582 705q63 0 105 -41t42 -104v-420q0 -63 -42 -104t-105 -41h-137q-63 0 -105 41t-42 104v140h-85v-280h-148v700h148v-280h85v140q0 63 42 104t105 41h137zM586 546q0 19 -19 19h-107q-8 0 -13 -5t-5 -14v-392q0 -9 5 -14t13 -5h107q19 0 19 19v392z" />
    <glyph glyph-name="uni042F" unicode="&#x42f;" horiz-adv-x="553" 
d="M488 700v-700h-148v303h-9l-161 -303h-160l159 290q-50 11 -82 49t-32 92v124q0 63 42.5 104t105.5 41h285zM347 420v140h-134q-8 0 -13.5 -5t-5.5 -14v-102q0 -9 5.5 -14t13.5 -5h134z" />
    <glyph glyph-name="uni042F" unicode="&#x44f;" horiz-adv-x="553" 
d="M488 700v-700h-148v303h-9l-161 -303h-160l159 290q-50 11 -82 49t-32 92v124q0 63 42.5 104t105.5 41h285zM347 420v140h-134q-8 0 -13.5 -5t-5.5 -14v-102q0 -9 5.5 -14t13.5 -5h134z" />
    <glyph glyph-name="uni0402" unicode="&#x402;" horiz-adv-x="630" 
d="M453 420q63 0 105 -41.5t42 -104.5v-274v0q-1 -61 -42.5 -101t-104.5 -40h-54v140h35q15 0 18 12v250q0 9 -5 14t-13 5h-115v-280h-148v560h-141v140h430v-140h-141v-140h134z" />
    <glyph glyph-name="uni0402" unicode="&#x452;" horiz-adv-x="630" 
d="M453 420q63 0 105 -41.5t42 -104.5v-274v0q-1 -61 -42.5 -101t-104.5 -40h-54v140h35q15 0 18 12v250q0 9 -5 14t-13 5h-115v-280h-148v560h-141v140h430v-140h-141v-140h134z" />
    <glyph glyph-name="uni0492" unicode="&#x492;" horiz-adv-x="523" 
d="M503 700v-140h-282v-140h199v-140h-199v-280h-148v280h-83v140h83v280h430z" />
    <glyph glyph-name="uni0492" unicode="&#x493;" horiz-adv-x="523" 
d="M503 700v-140h-282v-140h199v-140h-199v-280h-148v280h-83v140h83v280h430z" />
    <glyph glyph-name="uni0496" unicode="&#x496;" horiz-adv-x="834" 
d="M690 351l66 -211h88v-232h-148v91h-50l-85 277h-77v-276h-148v276h-77l-85 -277h-154l110 352l-109 350h153l86 -277h76v276h148v-276h76l86 277h153z" />
    <glyph glyph-name="uni0496" unicode="&#x497;" horiz-adv-x="834" 
d="M690 351l66 -211h88v-232h-148v91h-50l-85 277h-77v-276h-148v276h-77l-85 -277h-154l110 352l-109 350h153l86 -277h76v276h148v-276h76l86 277h153z" />
    <glyph glyph-name="uni049A" unicode="&#x49a;" horiz-adv-x="560" 
d="M419 351l66 -211h85v-232h-148v91h-47l-85 277h-77v-276h-148v700h148v-276h76l86 277h153z" />
    <glyph glyph-name="uni049A" unicode="&#x49b;" horiz-adv-x="560" 
d="M419 351l66 -211h85v-232h-148v91h-47l-85 277h-77v-276h-148v700h148v-276h76l86 277h153z" />
    <glyph glyph-name="uni04A2" unicode="&#x4a2;" horiz-adv-x="560" 
d="M495 140h73v-232h-148v92h-73v280h-134v-280h-148v700h148v-280h134v280h148v-560z" />
    <glyph glyph-name="uni04A2" unicode="&#x4a3;" horiz-adv-x="560" 
d="M495 140h73v-232h-148v92h-73v280h-134v-280h-148v700h148v-280h134v280h148v-560z" />
    <glyph glyph-name="uni04AE" unicode="&#x4ae;" horiz-adv-x="544" 
d="M346 -245h-148v270l-178 675h150l97 -371h10l97 371h150l-178 -675v-270z" />
    <glyph glyph-name="uni04B0" unicode="&#x4b0;" horiz-adv-x="544" 
d="M374 700h150l-145 -551h106v-149h-139v-245h-148v245h-139v149h106l-145 551h150l97 -371h10z" />
    <glyph glyph-name="uni04B2" unicode="&#x4b2;" horiz-adv-x="564" 
d="M377 350l92 -210h105v-232h-148v92h-54l-88 210h-8l-90 -210h-158l153 350l-153 350h157l89 -210h8l89 210h159z" />
    <glyph glyph-name="uni04B2" unicode="&#x4b3;" horiz-adv-x="564" 
d="M377 350l92 -210h105v-232h-148v92h-54l-88 210h-8l-90 -210h-158l153 350l-153 350h157l89 -210h8l89 210h159z" />
    <glyph glyph-name="uni04B6" unicode="&#x4b6;" horiz-adv-x="523" 
d="M459 140h74v-232h-148v92h-74v280h-134q-63 0 -105 41.5t-42 104.5v274h148v-261q0 -9 5 -14t13 -5h115v280h148v-560z" />
    <glyph glyph-name="uni04B6" unicode="&#x4b7;" horiz-adv-x="523" 
d="M459 140h74v-232h-148v92h-74v280h-134q-63 0 -105 41.5t-42 104.5v274h148v-261q0 -9 5 -14t13 -5h115v280h148v-560z" />
    <glyph glyph-name="uni04BA" unicode="&#x4ba;" horiz-adv-x="524" 
d="M347 420q63 0 105 -41.5t42 -104.5v-274h-148v261q0 9 -5 14t-13 5h-115v-280h-148v700h148v-280h134z" />
    <glyph glyph-name="uni04BA" unicode="&#x4bb;" horiz-adv-x="524" 
d="M347 420q63 0 105 -41.5t42 -104.5v-274h-148v261q0 9 -5 14t-13 5h-115v-280h-148v700h148v-280h134z" />
    <glyph glyph-name="uni04C0" unicode="&#x4c0;" horiz-adv-x="278" 
d="M213 0h-148v700h148v-700z" />
    <glyph glyph-name="uni04C0" unicode="&#x4cf;" horiz-adv-x="278" 
d="M213 0h-148v700h148v-700z" />
    <glyph glyph-name="uni04D8" unicode="&#x4d8;" 
d="M339 705q63 0 105 -41t42 -104v-422q0 -41 -19.5 -73.5t-52 -51t-71.5 -18.5h-141q-63 0 -105 41t-42 104v280h291v125q0 20 -19 20h-111q-8 0 -13.5 -5t-5.5 -15v-38h-142v53q0 63 42 104t105 41h137zM346 280h-151v-127q0 -8 5 -13t13 -5h115q8 0 13 5.5t5 12.5v127z
" />
    <glyph glyph-name="uni04D8" unicode="&#x4d9;" 
d="M339 705q63 0 105 -41t42 -104v-422q0 -41 -19.5 -73.5t-52 -51t-71.5 -18.5h-141q-63 0 -105 41t-42 104v280h291v125q0 20 -19 20h-111q-8 0 -13.5 -5t-5.5 -15v-38h-142v53q0 63 42 104t105 41h137zM346 280h-151v-127q0 -8 5 -13t13 -5h115q8 0 13 5.5t5 12.5v127z
" />
    <glyph glyph-name="uni04E2" unicode="&#x4e2;" horiz-adv-x="562" 
d="M497 700v-700h-138v369h-8l-141 -369h-145v700h138v-371h8l141 371h145zM448 782h-334v126h334v-126z" />
    <glyph glyph-name="uni04E2" unicode="&#x4e3;" horiz-adv-x="562" 
d="M497 700v-700h-138v369h-8l-141 -369h-145v700h138v-371h8l141 371h145zM448 782h-334v126h334v-126z" />
    <glyph glyph-name="uni04E8" unicode="&#x4e8;" 
d="M339 705q63 0 105 -41t42 -104v-420q0 -63 -42 -104t-105 -41h-137q-63 0 -105 41t-42 104v420q0 63 42 104t105 41h137zM217 565q-8 0 -13 -5t-5 -14v-126h144v126q0 19 -19 19h-107zM324 135q19 0 19 19v126h-144v-126q0 -9 5 -14t13 -5h107z" />
    <glyph glyph-name="uni04E8" unicode="&#x4e9;" 
d="M339 705q63 0 105 -41t42 -104v-420q0 -63 -42 -104t-105 -41h-137q-63 0 -105 41t-42 104v420q0 63 42 104t105 41h137zM217 565q-8 0 -13 -5t-5 -14v-126h144v126q0 19 -19 19h-107zM324 135q19 0 19 19v126h-144v-126q0 -9 5 -14t13 -5h107z" />
    <glyph glyph-name="uni04EE" unicode="&#x4ee;" horiz-adv-x="544" 
d="M344 700h140v-560q0 -63 -42 -104t-105 -41h-134q-63 0 -105 41t-42 104v53h142v-38q0 -9 5.5 -14.5t13.5 -5.5h108q19 0 19 20v125h-142q-63 0 -105 41.5t-42 104.5v274h148v-261q0 -9 5 -14t13 -5h123v280zM437 782h-334v126h334v-126z" />
    <glyph glyph-name="uni04EE" unicode="&#x4ef;" horiz-adv-x="544" 
d="M344 700h140v-560q0 -63 -42 -104t-105 -41h-134q-63 0 -105 41t-42 104v53h142v-38q0 -9 5.5 -14.5t13.5 -5.5h108q19 0 19 20v125h-142q-63 0 -105 41.5t-42 104.5v274h148v-261q0 -9 5 -14t13 -5h123v280zM437 782h-334v126h334v-126z" />
    <glyph glyph-name="uni0414.loclBGR" horiz-adv-x="574" 
d="M160 -92h-142v232h49l127 560h186l127 -560h49v-232h-142v96h-254v-96zM284 484l-75 -344h156l-74 344h-7z" />
    <glyph glyph-name="uni041B.loclBGR" horiz-adv-x="544" 
d="M172 700h200l152 -700h-150l-98 468h-8l-98 -468h-150z" />
    <glyph glyph-name="uni0424.loclBGR" horiz-adv-x="744" 
d="M30 554q0 63 42 104.5t105 41.5h121v92h148v-92h121q63 0 105 -41.5t42 -104.5v-409q0 -63 -42 -104t-105 -41h-121v-92h-148v92h-121q-63 0 -105 41t-42 104v409zM170 158q0 -8 5 -13t13 -5h110v420h-110q-8 0 -13 -5t-5 -14v-383zM556 140q8 0 13 5t5 13v383q0 9 -5 14
t-13 5h-110v-420h110z" />
    <glyph glyph-name="uni0415.ss01" 
d="M202 -5q-63 0 -105 41t-42 104v422q0 41 19.5 73.5t52 51t71.5 18.5h141q63 0 105 -41t42 -104v-280h-291v-125q0 -20 19 -20h111q9 0 14 5.5t5 14.5v38h142v-53q0 -63 -42 -104t-105 -41h-137zM195 420h151v127q0 8 -5 13t-13 5h-115q-7 0 -12.5 -5t-5.5 -13v-127z" />
    <glyph glyph-name="uni0400.ss01" 
d="M291 945l58 -163h-160l-58 163h160zM202 -5q-63 0 -105 41t-42 104v422q0 41 19.5 73.5t52 51t71.5 18.5h141q63 0 105 -41t42 -104v-280h-291v-125q0 -20 19 -20h111q9 0 14 5.5t5 14.5v38h142v-53q0 -63 -42 -104t-105 -41h-137zM195 420h151v127q0 8 -5 13t-13 5h-115
q-7 0 -12.5 -5t-5.5 -13v-127z" />
    <glyph glyph-name="uni0401.ss01" 
d="M248 782h-154v163h154v-163zM447 782h-154v163h154v-163zM202 -5q-63 0 -105 41t-42 104v422q0 41 19.5 73.5t52 51t71.5 18.5h141q63 0 105 -41t42 -104v-280h-291v-125q0 -20 19 -20h111q9 0 14 5.5t5 14.5v38h142v-53q0 -63 -42 -104t-105 -41h-137zM195 420h151v127
q0 8 -5 13t-13 5h-115q-7 0 -12.5 -5t-5.5 -13v-127z" />
    <glyph glyph-name="uni0415.ss02" horiz-adv-x="560" 
d="M495 700v-140h-290v-140h273v-140h-273v-140h290v-140h-430v700h430z" />
    <glyph glyph-name="uni0401.ss02" horiz-adv-x="560" 
d="M495 700v-140h-290v-140h273v-140h-273v-140h290v-140h-430v700h430zM117.5 800.5q-25.5 25.5 -25.5 62.5q0 36 25.5 62t60.5 26t60.5 -26t25.5 -62q0 -37 -25.5 -62.5t-60.5 -25.5t-60.5 25.5zM316.5 800.5q-25.5 25.5 -25.5 62.5q0 36 25.5 62t60.5 26t60.5 -26
t25.5 -62q0 -37 -25.5 -62.5t-60.5 -25.5t-60.5 25.5z" />
    <glyph glyph-name="uni0407.ss02" horiz-adv-x="281" 
d="M216 0h-148v700h148v-700zM-59.5 800.5q-25.5 25.5 -25.5 62.5q0 36 25.5 62t60.5 26t60.5 -26t25.5 -62q0 -37 -25.5 -62.5t-60.5 -25.5t-60.5 25.5zM219.5 800.5q-25.5 25.5 -25.5 62.5q0 36 25.5 62t60.5 26t60.5 -26t25.5 -62q0 -37 -25.5 -62.5t-60.5 -25.5
t-60.5 25.5z" />
    <glyph glyph-name="uni0403.ss03" horiz-adv-x="515" 
d="M495 700v-140h-282v-560h-148v700h430zM392 851l-47 -133h-130l47 133h130z" />
    <glyph glyph-name="uni0414.ss03" horiz-adv-x="574" 
d="M160 -92h-142v232h49l127 560h186l127 -560h49v-232h-142v96h-254v-96zM280 479l-71 -339h156l-71 339h-14z" />
    <glyph glyph-name="uni0415.ss03" 
d="M202 -5q-63 0 -105 41t-42 104v422q0 41 19.5 73.5t52 51t71.5 18.5h141q63 0 105 -41t42 -104v-280h-291v-125q0 -20 19 -20h111q9 0 14 5.5t5 14.5v38h142v-53q0 -63 -42 -104t-105 -41h-137zM195 420h151v127q0 8 -5 13t-13 5h-115q-7 0 -12.5 -5t-5.5 -13v-127z" />
    <glyph glyph-name="uni0400.ss03" 
d="M202 -5q-63 0 -105 41t-42 104v422q0 41 19.5 73.5t52 51t71.5 18.5h141q63 0 105 -41t42 -104v-280h-291v-125q0 -20 19 -20h111q9 0 14 5.5t5 14.5v38h142v-53q0 -63 -42 -104t-105 -41h-137zM195 420h151v127q0 8 -5 13t-13 5h-115q-7 0 -12.5 -5t-5.5 -13v-127z
M336 718h-130l-47 133h130z" />
    <glyph glyph-name="uni0401.ss03" 
d="M202 -5q-63 0 -105 41t-42 104v422q0 41 19.5 73.5t52 51t71.5 18.5h141q63 0 105 -41t42 -104v-280h-291v-125q0 -20 19 -20h111q9 0 14 5.5t5 14.5v38h142v-53q0 -63 -42 -104t-105 -41h-137zM195 420h151v127q0 8 -5 13t-13 5h-115q-7 0 -12.5 -5t-5.5 -13v-127z
M149.5 735.5q-20.5 20.5 -20.5 48.5q0 29 20.5 49t48.5 20q29 0 49.5 -20t20.5 -49t-20.5 -49t-49.5 -20q-28 0 -48.5 20.5zM294.5 735q-20.5 20 -20.5 49t20.5 49t49.5 20t49 -20t20 -49q0 -28 -20 -48.5t-49 -20.5t-49.5 20z" />
    <glyph glyph-name="uni0419.ss03" horiz-adv-x="562" 
d="M211.5 740.5q-26.5 25.5 -29.5 62.5h185q-3 -37 -29.5 -62.5t-62.5 -25.5q-37 0 -63.5 25.5zM497 700v-700h-138v369h-8l-141 -369h-145v700h138v-371h8l141 371h145z" />
    <glyph glyph-name="uni040D.ss03" horiz-adv-x="562" 
d="M497 700v-700h-138v369h-8l-141 -369h-145v700h138v-371h8l141 371h145zM346 718h-130l-47 133h130z" />
    <glyph glyph-name="uni040C.ss03" horiz-adv-x="549" 
d="M528 701l-109 -350l110 -352h-154l-85 277h-77v-276h-148v700h148v-276h76l86 277h153zM401 851l-47 -133h-130l47 133h130z" />
    <glyph glyph-name="uni040E.ss03" horiz-adv-x="544" 
d="M212 741q-26 26 -26 63h179q0 -37 -26.5 -63t-63.5 -26t-63 26zM344 700h140v-560q0 -63 -42 -104t-105 -41h-134q-63 0 -105 41t-42 104v53h142v-38q0 -9 5.5 -14.5t13.5 -5.5h108q19 0 19 20v125h-142q-63 0 -105 41.5t-42 104.5v274h148v-261q0 -9 5 -14t13 -5h123
v280z" />
    <glyph glyph-name="uni0407.ss03" horiz-adv-x="278" 
d="M17.5 725.5q-20.5 20.5 -20.5 48.5q0 29 20.5 49t48.5 20q29 0 49.5 -20t20.5 -49t-20.5 -49t-49.5 -20q-28 0 -48.5 20.5zM162.5 725.5q-20.5 20.5 -20.5 48.5t20.5 48.5t49.5 20.5t49 -20t20 -49q0 -28 -20 -48.5t-49 -20.5t-49.5 20.5zM213 0h-148v700h148v-700z" />
    <glyph glyph-name="uni0410.ss04" horiz-adv-x="544" 
d="M526 0h-145l-16 77h-186l-16 -77h-145l161 700h186zM267 486l-58 -269h126l-58 269h-10z" />
    <glyph glyph-name="uni0414.ss04" horiz-adv-x="574" 
d="M160 -92h-142v232h49l127 560h186l127 -560h49v-232h-142v96h-254v-96zM280 479l-71 -339h156l-71 339h-14z" />
    <glyph glyph-name="uni041B.ss04" horiz-adv-x="544" 
d="M172 700h200l152 -700h-153l-97 466h-10l-97 -466h-147z" />
    <glyph glyph-name="uni041D.ss05" horiz-adv-x="560" 
d="M347 280v420h148v-1000h-148v440h-134v-440h-148v1000h148v-420h134z" />
    <glyph glyph-name="uni040A.ss05" horiz-adv-x="810" 
d="M632 420q63 0 105.5 -41t42.5 -104v-130q0 -63 -42.5 -104t-105.5 -41h-137v-300h-148v440h-134v-440h-148v1000h148v-420h134v420h148v-280h137zM640 261q0 9 -5.5 14t-13.5 5h-131v-140h131q8 0 13.5 5t5.5 14v102z" />
    <glyph glyph-name="uni04A2.ss05" horiz-adv-x="558" 
d="M495 -155h73v-232h-148v87h-73v440h-134v-440h-148v1000h148v-420h134v420h148v-855z" />
    <glyph glyph-name="uni0415.ss06" horiz-adv-x="535" 
d="M495 0h-430v700h430v-140h-140v60h-150v-60h77v-420h-77v-60h150v60h140v-140z" />
    <glyph glyph-name="uni0400.ss06" horiz-adv-x="535" 
d="M300 945l58 -163h-160l-58 163h160zM495 0h-430v700h430v-140h-140v60h-150v-60h77v-420h-77v-60h150v60h140v-140z" />
    <glyph glyph-name="uni0401.ss06" horiz-adv-x="535" 
d="M257 782h-154v163h154v-163zM456 782h-154v163h154v-163zM495 0h-430v700h430v-140h-140v60h-150v-60h77v-420h-77v-60h150v60h140v-140z" />
    <glyph glyph-name="uni0416.ss07" horiz-adv-x="872" 
d="M870 700l-336 -349l340 -352h-186l-172 179h-8v-178h-144v178h-8l-172 -179h-186l340 352l-336 349h182l173 -179h7v178h144v-178h7l173 179h182z" />
    <glyph glyph-name="uni041A.ss07" horiz-adv-x="573" 
d="M575 -1h-186l-172 179h-8v-178h-144v699h144v-178h7l173 179h182l-336 -349z" />
    <glyph glyph-name="uni040C.ss07" horiz-adv-x="573" 
d="M369 782h-160l58 163h160zM575 -1h-186l-172 179h-8v-178h-144v699h144v-178h7l173 179h182l-336 -349z" />
    <glyph glyph-name="uni042F.ss07" horiz-adv-x="582" 
d="M183 323q-41 0 -75 18.5t-53.5 51t-19.5 72.5v90q0 63 42.5 104t105.5 41h334v-700h-141v180h-8l-172 -181h-193l315 324h-135zM378 458v104h-185q-9 0 -14.5 -5.5t-5.5 -14.5v-64q0 -9 5.5 -14.5t14.5 -5.5h185z" />
    <glyph glyph-name="uni0496.ss07" horiz-adv-x="874" 
d="M534 351l204 -211h146v-232h-148v91h-48l-172 179h-8v-178h-144v178h-8l-172 -179h-186l340 352l-336 349h182l173 -179h7v178h144v-178h7l173 179h182z" />
    <glyph glyph-name="uni049A.ss07" horiz-adv-x="580" 
d="M442 137v3h148v-232h-148v91h-53l-172 179h-8v-178h-144v699h144v-178h7l173 179h182l-336 -349z" />
    <glyph glyph-name="uni0456" unicode="&#x456;" horiz-adv-x="278" 
d="M213 0h-148v700h148v-700z" />
    <glyph glyph-name="uni04AF" unicode="&#x4af;" horiz-adv-x="544" 
d="M346 -245h-148v270l-178 675h150l97 -371h10l97 371h150l-178 -675v-270z" />
    <glyph glyph-name="uni04B1" unicode="&#x4b1;" horiz-adv-x="544" 
d="M374 700h150l-145 -551h106v-149h-139v-245h-148v245h-139v149h106l-145 551h150l97 -371h10z" />
    <glyph glyph-name="uni0394" unicode="&#x394;" horiz-adv-x="530" 
d="M508 0h-487v132l173 568h142l172 -568v-132zM173 149v-9h184v9l-88 298h-8z" />
    <glyph glyph-name="uni03A9" unicode="&#x3a9;" horiz-adv-x="538" 
d="M25 0v140h38q0 1 -5 9.5t-5 45.5v365q0 63 42 104t105 41h137q63 0 105 -41t42 -104v-365q0 -37 -5 -45.5t-5 -9.5h39v-140h-229v140h38q19 0 19 19v387q0 19 -19 19h-107q-8 0 -13 -5t-5 -14v-387q0 -9 5 -14t13 -5h44v-140h-234z" />
    <glyph glyph-name="uni03BC" unicode="&#x3bc;" horiz-adv-x="574" 
d="M495 140h69v-140h-280q-24 0 -42.5 7.5t-28.5 21.5v-110h-148v780h148v-537q0 -9 6 -15.5t16 -6.5h112v560h148v-560z" />
    <glyph glyph-name="pi" unicode="&#x3c0;" horiz-adv-x="593" 
d="M578 560h-69v-395q0 -25 25 -25h44v-140h-69q-63 0 -105 41t-42 104v415h-116v-560h-148v560h-68v140h548v-140z" />
    <glyph glyph-name="zero" unicode="0" 
d="M202 -5q-63 0 -105 41t-42 104v420q0 63 42 104t105 41h137q63 0 105 -41t42 -104v-420q0 -63 -42 -104t-105 -41h-137zM324 135q19 0 19 19v392q0 19 -19 19h-107q-8 0 -13 -5t-5 -14v-392q0 -9 5 -14t13 -5h107z" />
    <glyph glyph-name="one" unicode="1" horiz-adv-x="360" 
d="M295 0h-147v560h-118l80 140h185v-700z" />
    <glyph glyph-name="two" unicode="2" horiz-adv-x="514" 
d="M48 0v144l267 320q12 17 12 34v39q0 28 -29 28h-99q-7 0 -12 -5t-5 -13v-40h-142v53q0 63 42.5 104t105.5 41h133q66 0 107 -38.5t41 -101.5v-78q0 -40 -12 -67.5t-40 -60.5l-180 -211v-8h237v-140h-426z" />
    <glyph glyph-name="three" unicode="3" horiz-adv-x="532" 
d="M192 -5q-63 0 -105 41t-42 104v53h144v-39q0 -19 19 -19h106q19 0 19 19v107q0 8 -5.5 13.5t-13.5 5.5h-119v140h119q8 0 13.5 5.5t5.5 13.5v107q0 19 -19 19h-106q-19 0 -19 -19v-39h-142v53q0 63 42 104t105 41h134q63 0 105 -41t42 -104v-99q0 -36 -15 -66.5
t-42 -40.5v-9q27 -9 43 -38.5t16 -63.5v-103q0 -63 -42 -104t-105 -41h-138z" />
    <glyph glyph-name="four" unicode="4" horiz-adv-x="551" 
d="M449 0h-138v113h-291v155l242 432h187v-451h82v-136h-82v-113zM170 249l141 -1v248h-9l-132 -239v-8z" />
    <glyph glyph-name="five" unicode="5" horiz-adv-x="553" 
d="M210 -5q-70 0 -107.5 37.5t-37.5 107.5v53h144v-40q0 -18 18 -18h103q8 0 13 5t5 13v125q0 9 -5 14t-13 5h-265v403h419v-140h-276v-123h133q63 0 105 -41.5t42 -104.5v-151q0 -63 -42 -104t-105 -41h-131z" />
    <glyph glyph-name="six" unicode="6" horiz-adv-x="533" 
d="M198 -5q-39 0 -71.5 18.5t-52 51t-19.5 73.5v422q0 63 42 104t105 41h134q63 0 105 -41t42 -104v-53h-142v38q0 10 -5 15t-14 5h-108q-19 0 -19 -20v-125h141q63 0 105 -41.5t42 -104.5v-134q0 -63 -42 -104t-105 -41h-138zM325 135q8 0 13 5t5 13v108q0 9 -5 14t-13 5
h-130v-127q0 -7 5.5 -12.5t12.5 -5.5h112z" />
    <glyph glyph-name="seven" unicode="7" horiz-adv-x="494" 
d="M262 0h-159l197 552v8h-270v140h429v-144z" />
    <glyph glyph-name="eight" unicode="8" horiz-adv-x="542" 
d="M202 -5q-63 0 -105 41t-42 104v103q0 34 16 63.5t43 38.5v9q-27 10 -42 40.5t-15 66.5v99q0 63 42 104t105 41h134q63 0 105 -41t42 -104v-99q0 -36 -15 -66.5t-42 -40.5v-9q27 -9 43 -38.5t16 -63.5v-103q0 -63 -42 -104t-105 -41h-138zM327 420q8 0 13.5 5.5t5.5 13.5
v107q0 19 -19 19h-112q-19 0 -19 -19v-107q0 -8 5.5 -13.5t13.5 -5.5h112zM327 135q19 0 19 19v107q0 8 -5.5 13.5t-13.5 5.5h-112q-8 0 -13.5 -5.5t-5.5 -13.5v-107q0 -19 19 -19h112z" />
    <glyph glyph-name="nine" unicode="9" horiz-adv-x="533" 
d="M335 705q39 0 71.5 -18.5t52 -51t19.5 -73.5v-422q0 -63 -42 -104t-105 -41h-134q-63 0 -105 41t-42 104v53h142v-38q0 -9 5.5 -14.5t13.5 -5.5h108q19 0 19 20v125h-141q-63 0 -105 41.5t-42 104.5v134q0 63 42 104t105 41h138zM208 565q-8 0 -13 -5t-5 -13v-108
q0 -9 5 -14t13 -5h130v127q0 8 -5 13t-13 5h-112z" />
    <glyph glyph-name="one.ss08" horiz-adv-x="350" 
d="M295 0h-147v560h-118l80 140h185v-700z" />
    <glyph glyph-name="two.ss08" horiz-adv-x="510" 
d="M15 0v12l287 421q9 12 11.5 20.5t2.5 21.5v62q0 28 -28 28h-97q-19 0 -19 -22v-36h-142v53q0 62 42 103.5t106 41.5h136q66 0 107 -39t41 -101v-77q0 -43 -11.5 -74.5t-50.5 -86.5l-128 -181v-6h198v-140h-455z" />
    <glyph glyph-name="four.ss08" horiz-adv-x="532" 
d="M480 0h-146v160h-334l182 540h154l-134 -395v-7h132v222h146v-520z" />
    <glyph glyph-name="seven.ss08" horiz-adv-x="498" 
d="M264 0h-158l185 552v8h-261v140h467z" />
    <glyph glyph-name="one.ss09" horiz-adv-x="278" 
d="M213 0h-148v700h148v-700z" />
    <glyph glyph-name="four.ss09" horiz-adv-x="526" 
d="M461 0h-148v145h-292l-1 131l157 424h284v-700zM178 287v-11h135v354h-6z" />
    <glyph glyph-name="uni00B9" unicode="&#xb9;" horiz-adv-x="287" 
d="M227 221h-119v360h-88l69 119h138v-479z" />
    <glyph glyph-name="uni00B2" unicode="&#xb2;" horiz-adv-x="382" 
d="M45 220v104l177 220q6 8 6 17l-1 26q0 13 -13 13l-50 1q-13 0 -13 -14v-31h-111v46q0 44 30 73.5t76 29.5h87q47 0 76 -27.5t29 -72.5v-51q0 -24 -8 -43t-28 -43l-109 -135v-7h149v-106h-297z" />
    <glyph glyph-name="uni00B3" unicode="&#xb3;" horiz-adv-x="386" 
d="M147 213q-46 0 -76.5 29.5t-30.5 74.5v39h112v-25q0 -13 13 -13h54q13 0 13 13v68q0 6 -6 6h-84v108h84q6 0 6 6v68q0 13 -13 13h-54q-13 0 -13 -13v-26h-111v39q0 46 30.5 75.5t76.5 29.5h88q46 0 75 -29.5t29 -75.5v-56q0 -32 -10 -52.5t-33 -29.5v-6q24 -9 34 -28.5
t10 -50.5v-60q0 -45 -29 -74.5t-75 -29.5h-90z" />
    </font>
</defs>
</svg>
