<svg width="61" height="53" viewBox="0 0 61 53" fill="none" xmlns="http://www.w3.org/2000/svg">
<path d="M8.26322 18.2744C8.3137 18.2239 8.36419 18.1229 8.41467 18.022C8.31371 18.022 8.21274 18.022 8.11178 18.022C8.16226 17.921 8.21275 17.8705 8.21275 17.7696C8.36419 17.6686 8.51563 17.7696 8.6166 17.5676C8.6166 17.4667 8.46515 17.5172 8.41467 17.4667C8.36419 17.4162 8.36418 17.3657 8.3137 17.2647C8.41467 17.2143 8.46515 17.1638 8.56611 17.1638C8.71756 17.1638 8.76804 17.1133 8.869 17.0628C9.07093 16.9619 9.22238 16.8104 9.47479 16.659C9.42431 16.6085 9.4243 16.5075 9.37382 16.457C9.47478 16.4066 9.57575 16.3561 9.62623 16.3056C9.67671 16.3056 9.67672 16.2551 9.7272 16.2551C9.97961 16.3056 10.0806 16.1037 10.1815 15.9522C10.232 15.9017 10.232 15.8513 10.2825 15.8513C10.5854 15.6998 10.8883 15.8008 11.1912 15.7503C11.2416 15.7503 11.2921 15.8008 11.3426 15.8008C11.595 15.9017 11.7969 15.8513 11.9989 15.6998C12.2008 15.5484 12.4532 15.4474 12.7056 15.4474C12.8571 15.4474 13.0085 15.3969 13.1095 15.2455C13.1599 15.2455 13.2104 15.2455 13.3114 15.296C13.4628 15.094 13.6143 14.8921 13.9172 14.8416C14.0686 14.7911 14.1696 14.7407 14.321 14.7407C14.6239 14.6902 14.8763 14.5387 15.1287 14.3873C15.4821 14.1854 15.886 13.9834 16.2393 13.832C16.4917 13.731 16.6937 13.5796 16.9461 13.4281C17.1985 13.2767 17.5014 13.1252 17.8043 13.0748C17.8043 13.2262 17.6528 13.2767 17.6023 13.3272C17.3499 13.4786 17.047 13.6301 16.7442 13.7815C16.5927 13.832 16.4917 13.933 16.3908 14.0339C16.1888 14.1854 15.9869 14.2863 15.7345 14.3873C15.3811 14.5387 15.0278 14.7911 14.7249 14.9931C14.6744 14.9931 14.6744 15.0436 14.6744 15.0436C14.6744 15.1445 14.7249 15.1445 14.7754 15.1445C14.9268 15.1445 15.0783 15.1445 15.1792 15.094C15.1792 15.094 15.1792 15.094 15.2297 15.094C15.5326 15.094 15.7345 14.8921 15.9364 14.7911C16.2898 14.6397 16.6432 14.4378 16.9461 14.1854C16.9966 14.1349 17.047 14.1349 17.0975 14.1349C17.4509 14.0339 17.7033 13.731 18.0062 13.5291C18.1072 13.4281 18.2081 13.3272 18.3596 13.2262C18.511 13.1252 18.612 12.9738 18.612 12.7719C18.6624 12.7719 18.7129 12.7719 18.7634 12.7719C18.8139 12.7719 18.8644 12.7214 18.8644 12.6204C18.8644 12.5195 18.8139 12.5195 18.7129 12.5195C18.7634 12.469 18.7634 12.4185 18.8139 12.4185C19.0663 12.2671 19.3187 12.0147 19.6216 11.9137C19.874 11.8127 20.0255 11.6613 20.2779 11.6108C20.3284 11.6108 20.3284 11.5603 20.3284 11.5603C20.4798 11.4089 20.6312 11.3079 20.8836 11.3079C20.9846 11.005 21.2875 11.0555 21.4894 10.9545C21.5399 11.005 21.4894 11.0555 21.4894 11.0555C21.4894 11.0555 21.4894 11.0555 21.4389 11.0555C21.2875 11.3584 20.9846 11.5098 20.6817 11.6613C20.6312 11.7118 20.5808 11.7622 20.5303 11.8127C20.4293 11.8632 20.3788 11.9642 20.2779 11.9642C20.1769 12.0147 20.0759 12.1156 20.0255 12.1661C19.975 12.2166 19.874 12.3175 19.874 12.469C19.9245 12.469 19.9245 12.5195 19.975 12.5195C20.1769 12.5195 20.3788 12.4185 20.5303 12.3175C20.7827 12.0651 21.0856 11.9137 21.3885 11.7118C21.5904 11.5603 21.7923 11.4594 21.9942 11.3584V11.4089C21.9942 11.4089 22.0447 11.4089 22.0952 11.4089C22.0952 11.4089 22.0952 11.4089 22.0952 11.3584L22.0447 11.3079H21.9942C22.0447 11.2574 22.0447 11.2069 22.0952 11.2069C22.2971 11.1565 22.4486 11.005 22.5495 10.8536C22.6505 10.7021 22.7515 10.6012 22.8524 10.5507C22.9534 10.5002 23.0544 10.3992 23.1553 10.2983C23.1553 10.2983 23.1553 10.2478 23.2058 10.1973C23.1553 10.1973 23.1048 10.1973 23.0544 10.1973C22.8524 10.2983 22.6505 10.3488 22.4991 10.4497C22.4486 10.5002 22.3476 10.5507 22.2971 10.6012C22.1457 10.7526 21.9438 10.8536 21.7418 10.9041H21.6914C21.7418 10.7526 21.9438 10.7526 21.9942 10.6012C22.0447 10.5507 22.0952 10.5002 22.0952 10.5002C22.0447 10.3488 22.1457 10.2983 22.2467 10.2478C22.4991 10.1973 22.6505 10.0459 22.8524 9.89442C22.9029 9.84394 23.0039 9.79346 23.0544 9.79346C23.1048 9.79346 23.1553 9.74297 23.1553 9.69249C23.3068 9.49057 23.5087 9.33912 23.7611 9.23816C23.8621 9.18768 23.963 9.08671 24.064 9.03623C24.1145 8.98575 24.165 9.03623 24.2154 9.03623C24.2659 9.03623 24.3669 8.98575 24.4174 8.98575C24.3164 9.08671 24.2659 9.18768 24.165 9.23816C24.2659 9.3896 24.3164 9.44008 24.3669 9.3896C24.5183 9.33912 24.6193 9.23816 24.7707 9.13719C24.8717 9.08671 24.9222 8.98575 25.0736 8.98575C25.0736 8.98575 25.1241 8.98575 25.1241 8.93527C25.2756 8.78382 25.427 8.63238 25.6289 8.53141C25.7299 8.32949 25.8813 8.32949 26.0833 8.32949C26.1338 8.17804 26.0328 8.22852 25.9823 8.17804C26.1337 8.07708 26.2347 7.97611 26.3862 7.92563C26.4871 7.87515 26.5881 7.82467 26.689 7.87515C26.7395 7.87515 26.79 7.87515 26.8405 7.82467C26.891 7.72371 27.0424 7.67322 27.0929 7.57226C27.1434 7.52178 27.1939 7.4713 27.2948 7.52178C27.2443 7.57226 27.2443 7.57226 27.1939 7.62274C27.0929 7.77419 27.1434 7.87515 27.2948 7.97611C27.4463 7.82467 27.6482 7.72371 27.7996 7.57226C28.0016 7.37033 28.2035 7.31985 28.5064 7.37033C28.6073 7.42082 28.7083 7.37033 28.7588 7.26937C28.7588 7.21889 28.7588 7.16841 28.7588 7.11793C28.7083 7.11793 28.6578 7.11793 28.6578 7.11793V7.06744C28.7083 7.01696 28.7588 6.96648 28.8093 6.96648C28.9102 6.916 28.9607 6.86552 29.0617 6.81503C29.1627 6.71407 29.3141 6.61311 29.4655 6.56263C29.617 6.51214 29.718 6.46166 29.8694 6.41118C30.0208 6.3607 30.0713 6.20925 30.1723 6.10829C30.2733 6.05781 30.3742 5.95685 30.4752 5.95685C30.6771 5.90636 30.8286 5.75492 30.9295 5.60347C31.1314 5.8054 31.1819 5.8054 31.3334 5.60347C31.3334 5.55299 31.3838 5.55299 31.3838 5.55299C31.3838 5.55299 31.3839 5.60347 31.4343 5.60347L31.4848 5.55299C31.5858 5.45203 31.6867 5.40155 31.7877 5.30058C31.9391 5.19962 32.0906 5.19962 32.242 5.19962C32.2925 5.19962 32.343 5.2501 32.343 5.30058C32.3935 5.35107 32.444 5.45203 32.4944 5.55299C32.444 5.65396 32.444 5.75492 32.3935 5.85588C32.3935 5.90636 32.444 6.00733 32.5449 5.95685C32.5954 5.95685 32.5954 5.95685 32.6459 5.90636C32.7973 5.8054 32.9488 5.70444 33.0497 5.60347C33.1507 5.45203 33.3022 5.40155 33.4536 5.45203C33.6555 5.30058 33.807 5.14914 34.0594 5.09866C34.2613 4.89673 34.5642 4.79577 34.7661 4.54336C34.7661 4.59384 34.8166 4.64432 34.8166 4.6948C34.8671 4.74529 34.9176 4.74528 35.0185 4.79577C35.17 4.74528 35.3214 4.64432 35.4729 4.59384C35.5233 4.64432 35.5233 4.6948 35.5738 4.74528C35.6243 4.79577 35.7253 4.84625 35.7757 4.79577C35.8767 4.74528 35.9272 4.64432 36.0282 4.6948C35.8767 4.89673 35.6748 5.04818 35.4224 5.09866C35.17 5.14914 34.968 5.30058 34.7661 5.40155C34.7156 5.45203 34.6147 5.50251 34.6147 5.55299C34.5642 5.75492 34.4632 5.8054 34.3118 5.85588C34.1099 5.95685 33.9079 6.10829 33.8574 6.41118C33.8574 6.51215 33.9079 6.56263 34.0089 6.56263C34.1603 6.56263 34.2613 6.51214 34.4128 6.51214C34.4632 6.46166 34.5137 6.3607 34.5642 6.31022C34.7156 6.05781 34.968 5.95685 35.2709 5.95685C35.3214 5.95685 35.4224 5.95685 35.4729 5.90636C35.5233 5.85588 35.5233 5.8054 35.5738 5.70444C35.5738 5.65396 35.5738 5.65396 35.5738 5.60347C35.6243 5.60347 35.6243 5.60347 35.6748 5.60347C35.8767 5.70444 36.0282 5.60347 36.1796 5.45203C36.2301 5.40155 36.2301 5.35107 36.2806 5.30058C36.331 5.2501 36.3311 5.19962 36.3815 5.19962C36.6844 5.09866 36.7349 4.74529 36.9368 4.59384V4.49288C36.9368 4.49288 36.8359 4.44239 36.8359 4.49288C36.7349 4.54336 36.6339 4.59384 36.5835 4.6948C36.533 4.74529 36.4825 4.79577 36.432 4.84625C36.3311 4.74529 36.2301 4.6948 36.1796 4.59384C36.3815 4.44239 36.6339 4.34143 36.7854 4.1395C36.8359 4.08902 36.8864 4.08902 36.9873 4.03854C37.1388 3.93758 37.2902 3.83661 37.4417 3.78613C37.5426 3.73565 37.5931 3.63469 37.7445 3.68517L37.8455 3.63469C37.896 3.53372 37.9465 3.38228 37.997 3.28132C38.0474 3.23083 38.1484 3.23083 38.1989 3.18035C38.2998 3.07939 38.2998 2.97843 38.3503 2.87746C38.4513 2.87746 38.5522 2.82698 38.6027 2.7765C38.6027 2.87746 38.6532 2.97843 38.6027 3.07939C38.5522 3.28132 38.6532 3.43276 38.8046 3.63469C38.9056 3.78613 39.0066 3.8871 39.1075 4.03854C39.2085 4.03854 39.3095 4.03854 39.36 3.93758C39.4609 3.78613 39.5619 3.63469 39.7133 3.48324C39.8648 3.48324 39.8648 3.68517 39.9657 3.73565C40.0667 3.73565 40.1677 3.73565 40.3191 3.73565C40.3696 3.93758 40.4705 4.08902 40.3191 4.29095C40.2686 4.34143 40.3191 4.39191 40.2686 4.4424C40.4201 4.54336 40.5715 4.49288 40.6725 4.49288C40.723 4.54336 40.7734 4.59384 40.8239 4.64432C40.9249 4.89673 41.1773 4.89673 41.3792 4.84625C41.5307 4.79577 41.7326 4.79577 41.884 4.79577C41.985 4.79577 42.1364 4.74529 42.1869 4.6948C42.3384 4.54336 42.4898 4.44239 42.5403 4.24047C42.5908 4.08902 42.7927 3.93758 42.8937 3.83661C43.1966 3.83661 43.247 4.08902 43.449 4.18999C43.348 4.24047 43.247 4.34143 43.1966 4.39191C43.1966 4.49288 43.247 4.59384 43.0956 4.6948C43.0451 4.74529 43.0451 4.79577 43.0956 4.89673C43.1461 4.99769 43.1966 4.99769 43.2975 4.99769C43.3985 4.99769 43.449 4.94721 43.5499 4.94721C43.7519 4.89673 43.8528 4.79577 43.9538 4.64432C44.0043 4.54336 44.0547 4.49288 44.1052 4.4424C44.2062 4.34143 44.2062 4.24047 44.3072 4.08902C44.4081 4.03854 44.5091 4.03854 44.6605 3.98806C44.6605 3.78613 44.812 3.63469 45.0139 3.58421C45.1149 3.58421 45.1654 3.53372 45.2663 3.48324C45.5187 3.38228 45.5692 3.3318 45.6197 3.02891C45.5187 2.92794 45.4178 2.87746 45.2663 2.7765C45.3168 2.62505 45.3168 2.47361 45.3673 2.37265C45.2663 2.27168 45.1654 2.2212 45.0644 2.17072C44.9634 2.12024 44.812 2.06975 44.711 2.01927C44.5596 1.96879 44.4586 1.96879 44.2567 1.91831C44.2062 1.86783 44.1557 1.81735 44.1052 1.81735C44.0547 1.76686 44.0043 1.76686 43.9538 1.71638C43.9538 1.61542 43.9538 1.51446 43.9033 1.41349C44.1052 1.36301 44.3072 1.36301 44.4586 1.51446C44.4586 1.51446 44.5091 1.56494 44.5596 1.56494C44.711 1.51446 44.812 1.61542 44.9129 1.71638C44.9634 1.76686 45.0644 1.76686 45.1149 1.81735C45.2663 1.81735 45.4178 1.86783 45.5692 1.86783C45.6197 1.86783 45.6702 1.86783 45.7206 1.86783C45.8721 1.81735 46.0235 1.86783 46.175 1.86783C46.2759 1.86783 46.3264 1.91831 46.4274 2.01927C46.4274 2.12024 46.3769 2.2212 46.3769 2.27168C46.3769 2.32216 46.4779 2.37265 46.5284 2.42313C46.5284 2.47361 46.4779 2.47361 46.4779 2.52409C46.3769 2.62505 46.3264 2.67554 46.4274 2.82698C46.4779 2.92794 46.5284 3.02891 46.5284 3.12987C46.5284 3.3318 46.4779 3.48324 46.4779 3.68517C46.5284 3.73565 46.6798 3.78613 46.6798 3.93758C46.6798 3.98806 46.7303 4.03854 46.7808 4.03854C46.9322 4.08902 47.0332 4.18999 47.0837 4.29095C47.1341 4.34143 47.1846 4.39191 47.2351 4.34143C47.3361 4.34143 47.3361 4.24047 47.3361 4.18999C47.3361 4.1395 47.3361 4.03854 47.2856 3.98806C47.2856 3.93758 47.2856 3.8871 47.2351 3.78613C47.4875 3.68517 47.639 3.78613 47.8409 3.8871C47.9419 3.93758 47.9923 4.03854 48.0933 4.1395C48.0933 4.29095 48.0933 4.29095 48.2952 4.49288C48.5981 4.34143 48.901 4.18999 49.2039 3.98806C49.2544 3.98806 49.3553 4.03854 49.4058 4.03854C49.6077 4.08902 49.6582 4.03854 49.7592 3.8871C49.7592 3.83661 49.8097 3.78613 49.8097 3.73565C49.9611 3.73565 50.163 3.73565 50.264 3.48324C50.3145 3.58421 50.3145 3.63469 50.3145 3.63469C50.264 3.83661 50.264 4.08902 50.1126 4.29095C50.0621 4.34143 50.0621 4.39191 50.0621 4.4424C49.9611 4.6948 49.9611 4.89673 50.0621 5.14914C50.0621 5.2501 50.163 5.30058 50.2135 5.40155C50.163 5.65396 50.0621 5.85588 49.9106 6.05781C49.8097 6.20925 49.7087 6.41118 49.6582 6.56263C49.6077 6.76455 49.5573 6.916 49.4058 7.06744C49.3553 7.11793 49.3049 7.21889 49.3049 7.31985C49.2544 7.52178 49.4058 7.7237 49.4058 7.92563C49.4058 8.0266 49.5068 8.12756 49.6582 8.22852L49.7087 8.279C49.7592 8.53141 49.7087 8.73334 49.6582 8.98575C49.6582 9.08671 49.5573 9.18768 49.4563 9.23816C49.3553 9.28864 49.2544 9.33912 49.1029 9.44008C48.8505 9.59153 48.6991 9.79346 48.6991 10.0963C48.6991 10.1468 48.6991 10.1468 48.6991 10.1973C48.6991 10.1973 48.6991 10.1973 48.6991 10.2478C48.8 10.2983 48.901 10.3992 49.002 10.4497C48.901 10.6012 48.8 10.7021 48.7496 10.8031C48.7496 10.9545 48.901 10.9545 48.9515 11.0555C48.9515 11.106 48.901 11.106 48.901 11.1565V11.106C48.8505 11.1565 48.7495 11.1565 48.6991 11.1565C48.6486 11.1565 48.6486 11.1565 48.5981 11.1565C48.5981 11.2069 48.5981 11.2069 48.5981 11.2574C48.5476 11.4089 48.3962 11.3584 48.3457 11.5098C48.3457 11.5603 48.3457 11.6613 48.4467 11.7118C48.5981 11.7622 48.6991 11.7118 48.8505 11.6613C48.901 11.6108 48.901 11.6108 48.9515 11.5603C49.0524 11.3584 49.2039 11.1565 49.3049 11.005C49.4058 10.8536 49.5573 10.7526 49.7087 10.6516C49.8097 10.6012 49.9106 10.6012 50.0116 10.6516C50.0621 10.6516 50.0621 10.6012 50.1126 10.6012L50.163 10.6516C50.1126 10.9041 50.264 11.0555 50.3145 11.2574C50.264 11.3079 50.264 11.3079 50.2135 11.3584C50.1126 11.4089 50.163 11.5098 50.163 11.6108C50.0621 11.6613 49.9611 11.6613 49.9106 11.8127C49.9106 11.8127 49.8602 11.8127 49.8602 11.8632C49.8602 11.8632 49.8601 11.8632 49.9106 11.8632C49.9106 11.8632 49.9106 11.8127 49.9611 11.8127C50.0116 11.8127 50.0621 11.8632 50.1126 11.8632C50.0621 11.9137 50.0116 11.9642 49.9611 12.0147C49.9106 12.0651 49.9106 12.1156 49.9106 12.2166C49.9106 12.3175 49.9106 12.469 49.7592 12.5195C49.7087 12.57 49.6582 12.6204 49.6582 12.6709C49.7087 12.7719 49.7592 12.8728 49.8602 12.9738C49.8602 12.9738 49.8097 12.9738 49.8097 13.0243V12.9738C49.8602 12.9738 49.8601 12.9738 49.9106 13.0243C49.9611 13.0748 50.0116 13.0748 50.0621 12.9738C50.0621 12.9738 50.1126 12.9738 50.1126 12.9233C50.1126 12.9738 50.0621 13.0748 50.0621 13.1252C50.0116 13.1757 49.9611 13.2262 49.9611 13.2767C50.0621 13.4786 50.0621 13.4786 49.9611 13.6301C49.9106 13.731 49.9106 13.8825 49.8097 13.933C49.7592 13.9834 49.8601 14.1349 49.9106 14.0844C50.0116 14.0339 50.163 14.0844 50.2135 14.1349C50.2135 14.1854 50.2135 14.2863 50.2135 14.3368C50.163 14.3368 50.163 14.3368 50.1126 14.3368C50.0116 14.2863 49.9106 14.2358 49.8097 14.3873C49.8097 14.4378 49.8602 14.4378 49.8602 14.5387C49.7592 14.5892 49.6582 14.6397 49.5068 14.6902C49.5068 14.8416 49.6077 14.8921 49.6582 14.9426C49.6582 14.9931 49.6582 15.094 49.6582 15.1445C49.6582 15.195 49.6077 15.195 49.6077 15.195C49.4563 15.296 49.4058 15.4979 49.4058 15.6998C49.4058 15.8008 49.5573 15.8513 49.6077 15.8008C49.7592 15.6493 50.0116 15.6493 50.2135 15.5989C50.3145 15.5484 50.3145 15.296 50.5669 15.296C50.5669 15.4979 50.5164 15.6493 50.3145 15.7503C50.365 15.9522 50.6679 15.8008 50.6679 16.0027C50.5164 16.0532 50.365 16.0532 50.264 15.9522C50.2135 15.9017 50.1126 15.9017 50.1126 16.0027C50.163 16.0532 50.2135 16.1037 50.264 16.2046C50.3145 16.2551 50.3145 16.3056 50.365 16.3056C50.6174 16.3056 50.7688 16.558 51.0212 16.6085C51.0717 16.6085 51.1222 16.7094 51.0717 16.7599C50.9707 16.8104 50.9203 16.8609 50.8698 17.0123C50.8698 17.0628 50.8193 17.1638 50.7688 17.2143C51.0717 17.3657 51.3241 17.5172 51.627 17.5172C51.6775 17.5172 51.728 17.5172 51.7785 17.4667C51.9299 17.3657 52.1318 17.2647 52.2833 17.2143C52.3338 17.1638 52.3842 17.1638 52.4347 17.1133C52.5862 16.9619 52.7376 16.9619 52.8891 17.1133C52.9395 17.1638 53.0405 17.2647 53.1415 17.3657C53.1415 17.4162 53.1415 17.5172 53.091 17.6181C53.1415 17.6686 53.1919 17.6686 53.2424 17.7191C53.5958 17.3152 53.9492 16.8609 54.353 16.457C54.454 16.558 54.555 16.659 54.6559 16.7599C54.7569 16.659 54.9083 16.558 54.9588 16.5075C55.0093 16.5075 55.0093 16.5075 55.0598 16.5075C55.1607 16.6085 55.2112 16.659 55.3122 16.7599C55.4131 16.8609 55.5141 16.7599 55.6151 16.8609C55.6656 16.9114 55.817 16.8609 55.918 16.9114C55.9684 17.0123 55.918 17.1133 55.918 17.2647C55.918 17.3657 55.8675 17.4667 55.8675 17.5676C55.8675 17.7696 55.817 17.921 55.6656 18.0725C55.5141 18.4763 55.2112 18.7287 54.9588 19.0316C54.9083 19.0821 54.8578 19.1326 54.8578 19.2335C54.8578 19.4355 54.8074 19.5869 54.6559 19.7384C54.6559 19.7384 54.6559 19.7888 54.6054 19.7888C54.5045 19.9403 54.5549 20.0917 54.7064 20.1422C54.7569 20.1422 54.8074 20.1927 54.8578 20.1927C54.8578 20.2432 54.8074 20.2432 54.8074 20.2936C54.8578 20.4451 54.8578 20.5965 54.8074 20.6975C54.9083 20.8489 55.0598 21.0004 55.1607 21.1518C55.3122 21.1518 55.4636 21.1518 55.6656 21.2528C55.6656 21.3033 55.6656 21.3538 55.6151 21.4042C55.5646 21.4547 55.4636 21.5557 55.4131 21.6062C55.3122 21.7071 55.2617 21.8081 55.2617 21.9091C55.3122 21.9595 55.3627 22.01 55.4636 22.0605C55.4131 22.1615 55.3627 22.212 55.3627 22.2624C55.3627 22.3634 55.5646 22.5148 55.6656 22.5148C55.716 22.5148 55.7665 22.5148 55.7665 22.4644C55.8675 22.3129 56.0694 22.3129 56.2208 22.3634C56.3218 22.4139 56.4733 22.4139 56.5742 22.4644C56.6247 22.4139 56.7257 22.3634 56.7761 22.3129C56.9276 22.3634 56.9781 22.4644 57.0285 22.5148C57.0285 22.6158 56.9276 22.6158 56.8771 22.6663C56.7257 22.8177 56.6247 22.9692 56.3723 22.9692C56.3218 22.9692 56.2713 23.0197 56.2208 23.0701C56.1199 23.1711 56.0189 23.2216 55.918 23.3226C55.8675 23.373 55.817 23.474 55.7665 23.5245C55.7665 23.6759 55.9684 23.6254 55.8675 23.7769C55.918 23.7769 55.9179 23.8274 55.9684 23.8274C56.1199 23.8274 56.2713 23.7769 56.3723 23.6759C56.6247 23.5245 56.8266 23.373 57.1295 23.3226C57.4324 23.2721 57.6848 23.1206 57.9372 22.9187C58.0382 22.8682 58.1391 22.8177 58.2401 22.7673C58.3916 22.7168 58.4925 22.7168 58.644 22.6663C58.7449 22.6158 58.7954 22.6158 58.8964 22.6158C58.8964 22.6663 58.8459 22.7168 58.8964 22.7168C59.0478 22.8682 59.0983 23.1206 59.3507 23.2216C59.5022 23.2216 59.6536 23.2216 59.7041 23.0701C59.7546 22.9187 59.7546 22.8177 59.5526 22.6158C59.6536 22.5653 59.7041 22.5148 59.805 22.6158C59.8555 22.6663 59.906 22.7168 59.9565 22.7168C60.007 22.7673 60.0575 22.8177 60.1079 22.8682C60.1079 22.9692 60.1079 23.0701 60.1079 23.1711C60.1079 23.2721 60.1079 23.373 60.2089 23.474C60.2594 23.5245 60.2594 23.575 60.3099 23.6254C60.4108 23.8274 60.4613 24.0293 60.4613 24.2817C60.4108 24.6351 60.3603 24.9884 60.2594 25.2913C60.1584 25.6447 60.1079 25.9476 60.0575 26.301C60.007 26.4524 59.9565 26.6039 59.906 26.7553C59.7546 27.0582 59.6536 27.3611 59.5022 27.664C59.4012 27.9669 59.1993 28.2698 59.0983 28.5222C58.8964 28.926 58.5935 29.2289 58.3411 29.5823C58.1896 29.8347 57.9877 30.0871 57.8867 30.3395C57.7353 30.6424 57.4829 30.8948 57.281 31.1472C57.0285 31.3996 56.8771 31.652 56.7257 31.9549C56.7257 32.0054 56.6752 32.0054 56.6752 32.0559C56.6247 32.3588 56.6247 32.3588 56.4732 32.5607C56.4732 32.6112 56.5237 32.6617 56.5237 32.6617C56.5742 32.7626 56.5742 32.8636 56.4732 32.9646C56.3723 33.0655 56.2713 33.217 56.2208 33.3684C56.1704 33.4694 56.1704 33.5199 56.2208 33.6208C56.2713 33.7218 56.2209 33.8228 56.1704 33.8732C56.0694 33.9742 56.0189 34.0752 55.918 34.1761C55.716 34.378 55.4636 34.58 55.2112 34.6809C55.1607 34.6809 55.1607 34.7314 55.1103 34.7314C54.9083 34.7819 54.7569 34.9333 54.6054 35.0343C54.454 35.1858 54.2521 35.2867 54.1006 35.4382C53.8482 35.6401 53.5958 35.7915 53.4443 36.0439C53.1919 36.1449 53.091 36.3468 52.8891 36.4983C52.6871 36.6497 52.5357 36.8012 52.3842 36.9526C52.1318 37.205 51.8794 37.4574 51.627 37.7098C51.4251 37.9118 51.1727 38.1137 50.9707 38.3661C50.9203 38.4671 50.7688 38.4671 50.7183 38.6185C50.6679 38.7195 50.5669 38.8204 50.4659 38.9214C50.365 39.0224 50.3145 39.1233 50.2135 39.2243C50.163 39.2748 50.1126 39.3253 50.0621 39.3757C49.8097 39.5777 49.6582 39.8301 49.4563 40.032C49.1029 40.5873 48.5476 40.9407 48.0933 41.3445C47.7904 41.5969 47.4875 41.8493 47.1846 42.1017C47.1341 42.2532 46.9322 42.2532 46.8313 42.4046C46.7808 42.5561 46.5788 42.6066 46.4779 42.7075C46.3769 42.8085 46.2255 42.9095 46.1245 43.0104C46.0235 43.1114 45.9226 43.2123 45.8721 43.3133C45.7206 43.5657 45.5187 43.7676 45.3168 43.9191C45.0139 44.1715 44.7615 44.4239 44.4586 44.6258C44.4586 44.8278 44.4081 44.9792 44.2567 45.0802C43.9538 45.3326 43.6509 45.6355 43.348 45.8879C43.2975 45.8879 43.2975 45.9384 43.2471 45.9384C42.9442 46.1908 42.5908 46.4432 42.2879 46.6956C42.0355 46.8975 41.7831 47.0994 41.5307 47.2509C41.4297 47.2509 41.4297 47.3518 41.3792 47.4023C41.3287 47.3518 41.3287 47.3518 41.2783 47.4023C41.2783 47.4528 41.2783 47.4528 41.2783 47.5033C40.9249 47.8062 40.5715 48.0586 40.1677 48.3615C39.7133 48.7149 39.3095 49.1187 38.8046 49.4216C38.7037 49.4721 38.6027 49.6235 38.5018 49.7245C38.4008 49.8255 38.3503 49.8759 38.2494 49.9264C38.1484 50.0274 37.9969 50.0779 37.8455 50.1788C37.5426 50.4312 37.1892 50.6332 36.8359 50.8856C36.533 51.0875 36.2301 51.3399 35.9272 51.5418C35.7253 51.6933 35.5233 51.8447 35.2709 51.9457C35.17 51.9962 35.0185 52.0466 34.9176 52.0971C34.8671 52.1476 34.7661 52.1476 34.7661 52.1981C34.7156 52.3495 34.6147 52.3495 34.5137 52.4C34.3118 52.501 34.3118 52.501 34.2108 52.2486C34.2613 52.1476 34.3623 52.0971 34.4128 51.9962C34.5137 51.8447 34.6652 51.7942 34.8671 51.7942C34.9176 51.7942 35.0185 51.7942 35.069 51.7438C35.3214 51.5418 35.5233 51.3904 35.7253 51.1885C35.7253 51.1885 35.7253 51.1885 35.7757 51.138C35.7757 51.037 35.7758 50.9865 35.7253 50.8856C35.6748 50.8856 35.6748 50.8856 35.6243 50.8856C35.2205 51.0875 34.8671 51.2894 34.4632 51.4913C34.2108 51.6428 33.9584 51.6933 33.706 51.8447C33.5041 51.9457 33.3022 52.0466 33.1002 52.1476C32.9993 52.1981 32.9488 52.1981 32.8478 52.2486C32.8478 52.1981 32.8478 52.1981 32.8478 52.1476C32.8478 52.0971 32.8478 52.0466 32.7973 52.0466C32.7468 51.9962 32.6964 51.9962 32.6459 51.9962C32.5954 51.9962 32.5449 52.0466 32.4944 52.0466C32.242 52.1476 32.0401 52.2486 31.7372 52.1476C31.7372 52.1981 31.6867 52.2991 31.6867 52.3495C31.3334 52.501 30.98 52.6524 30.5761 52.8544C30.5257 52.9048 30.4247 52.9048 30.3237 52.9048C30.2228 52.9048 30.1723 52.8544 30.0713 52.8544C30.0208 52.8544 29.9199 52.9048 29.8189 52.9048C29.8694 52.8544 29.8694 52.8039 29.8694 52.7534C29.9199 52.6524 29.9704 52.6019 29.9199 52.501C29.8694 52.4505 29.8694 52.3495 29.9199 52.2991C30.0713 52.1476 30.0208 52.0466 29.9704 51.8952C29.9704 51.8447 29.9704 51.7942 29.9199 51.7438C29.8189 51.6428 29.6675 51.6428 29.516 51.5923C29.4655 51.5923 29.4151 51.5923 29.3646 51.6428C29.2131 51.6933 29.1122 51.7438 29.0112 51.8447C28.9607 51.8447 28.8598 51.8952 28.8093 51.8952C28.7083 51.8952 28.7083 51.8952 28.6074 51.6933C28.7588 51.5418 28.8598 51.3904 28.7588 51.1885C28.6578 50.9865 28.5569 50.7846 28.254 50.8351C28.4054 50.7341 28.4559 50.6836 28.5064 50.5827C28.6073 50.4312 28.5569 50.2798 28.4054 50.2798C28.254 50.2798 28.0521 50.2798 27.9006 50.3807C27.7492 50.4312 27.6482 50.5322 27.4968 50.6332C27.4463 50.6332 27.3958 50.6332 27.2948 50.5827C27.2948 50.5322 27.2443 50.5322 27.2443 50.5322C27.2948 50.3303 27.2948 50.1788 27.3453 49.9769C27.1434 49.9264 27.0424 49.775 26.9919 49.573C26.9919 49.5226 26.9919 49.4216 27.0424 49.4216C27.1434 49.3206 27.1434 49.1692 27.1434 49.0177C27.0929 48.9673 27.0424 48.9168 26.9919 48.8663C26.5376 48.9673 26.1337 49.1187 25.7299 49.3206C25.6289 49.3711 25.4775 49.4721 25.3765 49.5226C25.326 49.4721 25.326 49.4216 25.3765 49.4216C25.4775 49.3711 25.528 49.3206 25.6289 49.2702C25.7804 49.1692 25.8813 49.0682 25.8813 48.9168C25.8309 48.8663 25.7804 48.7653 25.7299 48.7149C25.7299 48.6644 25.7299 48.5634 25.7804 48.5129C25.8813 48.412 25.8813 48.311 25.8309 48.21C25.8309 48.1596 25.8309 48.1091 25.8309 48.0586C25.9318 48.0081 26.0328 47.9071 26.0833 47.8567C26.1842 47.8062 26.2347 47.7052 26.2347 47.6043C26.2347 47.5033 26.1842 47.4528 26.0833 47.3518C25.9318 47.4023 25.7804 47.4528 25.7299 47.6043C25.6794 47.7557 25.528 47.8567 25.3765 47.8567C25.1746 47.8567 25.0736 48.0081 25.0231 48.1596C24.9222 48.21 24.8717 48.21 24.7707 48.2605C24.6698 48.2605 24.6193 48.311 24.5183 48.412C24.4174 48.5129 24.3164 48.5634 24.165 48.6139C23.8116 48.8158 23.4582 48.9673 23.1049 49.1692C23.0039 49.2197 22.9534 49.3206 22.8524 49.3711C22.7515 49.4216 22.701 49.5226 22.6 49.4721C22.5496 49.4721 22.4991 49.5226 22.4991 49.5226C22.3476 49.775 22.0447 49.8759 21.8428 50.0274C21.4894 50.2798 21.1361 50.4817 20.7827 50.6836C20.6817 50.7341 20.5808 50.8351 20.4798 50.9361C20.4293 50.9865 20.3284 51.0875 20.2779 51.138C20.2274 51.1885 20.1769 51.1885 20.1769 51.2894C20.1769 51.3399 20.1264 51.3904 20.0759 51.3904C19.9245 51.4409 19.7226 51.4913 19.5206 51.5418C19.3187 51.5923 19.1673 51.6428 19.0158 51.7438C18.9149 51.7942 18.8139 51.8952 18.6625 51.8952C18.6625 51.8447 18.6625 51.7942 18.7129 51.6933C18.41 51.5923 18.1576 51.4913 17.8547 51.6933C17.8043 51.6428 17.7033 51.5923 17.6528 51.5418C17.5519 51.5418 17.4509 51.5923 17.4004 51.6428C17.3499 51.6933 17.249 51.6933 17.1985 51.6428C17.0975 51.5923 17.047 51.5923 16.9461 51.6428C16.7946 51.6933 16.6937 51.7438 16.5422 51.6933C16.4413 51.5923 16.4413 51.4913 16.4917 51.3904C16.5422 51.1885 16.5422 51.037 16.4413 50.8351C16.3908 50.7341 16.3908 50.6332 16.4413 50.4817C16.5422 50.2293 16.4917 50.1788 16.2898 50.0274C16.2393 49.9769 16.1384 49.9264 16.0879 49.9769C15.9869 49.9769 15.886 50.0274 15.8355 50.0779C15.785 50.0779 15.7345 50.1283 15.684 50.1788C15.3811 50.3303 15.3307 50.2293 15.2297 50.0779C15.1792 50.0274 15.1792 50.0274 15.1287 49.9769C14.8258 49.8759 14.5734 49.8759 14.321 50.0779C14.2705 50.1283 14.2201 50.1283 14.1696 50.1283C13.9677 50.1283 13.8162 50.1788 13.6143 50.2293C13.3619 50.3303 13.16 50.3303 12.958 50.1283C12.8571 50.0779 12.8066 50.0274 12.6551 50.0274C12.5542 50.0274 12.5037 49.9264 12.5542 49.8255C12.6046 49.674 12.7056 49.5226 12.8066 49.4216C12.8571 49.3206 12.8571 49.2197 12.8066 49.1187C12.7561 49.0177 12.7561 48.9168 12.7561 48.8158C12.7056 48.6139 12.6047 48.5129 12.4027 48.5129C12.2008 48.5129 12.0493 48.5634 11.8474 48.5634C11.7465 48.5634 11.696 48.5634 11.595 48.5634C11.4436 48.5129 11.2416 48.5129 11.0902 48.5129C11.0397 48.5129 10.9388 48.5129 10.8378 48.4624C10.6359 48.311 10.4339 48.2605 10.2825 48.0586C10.1815 47.9576 10.0806 47.8567 9.92912 47.8567C9.87864 47.8567 9.82815 47.8062 9.77767 47.7557C9.67671 47.5033 9.72719 47.3014 9.87864 47.1499C9.92912 47.049 9.9796 46.948 10.0301 46.847C10.0806 46.7461 10.1815 46.6451 10.2825 46.5946C10.3834 46.4937 10.4339 46.3927 10.4844 46.1908C10.1815 46.1908 9.87864 46.0898 9.62623 46.3422C9.52527 46.3422 9.47479 46.2917 9.42431 46.2917C9.42431 46.1908 9.42431 46.1403 9.42431 46.0898C9.42431 45.9384 9.47479 45.7869 9.42431 45.6355C9.37382 45.484 9.42431 45.3831 9.47479 45.2316C9.7272 44.8278 10.0301 44.4744 10.2825 44.0705C10.333 43.9696 10.4844 43.9191 10.5349 43.8181C10.6359 43.7172 10.6359 43.6162 10.4844 43.5657C10.4339 43.5152 10.333 43.5152 10.2825 43.5152C9.9796 43.7172 9.87863 44.121 9.52526 44.2725C9.47478 44.1715 9.37382 44.0705 9.32334 43.9696C9.27285 44.0201 9.22238 44.0201 9.1719 44.0705C8.96997 44.2725 8.81852 44.4744 8.6166 44.6258C8.51563 44.7268 8.46514 44.8278 8.51563 44.9792C8.51563 45.0802 8.51563 45.1307 8.51563 45.2316C8.51563 45.2821 8.51563 45.3326 8.56611 45.3831C8.61659 45.484 8.56611 45.5345 8.51563 45.6355C8.46514 45.686 8.36418 45.686 8.3137 45.6355C8.21274 45.5345 8.11177 45.484 8.01081 45.3831C8.06129 45.1811 7.96033 45.0297 8.06129 44.8278C8.06129 44.7773 8.06129 44.6763 8.01081 44.6258C7.90984 44.4744 7.90986 44.2725 7.96034 44.121C7.96034 44.121 7.96034 44.121 7.96034 44.0705C7.80889 43.9696 7.85936 43.8181 7.7584 43.6667C7.70792 43.6667 7.65744 43.6162 7.60696 43.6162C7.30407 43.5152 7.30407 43.5152 7.05166 43.7172C7.00118 43.6162 7.05166 43.5657 7.10214 43.5152C7.25359 43.3638 7.35455 43.2628 7.50599 43.1114C7.7584 42.859 8.01081 42.6066 8.3137 42.3542C8.61659 42.0513 8.91949 41.7989 9.1719 41.496C9.22238 41.4455 9.22238 41.395 9.22238 41.395C9.22238 41.3445 9.17189 41.3445 9.12141 41.3445C9.02045 41.3445 8.91948 41.3445 8.81852 41.395C8.76804 41.395 8.66708 41.395 8.6166 41.4455C8.56611 41.395 8.56611 41.395 8.56611 41.3445C8.51563 41.294 8.46515 41.2436 8.41467 41.1931C8.31371 41.1426 8.21274 41.1931 8.16226 41.2436C8.0613 41.3445 8.01082 41.4455 7.90985 41.5464C7.85937 41.6474 7.75841 41.6979 7.70793 41.7989C7.55649 41.9503 7.40503 42.0513 7.25358 42.2027C7.10214 42.3542 7.05167 42.5561 6.95071 42.7075C6.90022 42.8085 6.84974 42.9095 6.6983 42.9095C6.54685 42.859 6.49636 42.758 6.49636 42.657C6.49636 42.5561 6.54685 42.5056 6.64781 42.4551C6.74878 42.3542 6.84974 42.2532 6.95071 42.1522C7.10215 42.0008 7.20311 41.7989 7.40504 41.7484C7.45552 41.6979 7.50599 41.6474 7.55648 41.5969C7.60696 41.5465 7.65745 41.496 7.70793 41.4455C7.90986 41.395 7.96033 41.2436 8.06129 41.0921C8.16226 40.9912 8.16226 40.8397 8.06129 40.7387C8.01081 40.6378 7.90985 40.5368 7.80888 40.4359C7.70792 40.3349 7.60697 40.3349 7.45552 40.3349C7.35456 40.1834 7.35456 40.032 7.40504 39.8806C7.45552 39.7291 7.55647 39.5272 7.7584 39.4767C7.85936 39.4262 7.90984 39.3757 8.01081 39.3253C8.21274 39.1738 8.36419 39.0728 8.6166 39.0728C8.66708 39.0728 8.71755 39.0224 8.76803 39.0224C9.12141 38.8204 9.47478 38.6185 9.82815 38.4166C10.0301 38.3156 10.1815 38.1642 10.3835 38.0632C10.8378 37.8108 11.2416 37.5079 11.6455 37.205C11.8474 37.0536 12.0494 36.9021 12.2008 36.6497C12.2513 36.5992 12.2513 36.5488 12.2513 36.4478C11.9989 36.3973 11.7465 36.3973 11.5445 36.5992C11.3931 36.7002 11.2921 36.8517 11.0902 36.8012C11.1407 36.7507 11.2416 36.6497 11.2921 36.5992C11.4436 36.4983 11.595 36.3468 11.7465 36.2459C11.9989 36.0439 12.2008 35.7915 12.4532 35.5896C12.6551 35.4382 12.8066 35.2362 12.958 35.0343C13.059 34.8829 13.1599 34.7314 13.3114 34.6305C13.4124 34.5295 13.4124 34.5295 13.4628 34.3276C13.4124 34.2771 13.3619 34.2771 13.2609 34.3276C12.9075 34.5295 12.5542 34.7819 12.2513 35.0848C12.0998 35.2362 11.9484 35.3372 11.8474 35.4886C11.7969 35.5391 11.7465 35.5896 11.696 35.5896C11.4941 35.6906 11.3426 35.842 11.1407 35.9935C10.8883 36.1954 10.6863 36.3973 10.3835 36.5488C10.333 36.4983 10.3835 36.4478 10.3835 36.4478C10.5854 36.2459 10.7873 36.0439 10.9892 35.842C11.0397 35.7915 11.0902 35.7411 11.1912 35.6906C11.4436 35.5391 11.6455 35.3372 11.7465 35.0343C11.7465 34.9838 11.8474 34.8829 11.8979 34.8324C11.8979 34.7819 11.8979 34.7314 11.9484 34.6809C11.8979 34.58 11.7969 34.6305 11.7465 34.6809C11.595 34.7819 11.4436 34.9333 11.3426 35.0343C11.2416 35.1858 11.0902 35.2867 10.9388 35.3372C10.8378 35.3877 10.7368 35.4886 10.6359 35.5391C10.5854 35.5896 10.5349 35.5896 10.4339 35.5896C10.4844 35.4382 10.6359 35.3372 10.6863 35.2362C10.7873 35.1353 10.8883 35.0343 10.8883 34.8829C10.8378 34.8324 10.7873 34.8324 10.7368 34.8829C10.6359 34.9333 10.5854 34.9838 10.5349 35.0343C10.3834 35.1353 10.232 35.2867 10.0301 35.3877C9.92911 35.4382 9.87863 35.4886 9.77767 35.5896C9.57574 35.7411 9.4243 35.8925 9.27285 36.0439C8.91948 36.2964 8.66707 36.5992 8.3137 36.8517C8.26322 36.9021 8.16226 37.0031 8.06129 37.0031C8.01081 37.0031 7.96034 37.0031 7.96034 36.9526C7.90986 36.9021 7.90985 36.8517 7.90985 36.8012C7.90985 36.7507 7.96033 36.7002 8.01081 36.6497C8.3137 36.3973 8.51563 36.0439 8.81852 35.7915C8.91948 35.6906 9.02045 35.5896 9.07093 35.4382C9.12141 35.3372 9.22237 35.2362 9.27285 35.1858C9.37381 35.0848 9.52527 34.9333 9.67671 34.8324C9.82816 34.7314 9.87864 34.58 9.87864 34.378C9.82816 34.3276 9.7272 34.2771 9.67671 34.2266C9.62623 34.2266 9.62623 34.2266 9.57574 34.2771C9.12141 34.6809 8.66708 35.0343 8.21275 35.4382C8.16227 35.4886 8.11178 35.4886 8.06129 35.5391C7.90985 35.6401 7.85938 35.6401 7.70793 35.4382C8.01082 35.1353 8.26322 34.8324 8.36419 34.378C8.31371 34.378 8.26322 34.378 8.26322 34.378C7.96033 34.479 7.7584 34.6809 7.50599 34.8324C7.35455 34.9333 7.25359 35.0343 7.10214 35.0848C7.10214 34.9333 7.30407 34.8324 7.35455 34.7314C7.55648 34.479 7.80889 34.2771 7.96034 33.9742C8.01082 33.8732 8.11178 33.7723 8.16226 33.7218C8.31371 33.5703 8.46515 33.4189 8.41467 33.1665C8.41467 33.0655 8.41467 32.9646 8.41467 32.8636C8.26323 32.6617 8.0613 32.6617 7.85937 32.7626C7.65744 32.8636 7.45551 32.9141 7.25358 32.9141C7.15262 32.9141 7.05167 32.9646 6.95071 33.015C6.79926 33.116 6.59733 33.116 6.44589 32.9646C6.34492 32.9141 6.24396 32.8131 6.19348 32.7626C6.09252 32.6617 5.99155 32.6112 5.89059 32.5102C5.78962 32.5607 5.73914 32.5607 5.68866 32.6112C5.5877 32.7122 5.43624 32.7121 5.2848 32.6617C5.33528 32.5607 5.33529 32.4597 5.38577 32.3588C5.28481 32.2073 5.18385 32.0559 5.18385 31.854C5.18385 31.753 5.13336 31.7025 5.08288 31.6016C5.03239 31.4501 5.0324 31.2987 5.13336 31.1977C5.18384 31.1472 5.23432 30.9958 5.2848 30.9453C5.33528 30.8443 5.23432 30.6929 5.13336 30.6929C5.0324 30.6929 4.93143 30.7434 4.88095 30.7938C4.72951 30.8443 4.62853 30.9453 4.47709 30.9958C4.32564 31.0967 4.1742 31.1472 4.02276 31.1472C3.87131 31.1472 3.71988 31.1472 3.66939 30.9958C3.61891 30.8948 3.46746 30.9453 3.3665 30.8443C3.41698 30.6929 3.46746 30.5414 3.56842 30.4405C3.71987 30.289 3.82083 30.1376 3.77035 29.9357C3.66938 29.8852 3.56842 29.7842 3.46746 29.7337C3.26553 29.6832 3.16458 29.9357 2.91217 29.9861C3.01313 29.8852 3.06361 29.7842 3.11409 29.6832V29.6328C3.06361 29.3804 3.01312 29.3299 2.76071 29.3299C2.71023 29.3299 2.65976 29.3299 2.60928 29.3299C2.55879 29.3299 2.45783 29.3299 2.40735 29.3804C2.30639 29.3299 2.30638 29.2289 2.30638 29.1279C2.30638 29.027 2.35686 28.926 2.30638 28.8755C2.2559 28.7241 2.2559 28.6736 2.35687 28.5727C2.40735 28.5222 2.40735 28.4717 2.40735 28.4212C2.45783 28.2698 2.50831 28.1688 2.65976 28.0678C2.86169 27.9669 3.01313 27.7649 3.16458 27.664C3.16458 27.664 3.16457 27.664 3.11409 27.664C3.26554 27.563 3.41698 27.5125 3.56842 27.3611C3.71987 27.2096 3.87131 27.1087 4.02276 27.0077C4.12372 26.9068 4.22468 26.8563 4.27517 26.6543C4.32565 26.5029 4.4771 26.4524 4.57806 26.4019C4.62854 26.3515 4.7295 26.3515 4.77998 26.301C4.88095 26.2505 4.98191 26.1495 5.08288 26.1495C5.13336 26.1495 5.13336 26.1495 5.18385 26.099C5.43625 25.9476 5.73913 25.7962 5.99154 25.5942C6.04202 25.5437 6.143 25.4933 6.19348 25.4933C6.24396 25.4933 6.24395 25.4933 6.29443 25.4428C6.69829 25.0894 7.20311 24.8875 7.60696 24.5341C7.65744 24.4836 7.70792 24.4331 7.7584 24.3827C7.90984 24.3322 8.01081 24.2312 8.06129 24.0798C8.16226 23.9283 8.26323 23.8274 8.46516 23.7769C8.6166 23.7264 8.71756 23.6759 8.81852 23.575C8.96996 23.4235 9.17189 23.2721 9.37382 23.1206C9.47478 23.0197 9.57575 22.9187 9.62623 22.7673C9.57575 22.7168 9.52527 22.7168 9.47479 22.7673C9.27286 22.8682 9.07093 22.9692 8.869 23.1206C8.71756 23.2216 8.51563 23.3226 8.36419 23.4235C8.31371 23.474 8.16226 23.5245 8.06129 23.5245C7.90985 23.5245 7.80889 23.575 7.70793 23.6254C7.60697 23.6759 7.55649 23.7264 7.45552 23.7769C7.40504 23.7769 7.35455 23.8274 7.30407 23.7769C7.2031 23.7264 7.10214 23.7769 7.10214 23.8778C7.05166 24.0798 6.84974 24.1303 6.6983 24.2312C6.44589 24.1303 6.29444 24.3827 6.09251 24.3827C6.04203 24.3827 6.04202 24.4332 5.99154 24.4332C5.58769 24.7865 5.13335 25.0389 4.7295 25.3418C4.67902 25.3923 4.62854 25.3923 4.57806 25.3923C4.1742 25.3923 3.87132 25.6447 3.61891 25.8971C3.56843 25.9476 3.56842 25.9476 3.51794 25.9981C3.31601 26.0486 3.16457 26.1495 3.01312 26.2505C2.76071 26.4019 2.55879 26.5534 2.30638 26.7048C2.15494 26.8058 2.0035 26.9068 1.90253 27.0582C1.90253 27.1087 1.85204 27.1087 1.75108 27.1592C1.7006 27.1087 1.70061 27.0582 1.65013 27.0077C1.54916 26.8563 1.44819 26.7553 1.29675 26.7048C1.1453 26.7048 1.1453 26.6039 1.19578 26.5029C1.49867 26.099 1.54915 26.0486 2.00349 25.7457C2.2559 25.5437 2.55879 25.3923 2.8112 25.1904C2.96264 25.0894 3.11409 24.9884 3.26553 24.8875C3.31601 24.837 3.3665 24.837 3.41699 24.837C3.46747 24.837 3.56843 24.7865 3.61891 24.736C3.77035 24.5341 4.02275 24.4836 4.22468 24.3827C4.32564 24.3322 4.37613 24.2817 4.47709 24.2312C4.62853 24.0798 4.83046 23.9788 5.03239 23.8778C5.13335 23.8274 5.28481 23.7264 5.38577 23.6759C5.43625 23.6759 5.43624 23.6254 5.48672 23.575C5.8401 23.5245 6.09251 23.2216 6.3954 23.0701C6.54685 23.0197 6.69829 22.8682 6.79925 22.7673C7.05166 22.5653 7.30407 22.3634 7.60696 22.212C7.96033 22.01 8.31371 21.7576 8.66708 21.5557C8.71756 21.5052 8.81852 21.4547 8.869 21.4042C9.17189 21.1518 9.4243 20.9499 9.77767 20.748C9.92911 20.647 10.0301 20.4956 10.0806 20.2936C10.0806 20.2432 10.0806 20.1927 10.0301 20.1422C9.9796 20.0917 9.92912 20.0412 9.87864 19.9908C9.22238 20.3441 8.56612 20.748 7.90985 21.1014C7.80889 21.1518 7.75841 21.2023 7.65745 21.2528C7.45552 21.4042 7.20311 21.5557 6.95071 21.7071C6.6983 21.8586 6.49636 22.01 6.24395 22.1615C6.19347 22.212 6.09251 22.2624 6.04203 22.2624C5.53721 22.5148 5.08288 22.7673 4.62854 23.0701C4.42662 23.2216 4.22468 23.3226 4.02276 23.4235C3.77035 23.575 3.56842 23.7264 3.31602 23.8778C3.06361 24.0293 2.86168 24.1807 2.60928 24.3827C2.45783 24.4836 2.30638 24.5846 2.20541 24.6856C2.00349 24.4332 1.953 24.4332 1.7006 24.4332C1.59963 24.4332 1.54915 24.4332 1.44819 24.4836C1.24626 24.6856 0.943373 24.736 0.741446 24.8875C0.640482 24.9884 0.489034 25.0894 0.438553 25.2409C0.388071 25.3418 0.287111 25.4428 0.236629 25.5437C-0.0157797 25.3923 -0.0662553 25.2409 0.0851898 25.0389C0.135672 24.9884 0.186147 24.938 0.236629 24.8875C0.287111 24.7865 0.337589 24.7865 0.438553 24.736C0.589998 24.6856 0.690964 24.6351 0.741446 24.5341C0.842409 24.4331 0.892894 24.3322 1.04434 24.3322C1.1453 24.3322 1.19578 24.1807 1.24626 24.1303C1.29674 24.0293 1.39771 23.9788 1.49867 23.9788C1.54915 23.9788 1.59964 23.9283 1.59964 23.9283C1.7006 23.7769 1.85204 23.7264 2.00349 23.6254C2.2559 23.5245 2.45783 23.3226 2.65976 23.1711C2.76072 23.0701 2.86167 22.9187 2.96264 22.7673C3.01312 22.7168 3.01313 22.6663 3.06361 22.6158C3.26553 22.4644 3.51794 22.4139 3.77035 22.3634C3.87131 22.3634 3.97228 22.3634 4.02276 22.3129C4.1742 22.2624 4.37613 22.212 4.52757 22.0605C4.7295 21.9091 4.98191 21.7576 5.23431 21.6567C5.38576 21.5557 5.53722 21.5052 5.68866 21.4042C5.84011 21.3033 5.99155 21.2528 6.14299 21.1518C6.29444 21.0509 6.44588 20.9499 6.54684 20.7985C6.59732 20.748 6.59733 20.647 6.59733 20.5965C6.29444 20.5461 6.09251 20.6975 5.89059 20.7985C5.8401 20.8489 5.73914 20.8994 5.68866 20.8994C5.63818 20.9499 5.58769 20.9499 5.53721 20.9499C5.53721 20.8489 5.53721 20.748 5.53721 20.6975C5.68865 20.5965 5.8401 20.4956 5.99154 20.3946C6.0925 20.2936 6.29444 20.3441 6.3954 20.1927C6.59733 20.1422 6.69829 19.9403 6.90022 19.8393C7.10215 19.7384 7.30408 19.6879 7.45552 19.5869C7.60697 19.4859 7.75841 19.385 7.90985 19.284C7.96034 19.2335 8.01081 19.1831 8.06129 19.1831C8.26322 19.1326 8.36419 18.9811 8.41467 18.7792C8.36419 18.7287 8.36418 18.6782 8.3137 18.5773C8.36418 18.4258 8.46515 18.3753 8.56611 18.2744C8.61659 18.2239 8.66708 18.1734 8.71757 18.1734C8.81853 18.1229 8.81852 18.022 8.76803 17.921C8.41466 17.82 8.41467 17.82 8.21275 18.1734C8.46516 18.1734 8.36418 18.2239 8.26322 18.2744ZM54.353 21.4042V21.4547C54.3025 21.4547 54.3025 21.4042 54.353 21.4042C54.4035 21.3538 54.4035 21.3538 54.4035 21.3538C54.353 21.3538 54.353 21.4042 54.353 21.4042ZM44.4586 3.98806C44.3576 3.98806 44.3072 3.98806 44.2062 3.98806C44.1557 3.98806 44.1052 4.03854 44.1052 4.08902C44.1052 4.1395 44.1557 4.1395 44.2062 4.1395C44.3576 4.18999 44.4586 4.1395 44.4586 3.98806C44.5091 3.98806 44.5091 3.98806 44.5091 3.93758C44.5091 3.98806 44.5091 3.98806 44.4586 3.98806ZM8.26322 44.222C8.3137 44.1715 8.36419 44.1715 8.41467 44.121C8.6166 43.9191 8.76805 43.7676 8.96997 43.5657C9.22238 43.3133 9.4243 43.0104 9.77767 42.859C9.87863 42.8085 9.9796 42.657 10.0806 42.5561C10.131 42.5056 10.1815 42.4046 10.232 42.3542C10.4844 42.1017 10.7368 41.8998 11.0397 41.6474C11.0902 41.5969 11.0902 41.5465 11.1407 41.4455C11.0902 41.4455 10.9892 41.4455 10.9892 41.4455C10.9388 41.496 10.8883 41.5465 10.8378 41.5969C10.7873 41.6979 10.7368 41.7484 10.6359 41.7989C10.5349 41.8493 10.4844 41.8998 10.3835 41.9503C10.232 42.0513 10.0806 42.1522 9.92912 42.3037C9.87864 42.5056 9.72719 42.5561 9.57574 42.657C9.52526 42.657 9.47479 42.7075 9.47479 42.758C9.12142 43.1114 8.76805 43.4648 8.46516 43.8181C8.41467 43.8686 8.36418 43.9696 8.3137 44.0705C8.21274 44.121 8.26322 44.1715 8.26322 44.222C8.21274 44.2725 8.21274 44.2725 8.26322 44.222C8.21274 44.2725 8.26322 44.2725 8.26322 44.222ZM26.1842 48.21C26.1842 48.21 26.1842 48.2605 26.1842 48.21C26.1842 48.2605 26.1842 48.21 26.1842 48.21C26.2852 48.1596 26.3357 48.1091 26.4366 48.0586C26.5376 48.0586 26.5881 48.0081 26.6386 47.9576C26.9919 47.7052 27.3958 47.5538 27.7996 47.4023C27.8501 47.4023 27.9006 47.3518 27.9511 47.3014C28.052 47.2004 28.153 47.1499 28.254 47.049C28.3549 46.948 28.3549 46.948 28.254 46.7461C28.2035 46.7461 28.1025 46.7461 28.0521 46.7461C28.0016 46.7461 27.9511 46.7461 27.9511 46.7965C27.9006 46.948 27.6987 46.9985 27.5977 47.0994C27.1939 47.3014 26.79 47.5033 26.3862 47.7052C26.2852 47.7557 26.2347 47.8062 26.1338 47.8567C26.0833 47.9071 26.0328 47.9071 25.9823 47.9576C25.9318 48.0081 25.9318 48.0586 25.9823 48.1091C26.1337 48.21 26.1842 48.21 26.1842 48.21ZM25.2251 9.99538C25.326 9.89442 25.4775 9.79346 25.5785 9.69249C25.6289 9.64201 25.6794 9.59153 25.7299 9.59153C26.0328 9.49057 26.2347 9.23816 26.4366 9.03623C26.5376 8.98575 26.5881 8.88479 26.689 8.8343C26.9919 8.73334 27.2443 8.48093 27.4968 8.279C27.6482 8.17804 27.7996 8.0266 27.9511 7.87515C28.0016 7.82467 28.0016 7.77419 27.9511 7.72371C27.9511 7.67322 27.8501 7.62274 27.7996 7.67322C27.6482 7.7237 27.4463 7.82467 27.2948 7.92563C27.1939 8.0266 27.0424 8.12756 26.891 8.22852C26.7395 8.32949 26.6386 8.48093 26.4871 8.53141C26.4366 8.53141 26.3357 8.63238 26.2852 8.68286C26.1842 8.8343 26.0833 8.88478 25.9318 8.93527C25.8309 8.98575 25.7804 8.98575 25.6794 9.08671C25.528 9.23816 25.326 9.3896 25.1746 9.54105C25.1241 9.59153 25.0736 9.64201 25.0231 9.64201C24.7203 9.79346 24.4678 9.9449 24.165 10.0963C23.963 10.1973 23.7611 10.3488 23.5592 10.4497C23.4077 10.5507 23.2058 10.6516 23.1049 10.8031C22.9534 10.9545 22.8019 11.0555 22.6505 11.1565C22.3981 11.3584 22.1457 11.5603 21.8933 11.7118C21.6914 11.8632 21.5399 11.9642 21.338 12.0651C21.237 12.1156 21.1361 12.1661 21.1361 12.2671C21.0856 12.3175 21.0351 12.368 20.9846 12.368C20.6817 12.5195 20.3283 12.6204 20.1264 12.9233C20.0759 12.9738 20.0759 12.9738 20.0255 13.0243C19.7731 13.1757 19.5206 13.3777 19.2682 13.5291C19.2178 13.5796 19.1673 13.6301 19.1168 13.6805C19.1673 13.731 19.2178 13.7815 19.2682 13.7815C19.5206 13.731 19.7226 13.6301 19.9245 13.4786C20.2779 13.2262 20.5808 13.0243 20.9846 12.8224C21.2875 12.6709 21.5399 12.5195 21.7418 12.2671C21.8933 12.0651 22.0952 11.9642 22.3476 11.9137C22.4486 11.9137 22.5496 11.8632 22.6 11.7622C22.701 11.6613 22.7515 11.6613 22.8524 11.6108C23.0544 11.5098 23.2563 11.4089 23.4077 11.3079C23.5592 11.1565 23.7106 11.005 23.9125 10.8536C24.1145 10.7021 24.3669 10.5507 24.5688 10.3488C24.7707 10.2983 25.0231 10.1468 25.2251 9.99538ZM9.12141 18.3753C9.17189 18.5268 9.22237 18.5268 9.32334 18.5268C9.57574 18.4763 9.87864 18.4258 10.0806 18.1734C10.1815 18.022 10.333 17.921 10.5349 17.921C10.7873 17.921 10.8883 17.7696 11.0397 17.6181C11.0902 17.5676 11.0902 17.5172 11.0902 17.5172C11.0902 17.4667 11.0902 17.4162 11.0902 17.4162C11.0397 17.4162 10.9892 17.3657 10.9892 17.3657C10.6864 17.5172 10.3835 17.6686 10.0806 17.82C10.0301 17.8705 9.9796 17.8705 9.92912 17.8705C9.62623 18.022 9.37382 18.1734 9.12141 18.3753ZM11.0902 19.4859C11.2416 19.6374 11.2416 19.6374 11.3426 19.6374C11.696 19.6374 12.0493 19.4859 12.3522 19.284C12.4027 19.2335 12.4532 19.1831 12.5037 19.0821C12.5542 19.0316 12.5542 18.9811 12.5037 18.9306C12.4532 18.8802 12.4532 18.8802 12.4027 18.8297C12.2008 18.9306 11.9989 18.9811 11.7969 19.0821C11.5445 19.1831 11.3426 19.3345 11.0902 19.4859ZM26.0833 47.2004C26.2347 47.4528 26.2347 47.4528 26.4871 47.3518C26.6386 47.3014 26.79 47.2509 26.9414 47.1499C27.0929 47.049 27.2948 46.948 27.4463 46.847C27.5472 46.7965 27.5977 46.6956 27.5472 46.6451C27.4968 46.5946 27.3958 46.5441 27.2948 46.5946C27.2443 46.5946 27.2443 46.6451 27.1939 46.6451C27.0929 46.6956 26.9919 46.7461 26.8405 46.847C26.689 46.948 26.5376 47.049 26.3357 46.9985C26.2347 47.049 26.1338 47.0994 26.0833 47.2004ZM11.595 17.1133C11.6455 17.1638 11.696 17.1638 11.7465 17.2143C11.9484 17.2647 12.0998 17.2143 12.2513 17.1133C12.3018 17.0628 12.4027 17.0123 12.4532 17.0123C12.6047 17.0123 12.7056 16.9114 12.8066 16.8609L12.8571 16.8104C12.8571 16.7599 12.8571 16.659 12.8571 16.6085C12.8066 16.6085 12.7056 16.6085 12.7056 16.6085C12.5037 16.7094 12.3522 16.7599 12.1503 16.8609C12.0494 16.9114 11.8979 16.9619 11.7969 17.0628C11.696 17.0123 11.6455 17.0628 11.595 17.1133ZM10.232 45.686C10.333 45.7869 10.4339 45.8879 10.5349 45.9384C10.7368 45.8879 10.7873 45.7364 10.8378 45.585C10.8378 45.484 10.8378 45.3831 10.7368 45.3326C10.6359 45.2821 10.5349 45.2316 10.4339 45.2821C10.333 45.3831 10.2825 45.5345 10.232 45.686ZM12.0493 42.1522C11.8474 42.2532 11.696 42.2532 11.595 42.4046C11.4941 42.5056 11.3931 42.6066 11.2921 42.6066C11.0397 42.6066 10.8378 42.758 10.6863 42.9095C10.6863 42.9095 10.6863 42.9599 10.6359 43.0104C10.6863 43.0104 10.7368 43.0104 10.7368 43.0104C10.9388 42.9095 11.0902 42.859 11.2417 42.758C11.3426 42.7075 11.4436 42.6066 11.5445 42.6066C11.696 42.5561 11.7969 42.4551 11.9484 42.3542C11.9989 42.3037 11.9989 42.2532 12.0493 42.1522ZM26.7395 8.12756C26.5376 8.07708 26.3862 8.07708 26.2347 8.17804C26.1337 8.279 26.0833 8.37997 26.0833 8.53141C26.1338 8.53141 26.2347 8.53141 26.2852 8.48093C26.4366 8.43045 26.5376 8.32949 26.7395 8.12756ZM41.6821 4.84625C41.5307 4.79577 41.3792 4.84625 41.2783 4.94721C41.2278 4.94721 41.2783 5.04818 41.2783 5.09866C41.2783 5.14914 41.3287 5.19962 41.3792 5.14914C41.5307 5.14914 41.6316 5.04818 41.6821 4.84625ZM42.7422 5.09866C42.7422 5.04818 42.6413 4.99769 42.5908 4.99769C42.5403 5.04817 42.4898 5.09866 42.4393 5.14914C42.3889 5.19962 42.4393 5.30058 42.4898 5.30058C42.6413 5.35107 42.7422 5.2501 42.7422 5.09866ZM14.0686 15.8008C13.9172 15.7503 13.8162 15.8513 13.6648 15.9017C13.6143 15.9017 13.5133 15.9522 13.5133 16.0027C13.5638 16.1037 13.6143 16.0027 13.6648 16.0027C13.9172 16.0027 14.0181 15.9017 14.0686 15.8008ZM46.1245 17.82C46.0235 17.8705 45.9731 17.8705 45.9226 17.921V18.022C45.9226 18.022 45.9731 18.0725 46.0235 18.0725C46.1245 18.0725 46.1245 17.9715 46.1245 17.82ZM58.1392 22.9692C58.1896 23.0197 58.2401 23.0701 58.2906 23.0701C58.3411 23.0701 58.3916 23.0701 58.3916 23.0197C58.3916 22.9692 58.3916 22.9187 58.3916 22.9187C58.3916 22.9187 58.3411 22.8682 58.2906 22.8682C58.2401 22.9187 58.1896 22.9187 58.1392 22.9692ZM11.595 16.7094C11.4941 16.7094 11.3931 16.7094 11.2921 16.8609C11.494 16.8104 11.4941 16.8104 11.595 16.7094ZM13.4124 16.3561C13.3114 16.2551 13.2104 16.3056 13.1599 16.3561C13.1599 16.3561 13.1599 16.4066 13.1599 16.457C13.1599 16.457 13.2104 16.5075 13.2609 16.5075C13.3114 16.457 13.3619 16.4066 13.4124 16.3561ZM19.0663 12.469C19.0663 12.4185 19.0663 12.4185 19.0158 12.4185H18.9653V12.469C19.0158 12.469 19.0158 12.469 19.0663 12.469ZM27.0424 48.7653L26.9919 48.8158C26.9919 48.8158 26.9919 48.8158 27.0424 48.8158C27.0424 48.8158 27.0424 48.8158 27.0424 48.7653C27.0929 48.8158 27.0424 48.7653 27.0424 48.7653ZM45.9226 2.42313C45.9226 2.42313 45.8721 2.42313 45.8721 2.47361V2.52409H45.9226C45.9731 2.47361 45.9731 2.47361 45.9226 2.42313ZM42.2879 5.2501C42.2879 5.30058 42.2879 5.30058 42.2879 5.2501C42.2374 5.30058 42.2374 5.30058 42.2374 5.30058H42.2879C42.3384 5.30058 42.3384 5.30058 42.2879 5.2501ZM11.0902 34.4285H11.0397C11.0397 34.4285 11.0397 34.4285 10.9892 34.4285C11.0397 34.4285 11.0397 34.479 11.0902 34.4285C11.0902 34.479 11.0902 34.4285 11.0902 34.4285Z" fill="#103055"/>
<path d="M2.60941 21.4043C2.40748 21.5557 2.25603 21.7072 2.00362 21.7072C1.90266 21.7072 1.85218 21.8082 1.75121 21.8586C1.4988 22.0101 1.24639 22.1615 0.943503 22.313C0.842539 22.3634 0.79207 22.4644 0.640625 22.4139V22.3635C0.943515 22.111 1.2464 21.9091 1.54929 21.6062C1.65025 21.6062 1.8017 21.6567 1.90267 21.5557C2.15508 21.4548 2.40748 21.4043 2.60941 21.4043Z" fill="#103055"/>
<path d="M46.2759 0.201965C46.3264 0.201965 46.3768 0.201965 46.3768 0.201965C46.5283 0.35341 46.4273 0.605819 46.5788 0.757264C46.4778 0.959191 46.4778 1.16112 46.3264 1.31256C46.2759 1.26208 46.2759 1.26208 46.2759 1.2116C46.3768 0.908709 46.3264 0.605819 46.2759 0.201965Z" fill="#103055"/>
<path d="M44.0044 0.908691C44.2568 0.908691 44.4587 0.959172 44.6102 0.959172C44.7111 1.06014 44.7111 1.11062 44.6102 1.21158C44.4587 1.21158 44.3073 1.21158 44.1558 1.21158C44.1054 1.1611 44.0549 1.06014 44.0044 0.908691Z" fill="#103055"/>
<path d="M50.4661 11.5098C50.4661 11.7118 50.4661 11.8632 50.3651 12.0146C50.2641 11.9137 50.1632 11.8127 50.0117 11.7622C50.1127 11.5098 50.2641 11.6108 50.4661 11.5098Z" fill="#103055"/>
<path d="M8.56584 45.8871C8.56584 45.8871 8.56584 45.8368 8.51551 45.8368C8.51551 45.7865 8.46519 45.6858 8.56584 45.6355C8.61617 45.6355 8.6665 45.6355 8.6665 45.6355C8.76716 45.6858 8.76716 45.7362 8.71684 45.8368C8.71684 45.9375 8.61617 45.9375 8.56584 45.8871Z" fill="#103055"/>
<path d="M43.247 1.3631C43.348 1.41358 43.3985 1.46406 43.4994 1.56502C43.348 1.56502 43.247 1.56502 43.146 1.56502C43.0956 1.41358 43.247 1.46406 43.247 1.3631Z" fill="#103055"/>
<path d="M9.47439 46.9479C9.52471 47.0486 9.5247 47.0989 9.5247 47.1493C9.47437 47.1996 9.42405 47.2499 9.37372 47.1996C9.27307 47.0989 9.37373 47.0486 9.47439 46.9479Z" fill="#103055"/>
<path d="M17.6528 13.1253C17.7538 13.0243 17.8548 12.9738 17.9557 12.9233L18.0062 12.9738C18.0062 13.0243 17.9557 13.0748 17.9557 13.1757C17.8548 13.1253 17.7538 13.1253 17.6528 13.1253Z" fill="#103055"/>
<path d="M27.9504 6.8656C27.9001 7.01659 27.7994 7.01659 27.6484 7.11724C27.6988 6.96626 27.7994 6.91593 27.9504 6.8656Z" fill="#103055"/>
<path d="M18.4596 12.721C18.4093 12.7713 18.3087 12.7713 18.208 12.7713C18.3087 12.721 18.359 12.6707 18.4093 12.57C18.4093 12.6707 18.4596 12.721 18.4596 12.721Z" fill="#103055"/>
<path d="M50.8193 16.0532C50.92 16.0532 50.9703 16.1035 50.9703 16.2041C50.9703 16.2041 50.9703 16.2545 50.92 16.2545C50.8697 16.2545 50.8697 16.2545 50.8697 16.2041C50.8697 16.1538 50.8193 16.1035 50.8193 16.0532Z" fill="#103055"/>
<path d="M17.6524 52.5513C17.6021 52.6017 17.6021 52.652 17.5015 52.6016V52.5513C17.5518 52.4507 17.6021 52.4507 17.6524 52.5513Z" fill="#103055"/>
<path d="M50.1119 12.1661C50.1119 12.2668 50.1119 12.3675 50.0112 12.4178C49.9609 12.3171 50.1119 12.2668 50.1119 12.1661C50.1119 12.2165 50.1119 12.2165 50.1119 12.1661Z" fill="#103055"/>
<path d="M54.7573 19.8891C54.7573 19.8388 54.7573 19.7381 54.8077 19.6878C54.858 19.7885 54.8077 19.8388 54.7573 19.8891Z" fill="#103055"/>
<path d="M7.15283 44.6763C7.20316 44.6763 7.20315 44.6763 7.25348 44.6763V44.7266H7.20316C7.20316 44.7266 7.20316 44.7266 7.15283 44.6763Z" fill="#103055"/>
<path d="M50.0621 11.1565C50.0621 11.1565 50.1124 11.1565 50.0621 11.1565C50.1124 11.2068 50.1124 11.2572 50.1124 11.2572C50.0621 11.3075 50.0117 11.2571 50.0117 11.2068C50.0117 11.2068 50.0621 11.1565 50.0621 11.1565Z" fill="#103055"/>
<path d="M5.63818 21.1514C5.63818 21.0507 5.6885 21.0004 5.73883 21.0004C5.73883 21.0507 5.63818 21.101 5.63818 21.1514Z" fill="#103055"/>
<path d="M24.3668 8.83423C24.3668 8.88456 24.3668 8.98521 24.2661 8.98521C24.3164 8.93488 24.3668 8.88456 24.3668 8.83423Z" fill="#103055"/>
<path d="M5.73926 21.0002C5.78959 21.0002 5.83992 20.9499 5.89025 20.9499C5.83992 21.0002 5.78959 21.0002 5.73926 21.0002Z" fill="#103055"/>
<path d="M58.896 22.4643V22.4139C58.896 22.4139 58.896 22.4139 58.9463 22.4139C58.896 22.4139 58.896 22.4643 58.896 22.4643Z" fill="#103055"/>
<path d="M58.8961 22.4643C58.8458 22.4643 58.7954 22.5146 58.7451 22.5146C58.7954 22.5146 58.8458 22.4643 58.8961 22.4643Z" fill="#103055"/>
<path d="M10.9888 36.6498C10.9888 36.6498 10.9385 36.6498 10.9888 36.6498C10.9385 36.7001 10.9385 36.7001 10.8882 36.7001C10.9385 36.6498 10.9385 36.6498 10.9888 36.6498Z" fill="#103055"/>
<path d="M31.2324 5.50235C31.2324 5.50235 31.2324 5.45203 31.2828 5.45203C31.2828 5.45203 31.2828 5.50235 31.3331 5.50235C31.2828 5.50235 31.2324 5.50235 31.2324 5.50235Z" fill="#103055"/>
<path d="M28.0015 6.81497C28.0518 6.81497 28.0518 6.76464 28.0015 6.81497C28.0518 6.76464 28.0518 6.76464 28.0518 6.81497C28.0518 6.76464 28.0518 6.81497 28.0015 6.81497Z" fill="#103055"/>
<path d="M49.8604 12.7713C49.8604 12.721 49.9107 12.6707 49.9107 12.6204C49.9107 12.6707 49.9107 12.721 49.8604 12.7713Z" fill="#103055"/>
<path d="M35.8262 4.59358C35.8262 4.54325 35.8765 4.54325 35.8765 4.49292C35.8765 4.54325 35.8765 4.54325 35.8262 4.59358Z" fill="#103055"/>
<path d="M28.9106 6.20914L28.961 6.15881L28.9106 6.20914Z" fill="#103055"/>
<path d="M28.0015 6.815C27.9512 6.86533 27.9512 6.86533 27.9009 6.91566C27.9512 6.86533 28.0015 6.815 28.0015 6.815Z" fill="#103055"/>
<path d="M27.3955 7.31974C27.4458 7.31974 27.4458 7.26941 27.4962 7.26941C27.4458 7.26941 27.3955 7.26941 27.3955 7.31974Z" fill="#103055"/>
<path d="M27.0928 7.52155C27.1431 7.47123 27.1431 7.47123 27.1934 7.4209C27.1431 7.47123 27.1431 7.47123 27.0928 7.52155Z" fill="#103055"/>
<path d="M25.831 8.22852V8.27884C25.7806 8.22851 25.831 8.22852 25.831 8.22852Z" fill="#103055"/>
<path d="M25.1743 8.32947L25.124 8.3798L25.1743 8.32947Z" fill="#103055"/>
<path d="M21.7925 10.601C21.8428 10.601 21.8428 10.601 21.8931 10.601C21.8428 10.5507 21.8428 10.5507 21.7925 10.601Z" fill="#103055"/>
<path d="M48.4463 11.1563L48.396 11.2066C48.396 11.1563 48.396 11.1563 48.396 11.106C48.396 11.1563 48.4463 11.1563 48.4463 11.1563Z" fill="#103055"/>
<path d="M50.1125 12.2165C50.0621 12.1661 50.0621 12.1661 50.1125 12.2165C50.0621 12.1661 50.0621 12.1661 50.1125 12.2165Z" fill="#103055"/>
<path d="M18.612 12.5195C18.5616 12.5195 18.5616 12.5195 18.612 12.5195C18.5616 12.5698 18.5616 12.5698 18.612 12.5195C18.612 12.5698 18.5616 12.5698 18.612 12.5195Z" fill="#103055"/>
<path d="M54.706 19.94C54.7563 19.8896 54.7563 19.8896 54.8066 19.8393C54.7563 19.8896 54.706 19.94 54.706 19.94C54.6556 19.94 54.706 19.94 54.706 19.94Z" fill="#103055"/>
<path d="M7.05131 34.9334L7.00098 34.9837C7.0513 34.9837 7.05131 34.9837 7.05131 34.9334Z" fill="#103055"/>
<path d="M7.00149 35.0344L6.95117 35.0847C6.95117 35.0847 6.95116 35.0344 7.00149 35.0344Z" fill="#103055"/>
<path d="M2.60938 38.8696C2.60938 38.8696 2.60938 38.8222 2.60938 38.8696C2.65681 38.8696 2.60938 38.8696 2.60938 38.8696Z" fill="#103055"/>
<path d="M2.5083 38.9212L2.55863 38.8709C2.55863 38.8709 2.55863 38.9212 2.5083 38.9212Z" fill="#103055"/>
<path d="M41.0255 47.5034C40.9751 47.5537 40.9751 47.5537 40.9248 47.604C40.9248 47.5537 40.9248 47.5537 40.9248 47.5034C40.9751 47.5034 40.9751 47.5034 41.0255 47.5034Z" fill="#103055"/>
<path d="M35.7251 5.09849C35.7251 5.04816 35.7251 5.04816 35.7754 5.04816C35.7754 5.04816 35.7754 5.04816 35.7754 5.09849C35.7754 5.09849 35.7754 5.09849 35.7251 5.09849Z" fill="#103055"/>
<path d="M44.236 10.6011H33.2983V14.6954C34.5904 14.6954 35.638 15.743 35.638 17.0351C35.638 18.3271 34.5904 19.3747 33.2983 19.3747V23.469H37.3926C37.3926 24.7611 38.4402 25.8087 39.7323 25.8087C41.0243 25.8087 42.0719 24.7611 42.0719 23.469H46.1662V12.5313C46.1662 11.4653 45.3021 10.6011 44.236 10.6011Z" stroke="white" stroke-miterlimit="10" stroke-linecap="round" stroke-linejoin="round"/>
<path d="M21.0741 26.9199C22.3661 26.9199 23.4137 27.9675 23.4137 29.2595H27.508V25.1652C28.8001 25.1652 29.8477 24.1177 29.8477 22.8256C29.8477 21.5335 28.8001 20.486 27.508 20.486V16.3917H16.5703C15.5043 16.3917 14.6401 17.2559 14.6401 18.3218V29.2595H18.7344C18.7344 27.9675 19.782 26.9199 21.0741 26.9199Z" stroke="white" stroke-miterlimit="10" stroke-linecap="round" stroke-linejoin="round"/>
<path d="M25.1684 35.6936C25.1684 34.4015 26.216 33.3539 27.508 33.3539V29.2596H23.4137C23.4137 27.9676 22.3661 26.92 21.0741 26.92C19.782 26.92 18.7344 27.9676 18.7344 29.2596H14.6401V40.1973C14.6401 41.2634 15.5043 42.1275 16.5703 42.1275H27.508V38.0332C26.216 38.0332 25.1684 36.9856 25.1684 35.6936Z" stroke="white" stroke-miterlimit="10" stroke-linecap="round" stroke-linejoin="round"/>
<path d="M33.9411 31.5992C32.649 31.5992 31.6014 30.5516 31.6014 29.2596H27.5071V33.3539C26.2151 33.3539 25.1675 34.4015 25.1675 35.6935C25.1675 36.9856 26.2151 38.0332 27.5071 38.0332V42.1275H38.4448C39.5109 42.1275 40.375 41.2633 40.375 40.1973V29.2596H36.2807C36.2807 30.5516 35.2331 31.5992 33.9411 31.5992Z" stroke="white" stroke-miterlimit="10" stroke-linecap="round" stroke-linejoin="round"/>
</svg>
