<svg width="61" height="53" viewBox="0 0 61 53" fill="none" xmlns="http://www.w3.org/2000/svg">
<path d="M8.26322 18.2743C8.3137 18.2238 8.36419 18.1229 8.41467 18.0219C8.31371 18.0219 8.21274 18.0219 8.11178 18.0219C8.16226 17.9209 8.21275 17.8705 8.21275 17.7695C8.36419 17.6685 8.51563 17.7695 8.6166 17.5676C8.6166 17.4666 8.46515 17.5171 8.41467 17.4666C8.36419 17.4161 8.36418 17.3657 8.3137 17.2647C8.41467 17.2142 8.46515 17.1637 8.56611 17.1637C8.71756 17.1637 8.76804 17.1132 8.869 17.0628C9.07093 16.9618 9.22238 16.8104 9.47479 16.6589C9.42431 16.6084 9.4243 16.5075 9.37382 16.457C9.47478 16.4065 9.57575 16.356 9.62623 16.3055C9.67671 16.3055 9.67672 16.2551 9.7272 16.2551C9.97961 16.3055 10.0806 16.1036 10.1815 15.9522C10.232 15.9017 10.232 15.8512 10.2825 15.8512C10.5854 15.6998 10.8883 15.8007 11.1912 15.7502C11.2416 15.7502 11.2921 15.8007 11.3426 15.8007C11.595 15.9017 11.7969 15.8512 11.9989 15.6998C12.2008 15.5483 12.4532 15.4473 12.7056 15.4473C12.8571 15.4473 13.0085 15.3969 13.1095 15.2454C13.1599 15.2454 13.2104 15.2454 13.3114 15.2959C13.4628 15.094 13.6143 14.892 13.9172 14.8416C14.0686 14.7911 14.1696 14.7406 14.321 14.7406C14.6239 14.6901 14.8763 14.5387 15.1287 14.3872C15.4821 14.1853 15.886 13.9834 16.2393 13.8319C16.4917 13.731 16.6937 13.5795 16.9461 13.4281C17.1985 13.2766 17.5014 13.1252 17.8043 13.0747C17.8043 13.2262 17.6528 13.2766 17.6023 13.3271C17.3499 13.4786 17.047 13.63 16.7442 13.7815C16.5927 13.8319 16.4917 13.9329 16.3908 14.0339C16.1888 14.1853 15.9869 14.2863 15.7345 14.3872C15.3811 14.5387 15.0278 14.7911 14.7249 14.993C14.6744 14.993 14.6744 15.0435 14.6744 15.0435C14.6744 15.1445 14.7249 15.1445 14.7754 15.1445C14.9268 15.1445 15.0783 15.1445 15.1792 15.094C15.1792 15.094 15.1792 15.094 15.2297 15.094C15.5326 15.094 15.7345 14.892 15.9364 14.7911C16.2898 14.6396 16.6432 14.4377 16.9461 14.1853C16.9966 14.1348 17.047 14.1348 17.0975 14.1348C17.4509 14.0339 17.7033 13.731 18.0062 13.529C18.1072 13.4281 18.2081 13.3271 18.3596 13.2262C18.511 13.1252 18.612 12.9737 18.612 12.7718C18.6624 12.7718 18.7129 12.7718 18.7634 12.7718C18.8139 12.7718 18.8644 12.7213 18.8644 12.6204C18.8644 12.5194 18.8139 12.5194 18.7129 12.5194C18.7634 12.4689 18.7634 12.4184 18.8139 12.4184C19.0663 12.267 19.3187 12.0146 19.6216 11.9136C19.874 11.8127 20.0255 11.6612 20.2779 11.6107C20.3284 11.6107 20.3284 11.5603 20.3284 11.5603C20.4798 11.4088 20.6312 11.3078 20.8836 11.3078C20.9846 11.005 21.2875 11.0554 21.4894 10.9545C21.5399 11.005 21.4894 11.0554 21.4894 11.0554C21.4894 11.0554 21.4894 11.0554 21.4389 11.0554C21.2875 11.3583 20.9846 11.5098 20.6817 11.6612C20.6312 11.7117 20.5808 11.7622 20.5303 11.8127C20.4293 11.8631 20.3788 11.9641 20.2779 11.9641C20.1769 12.0146 20.0759 12.1156 20.0255 12.166C19.975 12.2165 19.874 12.3175 19.874 12.4689C19.9245 12.4689 19.9245 12.5194 19.975 12.5194C20.1769 12.5194 20.3788 12.4184 20.5303 12.3175C20.7827 12.0651 21.0856 11.9136 21.3885 11.7117C21.5904 11.5603 21.7923 11.4593 21.9942 11.3583V11.4088C21.9942 11.4088 22.0447 11.4088 22.0952 11.4088C22.0952 11.4088 22.0952 11.4088 22.0952 11.3583L22.0447 11.3078H21.9942C22.0447 11.2574 22.0447 11.2069 22.0952 11.2069C22.2971 11.1564 22.4486 11.005 22.5495 10.8535C22.6505 10.7021 22.7515 10.6011 22.8524 10.5506C22.9534 10.5001 23.0544 10.3992 23.1553 10.2982C23.1553 10.2982 23.1553 10.2477 23.2058 10.1972C23.1553 10.1972 23.1048 10.1972 23.0544 10.1972C22.8524 10.2982 22.6505 10.3487 22.4991 10.4497C22.4486 10.5001 22.3476 10.5506 22.2971 10.6011C22.1457 10.7525 21.9438 10.8535 21.7418 10.904H21.6914C21.7418 10.7525 21.9438 10.7525 21.9942 10.6011C22.0447 10.5506 22.0952 10.5001 22.0952 10.5001C22.0447 10.3487 22.1457 10.2982 22.2467 10.2477C22.4991 10.1972 22.6505 10.0458 22.8524 9.89436C22.9029 9.84388 23.0039 9.7934 23.0544 9.7934C23.1048 9.7934 23.1553 9.74291 23.1553 9.69243C23.3068 9.4905 23.5087 9.33906 23.7611 9.2381C23.8621 9.18761 23.963 9.08665 24.064 9.03617C24.1145 8.98569 24.165 9.03617 24.2154 9.03617C24.2659 9.03617 24.3669 8.98569 24.4174 8.98569C24.3164 9.08665 24.2659 9.18761 24.165 9.2381C24.2659 9.38954 24.3164 9.44002 24.3669 9.38954C24.5183 9.33906 24.6193 9.2381 24.7707 9.13713C24.8717 9.08665 24.9222 8.98569 25.0736 8.98569C25.0736 8.98569 25.1241 8.98569 25.1241 8.9352C25.2756 8.78376 25.427 8.63232 25.6289 8.53135C25.7299 8.32942 25.8813 8.32943 26.0833 8.32943C26.1338 8.17798 26.0328 8.22846 25.9823 8.17798C26.1337 8.07702 26.2347 7.97605 26.3862 7.92557C26.4871 7.87509 26.5881 7.82461 26.689 7.87509C26.7395 7.87509 26.79 7.87509 26.8405 7.82461C26.891 7.72365 27.0424 7.67316 27.0929 7.5722C27.1434 7.52172 27.1939 7.47124 27.2948 7.52172C27.2443 7.5722 27.2443 7.5722 27.1939 7.62268C27.0929 7.77413 27.1434 7.87509 27.2948 7.97605C27.4463 7.82461 27.6482 7.72364 27.7996 7.5722C28.0016 7.37027 28.2035 7.31979 28.5064 7.37027C28.6073 7.42075 28.7083 7.37027 28.7588 7.26931C28.7588 7.21883 28.7588 7.16835 28.7588 7.11786C28.7083 7.11786 28.6578 7.11786 28.6578 7.11786V7.06738C28.7083 7.0169 28.7588 6.96642 28.8093 6.96642C28.9102 6.91594 28.9607 6.86546 29.0617 6.81497C29.1627 6.71401 29.3141 6.61305 29.4655 6.56257C29.617 6.51208 29.718 6.4616 29.8694 6.41112C30.0208 6.36064 30.0713 6.20919 30.1723 6.10823C30.2733 6.05775 30.3742 5.95679 30.4752 5.95679C30.6771 5.9063 30.8286 5.75486 30.9295 5.60341C31.1314 5.80534 31.1819 5.80534 31.3334 5.60341C31.3334 5.55293 31.3838 5.55293 31.3838 5.55293C31.3838 5.55293 31.3839 5.60341 31.4343 5.60341L31.4848 5.55293C31.5858 5.45197 31.6867 5.40149 31.7877 5.30052C31.9391 5.19956 32.0906 5.19956 32.242 5.19956C32.2925 5.19956 32.343 5.25004 32.343 5.30052C32.3935 5.351 32.444 5.45197 32.4944 5.55293C32.444 5.65389 32.444 5.75486 32.3935 5.85582C32.3935 5.9063 32.444 6.00727 32.5449 5.95679C32.5954 5.95679 32.5954 5.95679 32.6459 5.9063C32.7973 5.80534 32.9488 5.70438 33.0497 5.60341C33.1507 5.45197 33.3022 5.40149 33.4536 5.45197C33.6555 5.30052 33.807 5.14908 34.0594 5.0986C34.2613 4.89667 34.5642 4.79571 34.7661 4.5433C34.7661 4.59378 34.8166 4.64426 34.8166 4.69474C34.8671 4.74522 34.9176 4.74522 35.0185 4.79571C35.17 4.74522 35.3214 4.64426 35.4729 4.59378C35.5233 4.64426 35.5233 4.69474 35.5738 4.74522C35.6243 4.79571 35.7253 4.84619 35.7757 4.79571C35.8767 4.74522 35.9272 4.64426 36.0282 4.69474C35.8767 4.89667 35.6748 5.04811 35.4224 5.0986C35.17 5.14908 34.968 5.30052 34.7661 5.40149C34.7156 5.45197 34.6147 5.50245 34.6147 5.55293C34.5642 5.75486 34.4632 5.80534 34.3118 5.85582C34.1099 5.95679 33.9079 6.10823 33.8574 6.41112C33.8574 6.51208 33.9079 6.56257 34.0089 6.56257C34.1603 6.56257 34.2613 6.51208 34.4128 6.51208C34.4632 6.4616 34.5137 6.36064 34.5642 6.31016C34.7156 6.05775 34.968 5.95679 35.2709 5.95679C35.3214 5.95679 35.4224 5.95679 35.4729 5.9063C35.5233 5.85582 35.5233 5.80534 35.5738 5.70438C35.5738 5.65389 35.5738 5.65389 35.5738 5.60341C35.6243 5.60341 35.6243 5.60341 35.6748 5.60341C35.8767 5.70438 36.0282 5.60341 36.1796 5.45197C36.2301 5.40149 36.2301 5.351 36.2806 5.30052C36.331 5.25004 36.3311 5.19956 36.3815 5.19956C36.6844 5.0986 36.7349 4.74522 36.9368 4.59378V4.49282C36.9368 4.49282 36.8359 4.44233 36.8359 4.49282C36.7349 4.5433 36.6339 4.59378 36.5835 4.69474C36.533 4.74522 36.4825 4.79571 36.432 4.84619C36.3311 4.74522 36.2301 4.69474 36.1796 4.59378C36.3815 4.44233 36.6339 4.34137 36.7854 4.13944C36.8359 4.08896 36.8864 4.08896 36.9873 4.03848C37.1388 3.93752 37.2902 3.83655 37.4417 3.78607C37.5426 3.73559 37.5931 3.63463 37.7445 3.68511L37.8455 3.63463C37.896 3.53366 37.9465 3.38222 37.997 3.28125C38.0474 3.23077 38.1484 3.23077 38.1989 3.18029C38.2998 3.07933 38.2998 2.97836 38.3503 2.8774C38.4513 2.8774 38.5522 2.82692 38.6027 2.77644C38.6027 2.8774 38.6532 2.97836 38.6027 3.07933C38.5522 3.28125 38.6532 3.4327 38.8046 3.63463C38.9056 3.78607 39.0066 3.88703 39.1075 4.03848C39.2085 4.03848 39.3095 4.03848 39.36 3.93752C39.4609 3.78607 39.5619 3.63463 39.7133 3.48318C39.8648 3.48318 39.8648 3.68511 39.9657 3.73559C40.0667 3.73559 40.1677 3.73559 40.3191 3.73559C40.3696 3.93752 40.4705 4.08896 40.3191 4.29089C40.2686 4.34137 40.3191 4.39185 40.2686 4.44233C40.4201 4.5433 40.5715 4.49282 40.6725 4.49282C40.723 4.5433 40.7734 4.59378 40.8239 4.64426C40.9249 4.89667 41.1773 4.89667 41.3792 4.84619C41.5307 4.79571 41.7326 4.79571 41.884 4.79571C41.985 4.79571 42.1364 4.74522 42.1869 4.69474C42.3384 4.5433 42.4898 4.44233 42.5403 4.24041C42.5908 4.08896 42.7927 3.93752 42.8937 3.83655C43.1966 3.83655 43.247 4.08896 43.449 4.18993C43.348 4.24041 43.247 4.34137 43.1966 4.39185C43.1966 4.49282 43.247 4.59378 43.0956 4.69474C43.0451 4.74522 43.0451 4.79571 43.0956 4.89667C43.1461 4.99763 43.1966 4.99763 43.2975 4.99763C43.3985 4.99763 43.449 4.94715 43.5499 4.94715C43.7519 4.89667 43.8528 4.79571 43.9538 4.64426C44.0043 4.5433 44.0547 4.49282 44.1052 4.44233C44.2062 4.34137 44.2062 4.24041 44.3072 4.08896C44.4081 4.03848 44.5091 4.03848 44.6605 3.988C44.6605 3.78607 44.812 3.63463 45.0139 3.58414C45.1149 3.58414 45.1654 3.53366 45.2663 3.48318C45.5187 3.38222 45.5692 3.33174 45.6197 3.02885C45.5187 2.92788 45.4178 2.8774 45.2663 2.77644C45.3168 2.62499 45.3168 2.47355 45.3673 2.37258C45.2663 2.27162 45.1654 2.22114 45.0644 2.17066C44.9634 2.12018 44.812 2.06969 44.711 2.01921C44.5596 1.96873 44.4586 1.96873 44.2567 1.91825C44.2062 1.86777 44.1557 1.81729 44.1052 1.81729C44.0547 1.7668 44.0043 1.7668 43.9538 1.71632C43.9538 1.61536 43.9538 1.5144 43.9033 1.41343C44.1052 1.36295 44.3072 1.36295 44.4586 1.51439C44.4586 1.51439 44.5091 1.56488 44.5596 1.56488C44.711 1.51439 44.812 1.61536 44.9129 1.71632C44.9634 1.7668 45.0644 1.7668 45.1149 1.81729C45.2663 1.81729 45.4178 1.86777 45.5692 1.86777C45.6197 1.86777 45.6702 1.86777 45.7206 1.86777C45.8721 1.81729 46.0235 1.86777 46.175 1.86777C46.2759 1.86777 46.3264 1.91825 46.4274 2.01921C46.4274 2.12018 46.3769 2.22114 46.3769 2.27162C46.3769 2.3221 46.4779 2.37258 46.5284 2.42307C46.5284 2.47355 46.4779 2.47355 46.4779 2.52403C46.3769 2.62499 46.3264 2.67547 46.4274 2.82692C46.4779 2.92788 46.5284 3.02885 46.5284 3.12981C46.5284 3.33174 46.4779 3.48318 46.4779 3.68511C46.5284 3.73559 46.6798 3.78607 46.6798 3.93752C46.6798 3.988 46.7303 4.03848 46.7808 4.03848C46.9322 4.08896 47.0332 4.18992 47.0837 4.29089C47.1341 4.34137 47.1846 4.39185 47.2351 4.34137C47.3361 4.34137 47.3361 4.24041 47.3361 4.18993C47.3361 4.13944 47.3361 4.03848 47.2856 3.988C47.2856 3.93752 47.2856 3.88703 47.2351 3.78607C47.4875 3.68511 47.639 3.78607 47.8409 3.88704C47.9419 3.93752 47.9923 4.03848 48.0933 4.13944C48.0933 4.29089 48.0933 4.29089 48.2952 4.49282C48.5981 4.34137 48.901 4.18992 49.2039 3.988C49.2544 3.988 49.3553 4.03848 49.4058 4.03848C49.6077 4.08896 49.6582 4.03848 49.7592 3.88704C49.7592 3.83655 49.8097 3.78607 49.8097 3.73559C49.9611 3.73559 50.163 3.73559 50.264 3.48318C50.3145 3.58414 50.3145 3.63463 50.3145 3.63463C50.264 3.83655 50.264 4.08896 50.1126 4.29089C50.0621 4.34137 50.0621 4.39185 50.0621 4.44233C49.9611 4.69474 49.9611 4.89667 50.0621 5.14908C50.0621 5.25004 50.163 5.30052 50.2135 5.40149C50.163 5.65389 50.0621 5.85582 49.9106 6.05775C49.8097 6.20919 49.7087 6.41112 49.6582 6.56257C49.6077 6.76449 49.5573 6.91594 49.4058 7.06738C49.3553 7.11786 49.3049 7.21883 49.3049 7.31979C49.2544 7.52172 49.4058 7.72364 49.4058 7.92557C49.4058 8.02653 49.5068 8.1275 49.6582 8.22846L49.7087 8.27894C49.7592 8.53135 49.7087 8.73328 49.6582 8.98569C49.6582 9.08665 49.5573 9.18761 49.4563 9.2381C49.3553 9.28858 49.2544 9.33906 49.1029 9.44002C48.8505 9.59147 48.6991 9.7934 48.6991 10.0963C48.6991 10.1468 48.6991 10.1468 48.6991 10.1972C48.6991 10.1972 48.6991 10.1972 48.6991 10.2477C48.8 10.2982 48.901 10.3992 49.002 10.4497C48.901 10.6011 48.8 10.7021 48.7496 10.803C48.7496 10.9545 48.901 10.9545 48.9515 11.0554C48.9515 11.1059 48.901 11.1059 48.901 11.1564V11.1059C48.8505 11.1564 48.7495 11.1564 48.6991 11.1564C48.6486 11.1564 48.6486 11.1564 48.5981 11.1564C48.5981 11.2069 48.5981 11.2069 48.5981 11.2574C48.5476 11.4088 48.3962 11.3583 48.3457 11.5098C48.3457 11.5603 48.3457 11.6612 48.4467 11.7117C48.5981 11.7622 48.6991 11.7117 48.8505 11.6612C48.901 11.6107 48.901 11.6107 48.9515 11.5603C49.0524 11.3583 49.2039 11.1564 49.3049 11.005C49.4058 10.8535 49.5573 10.7525 49.7087 10.6516C49.8097 10.6011 49.9106 10.6011 50.0116 10.6516C50.0621 10.6516 50.0621 10.6011 50.1126 10.6011L50.163 10.6516C50.1126 10.904 50.264 11.0554 50.3145 11.2574C50.264 11.3078 50.264 11.3078 50.2135 11.3583C50.1126 11.4088 50.163 11.5098 50.163 11.6107C50.0621 11.6612 49.9611 11.6612 49.9106 11.8127C49.9106 11.8127 49.8602 11.8127 49.8602 11.8631C49.8602 11.8631 49.8601 11.8631 49.9106 11.8631C49.9106 11.8631 49.9106 11.8127 49.9611 11.8127C50.0116 11.8127 50.0621 11.8631 50.1126 11.8631C50.0621 11.9136 50.0116 11.9641 49.9611 12.0146C49.9106 12.0651 49.9106 12.1156 49.9106 12.2165C49.9106 12.3175 49.9106 12.4689 49.7592 12.5194C49.7087 12.5699 49.6582 12.6204 49.6582 12.6709C49.7087 12.7718 49.7592 12.8728 49.8602 12.9737C49.8602 12.9737 49.8097 12.9737 49.8097 13.0242V12.9737C49.8602 12.9737 49.8601 12.9737 49.9106 13.0242C49.9611 13.0747 50.0116 13.0747 50.0621 12.9737C50.0621 12.9737 50.1126 12.9737 50.1126 12.9233C50.1126 12.9737 50.0621 13.0747 50.0621 13.1252C50.0116 13.1757 49.9611 13.2262 49.9611 13.2766C50.0621 13.4786 50.0621 13.4786 49.9611 13.63C49.9106 13.731 49.9106 13.8824 49.8097 13.9329C49.7592 13.9834 49.8601 14.1348 49.9106 14.0843C50.0116 14.0339 50.163 14.0843 50.2135 14.1348C50.2135 14.1853 50.2135 14.2863 50.2135 14.3367C50.163 14.3367 50.163 14.3367 50.1126 14.3367C50.0116 14.2863 49.9106 14.2358 49.8097 14.3872C49.8097 14.4377 49.8602 14.4377 49.8602 14.5387C49.7592 14.5892 49.6582 14.6396 49.5068 14.6901C49.5068 14.8416 49.6077 14.892 49.6582 14.9425C49.6582 14.993 49.6582 15.094 49.6582 15.1445C49.6582 15.1949 49.6077 15.1949 49.6077 15.1949C49.4563 15.2959 49.4058 15.4978 49.4058 15.6998C49.4058 15.8007 49.5573 15.8512 49.6077 15.8007C49.7592 15.6493 50.0116 15.6493 50.2135 15.5988C50.3145 15.5483 50.3145 15.2959 50.5669 15.2959C50.5669 15.4978 50.5164 15.6493 50.3145 15.7502C50.365 15.9522 50.6679 15.8007 50.6679 16.0026C50.5164 16.0531 50.365 16.0531 50.264 15.9522C50.2135 15.9017 50.1126 15.9017 50.1126 16.0026C50.163 16.0531 50.2135 16.1036 50.264 16.2046C50.3145 16.2551 50.3145 16.3055 50.365 16.3055C50.6174 16.3055 50.7688 16.5579 51.0212 16.6084C51.0717 16.6084 51.1222 16.7094 51.0717 16.7599C50.9707 16.8104 50.9203 16.8608 50.8698 17.0123C50.8698 17.0628 50.8193 17.1637 50.7688 17.2142C51.0717 17.3657 51.3241 17.5171 51.627 17.5171C51.6775 17.5171 51.728 17.5171 51.7785 17.4666C51.9299 17.3657 52.1318 17.2647 52.2833 17.2142C52.3338 17.1637 52.3842 17.1637 52.4347 17.1132C52.5862 16.9618 52.7376 16.9618 52.8891 17.1132C52.9395 17.1637 53.0405 17.2647 53.1415 17.3657C53.1415 17.4161 53.1415 17.5171 53.091 17.6181C53.1415 17.6685 53.1919 17.6685 53.2424 17.719C53.5958 17.3152 53.9492 16.8608 54.353 16.457C54.454 16.5579 54.555 16.6589 54.6559 16.7599C54.7569 16.6589 54.9083 16.5579 54.9588 16.5075C55.0093 16.5075 55.0093 16.5075 55.0598 16.5075C55.1607 16.6084 55.2112 16.6589 55.3122 16.7599C55.4131 16.8608 55.5141 16.7599 55.6151 16.8608C55.6656 16.9113 55.817 16.8608 55.918 16.9113C55.9684 17.0123 55.918 17.1132 55.918 17.2647C55.918 17.3657 55.8675 17.4666 55.8675 17.5676C55.8675 17.7695 55.817 17.9209 55.6656 18.0724C55.5141 18.4762 55.2112 18.7287 54.9588 19.0315C54.9083 19.082 54.8578 19.1325 54.8578 19.2335C54.8578 19.4354 54.8074 19.5868 54.6559 19.7383C54.6559 19.7383 54.6559 19.7888 54.6054 19.7888C54.5045 19.9402 54.5549 20.0917 54.7064 20.1421C54.7569 20.1421 54.8074 20.1926 54.8578 20.1926C54.8578 20.2431 54.8074 20.2431 54.8074 20.2936C54.8578 20.445 54.8578 20.5965 54.8074 20.6974C54.9083 20.8489 55.0598 21.0003 55.1607 21.1518C55.3122 21.1518 55.4636 21.1518 55.6656 21.2527C55.6656 21.3032 55.6656 21.3537 55.6151 21.4042C55.5646 21.4547 55.4636 21.5556 55.4131 21.6061C55.3122 21.7071 55.2617 21.808 55.2617 21.909C55.3122 21.9595 55.3627 22.01 55.4636 22.0604C55.4131 22.1614 55.3627 22.2119 55.3627 22.2624C55.3627 22.3633 55.5646 22.5148 55.6656 22.5148C55.716 22.5148 55.7665 22.5148 55.7665 22.4643C55.8675 22.3129 56.0694 22.3129 56.2208 22.3633C56.3218 22.4138 56.4733 22.4138 56.5742 22.4643C56.6247 22.4138 56.7257 22.3633 56.7761 22.3129C56.9276 22.3633 56.9781 22.4643 57.0285 22.5148C57.0285 22.6157 56.9276 22.6157 56.8771 22.6662C56.7257 22.8177 56.6247 22.9691 56.3723 22.9691C56.3218 22.9691 56.2713 23.0196 56.2208 23.0701C56.1199 23.171 56.0189 23.2215 55.918 23.3225C55.8675 23.373 55.817 23.4739 55.7665 23.5244C55.7665 23.6759 55.9684 23.6254 55.8675 23.7768C55.918 23.7768 55.9179 23.8273 55.9684 23.8273C56.1199 23.8273 56.2713 23.7768 56.3723 23.6759C56.6247 23.5244 56.8266 23.373 57.1295 23.3225C57.4324 23.272 57.6848 23.1206 57.9372 22.9186C58.0382 22.8682 58.1391 22.8177 58.2401 22.7672C58.3916 22.7167 58.4925 22.7167 58.644 22.6662C58.7449 22.6157 58.7954 22.6157 58.8964 22.6157C58.8964 22.6662 58.8459 22.7167 58.8964 22.7167C59.0478 22.8682 59.0983 23.1206 59.3507 23.2215C59.5022 23.2215 59.6536 23.2215 59.7041 23.0701C59.7546 22.9186 59.7546 22.8177 59.5526 22.6157C59.6536 22.5653 59.7041 22.5148 59.805 22.6157C59.8555 22.6662 59.906 22.7167 59.9565 22.7167C60.007 22.7672 60.0575 22.8177 60.1079 22.8682C60.1079 22.9691 60.1079 23.0701 60.1079 23.171C60.1079 23.272 60.1079 23.373 60.2089 23.4739C60.2594 23.5244 60.2594 23.5749 60.3099 23.6254C60.4108 23.8273 60.4613 24.0292 60.4613 24.2816C60.4108 24.635 60.3603 24.9884 60.2594 25.2913C60.1584 25.6446 60.1079 25.9475 60.0575 26.3009C60.007 26.4524 59.9565 26.6038 59.906 26.7552C59.7546 27.0581 59.6536 27.361 59.5022 27.6639C59.4012 27.9668 59.1993 28.2697 59.0983 28.5221C58.8964 28.926 58.5935 29.2289 58.3411 29.5822C58.1896 29.8346 57.9877 30.087 57.8867 30.3394C57.7353 30.6423 57.4829 30.8947 57.281 31.1472C57.0285 31.3996 56.8771 31.652 56.7257 31.9549C56.7257 32.0053 56.6752 32.0053 56.6752 32.0558C56.6247 32.3587 56.6247 32.3587 56.4732 32.5606C56.4732 32.6111 56.5237 32.6616 56.5237 32.6616C56.5742 32.7626 56.5742 32.8635 56.4732 32.9645C56.3723 33.0655 56.2713 33.2169 56.2208 33.3684C56.1704 33.4693 56.1704 33.5198 56.2208 33.6208C56.2713 33.7217 56.2209 33.8227 56.1704 33.8732C56.0694 33.9741 56.0189 34.0751 55.918 34.1761C55.716 34.378 55.4636 34.5799 55.2112 34.6809C55.1607 34.6809 55.1607 34.7314 55.1103 34.7314C54.9083 34.7818 54.7569 34.9333 54.6054 35.0343C54.454 35.1857 54.2521 35.2867 54.1006 35.4381C53.8482 35.64 53.5958 35.7915 53.4443 36.0439C53.1919 36.1448 53.091 36.3468 52.8891 36.4982C52.6871 36.6497 52.5357 36.8011 52.3842 36.9526C52.1318 37.205 51.8794 37.4574 51.627 37.7098C51.4251 37.9117 51.1727 38.1136 50.9707 38.366C50.9203 38.467 50.7688 38.467 50.7183 38.6185C50.6679 38.7194 50.5669 38.8204 50.4659 38.9213C50.365 39.0223 50.3145 39.1233 50.2135 39.2242C50.163 39.2747 50.1126 39.3252 50.0621 39.3757C49.8097 39.5776 49.6582 39.83 49.4563 40.0319C49.1029 40.5872 48.5476 40.9406 48.0933 41.3445C47.7904 41.5969 47.4875 41.8493 47.1846 42.1017C47.1341 42.2531 46.9322 42.2531 46.8313 42.4046C46.7808 42.556 46.5788 42.6065 46.4779 42.7075C46.3769 42.8084 46.2255 42.9094 46.1245 43.0104C46.0235 43.1113 45.9226 43.2123 45.8721 43.3132C45.7206 43.5657 45.5187 43.7676 45.3168 43.919C45.0139 44.1714 44.7615 44.4238 44.4586 44.6258C44.4586 44.8277 44.4081 44.9791 44.2567 45.0801C43.9538 45.3325 43.6509 45.6354 43.348 45.8878C43.2975 45.8878 43.2975 45.9383 43.2471 45.9383C42.9442 46.1907 42.5908 46.4431 42.2879 46.6955C42.0355 46.8975 41.7831 47.0994 41.5307 47.2508C41.4297 47.2508 41.4297 47.3518 41.3792 47.4023C41.3287 47.3518 41.3287 47.3518 41.2783 47.4023C41.2783 47.4528 41.2783 47.4528 41.2783 47.5032C40.9249 47.8061 40.5715 48.0585 40.1677 48.3614C39.7133 48.7148 39.3095 49.1186 38.8046 49.4215C38.7037 49.472 38.6027 49.6235 38.5018 49.7244C38.4008 49.8254 38.3503 49.8759 38.2494 49.9264C38.1484 50.0273 37.9969 50.0778 37.8455 50.1788C37.5426 50.4312 37.1892 50.6331 36.8359 50.8855C36.533 51.0874 36.2301 51.3398 35.9272 51.5418C35.7253 51.6932 35.5233 51.8447 35.2709 51.9456C35.17 51.9961 35.0185 52.0466 34.9176 52.0971C34.8671 52.1475 34.7661 52.1475 34.7661 52.198C34.7156 52.3495 34.6147 52.3495 34.5137 52.4C34.3118 52.5009 34.3118 52.5009 34.2108 52.2485C34.2613 52.1475 34.3623 52.0971 34.4128 51.9961C34.5137 51.8447 34.6652 51.7942 34.8671 51.7942C34.9176 51.7942 35.0185 51.7942 35.069 51.7437C35.3214 51.5418 35.5233 51.3903 35.7253 51.1884C35.7253 51.1884 35.7253 51.1884 35.7757 51.1379C35.7757 51.0369 35.7758 50.9865 35.7253 50.8855C35.6748 50.8855 35.6748 50.8855 35.6243 50.8855C35.2205 51.0874 34.8671 51.2894 34.4632 51.4913C34.2108 51.6427 33.9584 51.6932 33.706 51.8447C33.5041 51.9456 33.3022 52.0466 33.1002 52.1475C32.9993 52.198 32.9488 52.198 32.8478 52.2485C32.8478 52.198 32.8478 52.198 32.8478 52.1475C32.8478 52.0971 32.8478 52.0466 32.7973 52.0466C32.7468 51.9961 32.6964 51.9961 32.6459 51.9961C32.5954 51.9961 32.5449 52.0466 32.4944 52.0466C32.242 52.1475 32.0401 52.2485 31.7372 52.1475C31.7372 52.198 31.6867 52.299 31.6867 52.3495C31.3334 52.5009 30.98 52.6524 30.5761 52.8543C30.5257 52.9048 30.4247 52.9048 30.3237 52.9048C30.2228 52.9048 30.1723 52.8543 30.0713 52.8543C30.0208 52.8543 29.9199 52.9048 29.8189 52.9048C29.8694 52.8543 29.8694 52.8038 29.8694 52.7533C29.9199 52.6524 29.9704 52.6019 29.9199 52.5009C29.8694 52.4504 29.8694 52.3495 29.9199 52.299C30.0713 52.1475 30.0208 52.0466 29.9704 51.8951C29.9704 51.8447 29.9704 51.7942 29.9199 51.7437C29.8189 51.6427 29.6675 51.6427 29.516 51.5922C29.4655 51.5922 29.4151 51.5922 29.3646 51.6427C29.2131 51.6932 29.1122 51.7437 29.0112 51.8447C28.9607 51.8447 28.8598 51.8951 28.8093 51.8951C28.7083 51.8951 28.7083 51.8951 28.6074 51.6932C28.7588 51.5418 28.8598 51.3903 28.7588 51.1884C28.6578 50.9865 28.5569 50.7845 28.254 50.835C28.4054 50.7341 28.4559 50.6836 28.5064 50.5826C28.6073 50.4312 28.5569 50.2797 28.4054 50.2797C28.254 50.2797 28.0521 50.2797 27.9006 50.3807C27.7492 50.4312 27.6482 50.5321 27.4968 50.6331C27.4463 50.6331 27.3958 50.6331 27.2948 50.5826C27.2948 50.5321 27.2443 50.5321 27.2443 50.5321C27.2948 50.3302 27.2948 50.1788 27.3453 49.9768C27.1434 49.9264 27.0424 49.7749 26.9919 49.573C26.9919 49.5225 26.9919 49.4215 27.0424 49.4215C27.1434 49.3206 27.1434 49.1691 27.1434 49.0177C27.0929 48.9672 27.0424 48.9167 26.9919 48.8662C26.5376 48.9672 26.1337 49.1186 25.7299 49.3206C25.6289 49.3711 25.4775 49.472 25.3765 49.5225C25.326 49.472 25.326 49.4215 25.3765 49.4215C25.4775 49.3711 25.528 49.3206 25.6289 49.2701C25.7804 49.1691 25.8813 49.0682 25.8813 48.9167C25.8309 48.8662 25.7804 48.7653 25.7299 48.7148C25.7299 48.6643 25.7299 48.5633 25.7804 48.5129C25.8813 48.4119 25.8813 48.3109 25.8309 48.21C25.8309 48.1595 25.8309 48.109 25.8309 48.0585C25.9318 48.008 26.0328 47.9071 26.0833 47.8566C26.1842 47.8061 26.2347 47.7052 26.2347 47.6042C26.2347 47.5032 26.1842 47.4527 26.0833 47.3518C25.9318 47.4023 25.7804 47.4527 25.7299 47.6042C25.6794 47.7556 25.528 47.8566 25.3765 47.8566C25.1746 47.8566 25.0736 48.008 25.0231 48.1595C24.9222 48.21 24.8717 48.21 24.7707 48.2605C24.6698 48.2605 24.6193 48.3109 24.5183 48.4119C24.4174 48.5129 24.3164 48.5633 24.165 48.6138C23.8116 48.8158 23.4582 48.9672 23.1049 49.1691C23.0039 49.2196 22.9534 49.3206 22.8524 49.3711C22.7515 49.4215 22.701 49.5225 22.6 49.472C22.5496 49.472 22.4991 49.5225 22.4991 49.5225C22.3476 49.7749 22.0447 49.8759 21.8428 50.0273C21.4894 50.2797 21.1361 50.4817 20.7827 50.6836C20.6817 50.7341 20.5808 50.835 20.4798 50.936C20.4293 50.9865 20.3284 51.0874 20.2779 51.1379C20.2274 51.1884 20.1769 51.1884 20.1769 51.2894C20.1769 51.3398 20.1264 51.3903 20.0759 51.3903C19.9245 51.4408 19.7226 51.4913 19.5206 51.5418C19.3187 51.5923 19.1673 51.6427 19.0158 51.7437C18.9149 51.7942 18.8139 51.8951 18.6625 51.8951C18.6625 51.8447 18.6625 51.7942 18.7129 51.6932C18.41 51.5923 18.1576 51.4913 17.8547 51.6932C17.8043 51.6427 17.7033 51.5923 17.6528 51.5418C17.5519 51.5418 17.4509 51.5922 17.4004 51.6427C17.3499 51.6932 17.249 51.6932 17.1985 51.6427C17.0975 51.5922 17.047 51.5922 16.9461 51.6427C16.7946 51.6932 16.6937 51.7437 16.5422 51.6932C16.4413 51.5923 16.4413 51.4913 16.4917 51.3903C16.5422 51.1884 16.5422 51.0369 16.4413 50.835C16.3908 50.7341 16.3908 50.6331 16.4413 50.4817C16.5422 50.2292 16.4917 50.1788 16.2898 50.0273C16.2393 49.9768 16.1384 49.9264 16.0879 49.9768C15.9869 49.9768 15.886 50.0273 15.8355 50.0778C15.785 50.0778 15.7345 50.1283 15.684 50.1788C15.3811 50.3302 15.3307 50.2292 15.2297 50.0778C15.1792 50.0273 15.1792 50.0273 15.1287 49.9768C14.8258 49.8759 14.5734 49.8759 14.321 50.0778C14.2705 50.1283 14.2201 50.1283 14.1696 50.1283C13.9677 50.1283 13.8162 50.1788 13.6143 50.2292C13.3619 50.3302 13.16 50.3302 12.958 50.1283C12.8571 50.0778 12.8066 50.0273 12.6551 50.0273C12.5542 50.0273 12.5037 49.9264 12.5542 49.8254C12.6046 49.6739 12.7056 49.5225 12.8066 49.4215C12.8571 49.3206 12.8571 49.2196 12.8066 49.1186C12.7561 49.0177 12.7561 48.9167 12.7561 48.8158C12.7056 48.6138 12.6047 48.5129 12.4027 48.5129C12.2008 48.5129 12.0493 48.5633 11.8474 48.5633C11.7465 48.5633 11.696 48.5633 11.595 48.5633C11.4436 48.5129 11.2416 48.5129 11.0902 48.5129C11.0397 48.5129 10.9388 48.5129 10.8378 48.4624C10.6359 48.3109 10.4339 48.2605 10.2825 48.0585C10.1815 47.9576 10.0806 47.8566 9.92912 47.8566C9.87864 47.8566 9.82815 47.8061 9.77767 47.7556C9.67671 47.5032 9.72719 47.3013 9.87864 47.1499C9.92912 47.0489 9.9796 46.9479 10.0301 46.847C10.0806 46.746 10.1815 46.645 10.2825 46.5946C10.3834 46.4936 10.4339 46.3926 10.4844 46.1907C10.1815 46.1907 9.87864 46.0897 9.62623 46.3422C9.52527 46.3422 9.47479 46.2917 9.42431 46.2917C9.42431 46.1907 9.42431 46.1402 9.42431 46.0897C9.42431 45.9383 9.47479 45.7869 9.42431 45.6354C9.37382 45.484 9.42431 45.383 9.47479 45.2316C9.7272 44.8277 10.0301 44.4743 10.2825 44.0705C10.333 43.9695 10.4844 43.919 10.5349 43.8181C10.6359 43.7171 10.6359 43.6161 10.4844 43.5657C10.4339 43.5152 10.333 43.5152 10.2825 43.5152C9.9796 43.7171 9.87863 44.121 9.52526 44.2724C9.47478 44.1714 9.37382 44.0705 9.32334 43.9695C9.27285 44.02 9.22238 44.02 9.1719 44.0705C8.96997 44.2724 8.81852 44.4743 8.6166 44.6258C8.51563 44.7267 8.46514 44.8277 8.51563 44.9791C8.51563 45.0801 8.51563 45.1306 8.51563 45.2316C8.51563 45.282 8.51563 45.3325 8.56611 45.383C8.61659 45.484 8.56611 45.5344 8.51563 45.6354C8.46514 45.6859 8.36418 45.6859 8.3137 45.6354C8.21274 45.5344 8.11177 45.484 8.01081 45.383C8.06129 45.1811 7.96033 45.0296 8.06129 44.8277C8.06129 44.7772 8.06129 44.6763 8.01081 44.6258C7.90984 44.4743 7.90986 44.2724 7.96034 44.121C7.96034 44.121 7.96034 44.121 7.96034 44.0705C7.80889 43.9695 7.85936 43.8181 7.7584 43.6666C7.70792 43.6666 7.65744 43.6161 7.60696 43.6161C7.30407 43.5152 7.30407 43.5152 7.05166 43.7171C7.00118 43.6161 7.05166 43.5657 7.10214 43.5152C7.25359 43.3637 7.35455 43.2628 7.50599 43.1113C7.7584 42.8589 8.01081 42.6065 8.3137 42.3541C8.61659 42.0512 8.91949 41.7988 9.1719 41.4959C9.22238 41.4454 9.22238 41.3949 9.22238 41.3949C9.22238 41.3445 9.17189 41.3445 9.12141 41.3445C9.02045 41.3445 8.91948 41.3445 8.81852 41.3949C8.76804 41.3949 8.66708 41.3949 8.6166 41.4454C8.56611 41.3949 8.56611 41.3949 8.56611 41.3445C8.51563 41.294 8.46515 41.2435 8.41467 41.193C8.31371 41.1425 8.21274 41.193 8.16226 41.2435C8.0613 41.3445 8.01082 41.4454 7.90985 41.5464C7.85937 41.6474 7.75841 41.6978 7.70793 41.7988C7.55649 41.9502 7.40503 42.0512 7.25358 42.2027C7.10214 42.3541 7.05167 42.556 6.95071 42.7075C6.90022 42.8084 6.84974 42.9094 6.6983 42.9094C6.54685 42.8589 6.49636 42.7579 6.49636 42.657C6.49636 42.556 6.54685 42.5055 6.64781 42.4551C6.74878 42.3541 6.84974 42.2531 6.95071 42.1522C7.10215 42.0007 7.20311 41.7988 7.40504 41.7483C7.45552 41.6978 7.50599 41.6474 7.55648 41.5969C7.60696 41.5464 7.65745 41.4959 7.70793 41.4454C7.90986 41.3949 7.96033 41.2435 8.06129 41.0921C8.16226 40.9911 8.16226 40.8396 8.06129 40.7387C8.01081 40.6377 7.90985 40.5368 7.80888 40.4358C7.70792 40.3348 7.60697 40.3348 7.45552 40.3348C7.35456 40.1834 7.35456 40.0319 7.40504 39.8805C7.45552 39.729 7.55647 39.5271 7.7584 39.4766C7.85936 39.4262 7.90984 39.3757 8.01081 39.3252C8.21274 39.1738 8.36419 39.0728 8.6166 39.0728C8.66708 39.0728 8.71755 39.0223 8.76803 39.0223C9.12141 38.8204 9.47478 38.6185 9.82815 38.4165C10.0301 38.3156 10.1815 38.1641 10.3835 38.0632C10.8378 37.8107 11.2416 37.5079 11.6455 37.205C11.8474 37.0535 12.0494 36.9021 12.2008 36.6497C12.2513 36.5992 12.2513 36.5487 12.2513 36.4477C11.9989 36.3973 11.7465 36.3973 11.5445 36.5992C11.3931 36.7001 11.2921 36.8516 11.0902 36.8011C11.1407 36.7506 11.2416 36.6497 11.2921 36.5992C11.4436 36.4982 11.595 36.3468 11.7465 36.2458C11.9989 36.0439 12.2008 35.7915 12.4532 35.5896C12.6551 35.4381 12.8066 35.2362 12.958 35.0343C13.059 34.8828 13.1599 34.7314 13.3114 34.6304C13.4124 34.5294 13.4124 34.5294 13.4628 34.3275C13.4124 34.277 13.3619 34.277 13.2609 34.3275C12.9075 34.5294 12.5542 34.7818 12.2513 35.0847C12.0998 35.2362 11.9484 35.3371 11.8474 35.4886C11.7969 35.5391 11.7465 35.5896 11.696 35.5896C11.4941 35.6905 11.3426 35.842 11.1407 35.9934C10.8883 36.1953 10.6863 36.3973 10.3835 36.5487C10.333 36.4982 10.3835 36.4477 10.3835 36.4477C10.5854 36.2458 10.7873 36.0439 10.9892 35.842C11.0397 35.7915 11.0902 35.741 11.1912 35.6905C11.4436 35.5391 11.6455 35.3371 11.7465 35.0343C11.7465 34.9838 11.8474 34.8828 11.8979 34.8323C11.8979 34.7818 11.8979 34.7314 11.9484 34.6809C11.8979 34.5799 11.7969 34.6304 11.7465 34.6809C11.595 34.7818 11.4436 34.9333 11.3426 35.0343C11.2416 35.1857 11.0902 35.2867 10.9388 35.3371C10.8378 35.3876 10.7368 35.4886 10.6359 35.5391C10.5854 35.5896 10.5349 35.5896 10.4339 35.5896C10.4844 35.4381 10.6359 35.3371 10.6863 35.2362C10.7873 35.1352 10.8883 35.0342 10.8883 34.8828C10.8378 34.8323 10.7873 34.8323 10.7368 34.8828C10.6359 34.9333 10.5854 34.9838 10.5349 35.0343C10.3834 35.1352 10.232 35.2867 10.0301 35.3876C9.92911 35.4381 9.87863 35.4886 9.77767 35.5896C9.57574 35.741 9.4243 35.8924 9.27285 36.0439C8.91948 36.2963 8.66707 36.5992 8.3137 36.8516C8.26322 36.9021 8.16226 37.003 8.06129 37.003C8.01081 37.003 7.96034 37.003 7.96034 36.9526C7.90986 36.9021 7.90985 36.8516 7.90985 36.8011C7.90985 36.7506 7.96033 36.7001 8.01081 36.6497C8.3137 36.3973 8.51563 36.0439 8.81852 35.7915C8.91948 35.6905 9.02045 35.5895 9.07093 35.4381C9.12141 35.3371 9.22237 35.2362 9.27285 35.1857C9.37381 35.0847 9.52527 34.9333 9.67671 34.8323C9.82816 34.7314 9.87864 34.5799 9.87864 34.378C9.82816 34.3275 9.7272 34.277 9.67671 34.2265C9.62623 34.2265 9.62623 34.2265 9.57574 34.277C9.12141 34.6809 8.66708 35.0342 8.21275 35.4381C8.16227 35.4886 8.11178 35.4886 8.06129 35.5391C7.90985 35.64 7.85938 35.64 7.70793 35.4381C8.01082 35.1352 8.26322 34.8323 8.36419 34.378C8.31371 34.378 8.26322 34.378 8.26322 34.378C7.96033 34.479 7.7584 34.6809 7.50599 34.8323C7.35455 34.9333 7.25359 35.0343 7.10214 35.0847C7.10214 34.9333 7.30407 34.8323 7.35455 34.7314C7.55648 34.479 7.80889 34.277 7.96034 33.9741C8.01082 33.8732 8.11178 33.7722 8.16226 33.7217C8.31371 33.5703 8.46515 33.4188 8.41467 33.1664C8.41467 33.0655 8.41467 32.9645 8.41467 32.8635C8.26323 32.6616 8.0613 32.6616 7.85937 32.7626C7.65744 32.8635 7.45551 32.914 7.25358 32.914C7.15262 32.914 7.05167 32.9645 6.95071 33.015C6.79926 33.1159 6.59733 33.1159 6.44589 32.9645C6.34492 32.914 6.24396 32.8131 6.19348 32.7626C6.09252 32.6616 5.99155 32.6111 5.89059 32.5102C5.78962 32.5606 5.73914 32.5606 5.68866 32.6111C5.5877 32.7121 5.43624 32.7121 5.2848 32.6616C5.33528 32.5606 5.33529 32.4597 5.38577 32.3587C5.28481 32.2073 5.18385 32.0558 5.18385 31.8539C5.18385 31.7529 5.13336 31.7025 5.08288 31.6015C5.03239 31.45 5.0324 31.2986 5.13336 31.1976C5.18384 31.1472 5.23432 30.9957 5.2848 30.9452C5.33528 30.8443 5.23432 30.6928 5.13336 30.6928C5.0324 30.6928 4.93143 30.7433 4.88095 30.7938C4.72951 30.8443 4.62853 30.9452 4.47709 30.9957C4.32564 31.0967 4.1742 31.1472 4.02276 31.1472C3.87131 31.1472 3.71988 31.1472 3.66939 30.9957C3.61891 30.8947 3.46746 30.9452 3.3665 30.8443C3.41698 30.6928 3.46746 30.5414 3.56842 30.4404C3.71987 30.289 3.82083 30.1375 3.77035 29.9356C3.66938 29.8851 3.56842 29.7842 3.46746 29.7337C3.26553 29.6832 3.16458 29.9356 2.91217 29.9861C3.01313 29.8851 3.06361 29.7841 3.11409 29.6832V29.6327C3.06361 29.3803 3.01312 29.3298 2.76071 29.3298C2.71023 29.3298 2.65976 29.3298 2.60928 29.3298C2.55879 29.3298 2.45783 29.3298 2.40735 29.3803C2.30639 29.3298 2.30638 29.2289 2.30638 29.1279C2.30638 29.0269 2.35686 28.926 2.30638 28.8755C2.2559 28.724 2.2559 28.6736 2.35687 28.5726C2.40735 28.5221 2.40735 28.4716 2.40735 28.4211C2.45783 28.2697 2.50831 28.1687 2.65976 28.0678C2.86169 27.9668 3.01313 27.7649 3.16458 27.6639C3.16458 27.6639 3.16457 27.6639 3.11409 27.6639C3.26554 27.563 3.41698 27.5125 3.56842 27.361C3.71987 27.2096 3.87131 27.1086 4.02276 27.0077C4.12372 26.9067 4.22468 26.8562 4.27517 26.6543C4.32565 26.5028 4.4771 26.4524 4.57806 26.4019C4.62854 26.3514 4.7295 26.3514 4.77998 26.3009C4.88095 26.2504 4.98191 26.1495 5.08288 26.1495C5.13336 26.1495 5.13336 26.1495 5.18385 26.099C5.43625 25.9475 5.73913 25.7961 5.99154 25.5942C6.04202 25.5437 6.143 25.4932 6.19348 25.4932C6.24396 25.4932 6.24395 25.4932 6.29443 25.4427C6.69829 25.0894 7.20311 24.8874 7.60696 24.5341C7.65744 24.4836 7.70792 24.4331 7.7584 24.3826C7.90984 24.3321 8.01081 24.2312 8.06129 24.0797C8.16226 23.9283 8.26323 23.8273 8.46516 23.7768C8.6166 23.7263 8.71756 23.6759 8.81852 23.5749C8.96996 23.4235 9.17189 23.272 9.37382 23.1206C9.47478 23.0196 9.57575 22.9186 9.62623 22.7672C9.57575 22.7167 9.52527 22.7167 9.47479 22.7672C9.27286 22.8682 9.07093 22.9691 8.869 23.1206C8.71756 23.2215 8.51563 23.3225 8.36419 23.4235C8.31371 23.4739 8.16226 23.5244 8.06129 23.5244C7.90985 23.5244 7.80889 23.5749 7.70793 23.6254C7.60697 23.6759 7.55649 23.7263 7.45552 23.7768C7.40504 23.7768 7.35455 23.8273 7.30407 23.7768C7.2031 23.7263 7.10214 23.7768 7.10214 23.8778C7.05166 24.0797 6.84974 24.1302 6.6983 24.2312C6.44589 24.1302 6.29444 24.3826 6.09251 24.3826C6.04203 24.3826 6.04202 24.4331 5.99154 24.4331C5.58769 24.7865 5.13335 25.0389 4.7295 25.3418C4.67902 25.3922 4.62854 25.3922 4.57806 25.3922C4.1742 25.3922 3.87132 25.6446 3.61891 25.8971C3.56843 25.9475 3.56842 25.9475 3.51794 25.998C3.31601 26.0485 3.16457 26.1495 3.01312 26.2504C2.76071 26.4019 2.55879 26.5533 2.30638 26.7048C2.15494 26.8057 2.0035 26.9067 1.90253 27.0581C1.90253 27.1086 1.85204 27.1086 1.75108 27.1591C1.7006 27.1086 1.70061 27.0581 1.65013 27.0077C1.54916 26.8562 1.44819 26.7552 1.29675 26.7048C1.1453 26.7048 1.1453 26.6038 1.19578 26.5028C1.49867 26.099 1.54915 26.0485 2.00349 25.7456C2.2559 25.5437 2.55879 25.3922 2.8112 25.1903C2.96264 25.0894 3.11409 24.9884 3.26553 24.8874C3.31601 24.8369 3.3665 24.8369 3.41699 24.8369C3.46747 24.8369 3.56843 24.7865 3.61891 24.736C3.77035 24.5341 4.02275 24.4836 4.22468 24.3826C4.32564 24.3321 4.37613 24.2816 4.47709 24.2312C4.62853 24.0797 4.83046 23.9788 5.03239 23.8778C5.13335 23.8273 5.28481 23.7263 5.38577 23.6759C5.43625 23.6759 5.43624 23.6254 5.48672 23.5749C5.8401 23.5244 6.09251 23.2215 6.3954 23.0701C6.54685 23.0196 6.69829 22.8682 6.79925 22.7672C7.05166 22.5653 7.30407 22.3633 7.60696 22.2119C7.96033 22.01 8.31371 21.7576 8.66708 21.5556C8.71756 21.5051 8.81852 21.4547 8.869 21.4042C9.17189 21.1518 9.4243 20.9499 9.77767 20.7479C9.92911 20.647 10.0301 20.4955 10.0806 20.2936C10.0806 20.2431 10.0806 20.1926 10.0301 20.1421C9.9796 20.0917 9.92912 20.0412 9.87864 19.9907C9.22238 20.3441 8.56612 20.7479 7.90985 21.1013C7.80889 21.1518 7.75841 21.2023 7.65745 21.2527C7.45552 21.4042 7.20311 21.5556 6.95071 21.7071C6.6983 21.8585 6.49636 22.01 6.24395 22.1614C6.19347 22.2119 6.09251 22.2624 6.04203 22.2624C5.53721 22.5148 5.08288 22.7672 4.62854 23.0701C4.42662 23.2215 4.22468 23.3225 4.02276 23.4235C3.77035 23.5749 3.56842 23.7263 3.31602 23.8778C3.06361 24.0292 2.86168 24.1807 2.60928 24.3826C2.45783 24.4836 2.30638 24.5845 2.20541 24.6855C2.00349 24.4331 1.953 24.4331 1.7006 24.4331C1.59963 24.4331 1.54915 24.4331 1.44819 24.4836C1.24626 24.6855 0.943373 24.736 0.741446 24.8874C0.640482 24.9884 0.489034 25.0894 0.438553 25.2408C0.388071 25.3418 0.287111 25.4427 0.236629 25.5437C-0.0157797 25.3922 -0.0662553 25.2408 0.0851898 25.0389C0.135672 24.9884 0.186147 24.9379 0.236629 24.8874C0.287111 24.7865 0.337589 24.7865 0.438553 24.736C0.589998 24.6855 0.690964 24.635 0.741446 24.5341C0.842409 24.4331 0.892894 24.3321 1.04434 24.3321C1.1453 24.3321 1.19578 24.1807 1.24626 24.1302C1.29674 24.0292 1.39771 23.9788 1.49867 23.9788C1.54915 23.9788 1.59964 23.9283 1.59964 23.9283C1.7006 23.7768 1.85204 23.7263 2.00349 23.6254C2.2559 23.5244 2.45783 23.3225 2.65976 23.171C2.76072 23.0701 2.86167 22.9186 2.96264 22.7672C3.01312 22.7167 3.01313 22.6662 3.06361 22.6157C3.26553 22.4643 3.51794 22.4138 3.77035 22.3633C3.87131 22.3633 3.97228 22.3633 4.02276 22.3129C4.1742 22.2624 4.37613 22.2119 4.52757 22.0604C4.7295 21.909 4.98191 21.7576 5.23431 21.6566C5.38576 21.5556 5.53722 21.5051 5.68866 21.4042C5.84011 21.3032 5.99155 21.2527 6.14299 21.1518C6.29444 21.0508 6.44588 20.9499 6.54684 20.7984C6.59732 20.7479 6.59733 20.647 6.59733 20.5965C6.29444 20.546 6.09251 20.6974 5.89059 20.7984C5.8401 20.8489 5.73914 20.8994 5.68866 20.8994C5.63818 20.9499 5.58769 20.9499 5.53721 20.9499C5.53721 20.8489 5.53721 20.7479 5.53721 20.6974C5.68865 20.5965 5.8401 20.4955 5.99154 20.3946C6.0925 20.2936 6.29444 20.3441 6.3954 20.1926C6.59733 20.1421 6.69829 19.9402 6.90022 19.8393C7.10215 19.7383 7.30408 19.6878 7.45552 19.5868C7.60697 19.4859 7.75841 19.3849 7.90985 19.284C7.96034 19.2335 8.01081 19.183 8.06129 19.183C8.26322 19.1325 8.36419 18.9811 8.41467 18.7791C8.36419 18.7287 8.36418 18.6782 8.3137 18.5772C8.36418 18.4258 8.46515 18.3753 8.56611 18.2743C8.61659 18.2238 8.66708 18.1734 8.71757 18.1734C8.81853 18.1229 8.81852 18.0219 8.76803 17.9209C8.41466 17.82 8.41467 17.82 8.21275 18.1734C8.46516 18.1734 8.36418 18.2238 8.26322 18.2743ZM54.353 21.4042V21.4547C54.3025 21.4547 54.3025 21.4042 54.353 21.4042C54.4035 21.3537 54.4035 21.3537 54.4035 21.3537C54.353 21.3537 54.353 21.4042 54.353 21.4042ZM44.4586 3.988C44.3576 3.988 44.3072 3.988 44.2062 3.988C44.1557 3.988 44.1052 4.03848 44.1052 4.08896C44.1052 4.13944 44.1557 4.13944 44.2062 4.13944C44.3576 4.18993 44.4586 4.13944 44.4586 3.988C44.5091 3.988 44.5091 3.988 44.5091 3.93752C44.5091 3.988 44.5091 3.988 44.4586 3.988ZM8.26322 44.2219C8.3137 44.1714 8.36419 44.1714 8.41467 44.121C8.6166 43.919 8.76805 43.7676 8.96997 43.5657C9.22238 43.3132 9.4243 43.0104 9.77767 42.8589C9.87863 42.8084 9.9796 42.657 10.0806 42.556C10.131 42.5055 10.1815 42.4046 10.232 42.3541C10.4844 42.1017 10.7368 41.8998 11.0397 41.6474C11.0902 41.5969 11.0902 41.5464 11.1407 41.4454C11.0902 41.4454 10.9892 41.4454 10.9892 41.4454C10.9388 41.4959 10.8883 41.5464 10.8378 41.5969C10.7873 41.6978 10.7368 41.7483 10.6359 41.7988C10.5349 41.8493 10.4844 41.8998 10.3835 41.9502C10.232 42.0512 10.0806 42.1522 9.92912 42.3036C9.87864 42.5055 9.72719 42.556 9.57574 42.657C9.52526 42.657 9.47479 42.7075 9.47479 42.7579C9.12142 43.1113 8.76805 43.4647 8.46516 43.8181C8.41467 43.8685 8.36418 43.9695 8.3137 44.0705C8.21274 44.121 8.26322 44.1714 8.26322 44.2219C8.21274 44.2724 8.21274 44.2724 8.26322 44.2219C8.21274 44.2724 8.26322 44.2724 8.26322 44.2219ZM26.1842 48.21C26.1842 48.21 26.1842 48.2605 26.1842 48.21C26.1842 48.2605 26.1842 48.21 26.1842 48.21C26.2852 48.1595 26.3357 48.109 26.4366 48.0585C26.5376 48.0585 26.5881 48.008 26.6386 47.9576C26.9919 47.7052 27.3958 47.5537 27.7996 47.4023C27.8501 47.4023 27.9006 47.3518 27.9511 47.3013C28.052 47.2003 28.153 47.1499 28.254 47.0489C28.3549 46.9479 28.3549 46.9479 28.254 46.746C28.2035 46.746 28.1025 46.746 28.0521 46.746C28.0016 46.746 27.9511 46.746 27.9511 46.7965C27.9006 46.9479 27.6987 46.9984 27.5977 47.0994C27.1939 47.3013 26.79 47.5032 26.3862 47.7052C26.2852 47.7556 26.2347 47.8061 26.1338 47.8566C26.0833 47.9071 26.0328 47.9071 25.9823 47.9576C25.9318 48.008 25.9318 48.0585 25.9823 48.109C26.1337 48.21 26.1842 48.21 26.1842 48.21ZM25.2251 9.99532C25.326 9.89436 25.4775 9.79339 25.5785 9.69243C25.6289 9.64195 25.6794 9.59147 25.7299 9.59147C26.0328 9.49051 26.2347 9.2381 26.4366 9.03617C26.5376 8.98569 26.5881 8.88472 26.689 8.83424C26.9919 8.73328 27.2443 8.48087 27.4968 8.27894C27.6482 8.17798 27.7996 8.02654 27.9511 7.87509C28.0016 7.82461 28.0016 7.77413 27.9511 7.72365C27.9511 7.67316 27.8501 7.62268 27.7996 7.67316C27.6482 7.72364 27.4463 7.82461 27.2948 7.92557C27.1939 8.02653 27.0424 8.1275 26.891 8.22846C26.7395 8.32943 26.6386 8.48087 26.4871 8.53135C26.4366 8.53135 26.3357 8.63231 26.2852 8.6828C26.1842 8.83424 26.0833 8.88472 25.9318 8.9352C25.8309 8.98569 25.7804 8.98569 25.6794 9.08665C25.528 9.2381 25.326 9.38954 25.1746 9.54099C25.1241 9.59147 25.0736 9.64195 25.0231 9.64195C24.7203 9.7934 24.4678 9.94484 24.165 10.0963C23.963 10.1972 23.7611 10.3487 23.5592 10.4497C23.4077 10.5506 23.2058 10.6516 23.1049 10.803C22.9534 10.9545 22.8019 11.0554 22.6505 11.1564C22.3981 11.3583 22.1457 11.5603 21.8933 11.7117C21.6914 11.8631 21.5399 11.9641 21.338 12.0651C21.237 12.1156 21.1361 12.166 21.1361 12.267C21.0856 12.3175 21.0351 12.368 20.9846 12.368C20.6817 12.5194 20.3283 12.6204 20.1264 12.9233C20.0759 12.9737 20.0759 12.9737 20.0255 13.0242C19.7731 13.1757 19.5206 13.3776 19.2682 13.529C19.2178 13.5795 19.1673 13.63 19.1168 13.6805C19.1673 13.731 19.2178 13.7815 19.2682 13.7815C19.5206 13.731 19.7226 13.63 19.9245 13.4786C20.2779 13.2262 20.5808 13.0242 20.9846 12.8223C21.2875 12.6709 21.5399 12.5194 21.7418 12.267C21.8933 12.0651 22.0952 11.9641 22.3476 11.9136C22.4486 11.9136 22.5496 11.8631 22.6 11.7622C22.701 11.6612 22.7515 11.6612 22.8524 11.6107C23.0544 11.5098 23.2563 11.4088 23.4077 11.3078C23.5592 11.1564 23.7106 11.005 23.9125 10.8535C24.1145 10.7021 24.3669 10.5506 24.5688 10.3487C24.7707 10.2982 25.0231 10.1468 25.2251 9.99532ZM9.12141 18.3753C9.17189 18.5267 9.22237 18.5267 9.32334 18.5267C9.57574 18.4762 9.87864 18.4258 10.0806 18.1734C10.1815 18.0219 10.333 17.9209 10.5349 17.9209C10.7873 17.9209 10.8883 17.7695 11.0397 17.6181C11.0902 17.5676 11.0902 17.5171 11.0902 17.5171C11.0902 17.4666 11.0902 17.4161 11.0902 17.4161C11.0397 17.4161 10.9892 17.3657 10.9892 17.3657C10.6864 17.5171 10.3835 17.6685 10.0806 17.82C10.0301 17.8705 9.9796 17.8705 9.92912 17.8705C9.62623 18.0219 9.37382 18.1734 9.12141 18.3753ZM11.0902 19.4859C11.2416 19.6373 11.2416 19.6373 11.3426 19.6373C11.696 19.6373 12.0493 19.4859 12.3522 19.284C12.4027 19.2335 12.4532 19.183 12.5037 19.082C12.5542 19.0315 12.5542 18.9811 12.5037 18.9306C12.4532 18.8801 12.4532 18.8801 12.4027 18.8296C12.2008 18.9306 11.9989 18.9811 11.7969 19.082C11.5445 19.183 11.3426 19.3344 11.0902 19.4859ZM26.0833 47.2003C26.2347 47.4528 26.2347 47.4527 26.4871 47.3518C26.6386 47.3013 26.79 47.2508 26.9414 47.1499C27.0929 47.0489 27.2948 46.9479 27.4463 46.847C27.5472 46.7965 27.5977 46.6955 27.5472 46.645C27.4968 46.5946 27.3958 46.5441 27.2948 46.5946C27.2443 46.5946 27.2443 46.645 27.1939 46.645C27.0929 46.6955 26.9919 46.746 26.8405 46.847C26.689 46.9479 26.5376 47.0489 26.3357 46.9984C26.2347 47.0489 26.1338 47.0994 26.0833 47.2003ZM11.595 17.1132C11.6455 17.1637 11.696 17.1637 11.7465 17.2142C11.9484 17.2647 12.0998 17.2142 12.2513 17.1132C12.3018 17.0628 12.4027 17.0123 12.4532 17.0123C12.6047 17.0123 12.7056 16.9113 12.8066 16.8608L12.8571 16.8104C12.8571 16.7599 12.8571 16.6589 12.8571 16.6084C12.8066 16.6084 12.7056 16.6084 12.7056 16.6084C12.5037 16.7094 12.3522 16.7599 12.1503 16.8608C12.0494 16.9113 11.8979 16.9618 11.7969 17.0628C11.696 17.0123 11.6455 17.0628 11.595 17.1132ZM10.232 45.6859C10.333 45.7869 10.4339 45.8878 10.5349 45.9383C10.7368 45.8878 10.7873 45.7364 10.8378 45.5849C10.8378 45.484 10.8378 45.383 10.7368 45.3325C10.6359 45.282 10.5349 45.2316 10.4339 45.282C10.333 45.383 10.2825 45.5344 10.232 45.6859ZM12.0493 42.1522C11.8474 42.2531 11.696 42.2531 11.595 42.4046C11.4941 42.5055 11.3931 42.6065 11.2921 42.6065C11.0397 42.6065 10.8378 42.7579 10.6863 42.9094C10.6863 42.9094 10.6863 42.9599 10.6359 43.0104C10.6863 43.0104 10.7368 43.0104 10.7368 43.0104C10.9388 42.9094 11.0902 42.8589 11.2417 42.7579C11.3426 42.7075 11.4436 42.6065 11.5445 42.6065C11.696 42.556 11.7969 42.4551 11.9484 42.3541C11.9989 42.3036 11.9989 42.2531 12.0493 42.1522ZM26.7395 8.1275C26.5376 8.07702 26.3862 8.07702 26.2347 8.17798C26.1337 8.27894 26.0833 8.37991 26.0833 8.53135C26.1338 8.53135 26.2347 8.53135 26.2852 8.48087C26.4366 8.43039 26.5376 8.32943 26.7395 8.1275ZM41.6821 4.84619C41.5307 4.79571 41.3792 4.84619 41.2783 4.94715C41.2278 4.94715 41.2783 5.04811 41.2783 5.0986C41.2783 5.14908 41.3287 5.19956 41.3792 5.14908C41.5307 5.14908 41.6316 5.04811 41.6821 4.84619ZM42.7422 5.0986C42.7422 5.04811 42.6413 4.99763 42.5908 4.99763C42.5403 5.04811 42.4898 5.0986 42.4393 5.14908C42.3889 5.19956 42.4393 5.30052 42.4898 5.30052C42.6413 5.351 42.7422 5.25004 42.7422 5.0986ZM14.0686 15.8007C13.9172 15.7502 13.8162 15.8512 13.6648 15.9017C13.6143 15.9017 13.5133 15.9522 13.5133 16.0026C13.5638 16.1036 13.6143 16.0026 13.6648 16.0026C13.9172 16.0026 14.0181 15.9017 14.0686 15.8007ZM46.1245 17.82C46.0235 17.8705 45.9731 17.8705 45.9226 17.9209V18.0219C45.9226 18.0219 45.9731 18.0724 46.0235 18.0724C46.1245 18.0724 46.1245 17.9714 46.1245 17.82ZM58.1392 22.9691C58.1896 23.0196 58.2401 23.0701 58.2906 23.0701C58.3411 23.0701 58.3916 23.0701 58.3916 23.0196C58.3916 22.9691 58.3916 22.9186 58.3916 22.9186C58.3916 22.9186 58.3411 22.8682 58.2906 22.8682C58.2401 22.9186 58.1896 22.9186 58.1392 22.9691ZM11.595 16.7094C11.4941 16.7094 11.3931 16.7094 11.2921 16.8608C11.494 16.8104 11.4941 16.8104 11.595 16.7094ZM13.4124 16.356C13.3114 16.2551 13.2104 16.3055 13.1599 16.356C13.1599 16.356 13.1599 16.4065 13.1599 16.457C13.1599 16.457 13.2104 16.5075 13.2609 16.5075C13.3114 16.457 13.3619 16.4065 13.4124 16.356ZM19.0663 12.4689C19.0663 12.4184 19.0663 12.4184 19.0158 12.4184H18.9653V12.4689C19.0158 12.4689 19.0158 12.4689 19.0663 12.4689ZM27.0424 48.7653L26.9919 48.8158C26.9919 48.8158 26.9919 48.8158 27.0424 48.8158C27.0424 48.8158 27.0424 48.8158 27.0424 48.7653C27.0929 48.8158 27.0424 48.7653 27.0424 48.7653ZM45.9226 2.42307C45.9226 2.42307 45.8721 2.42307 45.8721 2.47355V2.52403H45.9226C45.9731 2.47355 45.9731 2.47355 45.9226 2.42307ZM42.2879 5.25004C42.2879 5.30052 42.2879 5.30052 42.2879 5.25004C42.2374 5.30052 42.2374 5.30052 42.2374 5.30052H42.2879C42.3384 5.30052 42.3384 5.30052 42.2879 5.25004ZM11.0902 34.4285H11.0397C11.0397 34.4285 11.0397 34.4285 10.9892 34.4285C11.0397 34.4285 11.0397 34.479 11.0902 34.4285C11.0902 34.479 11.0902 34.4285 11.0902 34.4285Z" fill="#103055"/>
<path d="M2.60941 21.4043C2.40748 21.5557 2.25603 21.7072 2.00362 21.7072C1.90266 21.7072 1.85218 21.8082 1.75121 21.8586C1.4988 22.0101 1.24639 22.1615 0.943503 22.313C0.842539 22.3634 0.79207 22.4644 0.640625 22.4139V22.3635C0.943515 22.111 1.2464 21.9091 1.54929 21.6062C1.65025 21.6062 1.8017 21.6567 1.90267 21.5557C2.15508 21.4548 2.40748 21.4043 2.60941 21.4043Z" fill="#103055"/>
<path d="M46.2759 0.201965C46.3264 0.201965 46.3768 0.201965 46.3768 0.201965C46.5283 0.35341 46.4273 0.605819 46.5788 0.757264C46.4778 0.959191 46.4778 1.16112 46.3264 1.31256C46.2759 1.26208 46.2759 1.26208 46.2759 1.2116C46.3768 0.908709 46.3264 0.605819 46.2759 0.201965Z" fill="#103055"/>
<path d="M44.0044 0.908691C44.2568 0.908691 44.4587 0.959172 44.6102 0.959172C44.7111 1.06014 44.7111 1.11062 44.6102 1.21158C44.4587 1.21158 44.3073 1.21158 44.1558 1.21158C44.1054 1.1611 44.0549 1.06014 44.0044 0.908691Z" fill="#103055"/>
<path d="M50.4661 11.5099C50.4661 11.7118 50.4661 11.8633 50.3651 12.0147C50.2641 11.9137 50.1632 11.8128 50.0117 11.7623C50.1127 11.5099 50.2641 11.6109 50.4661 11.5099Z" fill="#103055"/>
<path d="M8.56584 45.8872C8.56584 45.8872 8.56584 45.8369 8.51551 45.8369C8.51551 45.7865 8.46519 45.6859 8.56584 45.6356C8.61617 45.6356 8.6665 45.6356 8.6665 45.6356C8.76716 45.6859 8.76716 45.7362 8.71684 45.8369C8.71684 45.9375 8.61617 45.9375 8.56584 45.8872Z" fill="#103055"/>
<path d="M43.247 1.3631C43.348 1.41358 43.3985 1.46406 43.4994 1.56502C43.348 1.56502 43.247 1.56502 43.146 1.56502C43.0956 1.41358 43.247 1.46406 43.247 1.3631Z" fill="#103055"/>
<path d="M9.47439 46.948C9.52471 47.0487 9.5247 47.099 9.5247 47.1493C9.47437 47.1996 9.42405 47.25 9.37372 47.1996C9.27307 47.099 9.37373 47.0487 9.47439 46.948Z" fill="#103055"/>
<path d="M17.6528 13.1253C17.7538 13.0244 17.8548 12.9739 17.9557 12.9234L18.0062 12.9739C18.0062 13.0244 17.9557 13.0748 17.9557 13.1758C17.8548 13.1253 17.7538 13.1253 17.6528 13.1253Z" fill="#103055"/>
<path d="M27.9504 6.8656C27.9001 7.01659 27.7994 7.01659 27.6484 7.11724C27.6988 6.96626 27.7994 6.91593 27.9504 6.8656Z" fill="#103055"/>
<path d="M18.4596 12.7211C18.4093 12.7714 18.3087 12.7714 18.208 12.7714C18.3087 12.7211 18.359 12.6707 18.4093 12.5701C18.4093 12.6707 18.4596 12.7211 18.4596 12.7211Z" fill="#103055"/>
<path d="M50.8193 16.0532C50.92 16.0532 50.9703 16.1036 50.9703 16.2042C50.9703 16.2042 50.9703 16.2545 50.92 16.2545C50.8697 16.2545 50.8697 16.2545 50.8697 16.2042C50.8697 16.1539 50.8193 16.1036 50.8193 16.0532Z" fill="#103055"/>
<path d="M17.6524 52.5513C17.6021 52.6017 17.6021 52.652 17.5015 52.6016V52.5513C17.5518 52.4507 17.6021 52.4507 17.6524 52.5513Z" fill="#103055"/>
<path d="M50.1119 12.1661C50.1119 12.2667 50.1119 12.3674 50.0112 12.4177C49.9609 12.3171 50.1119 12.2667 50.1119 12.1661C50.1119 12.2164 50.1119 12.2164 50.1119 12.1661Z" fill="#103055"/>
<path d="M54.7573 19.8892C54.7573 19.8388 54.7573 19.7382 54.8077 19.6879C54.858 19.7885 54.8077 19.8388 54.7573 19.8892Z" fill="#103055"/>
<path d="M7.15283 44.6763C7.20316 44.6763 7.20315 44.6763 7.25348 44.6763V44.7267H7.20316C7.20316 44.7267 7.20316 44.7267 7.15283 44.6763Z" fill="#103055"/>
<path d="M50.0621 11.1566C50.0621 11.1566 50.1124 11.1566 50.0621 11.1566C50.1124 11.2069 50.1124 11.2572 50.1124 11.2572C50.0621 11.3075 50.0117 11.2572 50.0117 11.2069C50.0117 11.2069 50.0621 11.1566 50.0621 11.1566Z" fill="#103055"/>
<path d="M5.63818 21.1515C5.63818 21.0508 5.6885 21.0005 5.73883 21.0005C5.73883 21.0508 5.63818 21.1011 5.63818 21.1515Z" fill="#103055"/>
<path d="M24.3668 8.83429C24.3668 8.88462 24.3668 8.98527 24.2661 8.98527C24.3164 8.93495 24.3668 8.88462 24.3668 8.83429Z" fill="#103055"/>
<path d="M5.73926 21.0002C5.78959 21.0002 5.83992 20.9498 5.89025 20.9498C5.83992 21.0002 5.78959 21.0002 5.73926 21.0002Z" fill="#103055"/>
<path d="M58.896 22.4643V22.4139C58.896 22.4139 58.896 22.4139 58.9463 22.4139C58.896 22.4139 58.896 22.4643 58.896 22.4643Z" fill="#103055"/>
<path d="M58.8961 22.4644C58.8458 22.4644 58.7954 22.5147 58.7451 22.5147C58.7954 22.5147 58.8458 22.4644 58.8961 22.4644Z" fill="#103055"/>
<path d="M10.9888 36.6498C10.9888 36.6498 10.9385 36.6498 10.9888 36.6498C10.9385 36.7001 10.9385 36.7001 10.8882 36.7001C10.9385 36.6498 10.9385 36.6498 10.9888 36.6498Z" fill="#103055"/>
<path d="M31.2324 5.50241C31.2324 5.50241 31.2324 5.45209 31.2828 5.45209C31.2828 5.45209 31.2828 5.50241 31.3331 5.50241C31.2828 5.50241 31.2324 5.50241 31.2324 5.50241Z" fill="#103055"/>
<path d="M28.0015 6.81491C28.0518 6.81491 28.0518 6.76458 28.0015 6.81491C28.0518 6.76458 28.0518 6.76458 28.0518 6.81491C28.0518 6.76458 28.0518 6.81491 28.0015 6.81491Z" fill="#103055"/>
<path d="M49.8604 12.7714C49.8604 12.7211 49.9107 12.6708 49.9107 12.6204C49.9107 12.6708 49.9107 12.7211 49.8604 12.7714Z" fill="#103055"/>
<path d="M35.8262 4.59358C35.8262 4.54325 35.8765 4.54325 35.8765 4.49292C35.8765 4.54325 35.8765 4.54325 35.8262 4.59358Z" fill="#103055"/>
<path d="M28.9106 6.20926L28.961 6.15894L28.9106 6.20926Z" fill="#103055"/>
<path d="M28.0015 6.81494C27.9512 6.86527 27.9512 6.86527 27.9009 6.9156C27.9512 6.86527 28.0015 6.81494 28.0015 6.81494Z" fill="#103055"/>
<path d="M27.3955 7.31974C27.4458 7.31974 27.4458 7.26941 27.4962 7.26941C27.4458 7.26941 27.3955 7.26941 27.3955 7.31974Z" fill="#103055"/>
<path d="M27.0928 7.52155C27.1431 7.47123 27.1431 7.47123 27.1934 7.4209C27.1431 7.47123 27.1431 7.47123 27.0928 7.52155Z" fill="#103055"/>
<path d="M25.831 8.22858V8.2789C25.7806 8.22858 25.831 8.22858 25.831 8.22858Z" fill="#103055"/>
<path d="M25.1743 8.32947L25.124 8.3798L25.1743 8.32947Z" fill="#103055"/>
<path d="M21.7925 10.601C21.8428 10.601 21.8428 10.601 21.8931 10.601C21.8428 10.5507 21.8428 10.5507 21.7925 10.601Z" fill="#103055"/>
<path d="M48.4463 11.1563L48.396 11.2066C48.396 11.1563 48.396 11.1563 48.396 11.106C48.396 11.1563 48.4463 11.1563 48.4463 11.1563Z" fill="#103055"/>
<path d="M50.1125 12.2165C50.0621 12.1662 50.0621 12.1662 50.1125 12.2165C50.0621 12.1662 50.0621 12.1662 50.1125 12.2165Z" fill="#103055"/>
<path d="M18.612 12.5195C18.5616 12.5195 18.5616 12.5195 18.612 12.5195C18.5616 12.5699 18.5616 12.5699 18.612 12.5195C18.612 12.5699 18.5616 12.5699 18.612 12.5195Z" fill="#103055"/>
<path d="M54.706 19.94C54.7563 19.8897 54.7563 19.8897 54.8066 19.8394C54.7563 19.8897 54.706 19.94 54.706 19.94C54.6556 19.94 54.706 19.94 54.706 19.94Z" fill="#103055"/>
<path d="M7.05131 34.9335L7.00098 34.9838C7.0513 34.9838 7.05131 34.9838 7.05131 34.9335Z" fill="#103055"/>
<path d="M7.00149 35.0344L6.95117 35.0847C6.95117 35.0847 6.95116 35.0344 7.00149 35.0344Z" fill="#103055"/>
<path d="M2.60938 38.8696C2.60938 38.8696 2.60938 38.8222 2.60938 38.8696C2.65681 38.8696 2.60938 38.8696 2.60938 38.8696Z" fill="#103055"/>
<path d="M2.5083 38.9213L2.55863 38.871C2.55863 38.871 2.55863 38.9213 2.5083 38.9213Z" fill="#103055"/>
<path d="M41.0255 47.5034C40.9751 47.5537 40.9751 47.5537 40.9248 47.604C40.9248 47.5537 40.9248 47.5537 40.9248 47.5034C40.9751 47.5034 40.9751 47.5034 41.0255 47.5034Z" fill="#103055"/>
<path d="M35.7251 5.09849C35.7251 5.04816 35.7251 5.04816 35.7754 5.04816C35.7754 5.04816 35.7754 5.04816 35.7754 5.09849C35.7754 5.09849 35.7754 5.09849 35.7251 5.09849Z" fill="#103055"/>
<path d="M16.7271 16.3724V15.5046C16.7271 14.3856 17.6339 13.4788 18.7529 13.4788H19.5008C19.8366 12.6777 20.6275 12.1156 21.5497 12.1156H24.913C26.7254 12.1156 28.195 13.5845 28.195 15.3969V20.3689" stroke="white" stroke-miterlimit="10" stroke-linecap="round" stroke-linejoin="round"/>
<path d="M16.7271 20.3682V18.6154" stroke="white" stroke-miterlimit="10" stroke-linecap="round" stroke-linejoin="round"/>
<path d="M20.6904 28.8311V26.0266" stroke="white" stroke-miterlimit="10" stroke-linecap="round" stroke-linejoin="round"/>
<path d="M24.231 28.8311V26.0266" stroke="white" stroke-miterlimit="10" stroke-linecap="round" stroke-linejoin="round"/>
<path d="M18.5995 22.6934H17.3306C16.6455 22.6934 16.0898 22.1377 16.0898 21.4527C16.0898 20.7669 16.6455 20.2119 17.3306 20.2119H18.5995" stroke="white" stroke-miterlimit="10" stroke-linecap="round" stroke-linejoin="round"/>
<path d="M26.3218 20.2119H27.5907C28.2758 20.2119 28.8315 20.7669 28.8315 21.4526C28.8315 22.1377 28.2758 22.6934 27.5907 22.6934H26.3218" stroke="white" stroke-miterlimit="10" stroke-linecap="round" stroke-linejoin="round"/>
<path d="M26.3219 17.4621V22.7261C26.3219 24.7413 24.6882 26.375 22.6729 26.375H22.2484C20.2335 26.375 18.6001 24.7416 18.6001 22.7267V16.7494C18.6001 16.1938 19.0504 15.7435 19.606 15.7435H20.2349C20.4522 15.7435 20.6655 15.799 20.8571 15.9015C22.3646 16.7078 24.1026 17.0838 25.8093 16.982C26.0869 16.9655 26.3219 17.1839 26.3219 17.4621Z" stroke="white" stroke-miterlimit="10" stroke-linecap="round" stroke-linejoin="round"/>
<path d="M23.4281 23.5842C23.1953 23.8096 22.8817 23.9482 22.5358 23.9482H22.385C22.0392 23.9482 21.7255 23.8096 21.4927 23.5842" stroke="white" stroke-miterlimit="10" stroke-linecap="round" stroke-linejoin="round"/>
<path d="M27.833 36.7187V39.8812" stroke="white" stroke-miterlimit="10" stroke-linecap="round" stroke-linejoin="round"/>
<path d="M17.9364 39.8812H30.7854V31.1972C30.7854 29.8905 29.7254 28.8311 28.4193 28.8311H16.501" stroke="white" stroke-miterlimit="10" stroke-linecap="round" stroke-linejoin="round"/>
<path d="M30.8184 15.1648V25.6342C30.8184 25.8112 30.9619 25.9547 31.1388 25.9547H44.7057C44.8827 25.9547 45.0261 25.8112 45.0261 25.6342V15.1648" stroke="white" stroke-miterlimit="10" stroke-linecap="round" stroke-linejoin="round"/>
<path d="M29.8569 14.8442V13.9499C29.8569 13.773 30.0004 13.6295 30.1774 13.6295H45.6664C45.8433 13.6295 45.9868 13.773 45.9868 13.9499V14.8442C45.9868 15.0212 45.8433 15.1647 45.6664 15.1647H30.1774C30.0004 15.1647 29.8569 15.0212 29.8569 14.8442Z" stroke="white" stroke-miterlimit="10" stroke-linecap="round" stroke-linejoin="round"/>
<path d="M21.5429 37.7996L17.2456 40.2806C16.9555 40.4482 16.6263 40.5364 16.2912 40.5364H16.0442C14.9899 40.5364 14.1353 39.6817 14.1353 38.6274V31.1951C14.1364 29.8895 15.1956 28.8311 16.5014 28.8311H17.5299" stroke="white" stroke-miterlimit="10" stroke-linecap="round" stroke-linejoin="round"/>
<path d="M23.5355 36.6494L25.012 35.7969L23.5355 33.2397L17.0884 36.9619V34.7139" stroke="white" stroke-miterlimit="10" stroke-linecap="round" stroke-linejoin="round"/>
<path d="M33.8138 23.9482L27.5293 32.2919" stroke="white" stroke-miterlimit="10" stroke-linecap="round" stroke-linejoin="round"/>
<path d="M23.5356 33.2397L25.6894 31.9962C26.3956 31.5885 27.2986 31.8305 27.7063 32.5366C28.114 33.2428 27.872 34.1458 27.1659 34.5535L25.0121 35.7969" stroke="white" stroke-miterlimit="10" stroke-linecap="round" stroke-linejoin="round"/>
<path d="M22.4604 28.831L23.6408 30.8134C23.7434 30.9856 23.9771 31.0224 24.1277 30.8902L26.4702 28.831" stroke="white" stroke-miterlimit="10" stroke-linecap="round" stroke-linejoin="round"/>
<path d="M22.4604 28.831L21.2801 30.8134C21.1776 30.9856 20.9438 31.0224 20.7932 30.8902L18.4507 28.831" stroke="white" stroke-miterlimit="10" stroke-linecap="round" stroke-linejoin="round"/>
<path d="M37.9897 25.9546V27.5331" stroke="white" stroke-miterlimit="10" stroke-linecap="round" stroke-linejoin="round"/>
<path d="M37.9894 27.5332C37.4219 27.5332 36.9619 27.9932 36.9619 28.5606C36.9619 29.128 37.4219 29.588 37.9894 29.588C38.5568 29.588 39.0168 29.128 39.0168 28.5606C39.0168 27.9932 38.5568 27.5332 37.9894 27.5332Z" stroke="white" stroke-miterlimit="10" stroke-linecap="round" stroke-linejoin="round"/>
</svg>
