<svg width="100" height="100" viewBox="0 0 100 100" fill="none" xmlns="http://www.w3.org/2000/svg">
<g clip-path="url(#clip0_714_153)">
<path d="M85.3555 14.6447C75.9117 5.20098 63.3555 0 50 0C36.6445 0 24.0883 5.20098 14.6445 14.6447C5.20078 24.0885 0 36.6445 0 50C0 63.3555 5.20078 75.9117 14.6445 85.3553C24.0883 94.7988 36.6445 100 50 100C63.3555 100 75.9117 94.799 85.3555 85.3553C94.7992 75.9115 100 63.3555 100 50C100 36.6445 94.7992 24.0883 85.3555 14.6447ZM50 90.1859C27.8412 90.1859 9.81406 72.1586 9.81406 50C9.81406 49.9637 9.81523 49.9277 9.81543 49.8918C9.81543 49.8826 9.81406 49.8738 9.81406 49.8647C9.81406 49.8492 9.81602 49.8344 9.81641 49.8191C9.91387 27.926 27.6066 10.1141 49.4539 9.82109C49.4996 9.81894 49.5449 9.81426 49.5912 9.81426C49.6189 9.81426 49.6459 9.81758 49.6734 9.81836C49.7824 9.81758 49.891 9.81426 50.0002 9.81426C72.159 9.81426 90.1861 27.8416 90.1861 50.0002C90.1861 72.1588 72.1588 90.1859 50 90.1859Z" fill="#BFBFBF" fill-opacity="0.46"/>
<path d="M80.5249 52.414C78.8909 52.414 77.5663 51.0894 77.5663 49.4554C77.5663 47.8214 78.8909 46.4968 80.5249 46.4968H84.0911C82.4161 30.0757 69.0985 17.049 52.5497 15.8259V18.9304C52.5497 20.5644 51.2251 21.889 49.5911 21.889C47.9571 21.889 46.6325 20.5644 46.6325 18.9304V15.8966C30.3286 17.4943 17.3417 30.565 15.8724 46.9056H19.0661C20.7001 46.9056 22.0247 48.2302 22.0247 49.8642C22.0247 51.4982 20.7001 52.8228 19.0661 52.8228H15.8481C17.2085 69.4265 30.4558 82.7144 47.0415 84.1396V80.389C47.0415 78.755 48.3661 77.4304 50.0001 77.4304C51.6341 77.4304 52.9587 78.755 52.9587 80.389V84.1396C69.6802 82.7027 83.0081 69.2077 84.1827 52.414H80.5249ZM61.9767 42.2074L52.0923 52.0919C51.5374 52.6468 50.7851 52.9585 50.0003 52.9585C49.2157 52.9585 48.463 52.6468 47.9083 52.0919L30.7026 34.8863C29.5472 33.731 29.5472 31.8578 30.7026 30.7023C31.8579 29.5468 33.7311 29.5468 34.8866 30.7023L50.0005 45.816L57.7931 38.0234C58.9483 36.8679 60.8216 36.8679 61.977 38.0234C63.1321 39.1787 63.1321 41.0521 61.9767 42.2074Z" fill="#BFBFBF" fill-opacity="0.46"/>
</g>
<defs>
<clipPath id="clip0_714_153">
<rect width="100" height="100" fill="white"/>
</clipPath>
</defs>
</svg>
