<svg width="100" height="100" viewBox="0 0 100 100" fill="none" xmlns="http://www.w3.org/2000/svg">
<path d="M93.7201 63.8807H90.3672C89.296 63.8807 88.2895 63.3684 87.6594 62.5023L68.8745 36.6832C67.3732 34.7189 65.0421 33.5665 62.5698 33.5665H58.4396C57.5475 33.5665 56.8241 32.8433 56.8241 31.951V28.1239C56.8241 27.3682 57.2105 26.6694 57.8419 26.2545C61.7693 23.6746 64.3474 19.209 64.2882 14.1453C64.197 6.3473 57.7471 0.00665531 49.9484 0.0423866C42.0962 0.0785084 35.7416 6.45508 35.7416 14.316C35.7416 19.307 38.3034 23.6998 42.1838 26.2512C42.817 26.6675 43.2068 27.3665 43.2068 28.1244V31.951C43.2068 32.8431 42.4835 33.5665 41.5912 33.5665H36.3655C33.8932 33.5665 31.5621 34.7189 30.0608 36.6832L11.3057 62.7092C10.6764 63.5826 9.66561 64.1002 8.58898 64.1002H6.27973C2.81164 64.1 0 66.9116 0 70.3799C0 73.8482 2.81145 76.6597 6.27973 76.6597H12.4487C8.64268 78.786 6.06749 82.8521 6.06749 87.5216C6.06749 94.3898 11.6353 99.9576 18.5035 99.9576H71.1881L29.8003 77.0254C26.5103 75.7494 23.0055 75.0855 19.4583 75.0855H19.2145C19.7006 74.6972 20.1411 74.2457 20.5184 73.7336L32.443 55.9769V71.6284C32.5008 71.6557 32.559 71.6815 32.6158 71.7129L50.1404 81.4258L66.4924 71.6161V55.9769L78.4476 73.5141C78.842 74.0497 79.3051 74.5191 79.8177 74.9188C75.2966 74.9863 70.5221 76.2285 66.4924 78.4667V78.4468L56.0589 84.706L82.8369 99.5474C88.5539 98.4268 92.868 93.3911 92.868 87.346V87.2863C92.868 82.5955 90.27 78.5407 86.4354 76.4404H93.7203C97.1885 76.4404 100 73.6289 100 70.1607C100 66.6922 97.1884 63.8807 93.7201 63.8807V63.8807Z" fill="#BFBFBF" fill-opacity="0.46"/>
</svg>
