<svg width="100" height="100" viewBox="0 0 100 100" fill="none" xmlns="http://www.w3.org/2000/svg">
<g clip-path="url(#clip0_714_125)">
<path fill-rule="evenodd" clip-rule="evenodd" d="M80.0267 15.4531C81.8598 15.4535 83.6656 15.8972 85.2902 16.7462C86.9148 17.5953 88.31 18.8245 89.357 20.3293C90.4039 21.834 91.0714 23.5695 91.3028 25.388C91.5341 27.2064 91.3223 29.0538 90.6854 30.7727C90.0486 32.4916 89.0055 34.031 87.6452 35.2598C86.2849 36.4885 84.6477 37.3701 82.8731 37.8295C81.0985 38.2888 79.2391 38.3122 77.4535 37.8978C75.6679 37.4833 74.009 36.6433 72.6181 35.4492L72.5986 35.4738C72.6232 35.0406 72.6363 34.6033 72.6363 34.1652C72.6409 30.0999 71.5432 26.1093 69.4599 22.6184C70.3008 20.5031 71.7577 18.6891 73.6417 17.4115C75.5257 16.134 77.75 15.4517 80.0263 15.4531H80.0267ZM100.005 57.3705V65.5664H82.757C82.0053 62.2782 80.7604 59.1227 79.0646 56.207C76.6465 52.0644 73.3746 48.4838 69.4662 45.7031C70.0006 44.8069 70.472 43.8746 70.8769 42.9129C74.1219 44.7609 77.8505 45.5826 81.5717 45.2698C85.2929 44.957 88.832 43.5245 91.723 41.1607C94.2815 43.0085 96.3659 45.4362 97.8053 48.2448C99.2448 51.0535 99.9983 54.1631 100.004 57.3191V57.3705H100.005ZM76.4695 73.1139C76.4695 73.1004 76.4695 73.0869 76.4695 73.0758C76.4539 68.764 75.3905 64.5206 73.3708 60.7111C71.3511 56.9016 68.4356 53.6402 64.8755 51.2076C60.7608 54.8051 55.4807 56.7879 50.0151 56.7879C44.5494 56.7879 39.2693 54.8051 35.1546 51.2076C31.595 53.6415 28.6799 56.9035 26.6598 60.7131C24.6397 64.5228 23.5752 68.7661 23.5577 73.0781V73.1139V84.5469H76.4679V73.1139H76.4695ZM17.2698 65.5664H-0.00439453V57.3705C-0.00439453 57.3572 -0.00439453 57.3393 -0.00439453 57.3236C0.000658159 54.1668 0.753796 51.0562 2.19328 48.2467C3.63276 45.4372 5.71759 43.0089 8.27686 41.1607C11.1717 43.5273 14.7161 44.9603 18.4422 45.2706C22.1683 45.581 25.901 44.7541 29.1474 42.899C29.553 43.8656 30.0258 44.8026 30.5622 45.7031C23.8405 50.4653 19.1085 57.5366 17.2698 65.5664ZM19.9734 15.4531C22.255 15.4517 24.4842 16.1371 26.3708 17.4203C28.2574 18.7034 29.714 20.5248 30.5511 22.6473C28.4778 26.1312 27.3856 30.1111 27.3903 34.1652C27.3903 34.616 27.406 35.0648 27.4327 35.509L27.3792 35.4486C25.9883 36.643 24.3292 37.4834 22.5434 37.898C20.7575 38.3126 18.8979 38.2892 17.1231 37.8299C15.3482 37.3705 13.7107 36.4887 12.3503 35.2597C10.9899 34.0307 9.94684 32.491 9.31008 30.7718C8.67332 29.0526 8.46175 27.2049 8.69341 25.3862C8.92507 23.5676 9.59308 21.8319 10.6405 20.3272C11.6879 18.8225 13.0836 17.5934 14.7087 16.7447C16.3338 15.896 18.14 15.4529 19.9734 15.4531ZM50.0134 18.6854C53.075 18.6854 56.0679 19.5934 58.6135 21.2944C61.1591 22.9954 63.1431 25.413 64.3147 28.2416C65.4863 31.0702 65.7928 34.1827 65.1954 37.1855C64.5981 40.1882 63.1237 42.9464 60.9588 45.1113C58.7939 47.2762 56.0356 48.7504 53.0329 49.3477C50.0301 49.945 46.9176 49.6384 44.089 48.4667C41.2605 47.2951 38.8429 45.311 37.1419 42.7654C35.441 40.2197 34.5331 37.2269 34.5331 34.1652C34.5376 30.061 36.17 26.1262 39.0721 23.2241C41.9743 20.322 45.9092 18.6897 50.0134 18.6854Z" fill="#BFBFBF" fill-opacity="0.46"/>
</g>
<defs>
<clipPath id="clip0_714_125">
<rect width="100" height="100" fill="white"/>
</clipPath>
</defs>
</svg>
