<svg width="100" height="100" viewBox="0 0 100 100" fill="none" xmlns="http://www.w3.org/2000/svg">
<g clip-path="url(#clip0_714_147)">
<path d="M38.2354 0H44.1177V11.7647H38.2354V0Z" fill="#BFBFBF" fill-opacity="0.46"/>
<path d="M49.9873 12.0779L58.305 3.76023L62.4638 7.91906L54.1461 16.2367L49.9873 12.0779Z" fill="#BFBFBF" fill-opacity="0.46"/>
<path d="M19.8779 7.91553L24.0368 3.7567L32.3544 12.0744L28.1956 16.2332L19.8779 7.91553Z" fill="#BFBFBF" fill-opacity="0.46"/>
<path d="M86.5123 56.3871C84.2156 54.0903 80.4925 54.0899 78.1951 56.3854L80.2733 54.3071C82.5705 52.0101 82.5705 48.2856 80.2733 45.9883C77.9766 43.6914 74.2531 43.691 71.9558 45.9867L74.0343 43.9083C76.3313 41.6112 76.3313 37.8867 74.0343 35.5895C71.7376 33.2926 68.0143 33.2922 65.717 35.5877L82.3529 18.9518C84.6502 16.6548 84.6502 12.9303 82.3529 10.633C80.0556 8.33555 76.3311 8.33555 74.0341 10.633L36.7213 48.0069C36.7213 48.0069 24.5201 26.9324 13.8443 37.6085L11.7646 39.6881L18.697 46.6205C25.2056 53.1291 25.2056 63.682 18.697 70.1907L15.9239 72.9636L42.9605 100L49.1998 93.7608L59.8982 89.1759C62.4478 88.0832 64.7654 86.5142 66.7268 84.5526L86.5123 64.7059C88.8096 62.4087 88.8096 58.6844 86.5123 56.3871Z" fill="#BFBFBF" fill-opacity="0.46"/>
</g>
<defs>
<clipPath id="clip0_714_147">
<rect width="100" height="100" fill="white"/>
</clipPath>
</defs>
</svg>
