<svg width="100" height="100" viewBox="0 0 100 100" fill="none" xmlns="http://www.w3.org/2000/svg">
<g clip-path="url(#clip0_714_127)">
<path d="M0 40.9817V96.875C0 98.601 1.39902 100 3.125 100H96.875C98.601 100 100 98.601 100 96.875V40.9817C100 40.1537 99.0344 39.7014 98.3982 40.2315L52 78.8985C50.8432 79.8639 49.1586 79.8652 48 78.8985L1.60176 40.2313C0.965625 39.7012 0 40.1535 0 40.9817H0Z" fill="#BFBFBF" fill-opacity="0.46"/>
<path d="M50 41.8965C54.541 39.7558 63.1738 34.3379 63.1738 27.8047C63.1738 22.2668 56.0145 19.7615 52.377 24.0215C51.1303 25.4812 48.8701 25.4818 47.623 24.0215C43.9844 19.7601 36.8262 22.2693 36.8262 27.8047C36.8262 34.3359 45.4551 39.7539 50 41.8965Z" fill="#BFBFBF" fill-opacity="0.46"/>
<path d="M81.25 45.9957V3.125C81.25 1.39902 79.851 0 78.125 0H21.875C20.149 0 18.75 1.39902 18.75 3.125V45.932C18.75 46.2215 18.8783 46.4959 19.1004 46.6814L49.3746 71.9717C49.7367 72.2742 50.2633 72.2746 50.6258 71.9725L80.8984 46.7459C81.1213 46.5603 81.25 46.2855 81.25 45.9957ZM50 17.8184C58.0836 12.2422 69.4238 17.9072 69.4238 27.8047C69.4238 40.625 51.9238 47.9023 51.1797 48.207C50.4432 48.507 49.5928 48.5217 48.8203 48.207C48.0762 47.9023 30.5762 40.625 30.5762 27.8047C30.5762 17.9061 41.9176 12.243 50 17.8184Z" fill="#BFBFBF" fill-opacity="0.46"/>
<path d="M87.5 27.6709V39.126C87.5 39.9539 88.4656 40.4063 89.1018 39.8762L95.9748 34.1487C96.4434 33.7582 96.4434 33.0387 95.9748 32.6483L89.1018 26.9207C88.4656 26.3906 87.5 26.843 87.5 27.6709Z" fill="#BFBFBF" fill-opacity="0.46"/>
<path d="M12.5001 27.6709V39.126C12.5001 39.9539 11.5344 40.4063 10.8983 39.8762L4.02524 34.1487C3.55669 33.7582 3.55669 33.0387 4.02524 32.6483L10.8983 26.9207C11.5344 26.3906 12.5001 26.843 12.5001 27.6709Z" fill="#BFBFBF" fill-opacity="0.46"/>
</g>
<defs>
<clipPath id="clip0_714_127">
<rect width="100" height="100" fill="white"/>
</clipPath>
</defs>
</svg>
