<svg width="100" height="100" viewBox="0 0 100 100" fill="none" xmlns="http://www.w3.org/2000/svg">
<g clip-path="url(#clip0_714_134)">
<path d="M23.6328 32.2592V45.9515L50 59.1351L76.5625 45.9515V32.2592L50 41.5656L23.6328 32.2592Z" fill="#BFBFBF" fill-opacity="0.46"/>
<path d="M0 17.7734L50 35.3516L82.4219 23.9775V47.0703H88.2812V21.9094L100 17.7734L50 0L0 17.7734Z" fill="#BFBFBF" fill-opacity="0.46"/>
<path d="M91.2109 88.0859C96.065 88.0859 100 81.5276 100 73.4375C100 65.3474 96.065 58.7891 91.2109 58.7891C86.3569 58.7891 82.4219 65.3474 82.4219 73.4375C82.4219 81.5276 86.3569 88.0859 91.2109 88.0859Z" fill="#BFBFBF" fill-opacity="0.46"/>
<path d="M38.2812 100H50V88.9449L44.3523 88.1918L38.2812 89.2955V100Z" fill="#BFBFBF" fill-opacity="0.46"/>
<path d="M59.4948 62.576C56.0397 65.207 53.937 69.1295 53.937 73.4375C53.937 77.7455 56.0401 81.6676 59.4946 84.299L80.1423 87.0264C77.9216 83.4525 76.5626 78.7736 76.5626 73.4375C76.5626 68.1014 77.922 63.4225 80.1425 59.8486L59.4948 62.576Z" fill="#BFBFBF" fill-opacity="0.46"/>
<path d="M0 73.4375C0 81.4855 5.21855 88.0402 12.168 88.0402C12.1938 88.0402 12.2195 88.0402 12.2424 88.0373L33.8596 84.1432C31.7639 80.9922 30.4992 77.3428 30.4992 73.4375C30.4992 69.5379 31.7598 65.8937 33.8494 62.7455L11.7188 58.7891C5.25566 58.7891 0 65.3607 0 73.4375Z" fill="#BFBFBF" fill-opacity="0.46"/>
<path d="M44.2095 64.6141L40.2667 63.9028C37.7815 66.4537 36.3589 69.8336 36.3589 73.4375C36.3589 77.0438 37.7845 80.4256 40.2731 82.9772L44.2124 82.2608L50.6786 83.1231C49.0067 80.2158 48.0776 76.9057 48.0776 73.4375C48.0776 69.9694 49.0067 66.6586 50.6786 63.7516L44.2095 64.6141Z" fill="#BFBFBF" fill-opacity="0.46"/>
</g>
<defs>
<clipPath id="clip0_714_134">
<rect width="100" height="100" fill="white"/>
</clipPath>
</defs>
</svg>
