<svg width="100" height="100" viewBox="0 0 100 100" fill="none" xmlns="http://www.w3.org/2000/svg">
<g clip-path="url(#clip0_714_143)">
<path d="M19.6297 5.59006C19.6297 2.50778 17.1211 0 14.0388 0C10.067 0 6.83594 3.23105 6.83594 7.20291V92.9626H11.4639V11.1732H14.3173C17.2989 11.0329 19.6297 8.58841 19.6297 5.59006Z" fill="#BFBFBF" fill-opacity="0.46"/>
<path d="M17.334 100H84.9068V17.0502L17.334 17.0441V100ZM49.0463 36.1244H74.8756V42.0052H49.0463V36.1244ZM49.0463 58.0574H74.8756V63.9381H49.0463V58.0574ZM49.0463 78.4348H74.8756V84.3155H49.0463V78.4348ZM30.1628 32.6447L33.0635 35.5476L37.2993 27.636L42.4728 30.4161L34.5032 45.3003L26.0139 36.8057L30.1628 32.6447ZM30.1628 53.8063L33.0635 56.7093L37.2993 48.7976L42.4728 51.5778L34.5032 66.4619L26.0139 57.9666L30.1628 53.8063ZM30.1628 74.968L33.0635 77.8709L37.2993 69.9593L42.4728 72.7394L34.5032 87.6236L26.0139 79.129L30.1628 74.968Z" fill="#BFBFBF" fill-opacity="0.46"/>
<path d="M87.6509 0H24.0386C24.9671 1.65482 25.4996 3.5614 25.4996 5.59006C25.4996 7.61871 24.9762 9.52225 24.0584 11.174L87.6754 11.1801C90.7469 11.1671 93.241 8.6647 93.241 5.59006C93.241 2.50778 90.7332 0 87.6509 0Z" fill="#BFBFBF" fill-opacity="0.46"/>
</g>
<defs>
<clipPath id="clip0_714_143">
<rect width="100" height="100" fill="white"/>
</clipPath>
</defs>
</svg>
