<svg width="61" height="53" viewBox="0 0 61 53" fill="none" xmlns="http://www.w3.org/2000/svg">
<path d="M8.26322 18.2745C8.3137 18.224 8.36419 18.1231 8.41467 18.0221C8.31371 18.0221 8.21274 18.0221 8.11178 18.0221C8.16226 17.9211 8.21275 17.8706 8.21275 17.7697C8.36419 17.6687 8.51563 17.7697 8.6166 17.5678C8.6166 17.4668 8.46515 17.5173 8.41467 17.4668C8.36419 17.4163 8.36418 17.3658 8.3137 17.2649C8.41467 17.2144 8.46515 17.1639 8.56611 17.1639C8.71756 17.1639 8.76804 17.1134 8.869 17.0629C9.07093 16.962 9.22238 16.8105 9.47479 16.6591C9.42431 16.6086 9.4243 16.5076 9.37382 16.4572C9.47478 16.4067 9.57575 16.3562 9.62623 16.3057C9.67671 16.3057 9.67672 16.2552 9.7272 16.2552C9.97961 16.3057 10.0806 16.1038 10.1815 15.9523C10.232 15.9019 10.232 15.8514 10.2825 15.8514C10.5854 15.6999 10.8883 15.8009 11.1912 15.7504C11.2416 15.7504 11.2921 15.8009 11.3426 15.8009C11.595 15.9019 11.7969 15.8514 11.9989 15.6999C12.2008 15.5485 12.4532 15.4475 12.7056 15.4475C12.8571 15.4475 13.0085 15.397 13.1095 15.2456C13.1599 15.2456 13.2104 15.2456 13.3114 15.2961C13.4628 15.0942 13.6143 14.8922 13.9172 14.8417C14.0686 14.7913 14.1696 14.7408 14.321 14.7408C14.6239 14.6903 14.8763 14.5389 15.1287 14.3874C15.4821 14.1855 15.886 13.9836 16.2393 13.8321C16.4917 13.7312 16.6937 13.5797 16.9461 13.4283C17.1985 13.2768 17.5014 13.1254 17.8043 13.0749C17.8043 13.2263 17.6528 13.2768 17.6023 13.3273C17.3499 13.4787 17.047 13.6302 16.7442 13.7816C16.5927 13.8321 16.4917 13.9331 16.3908 14.034C16.1888 14.1855 15.9869 14.2865 15.7345 14.3874C15.3811 14.5389 15.0278 14.7913 14.7249 14.9932C14.6744 14.9932 14.6744 15.0437 14.6744 15.0437C14.6744 15.1446 14.7249 15.1446 14.7754 15.1446C14.9268 15.1446 15.0783 15.1446 15.1792 15.0942C15.1792 15.0942 15.1792 15.0942 15.2297 15.0942C15.5326 15.0942 15.7345 14.8922 15.9364 14.7913C16.2898 14.6398 16.6432 14.4379 16.9461 14.1855C16.9966 14.135 17.047 14.135 17.0975 14.135C17.4509 14.034 17.7033 13.7312 18.0062 13.5292C18.1072 13.4283 18.2081 13.3273 18.3596 13.2263C18.511 13.1254 18.612 12.9739 18.612 12.772C18.6624 12.772 18.7129 12.772 18.7634 12.772C18.8139 12.772 18.8644 12.7215 18.8644 12.6206C18.8644 12.5196 18.8139 12.5196 18.7129 12.5196C18.7634 12.4691 18.7634 12.4186 18.8139 12.4186C19.0663 12.2672 19.3187 12.0148 19.6216 11.9138C19.874 11.8128 20.0255 11.6614 20.2779 11.6109C20.3284 11.6109 20.3284 11.5604 20.3284 11.5604C20.4798 11.409 20.6312 11.308 20.8836 11.308C20.9846 11.0051 21.2875 11.0556 21.4894 10.9547C21.5399 11.0051 21.4894 11.0556 21.4894 11.0556C21.4894 11.0556 21.4894 11.0556 21.4389 11.0556C21.2875 11.3585 20.9846 11.51 20.6817 11.6614C20.6312 11.7119 20.5808 11.7624 20.5303 11.8128C20.4293 11.8633 20.3788 11.9643 20.2779 11.9643C20.1769 12.0148 20.0759 12.1157 20.0255 12.1662C19.975 12.2167 19.874 12.3177 19.874 12.4691C19.9245 12.4691 19.9245 12.5196 19.975 12.5196C20.1769 12.5196 20.3788 12.4186 20.5303 12.3177C20.7827 12.0653 21.0856 11.9138 21.3885 11.7119C21.5904 11.5604 21.7923 11.4595 21.9942 11.3585V11.409C21.9942 11.409 22.0447 11.409 22.0952 11.409C22.0952 11.409 22.0952 11.409 22.0952 11.3585L22.0447 11.308H21.9942C22.0447 11.2575 22.0447 11.2071 22.0952 11.2071C22.2971 11.1566 22.4486 11.0051 22.5495 10.8537C22.6505 10.7022 22.7515 10.6013 22.8524 10.5508C22.9534 10.5003 23.0544 10.3994 23.1553 10.2984C23.1553 10.2984 23.1553 10.2479 23.2058 10.1974C23.1553 10.1974 23.1048 10.1974 23.0544 10.1974C22.8524 10.2984 22.6505 10.3489 22.4991 10.4498C22.4486 10.5003 22.3476 10.5508 22.2971 10.6013C22.1457 10.7527 21.9438 10.8537 21.7418 10.9042H21.6914C21.7418 10.7527 21.9438 10.7527 21.9942 10.6013C22.0447 10.5508 22.0952 10.5003 22.0952 10.5003C22.0447 10.3489 22.1457 10.2984 22.2467 10.2479C22.4991 10.1974 22.6505 10.046 22.8524 9.89454C22.9029 9.84406 23.0039 9.79358 23.0544 9.79358C23.1048 9.79358 23.1553 9.7431 23.1553 9.69261C23.3068 9.49069 23.5087 9.33924 23.7611 9.23828C23.8621 9.1878 23.963 9.08683 24.064 9.03635C24.1145 8.98587 24.165 9.03635 24.2154 9.03635C24.2659 9.03635 24.3669 8.98587 24.4174 8.98587C24.3164 9.08683 24.2659 9.1878 24.165 9.23828C24.2659 9.38972 24.3164 9.44021 24.3669 9.38972C24.5183 9.33924 24.6193 9.23828 24.7707 9.13732C24.8717 9.08683 24.9222 8.98587 25.0736 8.98587C25.0736 8.98587 25.1241 8.98587 25.1241 8.93539C25.2756 8.78394 25.427 8.6325 25.6289 8.53153C25.7299 8.32961 25.8813 8.32961 26.0833 8.32961C26.1338 8.17816 26.0328 8.22864 25.9823 8.17816C26.1337 8.0772 26.2347 7.97624 26.3862 7.92575C26.4871 7.87527 26.5881 7.82479 26.689 7.87527C26.7395 7.87527 26.79 7.87527 26.8405 7.82479C26.891 7.72383 27.0424 7.67335 27.0929 7.57238C27.1434 7.5219 27.1939 7.47142 27.2948 7.5219C27.2443 7.57238 27.2443 7.57238 27.1939 7.62286C27.0929 7.77431 27.1434 7.87527 27.2948 7.97624C27.4463 7.82479 27.6482 7.72383 27.7996 7.57238C28.0016 7.37046 28.2035 7.31997 28.5064 7.37046C28.6073 7.42094 28.7083 7.37046 28.7588 7.26949C28.7588 7.21901 28.7588 7.16853 28.7588 7.11805C28.7083 7.11805 28.6578 7.11805 28.6578 7.11805V7.06757C28.7083 7.01708 28.7588 6.9666 28.8093 6.9666C28.9102 6.91612 28.9607 6.86564 29.0617 6.81516C29.1627 6.71419 29.3141 6.61323 29.4655 6.56275C29.617 6.51227 29.718 6.46179 29.8694 6.4113C30.0208 6.36082 30.0713 6.20938 30.1723 6.10841C30.2733 6.05793 30.3742 5.95697 30.4752 5.95697C30.6771 5.90649 30.8286 5.75504 30.9295 5.6036C31.1314 5.80552 31.1819 5.80552 31.3334 5.6036C31.3334 5.55311 31.3838 5.55311 31.3838 5.55311C31.3838 5.55311 31.3839 5.6036 31.4343 5.6036L31.4848 5.55311C31.5858 5.45215 31.6867 5.40167 31.7877 5.30071C31.9391 5.19974 32.0906 5.19974 32.242 5.19974C32.2925 5.19974 32.343 5.25022 32.343 5.30071C32.3935 5.35119 32.444 5.45215 32.4944 5.55311C32.444 5.65408 32.444 5.75504 32.3935 5.856C32.3935 5.90649 32.444 6.00745 32.5449 5.95697C32.5954 5.95697 32.5954 5.95697 32.6459 5.90649C32.7973 5.80552 32.9488 5.70456 33.0497 5.6036C33.1507 5.45215 33.3022 5.40167 33.4536 5.45215C33.6555 5.30071 33.807 5.14926 34.0594 5.09878C34.2613 4.89685 34.5642 4.79589 34.7661 4.54348C34.7661 4.59396 34.8166 4.64444 34.8166 4.69493C34.8671 4.74541 34.9176 4.74541 35.0185 4.79589C35.17 4.74541 35.3214 4.64444 35.4729 4.59396C35.5233 4.64444 35.5233 4.69493 35.5738 4.74541C35.6243 4.79589 35.7253 4.84637 35.7757 4.79589C35.8767 4.74541 35.9272 4.64444 36.0282 4.69493C35.8767 4.89685 35.6748 5.0483 35.4224 5.09878C35.17 5.14926 34.968 5.30071 34.7661 5.40167C34.7156 5.45215 34.6147 5.50263 34.6147 5.55311C34.5642 5.75504 34.4632 5.80552 34.3118 5.856C34.1099 5.95697 33.9079 6.10841 33.8574 6.4113C33.8574 6.51227 33.9079 6.56275 34.0089 6.56275C34.1603 6.56275 34.2613 6.51227 34.4128 6.51227C34.4632 6.46178 34.5137 6.36082 34.5642 6.31034C34.7156 6.05793 34.968 5.95697 35.2709 5.95697C35.3214 5.95697 35.4224 5.95697 35.4729 5.90649C35.5233 5.856 35.5233 5.80552 35.5738 5.70456C35.5738 5.65408 35.5738 5.65408 35.5738 5.6036C35.6243 5.6036 35.6243 5.6036 35.6748 5.6036C35.8767 5.70456 36.0282 5.6036 36.1796 5.45215C36.2301 5.40167 36.2301 5.35119 36.2806 5.30071C36.331 5.25022 36.3311 5.19974 36.3815 5.19974C36.6844 5.09878 36.7349 4.74541 36.9368 4.59396V4.493C36.9368 4.493 36.8359 4.44252 36.8359 4.493C36.7349 4.54348 36.6339 4.59396 36.5835 4.69493C36.533 4.74541 36.4825 4.79589 36.432 4.84637C36.3311 4.74541 36.2301 4.69493 36.1796 4.59396C36.3815 4.44252 36.6339 4.34155 36.7854 4.13963C36.8359 4.08915 36.8864 4.08914 36.9873 4.03866C37.1388 3.9377 37.2902 3.83674 37.4417 3.78625C37.5426 3.73577 37.5931 3.63481 37.7445 3.68529L37.8455 3.63481C37.896 3.53385 37.9465 3.3824 37.997 3.28144C38.0474 3.23096 38.1484 3.23096 38.1989 3.18047C38.2998 3.07951 38.2998 2.97855 38.3503 2.87758C38.4513 2.87758 38.5522 2.8271 38.6027 2.77662C38.6027 2.87758 38.6532 2.97855 38.6027 3.07951C38.5522 3.28144 38.6532 3.43288 38.8046 3.63481C38.9056 3.78625 39.0066 3.88722 39.1075 4.03866C39.2085 4.03866 39.3095 4.03866 39.36 3.9377C39.4609 3.78626 39.5619 3.63481 39.7133 3.48336C39.8648 3.48336 39.8648 3.68529 39.9657 3.73577C40.0667 3.73577 40.1677 3.73577 40.3191 3.73577C40.3696 3.9377 40.4705 4.08914 40.3191 4.29107C40.2686 4.34155 40.3191 4.39204 40.2686 4.44252C40.4201 4.54348 40.5715 4.493 40.6725 4.493C40.723 4.54348 40.7734 4.59396 40.8239 4.64444C40.9249 4.89685 41.1773 4.89685 41.3792 4.84637C41.5307 4.79589 41.7326 4.79589 41.884 4.79589C41.985 4.79589 42.1364 4.74541 42.1869 4.69493C42.3384 4.54348 42.4898 4.44252 42.5403 4.24059C42.5908 4.08914 42.7927 3.9377 42.8937 3.83674C43.1966 3.83674 43.247 4.08915 43.449 4.19011C43.348 4.24059 43.247 4.34155 43.1966 4.39204C43.1966 4.493 43.247 4.59396 43.0956 4.69493C43.0451 4.74541 43.0451 4.79589 43.0956 4.89685C43.1461 4.99782 43.1966 4.99782 43.2975 4.99782C43.3985 4.99782 43.449 4.94733 43.5499 4.94733C43.7519 4.89685 43.8528 4.79589 43.9538 4.64444C44.0043 4.54348 44.0547 4.493 44.1052 4.44252C44.2062 4.34155 44.2062 4.24059 44.3072 4.08914C44.4081 4.03866 44.5091 4.03866 44.6605 3.98818C44.6605 3.78625 44.812 3.63481 45.0139 3.58433C45.1149 3.58433 45.1654 3.53385 45.2663 3.48336C45.5187 3.3824 45.5692 3.33192 45.6197 3.02903C45.5187 2.92807 45.4178 2.87758 45.2663 2.77662C45.3168 2.62518 45.3168 2.47373 45.3673 2.37277C45.2663 2.2718 45.1654 2.22132 45.0644 2.17084C44.9634 2.12036 44.812 2.06988 44.711 2.01939C44.5596 1.96891 44.4586 1.96891 44.2567 1.91843C44.2062 1.86795 44.1557 1.81747 44.1052 1.81747C44.0547 1.76699 44.0043 1.76699 43.9538 1.7165C43.9538 1.61554 43.9538 1.51458 43.9033 1.41361C44.1052 1.36313 44.3072 1.36313 44.4586 1.51458C44.4586 1.51458 44.5091 1.56506 44.5596 1.56506C44.711 1.51458 44.812 1.61554 44.9129 1.7165C44.9634 1.76699 45.0644 1.76699 45.1149 1.81747C45.2663 1.81747 45.4178 1.86795 45.5692 1.86795C45.6197 1.86795 45.6702 1.86795 45.7206 1.86795C45.8721 1.81747 46.0235 1.86795 46.175 1.86795C46.2759 1.86795 46.3264 1.91843 46.4274 2.01939C46.4274 2.12036 46.3769 2.22132 46.3769 2.2718C46.3769 2.32229 46.4779 2.37277 46.5284 2.42325C46.5284 2.47373 46.4779 2.47373 46.4779 2.52421C46.3769 2.62518 46.3264 2.67566 46.4274 2.8271C46.4779 2.92807 46.5284 3.02903 46.5284 3.12999C46.5284 3.33192 46.4779 3.48336 46.4779 3.68529C46.5284 3.73577 46.6798 3.78626 46.6798 3.9377C46.6798 3.98818 46.7303 4.03866 46.7808 4.03866C46.9322 4.08914 47.0332 4.19011 47.0837 4.29107C47.1341 4.34155 47.1846 4.39204 47.2351 4.34155C47.3361 4.34155 47.3361 4.24059 47.3361 4.19011C47.3361 4.13963 47.3361 4.03866 47.2856 3.98818C47.2856 3.9377 47.2856 3.88722 47.2351 3.78625C47.4875 3.68529 47.639 3.78625 47.8409 3.88722C47.9419 3.9377 47.9923 4.03866 48.0933 4.13963C48.0933 4.29107 48.0933 4.29107 48.2952 4.493C48.5981 4.34155 48.901 4.19011 49.2039 3.98818C49.2544 3.98818 49.3553 4.03866 49.4058 4.03866C49.6077 4.08914 49.6582 4.03866 49.7592 3.88722C49.7592 3.83674 49.8097 3.78625 49.8097 3.73577C49.9611 3.73577 50.163 3.73577 50.264 3.48336C50.3145 3.58433 50.3145 3.63481 50.3145 3.63481C50.264 3.83674 50.264 4.08914 50.1126 4.29107C50.0621 4.34155 50.0621 4.39204 50.0621 4.44252C49.9611 4.69493 49.9611 4.89685 50.0621 5.14926C50.0621 5.25022 50.163 5.30071 50.2135 5.40167C50.163 5.65408 50.0621 5.856 49.9106 6.05793C49.8097 6.20938 49.7087 6.4113 49.6582 6.56275C49.6077 6.76468 49.5573 6.91612 49.4058 7.06757C49.3553 7.11805 49.3049 7.21901 49.3049 7.31997C49.2544 7.5219 49.4058 7.72383 49.4058 7.92575C49.4058 8.02672 49.5068 8.12768 49.6582 8.22865L49.7087 8.27913C49.7592 8.53153 49.7087 8.73346 49.6582 8.98587C49.6582 9.08683 49.5573 9.1878 49.4563 9.23828C49.3553 9.28876 49.2544 9.33924 49.1029 9.4402C48.8505 9.59165 48.6991 9.79358 48.6991 10.0965C48.6991 10.147 48.6991 10.1469 48.6991 10.1974C48.6991 10.1974 48.6991 10.1974 48.6991 10.2479C48.8 10.2984 48.901 10.3994 49.002 10.4498C48.901 10.6013 48.8 10.7022 48.7496 10.8032C48.7496 10.9547 48.901 10.9547 48.9515 11.0556C48.9515 11.1061 48.901 11.1061 48.901 11.1566V11.1061C48.8505 11.1566 48.7495 11.1566 48.6991 11.1566C48.6486 11.1566 48.6486 11.1566 48.5981 11.1566C48.5981 11.2071 48.5981 11.2071 48.5981 11.2575C48.5476 11.409 48.3962 11.3585 48.3457 11.51C48.3457 11.5604 48.3457 11.6614 48.4467 11.7119C48.5981 11.7624 48.6991 11.7119 48.8505 11.6614C48.901 11.6109 48.901 11.6109 48.9515 11.5604C49.0524 11.3585 49.2039 11.1566 49.3049 11.0051C49.4058 10.8537 49.5573 10.7527 49.7087 10.6518C49.8097 10.6013 49.9106 10.6013 50.0116 10.6518C50.0621 10.6518 50.0621 10.6013 50.1126 10.6013L50.163 10.6518C50.1126 10.9042 50.264 11.0556 50.3145 11.2575C50.264 11.308 50.264 11.308 50.2135 11.3585C50.1126 11.409 50.163 11.51 50.163 11.6109C50.0621 11.6614 49.9611 11.6614 49.9106 11.8128C49.9106 11.8128 49.8602 11.8128 49.8602 11.8633C49.8602 11.8633 49.8601 11.8633 49.9106 11.8633C49.9106 11.8633 49.9106 11.8128 49.9611 11.8128C50.0116 11.8128 50.0621 11.8633 50.1126 11.8633C50.0621 11.9138 50.0116 11.9643 49.9611 12.0148C49.9106 12.0653 49.9106 12.1157 49.9106 12.2167C49.9106 12.3177 49.9106 12.4691 49.7592 12.5196C49.7087 12.5701 49.6582 12.6206 49.6582 12.671C49.7087 12.772 49.7592 12.873 49.8602 12.9739C49.8602 12.9739 49.8097 12.9739 49.8097 13.0244V12.9739C49.8602 12.9739 49.8601 12.9739 49.9106 13.0244C49.9611 13.0749 50.0116 13.0749 50.0621 12.9739C50.0621 12.9739 50.1126 12.9739 50.1126 12.9234C50.1126 12.9739 50.0621 13.0749 50.0621 13.1254C50.0116 13.1759 49.9611 13.2263 49.9611 13.2768C50.0621 13.4787 50.0621 13.4787 49.9611 13.6302C49.9106 13.7312 49.9106 13.8826 49.8097 13.9331C49.7592 13.9836 49.8601 14.135 49.9106 14.0845C50.0116 14.034 50.163 14.0845 50.2135 14.135C50.2135 14.1855 50.2135 14.2864 50.2135 14.3369C50.163 14.3369 50.163 14.3369 50.1126 14.3369C50.0116 14.2864 49.9106 14.236 49.8097 14.3874C49.8097 14.4379 49.8602 14.4379 49.8602 14.5389C49.7592 14.5893 49.6582 14.6398 49.5068 14.6903C49.5068 14.8417 49.6077 14.8922 49.6582 14.9427C49.6582 14.9932 49.6582 15.0942 49.6582 15.1446C49.6582 15.1951 49.6077 15.1951 49.6077 15.1951C49.4563 15.2961 49.4058 15.498 49.4058 15.6999C49.4058 15.8009 49.5573 15.8514 49.6077 15.8009C49.7592 15.6495 50.0116 15.6495 50.2135 15.599C50.3145 15.5485 50.3145 15.2961 50.5669 15.2961C50.5669 15.498 50.5164 15.6495 50.3145 15.7504C50.365 15.9523 50.6679 15.8009 50.6679 16.0028C50.5164 16.0533 50.365 16.0533 50.264 15.9523C50.2135 15.9019 50.1126 15.9019 50.1126 16.0028C50.163 16.0533 50.2135 16.1038 50.264 16.2048C50.3145 16.2552 50.3145 16.3057 50.365 16.3057C50.6174 16.3057 50.7688 16.5581 51.0212 16.6086C51.0717 16.6086 51.1222 16.7096 51.0717 16.7601C50.9707 16.8105 50.9203 16.861 50.8698 17.0125C50.8698 17.0629 50.8193 17.1639 50.7688 17.2144C51.0717 17.3658 51.3241 17.5173 51.627 17.5173C51.6775 17.5173 51.728 17.5173 51.7785 17.4668C51.9299 17.3658 52.1318 17.2649 52.2833 17.2144C52.3338 17.1639 52.3842 17.1639 52.4347 17.1134C52.5862 16.962 52.7376 16.962 52.8891 17.1134C52.9395 17.1639 53.0405 17.2649 53.1415 17.3658C53.1415 17.4163 53.1415 17.5173 53.091 17.6182C53.1415 17.6687 53.1919 17.6687 53.2424 17.7192C53.5958 17.3154 53.9492 16.861 54.353 16.4572C54.454 16.5581 54.555 16.6591 54.6559 16.7601C54.7569 16.6591 54.9083 16.5581 54.9588 16.5076C55.0093 16.5076 55.0093 16.5076 55.0598 16.5076C55.1607 16.6086 55.2112 16.6591 55.3122 16.7601C55.4131 16.861 55.5141 16.7601 55.6151 16.861C55.6656 16.9115 55.817 16.861 55.918 16.9115C55.9684 17.0125 55.918 17.1134 55.918 17.2649C55.918 17.3658 55.8675 17.4668 55.8675 17.5678C55.8675 17.7697 55.817 17.9211 55.6656 18.0726C55.5141 18.4764 55.2112 18.7288 54.9588 19.0317C54.9083 19.0822 54.8578 19.1327 54.8578 19.2337C54.8578 19.4356 54.8074 19.587 54.6559 19.7385C54.6559 19.7385 54.6559 19.789 54.6054 19.789C54.5045 19.9404 54.5549 20.0918 54.7064 20.1423C54.7569 20.1423 54.8074 20.1928 54.8578 20.1928C54.8578 20.2433 54.8074 20.2433 54.8074 20.2938C54.8578 20.4452 54.8578 20.5967 54.8074 20.6976C54.9083 20.8491 55.0598 21.0005 55.1607 21.152C55.3122 21.152 55.4636 21.152 55.6656 21.2529C55.6656 21.3034 55.6656 21.3539 55.6151 21.4044C55.5646 21.4549 55.4636 21.5558 55.4131 21.6063C55.3122 21.7073 55.2617 21.8082 55.2617 21.9092C55.3122 21.9597 55.3627 22.0101 55.4636 22.0606C55.4131 22.1616 55.3627 22.2121 55.3627 22.2626C55.3627 22.3635 55.5646 22.515 55.6656 22.515C55.716 22.515 55.7665 22.515 55.7665 22.4645C55.8675 22.313 56.0694 22.313 56.2208 22.3635C56.3218 22.414 56.4733 22.414 56.5742 22.4645C56.6247 22.414 56.7257 22.3635 56.7761 22.313C56.9276 22.3635 56.9781 22.4645 57.0285 22.515C57.0285 22.6159 56.9276 22.6159 56.8771 22.6664C56.7257 22.8179 56.6247 22.9693 56.3723 22.9693C56.3218 22.9693 56.2713 23.0198 56.2208 23.0703C56.1199 23.1712 56.0189 23.2217 55.918 23.3227C55.8675 23.3732 55.817 23.4741 55.7665 23.5246C55.7665 23.676 55.9684 23.6256 55.8675 23.777C55.918 23.777 55.9179 23.8275 55.9684 23.8275C56.1199 23.8275 56.2713 23.777 56.3723 23.676C56.6247 23.5246 56.8266 23.3732 57.1295 23.3227C57.4324 23.2722 57.6848 23.1207 57.9372 22.9188C58.0382 22.8683 58.1391 22.8179 58.2401 22.7674C58.3916 22.7169 58.4925 22.7169 58.644 22.6664C58.7449 22.6159 58.7954 22.6159 58.8964 22.6159C58.8964 22.6664 58.8459 22.7169 58.8964 22.7169C59.0478 22.8683 59.0983 23.1207 59.3507 23.2217C59.5022 23.2217 59.6536 23.2217 59.7041 23.0703C59.7546 22.9188 59.7546 22.8179 59.5526 22.6159C59.6536 22.5654 59.7041 22.515 59.805 22.6159C59.8555 22.6664 59.906 22.7169 59.9565 22.7169C60.007 22.7674 60.0575 22.8179 60.1079 22.8683C60.1079 22.9693 60.1079 23.0703 60.1079 23.1712C60.1079 23.2722 60.1079 23.3732 60.2089 23.4741C60.2594 23.5246 60.2594 23.5751 60.3099 23.6256C60.4108 23.8275 60.4613 24.0294 60.4613 24.2818C60.4108 24.6352 60.3603 24.9886 60.2594 25.2915C60.1584 25.6448 60.1079 25.9477 60.0575 26.3011C60.007 26.4525 59.9565 26.604 59.906 26.7554C59.7546 27.0583 59.6536 27.3612 59.5022 27.6641C59.4012 27.967 59.1993 28.2699 59.0983 28.5223C58.8964 28.9261 58.5935 29.229 58.3411 29.5824C58.1896 29.8348 57.9877 30.0872 57.8867 30.3396C57.7353 30.6425 57.4829 30.8949 57.281 31.1473C57.0285 31.3997 56.8771 31.6522 56.7257 31.955C56.7257 32.0055 56.6752 32.0055 56.6752 32.056C56.6247 32.3589 56.6247 32.3589 56.4732 32.5608C56.4732 32.6113 56.5237 32.6618 56.5237 32.6618C56.5742 32.7628 56.5742 32.8637 56.4732 32.9647C56.3723 33.0656 56.2713 33.2171 56.2208 33.3685C56.1704 33.4695 56.1704 33.52 56.2208 33.6209C56.2713 33.7219 56.2209 33.8229 56.1704 33.8734C56.0694 33.9743 56.0189 34.0753 55.918 34.1762C55.716 34.3782 55.4636 34.5801 55.2112 34.6811C55.1607 34.6811 55.1607 34.7315 55.1103 34.7315C54.9083 34.782 54.7569 34.9335 54.6054 35.0344C54.454 35.1859 54.2521 35.2868 54.1006 35.4383C53.8482 35.6402 53.5958 35.7917 53.4443 36.0441C53.1919 36.145 53.091 36.347 52.8891 36.4984C52.6871 36.6498 52.5357 36.8013 52.3842 36.9527C52.1318 37.2051 51.8794 37.4576 51.627 37.71C51.4251 37.9119 51.1727 38.1138 50.9707 38.3662C50.9203 38.4672 50.7688 38.4672 50.7183 38.6186C50.6679 38.7196 50.5669 38.8206 50.4659 38.9215C50.365 39.0225 50.3145 39.1235 50.2135 39.2244C50.163 39.2749 50.1126 39.3254 50.0621 39.3759C49.8097 39.5778 49.6582 39.8302 49.4563 40.0321C49.1029 40.5874 48.5476 40.9408 48.0933 41.3446C47.7904 41.5971 47.4875 41.8495 47.1846 42.1019C47.1341 42.2533 46.9322 42.2533 46.8313 42.4048C46.7808 42.5562 46.5788 42.6067 46.4779 42.7077C46.3769 42.8086 46.2255 42.9096 46.1245 43.0105C46.0235 43.1115 45.9226 43.2125 45.8721 43.3134C45.7206 43.5658 45.5187 43.7678 45.3168 43.9192C45.0139 44.1716 44.7615 44.424 44.4586 44.626C44.4586 44.8279 44.4081 44.9793 44.2567 45.0803C43.9538 45.3327 43.6509 45.6356 43.348 45.888C43.2975 45.888 43.2975 45.9385 43.2471 45.9385C42.9442 46.1909 42.5908 46.4433 42.2879 46.6957C42.0355 46.8976 41.7831 47.0996 41.5307 47.251C41.4297 47.251 41.4297 47.352 41.3792 47.4025C41.3287 47.352 41.3287 47.352 41.2783 47.4025C41.2783 47.4529 41.2783 47.4529 41.2783 47.5034C40.9249 47.8063 40.5715 48.0587 40.1677 48.3616C39.7133 48.715 39.3095 49.1188 38.8046 49.4217C38.7037 49.4722 38.6027 49.6236 38.5018 49.7246C38.4008 49.8256 38.3503 49.8761 38.2494 49.9265C38.1484 50.0275 37.9969 50.078 37.8455 50.1789C37.5426 50.4314 37.1892 50.6333 36.8359 50.8857C36.533 51.0876 36.2301 51.34 35.9272 51.542C35.7253 51.6934 35.5233 51.8448 35.2709 51.9458C35.17 51.9963 35.0185 52.0468 34.9176 52.0972C34.8671 52.1477 34.7661 52.1477 34.7661 52.1982C34.7156 52.3497 34.6147 52.3497 34.5137 52.4001C34.3118 52.5011 34.3118 52.5011 34.2108 52.2487C34.2613 52.1477 34.3623 52.0973 34.4128 51.9963C34.5137 51.8448 34.6652 51.7944 34.8671 51.7944C34.9176 51.7944 35.0185 51.7944 35.069 51.7439C35.3214 51.542 35.5233 51.3905 35.7253 51.1886C35.7253 51.1886 35.7253 51.1886 35.7757 51.1381C35.7757 51.0371 35.7758 50.9867 35.7253 50.8857C35.6748 50.8857 35.6748 50.8857 35.6243 50.8857C35.2205 51.0876 34.8671 51.2895 34.4632 51.4915C34.2108 51.6429 33.9584 51.6934 33.706 51.8448C33.5041 51.9458 33.3022 52.0468 33.1002 52.1477C32.9993 52.1982 32.9488 52.1982 32.8478 52.2487C32.8478 52.1982 32.8478 52.1982 32.8478 52.1477C32.8478 52.0972 32.8478 52.0468 32.7973 52.0468C32.7468 51.9963 32.6964 51.9963 32.6459 51.9963C32.5954 51.9963 32.5449 52.0468 32.4944 52.0468C32.242 52.1477 32.0401 52.2487 31.7372 52.1477C31.7372 52.1982 31.6867 52.2992 31.6867 52.3497C31.3334 52.5011 30.98 52.6525 30.5761 52.8545C30.5257 52.905 30.4247 52.905 30.3237 52.905C30.2228 52.905 30.1723 52.8545 30.0713 52.8545C30.0208 52.8545 29.9199 52.905 29.8189 52.905C29.8694 52.8545 29.8694 52.804 29.8694 52.7535C29.9199 52.6525 29.9704 52.6021 29.9199 52.5011C29.8694 52.4506 29.8694 52.3497 29.9199 52.2992C30.0713 52.1477 30.0208 52.0468 29.9704 51.8953C29.9704 51.8448 29.9704 51.7944 29.9199 51.7439C29.8189 51.6429 29.6675 51.6429 29.516 51.5924C29.4655 51.5924 29.4151 51.5924 29.3646 51.6429C29.2131 51.6934 29.1122 51.7439 29.0112 51.8448C28.9607 51.8448 28.8598 51.8953 28.8093 51.8953C28.7083 51.8953 28.7083 51.8953 28.6074 51.6934C28.7588 51.542 28.8598 51.3905 28.7588 51.1886C28.6578 50.9867 28.5569 50.7847 28.254 50.8352C28.4054 50.7342 28.4559 50.6838 28.5064 50.5828C28.6073 50.4314 28.5569 50.2799 28.4054 50.2799C28.254 50.2799 28.0521 50.2799 27.9006 50.3809C27.7492 50.4314 27.6482 50.5323 27.4968 50.6333C27.4463 50.6333 27.3958 50.6333 27.2948 50.5828C27.2948 50.5323 27.2443 50.5323 27.2443 50.5323C27.2948 50.3304 27.2948 50.1789 27.3453 49.977C27.1434 49.9265 27.0424 49.7751 26.9919 49.5732C26.9919 49.5227 26.9919 49.4217 27.0424 49.4217C27.1434 49.3208 27.1434 49.1693 27.1434 49.0179C27.0929 48.9674 27.0424 48.9169 26.9919 48.8664C26.5376 48.9674 26.1337 49.1188 25.7299 49.3208C25.6289 49.3712 25.4775 49.4722 25.3765 49.5227C25.326 49.4722 25.326 49.4217 25.3765 49.4217C25.4775 49.3712 25.528 49.3208 25.6289 49.2703C25.7804 49.1693 25.8813 49.0683 25.8813 48.9169C25.8309 48.8664 25.7804 48.7655 25.7299 48.715C25.7299 48.6645 25.7299 48.5635 25.7804 48.5131C25.8813 48.4121 25.8813 48.3111 25.8309 48.2102C25.8309 48.1597 25.8309 48.1092 25.8309 48.0587C25.9318 48.0082 26.0328 47.9073 26.0833 47.8568C26.1842 47.8063 26.2347 47.7053 26.2347 47.6044C26.2347 47.5034 26.1842 47.4529 26.0833 47.352C25.9318 47.4025 25.7804 47.4529 25.7299 47.6044C25.6794 47.7558 25.528 47.8568 25.3765 47.8568C25.1746 47.8568 25.0736 48.0082 25.0231 48.1597C24.9222 48.2102 24.8717 48.2102 24.7707 48.2606C24.6698 48.2606 24.6193 48.3111 24.5183 48.4121C24.4174 48.5131 24.3164 48.5635 24.165 48.614C23.8116 48.8159 23.4582 48.9674 23.1049 49.1693C23.0039 49.2198 22.9534 49.3208 22.8524 49.3712C22.7515 49.4217 22.701 49.5227 22.6 49.4722C22.5496 49.4722 22.4991 49.5227 22.4991 49.5227C22.3476 49.7751 22.0447 49.8761 21.8428 50.0275C21.4894 50.2799 21.1361 50.4818 20.7827 50.6838C20.6817 50.7342 20.5808 50.8352 20.4798 50.9362C20.4293 50.9867 20.3284 51.0876 20.2779 51.1381C20.2274 51.1886 20.1769 51.1886 20.1769 51.2895C20.1769 51.34 20.1264 51.3905 20.0759 51.3905C19.9245 51.441 19.7226 51.4915 19.5206 51.542C19.3187 51.5924 19.1673 51.6429 19.0158 51.7439C18.9149 51.7944 18.8139 51.8953 18.6625 51.8953C18.6625 51.8448 18.6625 51.7944 18.7129 51.6934C18.41 51.5924 18.1576 51.4915 17.8547 51.6934C17.8043 51.6429 17.7033 51.5924 17.6528 51.542C17.5519 51.542 17.4509 51.5924 17.4004 51.6429C17.3499 51.6934 17.249 51.6934 17.1985 51.6429C17.0975 51.5924 17.047 51.5924 16.9461 51.6429C16.7946 51.6934 16.6937 51.7439 16.5422 51.6934C16.4413 51.5924 16.4413 51.4915 16.4917 51.3905C16.5422 51.1886 16.5422 51.0371 16.4413 50.8352C16.3908 50.7342 16.3908 50.6333 16.4413 50.4818C16.5422 50.2294 16.4917 50.1789 16.2898 50.0275C16.2393 49.977 16.1384 49.9265 16.0879 49.977C15.9869 49.977 15.886 50.0275 15.8355 50.078C15.785 50.078 15.7345 50.1285 15.684 50.1789C15.3811 50.3304 15.3307 50.2294 15.2297 50.078C15.1792 50.0275 15.1792 50.0275 15.1287 49.977C14.8258 49.8761 14.5734 49.8761 14.321 50.078C14.2705 50.1285 14.2201 50.1285 14.1696 50.1285C13.9677 50.1285 13.8162 50.1789 13.6143 50.2294C13.3619 50.3304 13.16 50.3304 12.958 50.1285C12.8571 50.078 12.8066 50.0275 12.6551 50.0275C12.5542 50.0275 12.5037 49.9265 12.5542 49.8256C12.6046 49.6741 12.7056 49.5227 12.8066 49.4217C12.8571 49.3208 12.8571 49.2198 12.8066 49.1188C12.7561 49.0179 12.7561 48.9169 12.7561 48.8159C12.7056 48.614 12.6047 48.5131 12.4027 48.5131C12.2008 48.5131 12.0493 48.5635 11.8474 48.5635C11.7465 48.5635 11.696 48.5635 11.595 48.5635C11.4436 48.513 11.2416 48.5131 11.0902 48.5131C11.0397 48.5131 10.9388 48.5131 10.8378 48.4626C10.6359 48.3111 10.4339 48.2606 10.2825 48.0587C10.1815 47.9577 10.0806 47.8568 9.92912 47.8568C9.87864 47.8568 9.82815 47.8063 9.77767 47.7558C9.67671 47.5034 9.72719 47.3015 9.87864 47.15C9.92912 47.0491 9.9796 46.9481 10.0301 46.8471C10.0806 46.7462 10.1815 46.6452 10.2825 46.5947C10.3834 46.4938 10.4339 46.3928 10.4844 46.1909C10.1815 46.1909 9.87864 46.0899 9.62623 46.3423C9.52527 46.3423 9.47479 46.2919 9.42431 46.2919C9.42431 46.1909 9.42431 46.1404 9.42431 46.0899C9.42431 45.9385 9.47479 45.787 9.42431 45.6356C9.37382 45.4841 9.42431 45.3832 9.47479 45.2317C9.7272 44.8279 10.0301 44.4745 10.2825 44.0707C10.333 43.9697 10.4844 43.9192 10.5349 43.8182C10.6359 43.7173 10.6359 43.6163 10.4844 43.5658C10.4339 43.5154 10.333 43.5154 10.2825 43.5154C9.9796 43.7173 9.87863 44.1211 9.52526 44.2726C9.47478 44.1716 9.37382 44.0707 9.32334 43.9697C9.27285 44.0202 9.22238 44.0202 9.1719 44.0707C8.96997 44.2726 8.81852 44.4745 8.6166 44.626C8.51563 44.7269 8.46514 44.8279 8.51563 44.9793C8.51563 45.0803 8.51563 45.1308 8.51563 45.2317C8.51563 45.2822 8.51563 45.3327 8.56611 45.3832C8.61659 45.4841 8.56611 45.5346 8.51563 45.6356C8.46514 45.6861 8.36418 45.6861 8.3137 45.6356C8.21274 45.5346 8.11177 45.4841 8.01081 45.3832C8.06129 45.1813 7.96033 45.0298 8.06129 44.8279C8.06129 44.7774 8.06129 44.6764 8.01081 44.626C7.90984 44.4745 7.90986 44.2726 7.96034 44.1211C7.96034 44.1211 7.96034 44.1211 7.96034 44.0707C7.80889 43.9697 7.85936 43.8182 7.7584 43.6668C7.70792 43.6668 7.65744 43.6163 7.60696 43.6163C7.30407 43.5154 7.30407 43.5154 7.05166 43.7173C7.00118 43.6163 7.05166 43.5658 7.10214 43.5154C7.25359 43.3639 7.35455 43.263 7.50599 43.1115C7.7584 42.8591 8.01081 42.6067 8.3137 42.3543C8.61659 42.0514 8.91949 41.799 9.1719 41.4961C9.22238 41.4456 9.22238 41.3951 9.22238 41.3951C9.22238 41.3446 9.17189 41.3446 9.12141 41.3446C9.02045 41.3446 8.91948 41.3446 8.81852 41.3951C8.76804 41.3951 8.66708 41.3951 8.6166 41.4456C8.56611 41.3951 8.56611 41.3951 8.56611 41.3446C8.51563 41.2942 8.46515 41.2437 8.41467 41.1932C8.31371 41.1427 8.21274 41.1932 8.16226 41.2437C8.0613 41.3446 8.01082 41.4456 7.90985 41.5466C7.85937 41.6475 7.75841 41.698 7.70793 41.799C7.55649 41.9504 7.40503 42.0514 7.25358 42.2028C7.10214 42.3543 7.05167 42.5562 6.95071 42.7077C6.90022 42.8086 6.84974 42.9096 6.6983 42.9096C6.54685 42.8591 6.49636 42.7581 6.49636 42.6572C6.49636 42.5562 6.54685 42.5057 6.64781 42.4552C6.74878 42.3543 6.84974 42.2533 6.95071 42.1524C7.10215 42.0009 7.20311 41.799 7.40504 41.7485C7.45552 41.698 7.50599 41.6475 7.55648 41.5971C7.60696 41.5466 7.65745 41.4961 7.70793 41.4456C7.90986 41.3951 7.96033 41.2437 8.06129 41.0922C8.16226 40.9913 8.16226 40.8398 8.06129 40.7389C8.01081 40.6379 7.90985 40.5369 7.80888 40.436C7.70792 40.335 7.60697 40.335 7.45552 40.335C7.35456 40.1836 7.35456 40.0321 7.40504 39.8807C7.45552 39.7292 7.55647 39.5273 7.7584 39.4768C7.85936 39.4263 7.90984 39.3759 8.01081 39.3254C8.21274 39.1739 8.36419 39.073 8.6166 39.073C8.66708 39.073 8.71755 39.0225 8.76803 39.0225C9.12141 38.8206 9.47478 38.6186 9.82815 38.4167C10.0301 38.3157 10.1815 38.1643 10.3835 38.0633C10.8378 37.8109 11.2416 37.508 11.6455 37.2051C11.8474 37.0537 12.0494 36.9023 12.2008 36.6498C12.2513 36.5994 12.2513 36.5489 12.2513 36.4479C11.9989 36.3974 11.7465 36.3974 11.5445 36.5994C11.3931 36.7003 11.2921 36.8518 11.0902 36.8013C11.1407 36.7508 11.2416 36.6498 11.2921 36.5994C11.4436 36.4984 11.595 36.347 11.7465 36.246C11.9989 36.0441 12.2008 35.7917 12.4532 35.5897C12.6551 35.4383 12.8066 35.2364 12.958 35.0344C13.059 34.883 13.1599 34.7315 13.3114 34.6306C13.4124 34.5296 13.4124 34.5296 13.4628 34.3277C13.4124 34.2772 13.3619 34.2772 13.2609 34.3277C12.9075 34.5296 12.5542 34.782 12.2513 35.0849C12.0998 35.2364 11.9484 35.3373 11.8474 35.4888C11.7969 35.5392 11.7465 35.5897 11.696 35.5897C11.4941 35.6907 11.3426 35.8421 11.1407 35.9936C10.8883 36.1955 10.6863 36.3974 10.3835 36.5489C10.333 36.4984 10.3835 36.4479 10.3835 36.4479C10.5854 36.246 10.7873 36.0441 10.9892 35.8421C11.0397 35.7917 11.0902 35.7412 11.1912 35.6907C11.4436 35.5392 11.6455 35.3373 11.7465 35.0344C11.7465 34.984 11.8474 34.883 11.8979 34.8325C11.8979 34.782 11.8979 34.7315 11.9484 34.6811C11.8979 34.5801 11.7969 34.6306 11.7465 34.6811C11.595 34.782 11.4436 34.9335 11.3426 35.0344C11.2416 35.1859 11.0902 35.2868 10.9388 35.3373C10.8378 35.3878 10.7368 35.4888 10.6359 35.5392C10.5854 35.5897 10.5349 35.5897 10.4339 35.5897C10.4844 35.4383 10.6359 35.3373 10.6863 35.2364C10.7873 35.1354 10.8883 35.0344 10.8883 34.883C10.8378 34.8325 10.7873 34.8325 10.7368 34.883C10.6359 34.9335 10.5854 34.984 10.5349 35.0344C10.3834 35.1354 10.232 35.2868 10.0301 35.3878C9.92911 35.4383 9.87863 35.4888 9.77767 35.5897C9.57574 35.7412 9.4243 35.8926 9.27285 36.0441C8.91948 36.2965 8.66707 36.5994 8.3137 36.8518C8.26322 36.9023 8.16226 37.0032 8.06129 37.0032C8.01081 37.0032 7.96034 37.0032 7.96034 36.9527C7.90986 36.9023 7.90985 36.8518 7.90985 36.8013C7.90985 36.7508 7.96033 36.7003 8.01081 36.6498C8.3137 36.3974 8.51563 36.0441 8.81852 35.7917C8.91948 35.6907 9.02045 35.5897 9.07093 35.4383C9.12141 35.3373 9.22237 35.2364 9.27285 35.1859C9.37381 35.0849 9.52527 34.9335 9.67671 34.8325C9.82816 34.7315 9.87864 34.5801 9.87864 34.3782C9.82816 34.3277 9.7272 34.2772 9.67671 34.2267C9.62623 34.2267 9.62623 34.2267 9.57574 34.2772C9.12141 34.6811 8.66708 35.0344 8.21275 35.4383C8.16227 35.4888 8.11178 35.4888 8.06129 35.5392C7.90985 35.6402 7.85938 35.6402 7.70793 35.4383C8.01082 35.1354 8.26322 34.8325 8.36419 34.3782C8.31371 34.3782 8.26322 34.3782 8.26322 34.3782C7.96033 34.4791 7.7584 34.6811 7.50599 34.8325C7.35455 34.9335 7.25359 35.0344 7.10214 35.0849C7.10214 34.9335 7.30407 34.8325 7.35455 34.7315C7.55648 34.4791 7.80889 34.2772 7.96034 33.9743C8.01082 33.8734 8.11178 33.7724 8.16226 33.7219C8.31371 33.5705 8.46515 33.419 8.41467 33.1666C8.41467 33.0656 8.41467 32.9647 8.41467 32.8637C8.26323 32.6618 8.0613 32.6618 7.85937 32.7628C7.65744 32.8637 7.45551 32.9142 7.25358 32.9142C7.15262 32.9142 7.05167 32.9647 6.95071 33.0152C6.79926 33.1161 6.59733 33.1161 6.44589 32.9647C6.34492 32.9142 6.24396 32.8132 6.19348 32.7628C6.09252 32.6618 5.99155 32.6113 5.89059 32.5103C5.78962 32.5608 5.73914 32.5608 5.68866 32.6113C5.5877 32.7123 5.43624 32.7123 5.2848 32.6618C5.33528 32.5608 5.33529 32.4599 5.38577 32.3589C5.28481 32.2075 5.18385 32.056 5.18385 31.8541C5.18385 31.7531 5.13336 31.7026 5.08288 31.6017C5.03239 31.4502 5.0324 31.2988 5.13336 31.1978C5.18384 31.1473 5.23432 30.9959 5.2848 30.9454C5.33528 30.8444 5.23432 30.693 5.13336 30.693C5.0324 30.693 4.93143 30.7435 4.88095 30.794C4.72951 30.8444 4.62853 30.9454 4.47709 30.9959C4.32564 31.0969 4.1742 31.1473 4.02276 31.1473C3.87131 31.1473 3.71988 31.1473 3.66939 30.9959C3.61891 30.8949 3.46746 30.9454 3.3665 30.8444C3.41698 30.693 3.46746 30.5416 3.56842 30.4406C3.71987 30.2891 3.82083 30.1377 3.77035 29.9358C3.66938 29.8853 3.56842 29.7843 3.46746 29.7339C3.26553 29.6834 3.16458 29.9358 2.91217 29.9863C3.01313 29.8853 3.06361 29.7843 3.11409 29.6834V29.6329C3.06361 29.3805 3.01312 29.33 2.76071 29.33C2.71023 29.33 2.65976 29.33 2.60928 29.33C2.55879 29.33 2.45783 29.33 2.40735 29.3805C2.30639 29.33 2.30638 29.229 2.30638 29.1281C2.30638 29.0271 2.35686 28.9261 2.30638 28.8757C2.2559 28.7242 2.2559 28.6737 2.35687 28.5728C2.40735 28.5223 2.40735 28.4718 2.40735 28.4213C2.45783 28.2699 2.50831 28.1689 2.65976 28.068C2.86169 27.967 3.01313 27.7651 3.16458 27.6641C3.16458 27.6641 3.16457 27.6641 3.11409 27.6641C3.26554 27.5631 3.41698 27.5127 3.56842 27.3612C3.71987 27.2098 3.87131 27.1088 4.02276 27.0078C4.12372 26.9069 4.22468 26.8564 4.27517 26.6545C4.32565 26.503 4.4771 26.4525 4.57806 26.4021C4.62854 26.3516 4.7295 26.3516 4.77998 26.3011C4.88095 26.2506 4.98191 26.1496 5.08288 26.1496C5.13336 26.1496 5.13336 26.1496 5.18385 26.0992C5.43625 25.9477 5.73913 25.7963 5.99154 25.5944C6.04202 25.5439 6.143 25.4934 6.19348 25.4934C6.24396 25.4934 6.24395 25.4934 6.29443 25.4429C6.69829 25.0895 7.20311 24.8876 7.60696 24.5342C7.65744 24.4838 7.70792 24.4333 7.7584 24.3828C7.90984 24.3323 8.01081 24.2313 8.06129 24.0799C8.16226 23.9285 8.26323 23.8275 8.46516 23.777C8.6166 23.7265 8.71756 23.676 8.81852 23.5751C8.96996 23.4236 9.17189 23.2722 9.37382 23.1207C9.47478 23.0198 9.57575 22.9188 9.62623 22.7674C9.57575 22.7169 9.52527 22.7169 9.47479 22.7674C9.27286 22.8683 9.07093 22.9693 8.869 23.1207C8.71756 23.2217 8.51563 23.3227 8.36419 23.4236C8.31371 23.4741 8.16226 23.5246 8.06129 23.5246C7.90985 23.5246 7.80889 23.5751 7.70793 23.6256C7.60697 23.676 7.55649 23.7265 7.45552 23.777C7.40504 23.777 7.35455 23.8275 7.30407 23.777C7.2031 23.7265 7.10214 23.777 7.10214 23.878C7.05166 24.0799 6.84974 24.1304 6.6983 24.2313C6.44589 24.1304 6.29444 24.3828 6.09251 24.3828C6.04203 24.3828 6.04202 24.4333 5.99154 24.4333C5.58769 24.7866 5.13335 25.0391 4.7295 25.3419C4.67902 25.3924 4.62854 25.3924 4.57806 25.3924C4.1742 25.3924 3.87132 25.6448 3.61891 25.8972C3.56843 25.9477 3.56842 25.9477 3.51794 25.9982C3.31601 26.0487 3.16457 26.1497 3.01312 26.2506C2.76071 26.4021 2.55879 26.5535 2.30638 26.705C2.15494 26.8059 2.0035 26.9069 1.90253 27.0583C1.90253 27.1088 1.85204 27.1088 1.75108 27.1593C1.7006 27.1088 1.70061 27.0583 1.65013 27.0078C1.54916 26.8564 1.44819 26.7554 1.29675 26.705C1.1453 26.705 1.1453 26.604 1.19578 26.503C1.49867 26.0992 1.54915 26.0487 2.00349 25.7458C2.2559 25.5439 2.55879 25.3924 2.8112 25.1905C2.96264 25.0895 3.11409 24.9886 3.26553 24.8876C3.31601 24.8371 3.3665 24.8371 3.41699 24.8371C3.46747 24.8371 3.56843 24.7866 3.61891 24.7362C3.77035 24.5342 4.02275 24.4838 4.22468 24.3828C4.32564 24.3323 4.37613 24.2818 4.47709 24.2313C4.62853 24.0799 4.83046 23.9789 5.03239 23.878C5.13335 23.8275 5.28481 23.7265 5.38577 23.676C5.43625 23.676 5.43624 23.6256 5.48672 23.5751C5.8401 23.5246 6.09251 23.2217 6.3954 23.0703C6.54685 23.0198 6.69829 22.8683 6.79925 22.7674C7.05166 22.5654 7.30407 22.3635 7.60696 22.2121C7.96033 22.0102 8.31371 21.7577 8.66708 21.5558C8.71756 21.5053 8.81852 21.4549 8.869 21.4044C9.17189 21.152 9.4243 20.95 9.77767 20.7481C9.92911 20.6471 10.0301 20.4957 10.0806 20.2938C10.0806 20.2433 10.0806 20.1928 10.0301 20.1423C9.9796 20.0918 9.92912 20.0414 9.87864 19.9909C9.22238 20.3443 8.56612 20.7481 7.90985 21.1015C7.80889 21.152 7.75841 21.2024 7.65745 21.2529C7.45552 21.4044 7.20311 21.5558 6.95071 21.7073C6.6983 21.8587 6.49636 22.0102 6.24395 22.1616C6.19347 22.2121 6.09251 22.2626 6.04203 22.2626C5.53721 22.515 5.08288 22.7674 4.62854 23.0703C4.42662 23.2217 4.22468 23.3227 4.02276 23.4236C3.77035 23.5751 3.56842 23.7265 3.31602 23.878C3.06361 24.0294 2.86168 24.1809 2.60928 24.3828C2.45783 24.4838 2.30638 24.5847 2.20541 24.6857C2.00349 24.4333 1.953 24.4333 1.7006 24.4333C1.59963 24.4333 1.54915 24.4333 1.44819 24.4838C1.24626 24.6857 0.943373 24.7362 0.741446 24.8876C0.640482 24.9886 0.489034 25.0895 0.438553 25.241C0.388071 25.3419 0.287111 25.4429 0.236629 25.5439C-0.0157797 25.3924 -0.0662553 25.241 0.0851898 25.0391C0.135672 24.9886 0.186147 24.9381 0.236629 24.8876C0.287111 24.7866 0.337589 24.7866 0.438553 24.7362C0.589998 24.6857 0.690964 24.6352 0.741446 24.5342C0.842409 24.4333 0.892894 24.3323 1.04434 24.3323C1.1453 24.3323 1.19578 24.1809 1.24626 24.1304C1.29674 24.0294 1.39771 23.9789 1.49867 23.9789C1.54915 23.9789 1.59964 23.9285 1.59964 23.9285C1.7006 23.777 1.85204 23.7265 2.00349 23.6256C2.2559 23.5246 2.45783 23.3227 2.65976 23.1712C2.76072 23.0703 2.86167 22.9188 2.96264 22.7674C3.01312 22.7169 3.01313 22.6664 3.06361 22.6159C3.26553 22.4645 3.51794 22.414 3.77035 22.3635C3.87131 22.3635 3.97228 22.3635 4.02276 22.313C4.1742 22.2626 4.37613 22.2121 4.52757 22.0606C4.7295 21.9092 4.98191 21.7577 5.23431 21.6568C5.38576 21.5558 5.53722 21.5053 5.68866 21.4044C5.84011 21.3034 5.99155 21.2529 6.14299 21.152C6.29444 21.051 6.44588 20.95 6.54684 20.7986C6.59732 20.7481 6.59733 20.6471 6.59733 20.5967C6.29444 20.5462 6.09251 20.6976 5.89059 20.7986C5.8401 20.8491 5.73914 20.8996 5.68866 20.8996C5.63818 20.95 5.58769 20.95 5.53721 20.95C5.53721 20.8491 5.53721 20.7481 5.53721 20.6976C5.68865 20.5967 5.8401 20.4957 5.99154 20.3947C6.0925 20.2938 6.29444 20.3443 6.3954 20.1928C6.59733 20.1423 6.69829 19.9404 6.90022 19.8394C7.10215 19.7385 7.30408 19.688 7.45552 19.587C7.60697 19.4861 7.75841 19.3851 7.90985 19.2841C7.96034 19.2337 8.01081 19.1832 8.06129 19.1832C8.26322 19.1327 8.36419 18.9812 8.41467 18.7793C8.36419 18.7288 8.36418 18.6784 8.3137 18.5774C8.36418 18.4259 8.46515 18.3755 8.56611 18.2745C8.61659 18.224 8.66708 18.1735 8.71757 18.1735C8.81853 18.1231 8.81852 18.0221 8.76803 17.9211C8.41466 17.8202 8.41467 17.8202 8.21275 18.1735C8.46516 18.1735 8.36418 18.224 8.26322 18.2745ZM54.353 21.4044V21.4549C54.3025 21.4549 54.3025 21.4044 54.353 21.4044C54.4035 21.3539 54.4035 21.3539 54.4035 21.3539C54.353 21.3539 54.353 21.4044 54.353 21.4044ZM44.4586 3.98818C44.3576 3.98818 44.3072 3.98818 44.2062 3.98818C44.1557 3.98818 44.1052 4.03866 44.1052 4.08914C44.1052 4.13963 44.1557 4.13963 44.2062 4.13963C44.3576 4.19011 44.4586 4.13963 44.4586 3.98818C44.5091 3.98818 44.5091 3.98818 44.5091 3.9377C44.5091 3.98818 44.5091 3.98818 44.4586 3.98818ZM8.26322 44.2221C8.3137 44.1716 8.36419 44.1716 8.41467 44.1211C8.6166 43.9192 8.76805 43.7678 8.96997 43.5658C9.22238 43.3134 9.4243 43.0105 9.77767 42.8591C9.87863 42.8086 9.9796 42.6572 10.0806 42.5562C10.131 42.5057 10.1815 42.4048 10.232 42.3543C10.4844 42.1019 10.7368 41.8999 11.0397 41.6475C11.0902 41.5971 11.0902 41.5466 11.1407 41.4456C11.0902 41.4456 10.9892 41.4456 10.9892 41.4456C10.9388 41.4961 10.8883 41.5466 10.8378 41.5971C10.7873 41.698 10.7368 41.7485 10.6359 41.799C10.5349 41.8495 10.4844 41.8999 10.3835 41.9504C10.232 42.0514 10.0806 42.1524 9.92912 42.3038C9.87864 42.5057 9.72719 42.5562 9.57574 42.6572C9.52526 42.6572 9.47479 42.7077 9.47479 42.7581C9.12142 43.1115 8.76805 43.4649 8.46516 43.8182C8.41467 43.8687 8.36418 43.9697 8.3137 44.0707C8.21274 44.1211 8.26322 44.1716 8.26322 44.2221C8.21274 44.2726 8.21274 44.2726 8.26322 44.2221C8.21274 44.2726 8.26322 44.2726 8.26322 44.2221ZM26.1842 48.2102C26.1842 48.2102 26.1842 48.2606 26.1842 48.2102C26.1842 48.2606 26.1842 48.2102 26.1842 48.2102C26.2852 48.1597 26.3357 48.1092 26.4366 48.0587C26.5376 48.0587 26.5881 48.0082 26.6386 47.9578C26.9919 47.7053 27.3958 47.5539 27.7996 47.4025C27.8501 47.4025 27.9006 47.352 27.9511 47.3015C28.052 47.2005 28.153 47.15 28.254 47.0491C28.3549 46.9481 28.3549 46.9481 28.254 46.7462C28.2035 46.7462 28.1025 46.7462 28.0521 46.7462C28.0016 46.7462 27.9511 46.7462 27.9511 46.7967C27.9006 46.9481 27.6987 46.9986 27.5977 47.0996C27.1939 47.3015 26.79 47.5034 26.3862 47.7053C26.2852 47.7558 26.2347 47.8063 26.1338 47.8568C26.0833 47.9073 26.0328 47.9073 25.9823 47.9578C25.9318 48.0082 25.9318 48.0587 25.9823 48.1092C26.1337 48.2102 26.1842 48.2102 26.1842 48.2102ZM25.2251 9.99551C25.326 9.89454 25.4775 9.79358 25.5785 9.69261C25.6289 9.64213 25.6794 9.59165 25.7299 9.59165C26.0328 9.49069 26.2347 9.23828 26.4366 9.03635C26.5376 8.98587 26.5881 8.88491 26.689 8.83443C26.9919 8.73346 27.2443 8.48105 27.4968 8.27913C27.6482 8.17816 27.7996 8.02672 27.9511 7.87527C28.0016 7.82479 28.0016 7.77431 27.9511 7.72383C27.9511 7.67335 27.8501 7.62286 27.7996 7.67335C27.6482 7.72383 27.4463 7.82479 27.2948 7.92575C27.1939 8.02672 27.0424 8.12768 26.891 8.22865C26.7395 8.32961 26.6386 8.48105 26.4871 8.53153C26.4366 8.53153 26.3357 8.6325 26.2852 8.68298C26.1842 8.83442 26.0833 8.88491 25.9318 8.93539C25.8309 8.98587 25.7804 8.98587 25.6794 9.08683C25.528 9.23828 25.326 9.38972 25.1746 9.54117C25.1241 9.59165 25.0736 9.64213 25.0231 9.64213C24.7203 9.79358 24.4678 9.94502 24.165 10.0965C23.963 10.1974 23.7611 10.3489 23.5592 10.4498C23.4077 10.5508 23.2058 10.6518 23.1049 10.8032C22.9534 10.9547 22.8019 11.0556 22.6505 11.1566C22.3981 11.3585 22.1457 11.5604 21.8933 11.7119C21.6914 11.8633 21.5399 11.9643 21.338 12.0653C21.237 12.1157 21.1361 12.1662 21.1361 12.2672C21.0856 12.3177 21.0351 12.3681 20.9846 12.3681C20.6817 12.5196 20.3283 12.6206 20.1264 12.9234C20.0759 12.9739 20.0759 12.9739 20.0255 13.0244C19.7731 13.1759 19.5206 13.3778 19.2682 13.5292C19.2178 13.5797 19.1673 13.6302 19.1168 13.6807C19.1673 13.7312 19.2178 13.7816 19.2682 13.7816C19.5206 13.7312 19.7226 13.6302 19.9245 13.4787C20.2779 13.2263 20.5808 13.0244 20.9846 12.8225C21.2875 12.671 21.5399 12.5196 21.7418 12.2672C21.8933 12.0653 22.0952 11.9643 22.3476 11.9138C22.4486 11.9138 22.5496 11.8633 22.6 11.7624C22.701 11.6614 22.7515 11.6614 22.8524 11.6109C23.0544 11.51 23.2563 11.409 23.4077 11.308C23.5592 11.1566 23.7106 11.0051 23.9125 10.8537C24.1145 10.7022 24.3669 10.5508 24.5688 10.3489C24.7707 10.2984 25.0231 10.147 25.2251 9.99551ZM9.12141 18.3755C9.17189 18.5269 9.22237 18.5269 9.32334 18.5269C9.57574 18.4764 9.87864 18.4259 10.0806 18.1735C10.1815 18.0221 10.333 17.9211 10.5349 17.9211C10.7873 17.9211 10.8883 17.7697 11.0397 17.6182C11.0902 17.5678 11.0902 17.5173 11.0902 17.5173C11.0902 17.4668 11.0902 17.4163 11.0902 17.4163C11.0397 17.4163 10.9892 17.3658 10.9892 17.3658C10.6864 17.5173 10.3835 17.6687 10.0806 17.8202C10.0301 17.8707 9.9796 17.8706 9.92912 17.8706C9.62623 18.0221 9.37382 18.1735 9.12141 18.3755ZM11.0902 19.4861C11.2416 19.6375 11.2416 19.6375 11.3426 19.6375C11.696 19.6375 12.0493 19.4861 12.3522 19.2841C12.4027 19.2337 12.4532 19.1832 12.5037 19.0822C12.5542 19.0317 12.5542 18.9812 12.5037 18.9308C12.4532 18.8803 12.4532 18.8803 12.4027 18.8298C12.2008 18.9308 11.9989 18.9812 11.7969 19.0822C11.5445 19.1832 11.3426 19.3346 11.0902 19.4861ZM26.0833 47.2005C26.2347 47.4529 26.2347 47.4529 26.4871 47.352C26.6386 47.3015 26.79 47.251 26.9414 47.15C27.0929 47.0491 27.2948 46.9481 27.4463 46.8471C27.5472 46.7967 27.5977 46.6957 27.5472 46.6452C27.4968 46.5947 27.3958 46.5443 27.2948 46.5947C27.2443 46.5947 27.2443 46.6452 27.1939 46.6452C27.0929 46.6957 26.9919 46.7462 26.8405 46.8471C26.689 46.9481 26.5376 47.0491 26.3357 46.9986C26.2347 47.0491 26.1338 47.0996 26.0833 47.2005ZM11.595 17.1134C11.6455 17.1639 11.696 17.1639 11.7465 17.2144C11.9484 17.2649 12.0998 17.2144 12.2513 17.1134C12.3018 17.0629 12.4027 17.0125 12.4532 17.0125C12.6047 17.0125 12.7056 16.9115 12.8066 16.861L12.8571 16.8105C12.8571 16.7601 12.8571 16.6591 12.8571 16.6086C12.8066 16.6086 12.7056 16.6086 12.7056 16.6086C12.5037 16.7096 12.3522 16.7601 12.1503 16.861C12.0494 16.9115 11.8979 16.962 11.7969 17.0629C11.696 17.0125 11.6455 17.0629 11.595 17.1134ZM10.232 45.6861C10.333 45.787 10.4339 45.888 10.5349 45.9385C10.7368 45.888 10.7873 45.7366 10.8378 45.5851C10.8378 45.4841 10.8378 45.3832 10.7368 45.3327C10.6359 45.2822 10.5349 45.2317 10.4339 45.2822C10.333 45.3832 10.2825 45.5346 10.232 45.6861ZM12.0493 42.1524C11.8474 42.2533 11.696 42.2533 11.595 42.4048C11.4941 42.5057 11.3931 42.6067 11.2921 42.6067C11.0397 42.6067 10.8378 42.7581 10.6863 42.9096C10.6863 42.9096 10.6863 42.9601 10.6359 43.0105C10.6863 43.0105 10.7368 43.0105 10.7368 43.0105C10.9388 42.9096 11.0902 42.8591 11.2417 42.7581C11.3426 42.7077 11.4436 42.6067 11.5445 42.6067C11.696 42.5562 11.7969 42.4552 11.9484 42.3543C11.9989 42.3038 11.9989 42.2533 12.0493 42.1524ZM26.7395 8.12768C26.5376 8.0772 26.3862 8.0772 26.2347 8.17816C26.1337 8.27913 26.0833 8.38009 26.0833 8.53153C26.1338 8.53153 26.2347 8.53154 26.2852 8.48105C26.4366 8.43057 26.5376 8.32961 26.7395 8.12768ZM41.6821 4.84637C41.5307 4.79589 41.3792 4.84637 41.2783 4.94733C41.2278 4.94733 41.2783 5.0483 41.2783 5.09878C41.2783 5.14926 41.3287 5.19974 41.3792 5.14926C41.5307 5.14926 41.6316 5.0483 41.6821 4.84637ZM42.7422 5.09878C42.7422 5.0483 42.6413 4.99782 42.5908 4.99782C42.5403 5.0483 42.4898 5.09878 42.4393 5.14926C42.3889 5.19974 42.4393 5.30071 42.4898 5.30071C42.6413 5.35119 42.7422 5.25022 42.7422 5.09878ZM14.0686 15.8009C13.9172 15.7504 13.8162 15.8514 13.6648 15.9019C13.6143 15.9019 13.5133 15.9523 13.5133 16.0028C13.5638 16.1038 13.6143 16.0028 13.6648 16.0028C13.9172 16.0028 14.0181 15.9019 14.0686 15.8009ZM46.1245 17.8202C46.0235 17.8707 45.9731 17.8707 45.9226 17.9211V18.0221C45.9226 18.0221 45.9731 18.0726 46.0235 18.0726C46.1245 18.0726 46.1245 17.9716 46.1245 17.8202ZM58.1392 22.9693C58.1896 23.0198 58.2401 23.0703 58.2906 23.0703C58.3411 23.0703 58.3916 23.0703 58.3916 23.0198C58.3916 22.9693 58.3916 22.9188 58.3916 22.9188C58.3916 22.9188 58.3411 22.8683 58.2906 22.8683C58.2401 22.9188 58.1896 22.9188 58.1392 22.9693ZM11.595 16.7096C11.4941 16.7096 11.3931 16.7096 11.2921 16.861C11.494 16.8105 11.4941 16.8105 11.595 16.7096ZM13.4124 16.3562C13.3114 16.2552 13.2104 16.3057 13.1599 16.3562C13.1599 16.3562 13.1599 16.4067 13.1599 16.4572C13.1599 16.4572 13.2104 16.5076 13.2609 16.5076C13.3114 16.4572 13.3619 16.4067 13.4124 16.3562ZM19.0663 12.4691C19.0663 12.4186 19.0663 12.4186 19.0158 12.4186H18.9653V12.4691C19.0158 12.4691 19.0158 12.4691 19.0663 12.4691ZM27.0424 48.7655L26.9919 48.8159C26.9919 48.8159 26.9919 48.8159 27.0424 48.8159C27.0424 48.8159 27.0424 48.8159 27.0424 48.7655C27.0929 48.8159 27.0424 48.7655 27.0424 48.7655ZM45.9226 2.42325C45.9226 2.42325 45.8721 2.42325 45.8721 2.47373V2.52421H45.9226C45.9731 2.47373 45.9731 2.47373 45.9226 2.42325ZM42.2879 5.25022C42.2879 5.30071 42.2879 5.30071 42.2879 5.25022C42.2374 5.30071 42.2374 5.30071 42.2374 5.30071H42.2879C42.3384 5.30071 42.3384 5.30071 42.2879 5.25022ZM11.0902 34.4286H11.0397C11.0397 34.4286 11.0397 34.4286 10.9892 34.4286C11.0397 34.4286 11.0397 34.4791 11.0902 34.4286C11.0902 34.4791 11.0902 34.4286 11.0902 34.4286Z" fill="#103055"/>
<path d="M2.60941 21.4043C2.40748 21.5557 2.25603 21.7072 2.00362 21.7072C1.90266 21.7072 1.85218 21.8082 1.75121 21.8586C1.4988 22.0101 1.24639 22.1615 0.943503 22.313C0.842539 22.3634 0.79207 22.4644 0.640625 22.4139V22.3635C0.943515 22.111 1.2464 21.9091 1.54929 21.6062C1.65025 21.6062 1.8017 21.6567 1.90267 21.5557C2.15508 21.4548 2.40748 21.4043 2.60941 21.4043Z" fill="#103055"/>
<path d="M46.2764 0.202026C46.3268 0.202026 46.3773 0.202026 46.3773 0.202026C46.5288 0.353471 46.4278 0.60588 46.5793 0.757325C46.4783 0.959252 46.4783 1.16118 46.3269 1.31262C46.2764 1.26214 46.2764 1.26214 46.2764 1.21166C46.3773 0.90877 46.3268 0.60588 46.2764 0.202026Z" fill="#103055"/>
<path d="M44.0049 0.908813C44.2573 0.908813 44.4592 0.959294 44.6107 0.959294C44.7116 1.06026 44.7116 1.11074 44.6107 1.2117C44.4592 1.2117 44.3078 1.2117 44.1563 1.2117C44.1058 1.16122 44.0554 1.06026 44.0049 0.908813Z" fill="#103055"/>
<path d="M50.4661 11.5099C50.4661 11.7118 50.4661 11.8633 50.3651 12.0147C50.2641 11.9137 50.1632 11.8128 50.0117 11.7623C50.1127 11.5099 50.2641 11.6109 50.4661 11.5099Z" fill="#103055"/>
<path d="M8.56633 45.8873C8.56633 45.8873 8.56633 45.8369 8.516 45.8369C8.516 45.7866 8.46567 45.6859 8.56633 45.6356C8.61666 45.6356 8.66699 45.6356 8.66699 45.6356C8.76765 45.6859 8.76765 45.7363 8.71732 45.8369C8.71732 45.9376 8.61666 45.9376 8.56633 45.8873Z" fill="#103055"/>
<path d="M43.2475 1.36316C43.3485 1.41364 43.3989 1.46412 43.4999 1.56509C43.3485 1.56509 43.2475 1.56509 43.1465 1.56509C43.0961 1.41364 43.2475 1.46412 43.2475 1.36316Z" fill="#103055"/>
<path d="M9.47439 46.948C9.52471 47.0487 9.5247 47.099 9.5247 47.1493C9.47437 47.1996 9.42405 47.25 9.37372 47.1996C9.27307 47.099 9.37373 47.0487 9.47439 46.948Z" fill="#103055"/>
<path d="M17.6528 13.1253C17.7538 13.0243 17.8548 12.9738 17.9557 12.9233L18.0062 12.9738C18.0062 13.0243 17.9557 13.0748 17.9557 13.1757C17.8548 13.1253 17.7538 13.1253 17.6528 13.1253Z" fill="#103055"/>
<path d="M27.9504 6.8656C27.9001 7.01659 27.7994 7.01659 27.6484 7.11724C27.6988 6.96626 27.7994 6.91593 27.9504 6.8656Z" fill="#103055"/>
<path d="M18.4601 12.7211C18.4098 12.7714 18.3092 12.7714 18.2085 12.7714C18.3092 12.7211 18.3595 12.6707 18.4098 12.5701C18.4098 12.6707 18.4601 12.7211 18.4601 12.7211Z" fill="#103055"/>
<path d="M50.8193 16.0532C50.92 16.0532 50.9703 16.1036 50.9703 16.2042C50.9703 16.2042 50.9703 16.2545 50.92 16.2545C50.8697 16.2545 50.8697 16.2545 50.8697 16.2042C50.8697 16.1539 50.8193 16.1036 50.8193 16.0532Z" fill="#103055"/>
<path d="M17.6524 52.5513C17.6021 52.6017 17.6021 52.652 17.5015 52.6016V52.5513C17.5518 52.4507 17.6021 52.4507 17.6524 52.5513Z" fill="#103055"/>
<path d="M50.1124 12.1663C50.1124 12.2669 50.1124 12.3676 50.0117 12.4179C49.9614 12.3172 50.1124 12.2669 50.1124 12.1663C50.1124 12.2166 50.1124 12.2166 50.1124 12.1663Z" fill="#103055"/>
<path d="M54.7568 19.8892C54.7568 19.8388 54.7568 19.7382 54.8072 19.6879C54.8575 19.7885 54.8072 19.8388 54.7568 19.8892Z" fill="#103055"/>
<path d="M7.15283 44.6763C7.20316 44.6763 7.20315 44.6763 7.25348 44.6763V44.7266H7.20316C7.20316 44.7266 7.20316 44.7266 7.15283 44.6763Z" fill="#103055"/>
<path d="M50.0621 11.1565C50.0621 11.1565 50.1124 11.1565 50.0621 11.1565C50.1124 11.2068 50.1124 11.2572 50.1124 11.2572C50.0621 11.3075 50.0117 11.2571 50.0117 11.2068C50.0117 11.2068 50.0621 11.1565 50.0621 11.1565Z" fill="#103055"/>
<path d="M5.63867 21.1515C5.63867 21.0508 5.68899 21.0005 5.73932 21.0005C5.73932 21.0508 5.63867 21.1011 5.63867 21.1515Z" fill="#103055"/>
<path d="M24.3673 8.83423C24.3673 8.88456 24.3673 8.98521 24.2666 8.98521C24.3169 8.93488 24.3673 8.88456 24.3673 8.83423Z" fill="#103055"/>
<path d="M5.73926 21.0003C5.78959 21.0003 5.83992 20.95 5.89025 20.95C5.83992 21.0003 5.78959 21.0003 5.73926 21.0003Z" fill="#103055"/>
<path d="M58.8965 22.4643V22.4139C58.8965 22.4139 58.8965 22.4139 58.9468 22.4139C58.8965 22.4139 58.8965 22.4643 58.8965 22.4643Z" fill="#103055"/>
<path d="M58.8956 22.4644C58.8453 22.4644 58.795 22.5147 58.7446 22.5147C58.795 22.5147 58.8453 22.4644 58.8956 22.4644Z" fill="#103055"/>
<path d="M10.9893 36.6498C10.9893 36.6498 10.939 36.6498 10.9893 36.6498C10.939 36.7001 10.939 36.7001 10.8887 36.7001C10.939 36.6498 10.939 36.6498 10.9893 36.6498Z" fill="#103055"/>
<path d="M31.2329 5.50248C31.2329 5.50248 31.2329 5.45215 31.2832 5.45215C31.2832 5.45215 31.2832 5.50248 31.3336 5.50248C31.2832 5.50248 31.2329 5.50248 31.2329 5.50248Z" fill="#103055"/>
<path d="M28.0015 6.81509C28.0518 6.81509 28.0518 6.76476 28.0015 6.81509C28.0518 6.76476 28.0518 6.76476 28.0518 6.81509C28.0518 6.76476 28.0518 6.81509 28.0015 6.81509Z" fill="#103055"/>
<path d="M49.8608 12.7713C49.8608 12.721 49.9112 12.6707 49.9112 12.6204C49.9112 12.6707 49.9112 12.721 49.8608 12.7713Z" fill="#103055"/>
<path d="M35.8267 4.59358C35.8267 4.54325 35.877 4.54325 35.877 4.49292C35.877 4.54325 35.877 4.54325 35.8267 4.59358Z" fill="#103055"/>
<path d="M28.9106 6.20926L28.961 6.15894L28.9106 6.20926Z" fill="#103055"/>
<path d="M28.0015 6.81506C27.9512 6.86539 27.9512 6.86539 27.9009 6.91572C27.9512 6.86539 28.0015 6.81506 28.0015 6.81506Z" fill="#103055"/>
<path d="M27.396 7.31974C27.4463 7.31974 27.4463 7.26941 27.4966 7.26941C27.4463 7.26941 27.396 7.26941 27.396 7.31974Z" fill="#103055"/>
<path d="M27.0933 7.52155C27.1436 7.47123 27.1436 7.47123 27.1939 7.4209C27.1436 7.47123 27.1436 7.47123 27.0933 7.52155Z" fill="#103055"/>
<path d="M25.831 8.22864V8.27897C25.7806 8.22864 25.831 8.22864 25.831 8.22864Z" fill="#103055"/>
<path d="M25.1748 8.32959L25.1245 8.37992L25.1748 8.32959Z" fill="#103055"/>
<path d="M21.7925 10.601C21.8428 10.601 21.8428 10.601 21.8931 10.601C21.8428 10.5507 21.8428 10.5507 21.7925 10.601Z" fill="#103055"/>
<path d="M48.4468 11.1564L48.3965 11.2067C48.3965 11.1564 48.3965 11.1564 48.3965 11.1061C48.3965 11.1564 48.4468 11.1564 48.4468 11.1564Z" fill="#103055"/>
<path d="M50.1125 12.2165C50.0621 12.1661 50.0621 12.1661 50.1125 12.2165C50.0621 12.1661 50.0621 12.1661 50.1125 12.2165Z" fill="#103055"/>
<path d="M18.612 12.5195C18.5616 12.5195 18.5616 12.5195 18.612 12.5195C18.5616 12.5699 18.5616 12.5699 18.612 12.5195C18.612 12.5699 18.5616 12.5699 18.612 12.5195Z" fill="#103055"/>
<path d="M54.7065 19.94C54.7568 19.8897 54.7568 19.8897 54.8071 19.8394C54.7568 19.8897 54.7065 19.94 54.7065 19.94C54.6561 19.94 54.7065 19.94 54.7065 19.94Z" fill="#103055"/>
<path d="M7.0518 34.9335L7.00146 34.9838C7.05179 34.9838 7.0518 34.9838 7.0518 34.9335Z" fill="#103055"/>
<path d="M7.001 35.0344L6.95068 35.0848C6.95068 35.0848 6.95067 35.0344 7.001 35.0344Z" fill="#103055"/>
<path d="M2.60986 38.8696C2.60986 38.8696 2.60986 38.8222 2.60986 38.8696C2.65729 38.8696 2.60986 38.8696 2.60986 38.8696Z" fill="#103055"/>
<path d="M2.50879 38.9213L2.55912 38.871C2.55912 38.871 2.55912 38.9213 2.50879 38.9213Z" fill="#103055"/>
<path d="M41.026 47.5034C40.9756 47.5537 40.9756 47.5537 40.9253 47.6041C40.9253 47.5537 40.9253 47.5537 40.9253 47.5034C40.9756 47.5034 40.9756 47.5034 41.026 47.5034Z" fill="#103055"/>
<path d="M35.7256 5.09855C35.7256 5.04822 35.7256 5.04822 35.7759 5.04822C35.7759 5.04822 35.7759 5.04822 35.7759 5.09855C35.7759 5.09855 35.7759 5.09855 35.7256 5.09855Z" fill="#103055"/>
<path d="M29.973 20.3896C30.942 20.3896 31.8706 19.9013 32.5878 19.0149C33.2427 18.2055 33.6183 17.1846 33.6183 16.213C33.6183 14.2557 32.0513 12.7798 29.973 12.7798C27.8946 12.7798 26.3276 14.2538 26.3276 16.213C26.3276 17.1846 26.7032 18.2055 27.3582 19.0149C28.0753 19.9019 29.004 20.3896 29.973 20.3896ZM29.973 13.8372C31.4726 13.8372 32.5608 14.8364 32.5608 16.213C32.5608 17.9434 31.1451 19.3322 29.973 19.3322C28.5393 19.3322 27.3851 17.6255 27.3851 16.213C27.3851 14.8389 28.4733 13.8372 29.973 13.8372Z" fill="white"/>
<path d="M25.659 25.4641L25.2879 30.7571C25.283 30.8264 25.2919 30.8959 25.3138 30.9618C25.3358 31.0277 25.3706 31.0885 25.4161 31.141C25.4617 31.1934 25.5171 31.2364 25.5792 31.2674C25.6413 31.2984 25.7089 31.3169 25.7782 31.3217H25.8154C25.9491 31.3216 26.0779 31.2708 26.1757 31.1796C26.2736 31.0884 26.3333 30.9636 26.3428 30.8302L26.7139 25.5416C26.7188 25.4724 26.71 25.4028 26.688 25.337C26.666 25.2711 26.6312 25.2102 26.5857 25.1578C26.5402 25.1054 26.4848 25.0624 26.4226 25.0314C26.3605 25.0004 26.2929 24.9819 26.2236 24.977C26.1544 24.9721 26.0848 24.9809 26.0189 25.0029C25.9531 25.0249 25.8922 25.0597 25.8398 25.1052C25.7873 25.1507 25.7444 25.2062 25.7134 25.2683C25.6824 25.3304 25.6639 25.398 25.659 25.4673V25.4641Z" fill="white"/>
<path d="M37.1438 31.3212C37.2873 31.3084 37.4198 31.2394 37.5125 31.1291C37.6051 31.0188 37.6502 30.8763 37.6379 30.7328C37.6379 30.7328 37.0791 26.7254 36.9971 25.3808C36.8452 22.9666 35.3705 21.0299 33.0665 20.6774C32.2565 20.5531 30.785 20.4595 30.0159 20.4589C28.9661 20.4771 27.9179 20.5496 26.8756 20.6761C25.795 20.8241 24.8053 21.3606 24.0916 22.1854C23.3418 23.0512 23.0066 24.158 22.938 25.3834C22.8611 26.7292 22.3516 30.7386 22.3516 30.7386C22.3431 30.8081 22.3484 30.8786 22.3673 30.9461C22.3862 31.0135 22.4183 31.0765 22.4617 31.1314C22.5052 31.1864 22.5591 31.2321 22.6204 31.266C22.6817 31.2999 22.7491 31.3213 22.8187 31.329C22.8883 31.3366 22.9588 31.3303 23.0259 31.3105C23.0931 31.2907 23.1557 31.2578 23.21 31.2136C23.2643 31.1694 23.3094 31.1148 23.3424 31.0531C23.3755 30.9914 23.396 30.9237 23.4027 30.854C23.4027 30.854 23.9199 26.801 23.9936 25.4417C24.0987 23.5152 25.2388 21.9669 27.0198 21.7246C28.0139 21.6039 29.0135 21.5346 30.0147 21.517C30.7312 21.517 32.1533 21.608 32.9057 21.7233C33.7329 21.8485 34.4893 22.2621 35.0411 22.891C35.6281 23.5652 35.8826 24.4708 35.9383 25.4449C36.0197 26.8061 36.5875 30.8597 36.5875 30.8597C36.6081 30.9912 36.676 31.1107 36.7784 31.1956C36.8808 31.2806 37.0108 31.3252 37.1438 31.3212Z" fill="white"/>
<path d="M33.7068 24.9738C33.6372 24.9786 33.5692 24.9971 33.5068 25.0283C33.4444 25.0595 33.3887 25.1027 33.3431 25.1555C33.2975 25.2083 33.2627 25.2696 33.2409 25.3359C33.2191 25.4021 33.2106 25.4721 33.2159 25.5416L33.5876 30.834C33.5969 30.9675 33.6563 31.0925 33.7541 31.1838C33.8519 31.2752 33.9806 31.3261 34.1144 31.3262H34.1522C34.292 31.3162 34.4222 31.2511 34.5141 31.1453C34.606 31.0394 34.6522 30.9015 34.6425 30.7616L34.2708 25.4686C34.2663 25.399 34.2482 25.3311 34.2174 25.2685C34.1866 25.206 34.1438 25.1502 34.0914 25.1042C34.039 25.0583 33.9781 25.0231 33.9121 25.0007C33.8461 24.9784 33.7763 24.9692 33.7068 24.9738Z" fill="white"/>
<path d="M33.3465 36.1085L35.8895 33.6295C35.9601 33.5607 36.0101 33.4734 36.0337 33.3777C36.0573 33.2819 36.0537 33.1815 36.0232 33.0877C35.9928 32.9939 35.9367 32.9105 35.8613 32.8469C35.7859 32.7833 35.6942 32.742 35.5966 32.7278L32.0827 32.2151L30.5113 29.0331C30.4676 28.9446 30.4001 28.8701 30.3163 28.8179C30.2324 28.7658 30.1357 28.7382 30.037 28.7382C29.9383 28.7382 29.8416 28.7658 29.7578 28.8179C29.6739 28.8701 29.6064 28.9446 29.5628 29.0331L27.9913 32.217L24.4774 32.7297C24.3798 32.744 24.2881 32.7852 24.2127 32.8488C24.1373 32.9124 24.0812 32.9958 24.0508 33.0896C24.0203 33.1834 24.0167 33.2839 24.0403 33.3796C24.0639 33.4754 24.1139 33.5626 24.1845 33.6315L26.7275 36.1104L26.1276 39.6077C26.1107 39.7052 26.1214 39.8055 26.1586 39.8972C26.1958 39.9889 26.258 40.0683 26.3382 40.1264C26.4183 40.1845 26.5131 40.219 26.6119 40.2258C26.7106 40.2327 26.8093 40.2117 26.8967 40.1652L30.037 38.5131L33.1773 40.1652C33.2533 40.205 33.3377 40.2259 33.4234 40.2261C33.5004 40.226 33.5764 40.2091 33.6462 40.1766C33.716 40.1441 33.7779 40.0967 33.8275 40.0378C33.8771 39.979 33.9132 39.91 33.9335 39.8357C33.9537 39.7614 33.9574 39.6836 33.9445 39.6077L33.3465 36.1085ZM29.7909 37.4479C29.1769 37.7607 27.3504 38.7297 27.3504 38.7297L27.8164 36.0117C27.8308 35.9272 27.8246 35.8405 27.7981 35.759C27.7717 35.6775 27.7258 35.6037 27.6645 35.5439L25.6899 33.6212L28.4188 33.2245C28.5036 33.2121 28.5841 33.1794 28.6534 33.129C28.7227 33.0787 28.7788 33.0123 28.8168 32.9355L30.0344 30.4623L31.2521 32.9355C31.2901 33.0123 31.3462 33.0787 31.4155 33.129C31.4848 33.1794 31.5653 33.2121 31.6501 33.2245L34.379 33.6212L32.4044 35.5439C32.3431 35.6037 32.2972 35.6775 32.2708 35.759C32.2443 35.8405 32.238 35.9272 32.2525 36.0117L32.7184 38.7297C32.7184 38.7297 30.8919 37.7594 30.278 37.4479C30.2032 37.4075 30.1195 37.3864 30.0344 37.3864C29.9494 37.3864 29.8657 37.4075 29.7909 37.4479Z" fill="white"/>
<path d="M44.5612 34.3352L41.9919 33.9616L40.8428 31.6339C40.7993 31.5453 40.7318 31.4707 40.6481 31.4186C40.5643 31.3664 40.4676 31.3387 40.3689 31.3387C40.2702 31.3387 40.1735 31.3664 40.0897 31.4186C40.006 31.4707 39.9385 31.5453 39.895 31.6339L38.7459 33.9616L36.1766 34.3352C36.079 34.3494 35.9873 34.3907 35.9119 34.4543C35.8365 34.5179 35.7804 34.6013 35.75 34.6951C35.7195 34.7889 35.7159 34.8893 35.7395 34.9851C35.7631 35.0808 35.8131 35.1681 35.8837 35.2369L37.7423 37.0493L37.3032 39.6077C37.2863 39.7052 37.297 39.8056 37.3342 39.8973C37.3714 39.989 37.4337 40.0684 37.5138 40.1265C37.5939 40.1846 37.6888 40.219 37.7875 40.2259C37.8862 40.2327 37.9849 40.2117 38.0723 40.1653L40.3699 38.9572L42.6681 40.1653C42.744 40.2051 42.8284 40.2259 42.9142 40.2262C42.9912 40.2261 43.0672 40.2092 43.137 40.1766C43.2068 40.1441 43.2686 40.0968 43.3182 40.0379C43.3678 39.979 43.404 39.91 43.4242 39.8357C43.4444 39.7614 43.4482 39.6836 43.4352 39.6077L42.9962 37.0493L44.8547 35.2369C44.9254 35.1681 44.9753 35.0808 44.9989 34.9851C45.0226 34.8893 45.0189 34.7889 44.9885 34.6951C44.958 34.6013 44.9019 34.5179 44.8265 34.4543C44.7511 34.3907 44.6595 34.3494 44.5619 34.3352H44.5612ZM40.1231 37.8921C39.72 38.0946 38.5267 38.731 38.5267 38.731L38.8317 36.9538C38.8462 36.8694 38.84 36.7827 38.8135 36.7012C38.7871 36.6197 38.7412 36.5458 38.6799 36.486L37.3885 35.2273L39.1727 34.971C39.2576 34.9587 39.3382 34.9259 39.4076 34.8754C39.4769 34.8249 39.5329 34.7583 39.5707 34.6813L40.3686 33.065L41.1665 34.6813C41.2045 34.7582 41.2606 34.8248 41.3301 34.8753C41.3995 34.9257 41.4802 34.9586 41.5651 34.971L43.3487 35.2273L42.0579 36.486C41.9965 36.5458 41.9506 36.6196 41.9241 36.7011C41.8977 36.7826 41.8915 36.8694 41.9061 36.9538L42.2137 38.731C42.2137 38.731 41.021 38.0946 40.6179 37.8921C40.5419 37.8511 40.4569 37.8297 40.3705 37.8297C40.2842 37.8297 40.1992 37.8511 40.1231 37.8921Z" fill="white"/>
<path d="M23.8972 34.3352L21.3279 33.9616L20.1788 31.6339C20.1352 31.5453 20.0678 31.4707 19.984 31.4186C19.9002 31.3664 19.8035 31.3387 19.7048 31.3387C19.6062 31.3387 19.5094 31.3664 19.4257 31.4186C19.3419 31.4707 19.2744 31.5453 19.2309 31.6339L18.0818 33.9616L15.5125 34.3352C15.4149 34.3494 15.3233 34.3907 15.2479 34.4543C15.1725 34.5179 15.1164 34.6013 15.0859 34.6951C15.0555 34.7889 15.0518 34.8893 15.0755 34.9851C15.0991 35.0808 15.149 35.1681 15.2196 35.2369L17.0782 37.0493L16.6424 39.6077C16.6254 39.7052 16.6361 39.8056 16.6734 39.8973C16.7106 39.989 16.7728 40.0684 16.8529 40.1265C16.9331 40.1846 17.0279 40.219 17.1266 40.2259C17.2254 40.2327 17.3241 40.2117 17.4114 40.1653L19.7096 38.9572L22.0072 40.1653C22.0832 40.2051 22.1676 40.2259 22.2533 40.2262C22.3303 40.2261 22.4063 40.2092 22.4761 40.1766C22.5459 40.1441 22.6078 40.0968 22.6574 40.0379C22.707 39.979 22.7431 39.91 22.7633 39.8357C22.7835 39.7614 22.7873 39.6836 22.7743 39.6077L22.3353 37.0493L24.1939 35.2369C24.2645 35.1681 24.3144 35.0808 24.3381 34.9851C24.3617 34.8893 24.3581 34.7889 24.3276 34.6951C24.2971 34.6013 24.241 34.5179 24.1657 34.4543C24.0903 34.3907 23.9986 34.3494 23.901 34.3352H23.8972ZM19.4623 37.8921L17.8633 38.731L18.1677 36.9538C18.1823 36.8694 18.1761 36.7826 18.1496 36.7011C18.1232 36.6196 18.0772 36.5458 18.0158 36.486L16.7251 35.2273L18.5086 34.971C18.5936 34.9586 18.6742 34.9257 18.7437 34.8753C18.8131 34.8248 18.8692 34.7582 18.9073 34.6813L19.7052 33.065L20.5031 34.6813C20.5408 34.7583 20.5968 34.8249 20.6662 34.8754C20.7355 34.9259 20.8162 34.9587 20.901 34.971L22.6853 35.2273L21.3939 36.486C21.3325 36.5458 21.2867 36.6197 21.2602 36.7012C21.2338 36.7827 21.2275 36.8694 21.242 36.9538L21.5471 38.731L19.9506 37.8921C19.8771 37.8471 19.7926 37.8233 19.7064 37.8233C19.6203 37.8233 19.5358 37.8471 19.4623 37.8921Z" fill="white"/>
</svg>
