<svg width="100" height="112" viewBox="0 0 100 112" fill="none" xmlns="http://www.w3.org/2000/svg">
<path d="M0 46.8832V41.9436H24.5574V46.8832H15.4031V70.2805H9.15429V46.8832H0Z" fill="url(#paint0_linear_16_48)" fill-opacity="0.8"/>
<path d="M44.8224 50.0932C44.7056 48.9771 44.2044 48.11 43.3186 47.492C42.4329 46.8739 41.2308 46.5649 39.7124 46.5649C38.6806 46.5649 37.8095 46.7033 37.099 46.98C36.3884 47.2475 35.8433 47.6211 35.4637 48.1008C35.0939 48.5804 34.9089 49.1247 34.9089 49.7335C34.8895 50.2408 35.0014 50.6836 35.2447 51.0618C35.4978 51.44 35.8433 51.7674 36.2813 52.0441C36.7193 52.3116 37.2255 52.5469 37.7998 52.7498C38.374 52.9435 38.9872 53.1095 39.6394 53.2479L42.3258 53.8567C43.6301 54.1334 44.8273 54.5024 45.9174 54.9636C47.0076 55.4248 47.9517 55.9921 48.7499 56.6655C49.548 57.3389 50.1661 58.1322 50.6041 59.0454C51.0518 59.9586 51.2806 61.0055 51.2903 62.1862C51.2806 63.9204 50.8134 65.4239 49.8887 66.6969C48.9737 67.9606 47.65 68.943 45.9174 69.644C44.1946 70.3359 42.1165 70.6818 39.6832 70.6818C37.2693 70.6818 35.1669 70.3313 33.3759 69.6302C31.5947 68.9292 30.2028 67.8914 29.2003 66.517C28.2075 65.1334 27.6867 63.4223 27.6381 61.3837H33.7555C33.8237 62.3338 34.1108 63.1271 34.6169 63.7636C35.1328 64.3908 35.819 64.8659 36.6755 65.1887C37.5418 65.5023 38.52 65.6592 39.6102 65.6592C40.6809 65.6592 41.6104 65.5116 42.3988 65.2164C43.1969 64.9212 43.815 64.5107 44.253 63.985C44.691 63.4592 44.91 62.855 44.91 62.1724C44.91 61.5359 44.7105 61.0009 44.3114 60.5674C43.9221 60.1338 43.3478 59.7649 42.5886 59.4605C41.8391 59.1561 40.9193 58.8793 39.8292 58.6303L36.5733 57.8554C34.0524 57.2743 32.0619 56.3657 30.6019 55.1297C29.1419 53.8936 28.4167 52.2286 28.4265 50.1347C28.4167 48.419 28.8985 46.9201 29.8719 45.6379C30.855 44.3557 32.203 43.3549 33.9161 42.6354C35.6292 41.9159 37.5759 41.5562 39.7562 41.5562C41.9754 41.5562 43.9124 41.9159 45.567 42.6354C47.2314 43.3549 48.526 44.3557 49.4507 45.6379C50.3753 46.9201 50.8523 48.4052 50.8815 50.0932H44.8224Z" fill="url(#paint1_linear_16_48)" fill-opacity="0.8"/>
<path d="M71.3801 41.9436V70.2805H65.0582V41.9436H71.3801Z" fill="url(#paint2_linear_16_48)" fill-opacity="0.8"/>
<path d="M75.4426 46.8832V41.9436H100V46.8832H90.8457V70.2805H84.5969V46.8832H75.4426Z" fill="url(#paint3_linear_16_48)" fill-opacity="0.8"/>
<path d="M82.228 40.3659L-5.3284e-06 40.3659L33.0891 5.81417L82.228 40.3659Z" fill="#5DBDF3"/>
<path d="M8.95602 71.6946L90.4383 71.6943L61.8097 107.175L8.95602 71.6946Z" fill="#86E839"/>
<defs>
<linearGradient id="paint0_linear_16_48" x1="50" y1="41.5562" x2="50" y2="70.6818" gradientUnits="userSpaceOnUse">
<stop stop-color="#5DBDF3" stop-opacity="0"/>
<stop offset="0.0001" stop-color="#5DBDF3"/>
<stop offset="1" stop-color="#60F35D"/>
</linearGradient>
<linearGradient id="paint1_linear_16_48" x1="50" y1="41.5562" x2="50" y2="70.6818" gradientUnits="userSpaceOnUse">
<stop stop-color="#5DBDF3" stop-opacity="0"/>
<stop offset="0.0001" stop-color="#5DBDF3"/>
<stop offset="1" stop-color="#60F35D"/>
</linearGradient>
<linearGradient id="paint2_linear_16_48" x1="50" y1="41.5562" x2="50" y2="70.6818" gradientUnits="userSpaceOnUse">
<stop stop-color="#5DBDF3" stop-opacity="0"/>
<stop offset="0.0001" stop-color="#5DBDF3"/>
<stop offset="1" stop-color="#60F35D"/>
</linearGradient>
<linearGradient id="paint3_linear_16_48" x1="50" y1="41.5562" x2="50" y2="70.6818" gradientUnits="userSpaceOnUse">
<stop stop-color="#5DBDF3" stop-opacity="0"/>
<stop offset="0.0001" stop-color="#5DBDF3"/>
<stop offset="1" stop-color="#60F35D"/>
</linearGradient>
</defs>
</svg>
