<svg width="35" height="35" viewBox="0 0 35 35" fill="none" xmlns="http://www.w3.org/2000/svg">
<g clip-path="url(#clip0_714_191)">
<path d="M29.709 21.8682C28.417 23.085 27.1729 23.0918 24.4521 23.1123C23.1875 23.1191 21.6973 23.1328 19.8105 23.2764C21.335 22.2373 22.5996 21.499 23.666 20.8701C26.0449 19.4687 27.4805 18.6279 28.1299 16.4814C28.3965 15.5928 28.5332 14.4785 28.5674 12.9404C30.3789 12.5303 32.4844 12.5918 35 13.1318C32.3545 18.2178 31.0146 20.6377 29.709 21.8682ZM27.3916 12.4346C27.4053 10.8281 27.3301 8.72949 27.2002 5.91992C24.9785 6.6377 23.2354 7.5332 21.916 8.64063C22.5244 9.94629 22.7773 11.2793 22.6748 12.708C22.4766 15.5312 20.9727 18.5117 18.8467 22.4971C20.5352 21.3281 21.916 20.5215 23.0713 19.8379C25.4229 18.457 26.4893 17.8281 27.002 16.1328C27.2686 15.2646 27.3779 14.1367 27.4053 12.4961C27.3916 12.4688 27.3916 12.4551 27.3916 12.4346ZM17.3359 4.82617C14.2324 7.57422 12.9883 9.93262 13.1797 12.6191C13.3711 15.3809 15.0186 18.4639 17.3018 22.7363C17.3154 22.7568 17.3223 22.7842 17.3359 22.8047C17.3496 22.7842 17.3564 22.7568 17.3701 22.7363C19.6465 18.4707 21.3008 15.3809 21.4922 12.6191C21.5879 11.2793 21.3213 10.0283 20.6582 8.75684C20.6582 8.75 20.6514 8.75 20.6514 8.74316C19.9746 7.47852 18.8809 6.20703 17.3359 4.82617ZM7.78613 5.92676C9.88477 6.61035 11.5459 7.4375 12.8311 8.45605C12.1543 9.81641 11.874 11.2109 11.9834 12.7148C12.1748 15.4561 13.5967 18.3408 15.627 22.1553C14.1641 21.1777 12.9541 20.46 11.915 19.8516C9.56348 18.4707 8.49707 17.835 7.98438 16.1465C7.72461 15.2783 7.6084 14.1436 7.58105 12.5098C7.58105 12.4893 7.58105 12.4756 7.58105 12.4482C7.58789 10.8213 7.66309 8.72266 7.78613 5.92676ZM0 13.1182C2.50879 12.585 4.62109 12.5166 6.43262 12.9268C6.4668 14.4648 6.60352 15.5723 6.87012 16.4678C7.5127 18.6074 8.95508 19.4551 11.334 20.8564C12.4004 21.4854 13.665 22.2305 15.1895 23.2627C13.3096 23.1191 11.8125 23.1123 10.5479 23.0986C7.82031 23.0781 6.58301 23.0713 5.29102 21.8545C3.97852 20.6377 2.63867 18.2178 0 13.1182ZM10.7051 28.2187C9.36523 28.3691 7.88184 28.5195 5.72852 30.1738C6.33691 28.1504 6.93164 26.8105 7.58105 25.9355C8.34668 24.9033 9.23535 24.4316 10.6504 24.2949C12.1406 24.3086 13.9521 24.3223 16.3516 24.5547C13.7471 27.8906 12.332 28.041 10.7051 28.2187ZM29.2646 30.1738C27.1113 28.5195 25.6279 28.3555 24.2881 28.2187C22.668 28.041 21.2529 27.8906 18.6553 24.5547C21.0479 24.3223 22.8662 24.3018 24.3564 24.2949C25.7715 24.4316 26.6602 24.9033 27.4258 25.9355C28.0615 26.8174 28.6494 28.1572 29.2646 30.1738Z" fill="#599AE6"/>
</g>
<defs>
<clipPath id="clip0_714_191">
<rect width="35" height="35" fill="white"/>
</clipPath>
</defs>
</svg>
